<?xml version="1.0" encoding="UTF-8" standalone="no"?>
<svg
   viewbox="0 0 117 116"
   xml:space="preserve"
   width="117"
   height="116"
   overflow="hidden"
   version="1.1"
   id="svg315"
   sodipodi:docname="black_panther_cute.svg"
   inkscape:version="1.2.2 (732a01da63, 2022-12-09)"
   xmlns:inkscape="http://www.inkscape.org/namespaces/inkscape"
   xmlns:sodipodi="http://sodipodi.sourceforge.net/DTD/sodipodi-0.dtd"
   xmlns="http://www.w3.org/2000/svg"
   xmlns:svg="http://www.w3.org/2000/svg"><sodipodi:namedview
     id="namedview317"
     pagecolor="#ffffff"
     bordercolor="#000000"
     borderopacity="0.25"
     inkscape:showpageshadow="2"
     inkscape:pageopacity="0.0"
     inkscape:pagecheckerboard="0"
     inkscape:deskcolor="#d1d1d1"
     showgrid="false"
     inkscape:zoom="6.9482759"
     inkscape:cx="58.503722"
     inkscape:cy="58"
     inkscape:window-width="1920"
     inkscape:window-height="1009"
     inkscape:window-x="-8"
     inkscape:window-y="-8"
     inkscape:window-maximized="1"
     inkscape:current-layer="svg315" /><defs
     id="defs307"><clipPath
       clipPathUnits="userSpaceOnUse"
       id="clipPath325"><g
         id="g329"><path
           d="M 0,0 H 117 V 116 H 0 Z"
           id="path327" /></g></clipPath><clipPath
       clipPathUnits="userSpaceOnUse"
       id="clipPath331"><g
         id="g335"><path
           d="M 0,0 H 117 V 116 H 0 Z"
           id="path333" /></g></clipPath></defs><path
     id="path309"
     clip-path="url(#clipPath331)"
     style="fill-rule:evenodd"
     d="M 13.679688 0 C 13.679688 0 3.6499286 14.010013 10.419922 27.5 C 3.9099284 36.659991 -1.1842367e-15 47.660324 0 59.570312 L 0 60.619141 L 14.720703 77.509766 C 15.370702 78.289765 16.150313 78.820078 17.070312 79.080078 L 32.310547 84.710938 C 33.870545 85.230937 35.039454 86.54047 35.689453 87.980469 L 40.25 99.240234 C 40.65 100.29023 40.78039 101.34086 40.650391 102.38086 L 39.080078 112.46094 C 45.340072 114.69094 51.850241 116 58.490234 116 C 65.530227 116 72.039069 115.08 78.039062 113.25 L 76.470703 102.50977 C 76.340703 101.46977 76.469375 100.28914 76.859375 99.369141 L 81.419922 88.109375 C 82.069921 86.539377 83.250548 85.359843 84.810547 84.839844 L 100.05078 79.210938 C 100.96078 78.820938 101.75039 78.290624 102.40039 77.640625 L 116.99023 60.75 L 116.99023 59.699219 C 117.25023 47.659231 113.47093 36.530225 106.96094 27.490234 C 113.73093 14.010248 103.69922 2.3684734e-15 103.69922 0 C 103.69922 0 94.449136 5.8906305 89.369141 11.390625 A 60.133 60.133 0 0 0 59.669922 3.140625 L 59.669922 35.480469 C 59.669922 36.000468 59.27914 36.529297 58.619141 36.529297 C 57.969141 36.529297 57.580078 36.140468 57.580078 35.480469 L 57.580078 3.140625 C 46.770089 3.2706249 36.609757 6.2906301 28.009766 11.390625 C 22.929771 5.8906305 13.679687 0 13.679688 0 z M 44.955078 9.0058594 C 45.079922 8.9907031 45.209844 8.9967969 45.339844 9.0292969 C 45.859843 9.1592967 46.120234 9.690938 45.990234 10.210938 L 42.339844 22.910156 L 46.900391 39.800781 L 54.460938 46.740234 C 54.720937 46.870234 54.849609 47.130625 54.849609 47.390625 L 54.849609 60.490234 C 54.849609 61.010234 54.460546 61.529297 53.810547 61.529297 C 53.280547 61.529297 52.759766 61.140234 52.759766 60.490234 L 52.759766 47.919922 L 45.210938 40.980469 C 45.080938 40.850469 44.949219 40.719844 44.949219 40.589844 L 40.519531 23.169922 A 0.395 0.395 0 0 1 40.519531 22.650391 L 44.160156 9.6894531 C 44.257656 9.2994535 44.580547 9.0513281 44.955078 9.0058594 z M 72.560547 9.1386719 C 72.936484 9.1799218 73.252109 9.4303129 73.349609 9.8203125 L 76.990234 22.779297 L 76.990234 23.310547 L 72.300781 40.720703 C 72.300781 40.850703 72.169062 41.109375 72.039062 41.109375 L 64.619141 47.919922 L 64.619141 60.490234 C 64.619141 61.010234 64.230077 61.539062 63.580078 61.539062 C 63.050079 61.539062 62.529297 61.140234 62.529297 60.490234 L 62.529297 47.529297 L 62.660156 47.529297 C 62.660156 47.259297 62.790782 46.99914 63.050781 46.869141 L 70.609375 39.929688 L 75.169922 23.039062 L 71.519531 10.339844 C 71.389531 9.8198443 71.649922 9.2999217 72.169922 9.1699219 C 72.302422 9.1349219 72.435235 9.1249219 72.560547 9.1386719 z M 35.707031 15.164062 C 35.830937 15.149844 35.959844 15.156953 36.089844 15.189453 C 36.609843 15.319453 36.870234 15.839376 36.740234 16.359375 L 34.789062 22.910156 L 42.210938 41.5 L 50.419922 49.099609 C 50.679922 49.229609 50.810547 49.49086 50.810547 49.880859 L 50.810547 57.349609 C 50.810547 57.609609 50.809687 57.739141 50.679688 57.869141 L 47.939453 61.929688 C 47.809453 62.189687 47.420156 62.320312 47.160156 62.320312 C 47.030156 62.320312 46.770625 62.319453 46.640625 62.189453 C 46.250625 61.929453 46.12086 61.270859 46.380859 60.880859 L 48.980469 56.949219 L 48.980469 50.279297 L 40.910156 42.939453 C 40.650157 42.809453 40.519531 42.680781 40.519531 42.550781 L 32.830078 23.439453 C 32.700078 23.169453 32.700078 23.039297 32.830078 22.779297 L 34.919922 15.839844 C 35.017422 15.449844 35.335313 15.206719 35.707031 15.164062 z M 81.804688 15.292969 C 82.179218 15.335625 82.502109 15.580704 82.599609 15.970703 L 84.679688 22.910156 L 84.679688 23.570312 L 76.990234 42.550781 C 76.990234 42.680781 76.860469 42.809453 76.730469 42.939453 L 68.660156 50.279297 L 68.660156 57.080078 L 71.259766 61.009766 C 71.519765 61.409765 71.39 62.060313 71 62.320312 C 70.87 62.450312 70.610469 62.449219 70.480469 62.449219 C 70.220469 62.449219 69.829219 62.320547 69.699219 62.060547 L 66.960938 58 C 66.830938 57.87 66.830078 57.610469 66.830078 57.480469 L 66.830078 50.009766 C 66.830078 49.749766 66.960703 49.490468 67.220703 49.230469 L 75.429688 41.630859 L 82.730469 23.039062 L 80.769531 16.5 C 80.639531 15.970001 80.899922 15.450312 81.419922 15.320312 C 81.549922 15.287813 81.679844 15.27875 81.804688 15.292969 z M 20.580078 56.300781 L 41.689453 64.019531 L 44.949219 68.609375 C 42.079222 73.83937 36.609369 77.25 30.359375 77.25 C 21.239384 77.25 13.679688 69.780225 13.679688 60.490234 C 13.679688 59.960235 13.680547 59.439921 13.810547 58.919922 L 20.580078 56.300781 z M 96.929688 56.300781 L 103.69922 58.919922 C 103.69922 59.439921 103.83008 59.960235 103.83008 60.490234 C 103.70008 69.780225 96.270382 77.25 87.150391 77.25 C 80.900397 77.25 75.430544 73.70937 72.560547 68.609375 L 75.820312 64.019531 L 96.929688 56.300781 z M 0 63 C 1.3299987 85.359978 17.650255 104.20001 38.490234 112 L 39.949219 102.25 C 40.079219 101.34 39.950781 100.5593 39.550781 99.779297 L 34.910156 88.599609 C 34.510157 87.439611 33.449999 86.399765 32.25 86.009766 L 16.720703 80.550781 C 15.660704 80.160782 14.60078 79.509608 13.800781 78.599609 L 0 63 z M 117 63 L 103.41016 78.539062 C 102.64016 79.449062 101.60031 80.100235 100.57031 80.490234 L 85.429688 86.109375 A 5.04 5.04 0 0 0 82.839844 88.720703 L 78.310547 99.949219 C 78.050547 100.72922 77.920781 101.63969 78.050781 102.42969 L 79.599609 113 C 101.98959 105.69001 115.83 86.239977 117 63 z M 52.240234 98.060547 L 65.269531 98.060547 C 65.529531 98.060547 65.789063 98.329844 65.789062 98.589844 C 65.789062 98.979843 65.659531 99.109375 65.269531 99.109375 L 52.240234 99.109375 C 51.980235 99.109375 51.720703 98.849843 51.720703 98.589844 C 51.720703 98.329844 51.980235 98.060547 52.240234 98.060547 z " /></svg>
