<svg viewBox="0 0 33 33" width="33" height="33" xmlns="http://www.w3.org/2000/svg" xmlns:xlink="http://www.w3.org/1999/xlink" xml:space="preserve" overflow="hidden"><defs><clipPath id="clip0"><rect x="884" y="357" width="33" height="33"/></clipPath></defs><g clip-path="url(#clip0)" transform="translate(-884 -357)"><path d="M204.561 96.9737C204.561 87.8611 211.906 80.4737 220.965 80.4737 230.023 80.4737 237.368 87.8611 237.368 96.9737 237.368 106.086 230.023 113.474 220.965 113.474 211.906 113.474 204.561 106.086 204.561 96.9737ZM206.289 96.9737C206.289 105.132 212.86 111.746 220.965 111.746 229.07 111.746 235.641 105.132 235.641 96.9737 235.641 88.8152 229.07 82.2013 220.965 82.2013 212.86 82.2013 206.289 88.8152 206.289 96.9737Z" fill-rule="evenodd" transform="matrix(1.00588 0 0 1 678.235 276.526)"/><text font-family="Calibri,Calibri_MSFontService,sans-serif" font-weight="400" font-size="24" transform="matrix(0.194118 0 0 0.192982 899.273 375)">X</text><path d="M216.237 87.5175 225.886 87.5175 221.061 97.1667 225.886 106.816 216.237 106.816 221.061 97.1667Z" fill-rule="evenodd" transform="matrix(1.00588 0 0 1 678.235 276.526)"/><path d="M212.906 85.459 229.217 85.459 223.364 97.1667 229.217 108.874 212.906 108.874 218.759 97.1667ZM219.527 97.1667 214.016 108.188 228.107 108.188 222.596 97.1667 228.107 86.1452 214.016 86.1452ZM215.127 86.8315 226.996 86.8315 221.829 97.1667 226.996 107.502 215.127 107.502 220.293 97.1667ZM221.829 97.1667 217.346 106.13 224.776 106.13 220.293 97.1667 224.776 88.2038 217.346 88.2038ZM218.458 88.8898 223.665 88.8898 219.527 97.1667 223.665 105.443 218.458 105.443 222.596 97.1667ZM223.364 97.1667 219.568 104.757 222.555 104.757 218.759 97.1667 222.555 89.5761 219.568 89.5761Z" transform="matrix(1.00588 0 0 1 678.235 276.526)"/></g></svg>