<svg xmlns="http://www.w3.org/2000/svg"  viewBox="0 0 80 80" width="80px" height="80px"><path d="M 16.957031 5 A 1.0001 1.0001 0 0 0 16.005859 6.1015625 L 17.419922 20.039062 C 17.283117 20.365921 17.02307 21.044513 16.738281 22.447266 C 16.363263 24.294454 16 27.193608 16 31.5 C 16 37.241109 17.419804 41.502312 17.466797 41.642578 C 17.435527 41.889907 17.24388 43.124477 17.626953 45.808594 C 18.04523 48.739375 19.106718 53.079103 21.65625 58.822266 C 26.929929 70.702114 35.242187 74.894531 35.242188 74.894531 A 1.0001 1.0001 0 0 0 35.6875 75 L 44.3125 75 A 1.0001 1.0001 0 0 0 44.759766 74.894531 C 44.759766 74.894531 53.070091 70.70207 58.34375 58.822266 C 60.893282 53.079103 61.95477 48.739375 62.373047 45.808594 C 62.75612 43.124477 62.564472 41.889907 62.533203 41.642578 C 62.580196 41.502312 64 37.241109 64 31.5 C 64 27.193647 63.636467 24.294407 63.261719 22.447266 C 62.977135 21.044548 62.718357 20.365932 62.582031 20.039062 L 63.994141 6.1015625 A 1.0001 1.0001 0 0 0 62.558594 5.1035156 L 54.294922 9.1757812 C 53.628889 8.9116935 47.239223 6.4179688 40 6.4179688 C 32.760777 6.4179688 26.371111 8.9116935 25.705078 9.1757812 L 17.441406 5.1035156 A 1.0001 1.0001 0 0 0 16.957031 5 z M 18.175781 7.6933594 L 23.296875 10.216797 C 22.618107 10.570217 22.201172 10.832031 22.201172 10.832031 A 1.0001 1.0001 0 0 0 21.75 11.667969 C 21.75 11.667969 21.760398 17.360264 22.642578 26.244141 L 19.414062 19.880859 L 18.175781 7.6933594 z M 61.824219 7.6933594 L 60.585938 19.880859 L 57.357422 26.244141 C 58.239602 17.360264 58.25 11.667969 58.25 11.667969 A 1.0001 1.0001 0 0 0 57.798828 10.832031 C 57.798828 10.832031 57.381893 10.570217 56.703125 10.216797 L 61.824219 7.6933594 z M 40 8.4179688 C 43.937808 8.4179688 47.762058 9.2603023 50.431641 10.015625 L 49.091797 26.849609 L 42.111328 35.103516 A 1.0001 1.0001 0 0 0 41.875 35.75 L 41.875 38.582031 A 1.0001 1.0001 0 0 0 41.875 38.583984 L 41.875 44.064453 C 41.298792 44.025992 40.683816 44 40 44 C 39.316896 44 38.702669 44.026068 38.126953 44.064453 L 38.126953 38.582031 A 1.0001 1.0001 0 0 0 38.125 38.548828 L 38.125 35.75 A 1.0001 1.0001 0 0 0 37.888672 35.103516 L 30.910156 26.849609 L 29.568359 10.015625 C 32.237942 9.2603023 36.062192 8.4179687 40 8.4179688 z M 40 9 L 39.199219 9.4023438 L 39.041016 10.283203 L 39.652344 10.9375 L 40 11 L 40.800781 10.597656 L 40.958984 9.7167969 L 40.347656 9.0625 L 40 9 z M 27.611328 10.609375 L 28.941406 27.330078 A 1.0001 1.0001 0 0 0 29.173828 27.896484 L 36.125 36.115234 L 36.125 36.894531 L 25.164062 30.894531 C 23.830047 19.999532 23.773775 13.08378 23.769531 12.271484 C 24.043446 12.101889 24.575315 11.741913 25.960938 11.193359 A 1.0001 1.0001 0 0 0 25.992188 11.179688 A 1.0001 1.0001 0 0 0 26 11.177734 C 26 11.177734 26.623059 10.936686 27.611328 10.609375 z M 52.388672 10.609375 C 53.376941 10.936686 54 11.177734 54 11.177734 A 1.0001 1.0001 0 0 0 54.007812 11.179688 A 1.0001 1.0001 0 0 0 54.019531 11.185547 C 55.422 11.739124 55.955073 12.100972 56.230469 12.271484 C 56.226186 13.083785 56.168027 19.999399 54.833984 30.894531 L 43.875 36.896484 L 43.875 36.115234 L 50.826172 27.896484 A 1.0001 1.0001 0 0 0 51.060547 27.330078 L 52.388672 10.609375 z M 40 13 L 39.199219 13.402344 L 39.041016 14.283203 L 39.652344 14.9375 L 40 15 L 40.800781 14.597656 L 40.958984 13.716797 L 40.347656 13.0625 L 40 13 z M 40 17 L 39.199219 17.402344 L 39.041016 18.283203 L 39.652344 18.9375 L 40 19 L 40.800781 18.597656 L 40.958984 17.716797 L 40.347656 17.0625 L 40 17 z M 40 21 L 39.199219 21.402344 L 39.041016 22.283203 L 39.652344 22.9375 L 40 23 L 40.800781 22.597656 L 40.958984 21.716797 L 40.347656 21.0625 L 40 21 z M 18.693359 22.878906 L 23.296875 31.953125 A 1.0001 1.0001 0 0 0 23.707031 32.376953 L 36.126953 39.175781 L 36.126953 44.291016 C 35.896689 44.329592 35.698799 44.376094 35.492188 44.419922 L 23.230469 37.705078 A 1.0001 1.0001 0 0 0 22.75 37.582031 L 18.550781 37.582031 C 18.258133 35.948745 18 33.869008 18 31.5 C 18 27.329985 18.351198 24.575692 18.693359 22.878906 z M 61.306641 22.882812 C 61.648369 24.579919 62 27.33264 62 31.5 C 62 33.870025 61.74007 35.950406 61.447266 37.583984 L 57.251953 37.583984 A 1.0001 1.0001 0 0 0 56.771484 37.707031 L 44.507812 44.419922 C 44.301935 44.37625 44.104361 44.331429 43.875 44.292969 L 43.875 39.175781 L 56.292969 32.376953 A 1.0001 1.0001 0 0 0 56.705078 31.953125 L 61.306641 22.882812 z M 20.320312 39.582031 L 22.494141 39.582031 L 32.921875 45.292969 C 32.801377 45.35933 32.670165 45.427942 32.578125 45.488281 C 32.285312 45.680245 32.074219 45.896484 32.074219 45.896484 A 1.0001 1.0001 0 0 0 31.941406 46.082031 L 24.71875 46.082031 L 20.320312 39.582031 z M 57.505859 39.583984 L 59.679688 39.583984 L 55.283203 46.083984 L 48.0625 46.083984 A 1.0001 1.0001 0 0 0 47.925781 45.896484 C 47.925781 45.896484 47.714688 45.680245 47.421875 45.488281 C 47.329835 45.427942 47.198623 45.35933 47.078125 45.292969 L 57.505859 39.583984 z M 19.400391 41.791016 L 23.359375 47.642578 A 1.0001 1.0001 0 0 0 24.1875 48.082031 L 32.226562 48.082031 L 34.732422 56.291016 A 1.0001 1.0001 0 0 0 35.123047 56.822266 L 35.041016 57.283203 L 35.652344 57.9375 L 36 58 L 36.800781 57.597656 L 36.958984 56.716797 L 36.697266 56.435547 C 37.143477 56.07499 38.182296 55.429688 40 55.429688 C 41.745314 55.429688 42.754353 56.019585 43.230469 56.386719 L 43.199219 56.402344 L 43.041016 57.283203 L 43.652344 57.9375 L 44 58 L 44.800781 57.597656 L 44.949219 56.769531 A 1.0001 1.0001 0 0 0 45.269531 56.291016 L 47.771484 48.083984 L 55.814453 48.083984 A 1.0001 1.0001 0 0 0 56.642578 47.644531 L 60.599609 41.794922 C 60.640493 42.247953 60.690383 43.438731 60.392578 45.525391 C 60.284101 46.28547 60.120253 47.166413 59.898438 48.146484 C 59.826443 48.28721 59.229787 49.447126 58.361328 50.671875 C 57.900211 51.322168 57.373704 51.959864 56.886719 52.394531 C 56.399733 52.829199 55.972754 53 55.8125 53 L 52.9375 53 A 1.0001 1.0001 0 0 0 52.042969 53.554688 L 47.730469 62.220703 A 1.0001 1.0001 0 0 0 47.923828 63.378906 L 51.255859 66.664062 C 48.524042 70.011362 46.016205 71.799249 44.802734 72.550781 L 44.347656 72.0625 L 44 72 L 43.199219 72.402344 L 43.091797 73 L 36.908203 73 L 36.958984 72.716797 L 36.347656 72.0625 L 36 72 L 35.199219 72.402344 L 35.175781 72.535156 C 33.953249 71.775352 31.459775 69.991029 28.744141 66.664062 L 32.076172 63.378906 A 1.0001 1.0001 0 0 0 32.269531 62.220703 L 27.957031 53.554688 A 1.0001 1.0001 0 0 0 27.0625 53 L 24.1875 53 C 24.027246 53 23.600267 52.829199 23.113281 52.394531 C 22.626296 51.959864 22.099789 51.322168 21.638672 50.671875 C 20.770213 49.447126 20.173557 48.28721 20.101562 48.146484 C 19.879747 47.166413 19.715899 46.28547 19.607422 45.525391 C 19.307999 43.427392 19.359404 42.238328 19.400391 41.791016 z M 40 46 C 42.277892 46 43.787718 46.256077 44.789062 46.537109 L 44.792969 46.544922 L 44.800781 46.541016 C 45.017992 46.602303 45.239892 46.663303 45.408203 46.724609 C 45.717586 46.837301 45.843495 46.921426 46.009766 47.011719 L 43.759766 54.390625 C 42.901497 53.909791 41.643521 53.429687 40 53.429688 C 38.358064 53.429688 37.100239 53.910177 36.242188 54.390625 L 33.990234 47.011719 C 34.156505 46.921429 34.282414 46.837301 34.591797 46.724609 C 34.760108 46.663303 34.982008 46.602303 35.199219 46.541016 L 35.207031 46.544922 L 35.210938 46.537109 C 36.212282 46.256077 37.722108 46 40 46 z M 21.830078 53.925781 C 22.487481 54.504658 23.239294 55 24.1875 55 L 26.443359 55 L 30.15625 62.462891 L 27.513672 65.068359 C 26.121854 63.143151 24.72878 60.814951 23.484375 58.011719 C 22.835474 56.549982 22.292467 55.192125 21.830078 53.925781 z M 58.169922 53.925781 C 57.707533 55.192125 57.164526 56.549982 56.515625 58.011719 C 55.270824 60.815846 53.878404 63.142797 52.486328 65.068359 L 49.84375 62.462891 L 53.556641 55 L 55.8125 55 C 56.760706 55 57.512519 54.504658 58.169922 53.925781 z M 36 60 L 35.199219 60.402344 L 35.041016 61.283203 L 35.652344 61.9375 L 36 62 L 36.800781 61.597656 L 36.958984 60.716797 L 36.347656 60.0625 L 36 60 z M 44 60 L 43.199219 60.402344 L 43.041016 61.283203 L 43.652344 61.9375 L 44 62 L 44.800781 61.597656 L 44.958984 60.716797 L 44.347656 60.0625 L 44 60 z M 36 64 L 35.199219 64.402344 L 35.041016 65.283203 L 35.652344 65.9375 L 36 66 L 36.800781 65.597656 L 36.958984 64.716797 L 36.347656 64.0625 L 36 64 z M 44 64 L 43.199219 64.402344 L 43.041016 65.283203 L 43.652344 65.9375 L 44 66 L 44.800781 65.597656 L 44.958984 64.716797 L 44.347656 64.0625 L 44 64 z M 36 68 L 35.199219 68.402344 L 35.041016 69.283203 L 35.652344 69.9375 L 36 70 L 36.800781 69.597656 L 36.958984 68.716797 L 36.347656 68.0625 L 36 68 z M 44 68 L 43.199219 68.402344 L 43.041016 69.283203 L 43.652344 69.9375 L 44 70 L 44.800781 69.597656 L 44.958984 68.716797 L 44.347656 68.0625 L 44 68 z"/></svg>