<svg viewbox="0 0 117 116" width="117" height="116" xmlns="http://www.w3.org/2000/svg" xmlns:xlink="http://www.w3.org/1999/xlink" xml:space="preserve" overflow="hidden"><defs><clipPath id="clip0"><rect x="3940" y="1226" width="117" height="116"/></clipPath></defs><g clip-path="url(#clip0)" transform="translate(-3940 -1226)"><path d="M3979.95 1328.25 3978.49 1338C3957.65 1330.2 3941.33 1311.36 3940 1289L3953.8 1304.6C3954.6 1305.51 3955.66 1306.16 3956.72 1306.55L3972.25 1312.01C3973.45 1312.4 3974.51 1313.44 3974.91 1314.6L3979.55 1325.78C3979.95 1326.56 3980.08 1327.34 3979.95 1328.25Z" fill-rule="evenodd"/><path d="M4057 1289C4055.83 1312.24 4041.99 1331.69 4019.6 1339L4018.05 1328.43C4017.92 1327.64 4018.05 1326.73 4018.31 1325.95L4022.84 1314.72C4023.36 1313.54 4024.26 1312.63 4025.43 1312.11L4040.57 1306.49C4041.6 1306.1 4042.64 1305.45 4043.41 1304.54Z" fill-rule="evenodd"/><path d="M4046.96 1253.49C4053.73 1240.01 4043.7 1226 4043.7 1226 4043.7 1226 4034.45 1231.89 4029.37 1237.39 4020.64 1232.28 4010.48 1229.27 3999.67 1229.14L3999.67 1229.4 3999.67 1261.48C3999.67 1262 3999.28 1262.53 3998.62 1262.53 3997.97 1262.53 3997.58 1262.14 3997.58 1261.48L3997.58 1229.4 3997.58 1229.14C3986.77 1229.27 3976.61 1232.29 3968.01 1237.39 3962.93 1231.89 3953.68 1226 3953.68 1226 3953.68 1226 3943.65 1240.01 3950.42 1253.5 3943.91 1262.66 3940 1273.66 3940 1285.57L3940 1286.62 3954.72 1303.51C3955.37 1304.29 3956.15 1304.82 3957.07 1305.08L3972.31 1310.71C3973.87 1311.23 3975.04 1312.54 3975.69 1313.98L3980.25 1325.24C3980.65 1326.29 3980.78 1327.34 3980.65 1328.38L3979.08 1338.46C3985.34 1340.69 3991.85 1342 3998.49 1342 4005.53 1342 4012.04 1341.08 4018.04 1339.25L4016.47 1328.51C4016.34 1327.47 4016.47 1326.29 4016.86 1325.37L4021.42 1314.11C4022.07 1312.54 4023.25 1311.36 4024.81 1310.84L4040.05 1305.21C4040.96 1304.82 4041.75 1304.29 4042.4 1303.64L4056.99 1286.75 4056.99 1285.7C4057.25 1273.66 4053.47 1262.53 4046.96 1253.49ZM4002.66 1273.53C4002.66 1273.26 4002.79 1273 4003.05 1272.87L4010.61 1265.93 4015.17 1249.04 4011.52 1236.34C4011.39 1235.82 4011.65 1235.3 4012.17 1235.17 4012.7 1235.03 4013.22 1235.3 4013.35 1235.82L4016.99 1248.78 4016.99 1249.31 4012.3 1266.72C4012.3 1266.85 4012.17 1267.11 4012.04 1267.11L4004.62 1273.92 4004.62 1286.49C4004.62 1287.01 4004.23 1287.54 4003.58 1287.54 4003.05 1287.54 4002.53 1287.14 4002.53 1286.49L4002.53 1273.53ZM3980.52 1248.65 3984.16 1235.69C3984.29 1235.17 3984.82 1234.9 3985.34 1235.03 3985.86 1235.16 3986.12 1235.69 3985.99 1236.21L3982.34 1248.91 3986.9 1265.8 3994.46 1272.74C3994.72 1272.87 3994.85 1273.13 3994.85 1273.39L3994.85 1286.49C3994.85 1287.01 3994.46 1287.53 3993.81 1287.53 3993.28 1287.53 3992.76 1287.14 3992.76 1286.49L3992.76 1273.92 3985.21 1266.98C3985.08 1266.85 3984.95 1266.72 3984.95 1266.59L3980.52 1249.17C3980.39 1249.04 3980.39 1248.78 3980.52 1248.65ZM3970.36 1303.25C3961.24 1303.25 3953.68 1295.78 3953.68 1286.49 3953.68 1285.96 3953.68 1285.44 3953.81 1284.92L3960.58 1282.3 3981.69 1290.02 3984.95 1294.61C3982.08 1299.84 3976.61 1303.25 3970.36 1303.25ZM3990.81 1283.35C3990.81 1283.61 3990.81 1283.74 3990.68 1283.87L3987.94 1287.93C3987.81 1288.19 3987.42 1288.32 3987.16 1288.32 3987.03 1288.32 3986.77 1288.32 3986.64 1288.19 3986.25 1287.93 3986.12 1287.27 3986.38 1286.88L3988.98 1282.95 3988.98 1276.28 3980.91 1268.94C3980.65 1268.81 3980.52 1268.68 3980.52 1268.55L3972.83 1249.44C3972.7 1249.17 3972.7 1249.04 3972.83 1248.78L3974.92 1241.84C3975.05 1241.32 3975.57 1241.06 3976.09 1241.19 3976.61 1241.32 3976.87 1241.84 3976.74 1242.36L3974.79 1248.91 3982.21 1267.5 3990.42 1275.1C3990.68 1275.23 3990.81 1275.49 3990.81 1275.88ZM4005.27 1325.11 3992.24 1325.11C3991.98 1325.11 3991.72 1324.85 3991.72 1324.59 3991.72 1324.33 3991.98 1324.06 3992.24 1324.06L4005.27 1324.06C4005.53 1324.06 4005.79 1324.33 4005.79 1324.59 4005.79 1324.98 4005.66 1325.11 4005.27 1325.11ZM4011 1288.32C4010.87 1288.45 4010.61 1288.45 4010.48 1288.45 4010.22 1288.45 4009.83 1288.32 4009.7 1288.06L4006.96 1284C4006.83 1283.87 4006.83 1283.61 4006.83 1283.48L4006.83 1276.01C4006.83 1275.75 4006.96 1275.49 4007.22 1275.23L4015.43 1267.63 4022.73 1249.04 4020.77 1242.5C4020.64 1241.97 4020.9 1241.45 4021.42 1241.32 4021.94 1241.19 4022.47 1241.45 4022.6 1241.97L4024.68 1248.91 4024.68 1249.57 4016.99 1268.55C4016.99 1268.68 4016.86 1268.81 4016.73 1268.94L4008.66 1276.28 4008.66 1283.08 4011.26 1287.01C4011.52 1287.41 4011.39 1288.06 4011 1288.32ZM4027.15 1303.25C4020.9 1303.25 4015.43 1299.71 4012.56 1294.61L4015.82 1290.02 4036.93 1282.3 4043.7 1284.92C4043.7 1285.44 4043.83 1285.96 4043.83 1286.49 4043.7 1295.78 4036.27 1303.25 4027.15 1303.25Z" fill-rule="evenodd"/></g></svg>