<svg width="504.01pt" height="496.16pt" version="1.1" viewBox="0 0 504.01 496.16" xmlns="http://www.w3.org/2000/svg">
 <path d="m170.25 437.36-6.1602 42c-87.922-33.602-156.8-114.8-162.4-211.12l58.238 67.199c3.3594 3.9219 7.8398 6.7188 12.32 8.3984l65.52 23.523c5.0391 1.6797 9.5195 6.1602 11.199 11.199l19.602 48.16c1.6797 3.3633 2.2383 6.7227 1.6797 10.641z"/>
 <path d="m504.01 267.68c-5.043 99.68-64.961 183.12-161.84 214.48l-6.7188-45.359c-0.55859-3.3594 0-7.2812 1.1211-10.641l19.602-48.16c2.2383-5.0391 6.1602-8.9609 11.199-11.199l65.52-24.078c4.4805-1.6797 8.9609-4.4805 12.32-8.3984z"/>
 <path d="m459.77 117.6c29.121-57.68-14-117.6-14-117.6s-39.762 25.199-61.602 48.719c-37.52-21.84-81.199-34.719-127.68-35.277v138.32c0 2.2383-1.6797 4.4805-4.4805 4.4805s-4.4805-1.6797-4.4805-4.4805v-138.32c-46.48 0.55859-90.16 13.441-127.12 35.281-21.84-23.52-61.602-48.719-61.602-48.719s-43.121 59.922-14 117.6c-28 39.199-44.801 86.238-44.801 137.2v4.4805l63.281 72.238c2.8008 3.3594 6.1602 5.6016 10.078 6.7188l65.52 24.078c6.7188 2.2383 11.762 7.8398 14.559 14l19.602 48.16c1.6797 4.4805 2.2383 8.9609 1.6797 13.441l-6.7188 43.121c26.879 9.5195 54.879 15.121 83.441 15.121 30.238 0 58.238-3.9219 84-11.762l-6.7188-45.922c-0.55859-4.4805 0-9.5195 1.6797-13.441l19.602-48.16c2.8008-6.7188 7.8398-11.762 14.559-14l65.52-24.078c3.9219-1.6797 7.2812-3.9219 10.078-6.7188l62.719-72.238v-4.4805c1.125-51.52-15.117-99.121-43.117-137.76zm-190.4 85.68c0-1.1211 0.55859-2.2383 1.6797-2.8008l32.48-29.68 19.602-72.238-15.68-54.32c-0.55859-2.2383 0.55859-4.4805 2.8008-5.0391 2.2383-0.55859 4.4805 0.55859 5.0391 2.8008l15.68 55.441v2.2383l-20.16 74.48c0 0.55859-0.55859 1.6797-1.1211 1.6797l-31.922 29.117v53.762c0 2.2383-1.6797 4.4805-4.4805 4.4805-2.2383 0-4.4805-1.6797-4.4805-4.4805v-55.441zm-95.199-106.4 15.68-55.441c0.55859-2.2383 2.8008-3.3594 5.0391-2.8008 2.2383 0.55859 3.3594 2.8008 2.8008 5.0391l-15.68 54.32 19.602 72.238 32.48 29.68c1.1211 0.55859 1.6797 1.6797 1.6797 2.8008v56c0 2.2383-1.6797 4.4805-4.4805 4.4805-2.2383 0-4.4805-1.6797-4.4805-4.4805l-4e-3 -53.754-32.48-29.68c-0.55859-0.55859-1.1211-1.1211-1.1211-1.6797l-19.035-74.48c-0.5625-0.5625-0.5625-1.6797 0-2.2422zm-43.68 233.52c-39.199 0-71.68-31.922-71.68-71.68 0-2.2383 0-4.4805 0.55859-6.7188l29.121-11.199 90.719 33.039 14 19.602c-12.32 22.398-35.84 36.957-62.719 36.957zm87.918-85.117c0 1.1211 0 1.6797-0.55859 2.2383l-11.762 17.359c-0.55859 1.1211-2.2383 1.6797-3.3594 1.6797-0.55859 0-1.6797 0-2.2383-0.55859-1.6797-1.1211-2.2383-3.9219-1.1211-5.6016l11.199-16.801v-28.559l-34.719-31.359c-1.1211-0.55859-1.6797-1.1211-1.6797-1.6797l-33.039-81.762c-0.55859-1.1211-0.55859-1.6797 0-2.8008l8.9609-29.68c0.55859-2.2383 2.8008-3.3594 5.0391-2.8008s3.3594 2.8008 2.8008 5.0391l-8.3984 28 31.922 79.52 35.281 32.48c1.1211 0.55859 1.6797 1.6797 1.6797 3.3594zm62.16 178.64h-56c-1.1211 0-2.2383-1.1211-2.2383-2.2383 0-1.1211 1.1211-2.2383 2.2383-2.2383l56-4e-3c1.1211 0 2.2383 1.1211 2.2383 2.2383 0 1.6797-0.55859 2.2422-2.2383 2.2422zm24.641-157.36c-0.55859 0.55859-1.6797 0.55859-2.2383 0.55859-1.1211 0-2.8008-0.55859-3.3594-1.6797l-11.762-17.359c-0.55859-0.55859-0.55859-1.6797-0.55859-2.2383v-31.922c0-1.1211 0.55859-2.2383 1.6797-3.3594l35.281-32.48 31.355-79.52-8.3984-28c-0.55859-2.2383 0.55859-4.4805 2.8008-5.0391 2.2383-0.55859 4.4805 0.55859 5.0391 2.8008l8.9609 29.68v2.8008l-33.043 81.199c0 0.55859-0.55859 1.1211-1.1211 1.6797l-34.719 31.359v29.121l11.199 16.801c1.1211 1.6797 0.5625 4.4805-1.1172 5.5977zm69.438 63.84c-26.879 0-50.398-15.121-62.719-36.961l14-19.602 90.719-33.039 29.121 11.199c0 2.2383 0.55859 4.4805 0.55859 6.7188-0.55859 39.766-32.477 71.684-71.68 71.684z"/>
</svg>
