<?xml version="1.0" encoding="UTF-8"?>
<svg overflow="hidden" version="1.1" viewBox="0 0 33 33" xml:space="preserve" xmlns="http://www.w3.org/2000/svg"><defs><clipPath id="a"><rect width="33" height="33"/></clipPath></defs><path d="m16.5 0c-9.1123 0-16.502 7.3874-16.502 16.5 0 9.1123 7.3897 16.5 16.502 16.5 9.1113 0 16.498-7.3877 16.498-16.5 0-9.1126-7.3868-16.5-16.498-16.5zm0 1.7266c8.1526 0 14.762 6.6149 14.762 14.773 0 8.1583-6.6091 14.771-14.762 14.771-8.1526 0-14.764-6.6132-14.764-14.771 0-8.1585 6.611-14.773 14.764-14.773zm-8.1074 3.2578 5.8887 11.709-5.8887 11.707h16.406l-5.8867-11.707 5.8867-11.709zm1.1172 0.6875h14.174l-5.1582 10.254-0.38477-0.76562 4.4258-8.8027h-11.939l4.4258 8.8008-0.38672 0.76758zm5.9277 10.254 0.38672 0.76758-0.38477 0.76758-0.38672-0.76758zm2.3164 0 0.38672 0.76758-0.38672 0.76758-0.38476-0.76758zm-3.0879 1.5352 0.38672 0.76562-4.4258 8.8008h11.939l-4.4258-8.8008 0.38477-0.76562 5.1582 10.254h-14.174z" clip-path="url(#a)" stroke-width="1.0029"/></svg>
