<svg
   width="85.823654mm"
   height="121.74252mm"
   viewBox="0 0 85.823654 121.74252"
   version="1.1"
   id="svg1"

   ><defs
     id="defs1" /><g
     
     
     id="layer1"
     transform="translate(-142.49346,-162.14431)"><path
       d="m 186.54637,283.86379 c -1.00584,-0.0402 -1.98927,-0.13095 -2.54083,-0.23448 -0.18085,-0.0339 -0.89378,-0.0854 -1.58429,-0.11437 -1.22291,-0.0513 -2.07939,-0.14647 -3.01056,-0.33454 -6.58562,-1.33013 -13.69389,-5.72212 -15.70484,-9.70356 -0.56816,-1.12488 -0.70874,-1.87432 -0.66861,-3.56436 0.0352,-1.48275 0.17374,-2.29268 0.68515,-4.00556 0.51911,-1.73867 1.59967,-4.22425 2.4941,-5.73712 0.27148,-0.45919 0.31892,-0.61504 0.21996,-0.72258 -0.17121,-0.18605 -4.07444,-7.50066 -6.77764,-12.70119 -0.23073,-0.4439 -0.58764,-1.12993 -0.79313,-1.52451 -0.41406,-0.79506 -1.15046,-2.21852 -1.48999,-2.88009 -0.12107,-0.23591 -0.25456,-0.45751 -0.29664,-0.49243 -0.0421,-0.0349 -0.39702,-0.22162 -0.78875,-0.41487 -2.35251,-1.16055 -3.8883,-2.30751 -5.45958,-4.07733 -1.11944,-1.26089 -3.23548,-3.81701 -3.54977,-4.28804 -0.38902,-0.58301 -0.94221,-1.64325 -1.25469,-2.40473 -0.97538,-2.3769 -1.73172,-5.94133 -1.92823,-9.08723 -0.031,-0.49639 -0.087,-0.77159 -0.26736,-1.31526 -0.7012,-2.11306 -0.99049,-3.51554 -1.23321,-5.97844 -0.13947,-1.41518 -0.13855,-5.01312 0.002,-6.75563 0.29132,-3.61898 0.74205,-6.47311 1.61917,-10.25303 0.59534,-2.56556 0.99497,-4.74468 1.2499,-6.81542 0.53003,-4.3053 0.52226,-7.41112 -0.0256,-10.22313 -0.3473,-1.78271 -1.65176,-9.91052 -2.12331,-13.22998 -0.4241,-2.9854 -0.40438,-3.93031 0.092,-4.40584 0.30004,-0.28746 0.86469,-0.21674 1.43719,0.18 0.1241,0.086 0.97484,0.50583 1.89052,0.93295 0.91569,0.42711 1.86666,0.87284 2.11327,0.9905 0.24661,0.11766 0.6367,0.30134 0.86687,0.40817 0.23017,0.10684 0.73737,0.34531 1.1271,0.52994 0.38973,0.18462 0.71617,0.33568 0.72541,0.33568 0.009,0 0.55127,0.25198 1.2045,0.55996 0.65322,0.30797 1.33565,0.62815 1.5165,0.7115 0.18084,0.0833 0.6382,0.29734 1.01633,0.47554 0.37814,0.17819 0.90947,0.42722 1.18074,0.55339 0.30376,0.14129 0.49322,0.26465 0.49322,0.32113 0,0.31497 -1.34537,1.06176 -2.92943,1.62605 -0.47678,0.16985 -1.03985,0.40225 -1.25128,0.51645 -1.39277,0.75233 -2.22214,1.94481 -2.48705,3.57591 -0.25777,1.58711 0.1286,7.2334 0.75176,10.986 0.43759,2.63514 1.04646,5.29995 1.66979,7.30802 0.0919,0.29593 0.24086,0.84744 0.33111,1.22558 0.585,2.45097 1.73024,4.28073 2.89596,4.62692 0.15769,0.0468 1.31913,0.58224 2.58098,1.1898 1.26184,0.60757 3.42418,1.64878 4.8052,2.31381 1.38102,0.66502 3.86954,1.86316 5.53006,2.66253 9.4502,4.5493 8.67764,4.16063 8.8889,4.47196 0.46244,0.68146 0.61049,1.62189 0.40756,2.58885 -0.0921,0.43908 -0.10127,0.69362 -0.0679,1.89359 0.0212,0.76248 0.0548,1.73606 0.0747,2.16352 0.05,1.07739 -0.0729,1.53201 -0.64124,2.3707 -0.31824,0.46963 -1.14763,1.3326 -1.39238,1.44874 -0.37662,0.17872 -0.51633,0.13497 -1.0914,-0.3417 -1.43034,-1.18563 -3.15492,-2.23919 -5.06009,-3.09125 -1.70629,-0.76312 -2.01279,-0.86198 -7.15633,-2.30825 -0.87136,-0.24501 -1.75916,-0.4963 -1.97289,-0.55843 -0.21373,-0.0621 -2.02586,-0.55947 -4.02697,-1.10522 -2.0011,-0.54575 -3.742,-1.04513 -3.86866,-1.10975 -0.12665,-0.0646 -0.33224,-0.11689 -0.45685,-0.11617 -0.23629,0.001 -0.64546,0.15858 -0.79645,0.306 -0.0483,0.0471 -0.41059,0.36468 -0.80517,0.70567 -3.73219,3.22533 -4.57308,3.97695 -4.66423,4.16902 -0.18869,0.39763 -0.10969,0.68862 0.65442,2.41061 0.81476,1.83613 1.28201,2.78281 1.88849,3.82621 1.7007,2.92592 3.71133,5.13078 5.80935,6.37053 0.77423,0.45751 1.31275,0.6658 2.46976,0.95526 1.56685,0.39199 2.91003,0.55752 4.81265,0.59309 2.56842,0.048 5.85297,-0.35718 7.55147,-0.93158 0.78976,-0.26708 1.43259,-0.22838 1.72466,0.10384 0.0546,0.0621 0.37353,0.65093 0.70878,1.30856 1.49317,2.92906 2.2324,4.36863 2.27178,4.42405 0.0234,0.0329 0.48937,0.93413 1.03555,2.00277 1.83232,3.58508 1.83517,3.59018 2.13003,3.81476 0.24525,0.18679 0.29382,0.20113 0.59784,0.17648 0.25319,-0.0205 0.4229,-0.0837 0.72253,-0.2687 1.43467,-0.88605 3.23206,-1.53411 5.00639,-1.80509 1.03404,-0.15792 2.88327,-0.13495 3.91646,0.0486 1.84116,0.32717 3.66507,0.99379 4.84697,1.77151 0.16852,0.11088 0.43139,0.23247 0.58417,0.27021 0.24164,0.0597 0.31249,0.0532 0.54454,-0.0494 0.35488,-0.15698 0.46895,-0.32274 1.14013,-1.65672 0.55744,-1.10792 1.55414,-3.04144 2.24971,-4.36426 0.19019,-0.36169 0.58326,-1.11498 0.8735,-1.67396 0.29023,-0.55898 0.69824,-1.33917 0.90668,-1.73375 0.20844,-0.39457 0.45923,-0.89228 0.55731,-1.10601 0.38507,-0.83914 0.57327,-1.15961 0.77853,-1.32572 0.29814,-0.24126 0.58343,-0.27703 0.89874,-0.11267 0.73445,0.38281 2.28378,0.71598 4.29791,0.92421 3.96032,0.40945 6.98169,0.18541 9.66058,-0.71636 0.72032,-0.24247 1.60666,-0.63878 2.07917,-0.92965 0.16874,-0.10388 0.45348,-0.26826 0.63277,-0.3653 0.68309,-0.36974 1.42481,-1.05817 2.21552,-2.05635 0.43135,-0.54452 1.35243,-1.92875 1.74483,-2.62218 0.14885,-0.26305 0.42677,-0.73385 0.61758,-1.04622 0.56741,-0.92886 1.91739,-3.64234 2.43895,-4.90232 0.1557,-0.37613 0.18596,-0.52858 0.1878,-0.94606 l 0.002,-0.49768 -0.21613,-0.18984 c -0.11887,-0.10442 -0.45516,-0.39447 -0.7473,-0.64457 -0.29215,-0.25009 -1.41445,-1.2259 -2.494,-2.16846 -1.07955,-0.94255 -2.06716,-1.76697 -2.19469,-1.83203 -0.3188,-0.16264 -0.95466,-0.15964 -1.44881,0.007 -0.20428,0.0688 -1.16522,0.33966 -2.13541,0.60188 -2.20211,0.59517 -2.12531,0.57453 -3.52763,0.94826 -0.64118,0.17088 -2.71271,0.7517 -4.60339,1.29071 -3.21027,0.91521 -3.55621,1.02712 -5.23114,1.69228 -1.57666,0.62614 -1.96702,0.80921 -3.22835,1.51407 -0.78916,0.441 -1.79802,1.05291 -2.24192,1.35981 -1.05401,0.7287 -1.26466,0.83768 -1.61919,0.83768 -0.53664,0 -0.87568,-0.20592 -1.35849,-0.82508 -0.47279,-0.60633 -0.71823,-1.00949 -0.81751,-1.34286 -0.0689,-0.23145 -0.0857,-0.96982 -0.0898,-3.94577 -0.003,-2.02927 0.0194,-3.75935 0.0497,-3.88161 0.03,-0.12132 0.11542,-0.31893 0.18972,-0.43915 0.13073,-0.21152 0.55275,-0.56586 0.67394,-0.56586 0.0911,0 0.59871,-0.23625 6.22986,-2.89941 2.5245,-1.19391 2.68463,-1.2696 4.90232,-2.31719 1.15085,-0.54364 2.38839,-1.12867 2.75008,-1.30007 0.3617,-0.1714 1.07463,-0.50754 1.58429,-0.74698 0.50966,-0.23945 1.23604,-0.58278 1.61418,-0.76296 2.47281,-1.17832 3.1807,-1.5063 3.5097,-1.62614 0.60081,-0.21884 1.20867,-0.61725 1.69154,-1.10866 0.53431,-0.54378 0.89928,-1.13731 1.1386,-1.85164 0.0966,-0.28841 0.28093,-0.7901 0.40956,-1.11485 0.85027,-2.14676 1.65371,-5.15505 2.21743,-8.30265 0.17633,-0.98455 0.54584,-4.26891 0.71633,-6.36704 0.17363,-2.13677 0.22966,-5.15042 0.12758,-6.86171 -0.0684,-1.14588 0.0454,-1.03376 -2.09856,-2.06846 -3.48882,-1.68373 -4.10613,-2.00284 -4.29869,-2.22216 -0.13967,-0.15907 -0.17972,-0.25088 -0.151,-0.34611 0.0562,-0.18651 0.0598,-0.18887 0.68328,-0.44883 0.51761,-0.21583 1.50271,-0.66541 2.88574,-1.317 0.28835,-0.13585 0.53384,-0.247 0.54555,-0.247 0.0117,0 0.34076,-0.15127 0.73121,-0.33615 0.39046,-0.18489 0.85789,-0.40156 1.03874,-0.48148 0.60263,-0.26633 1.51169,-0.70053 2.83976,-1.35637 0.72339,-0.35723 1.90712,-0.91753 2.63051,-1.24511 0.72339,-0.32759 1.44653,-0.67616 1.60698,-0.7746 0.48559,-0.29792 0.78233,-0.22261 0.94655,0.24023 0.12592,0.35489 0.0952,1.70265 -0.0594,2.60833 -0.073,0.42746 -0.33433,2.05509 -0.58078,3.61696 -0.24646,1.56187 -0.5559,3.45853 -0.68765,4.2148 -0.60621,3.47985 -0.70341,4.12169 -1.22676,8.10078 -0.08,0.60831 -0.22671,1.71133 -0.32602,2.45116 -0.24717,1.84156 -0.31554,3.01032 -0.24291,4.15287 0.0323,0.50824 0.0858,1.09329 0.11881,1.30009 0.0929,0.58155 1.3034,6.6347 1.46802,7.3409 0.58003,2.4883 0.79676,3.50866 1.13653,5.35071 0.21229,1.15085 0.42527,2.21991 0.4733,2.37569 0.16896,0.548 0.22558,1.49535 0.22428,3.75221 -9.5e-4,1.65256 -0.0253,2.43051 -0.0927,2.95933 -0.17801,1.3969 -0.46543,3.60957 -0.69504,5.3507 -0.28721,2.17783 -0.42093,3.3453 -0.68892,6.01475 -0.11518,1.14732 -0.23723,2.24745 -0.27122,2.44474 -0.40663,2.36019 -1.15333,4.61536 -2.3556,7.11434 -0.73044,1.51828 -1.6771,3.0124 -2.803,4.42405 -0.60031,0.75265 -2.3406,2.4925 -3.08874,3.08796 -1.22295,0.97336 -2.90314,1.97118 -3.80618,2.26039 -0.81521,0.26108 -1.23697,0.62052 -1.63248,1.39125 -0.2611,0.50879 -0.31642,0.61392 -1.70743,3.24439 -0.45209,0.85492 -0.956,1.80997 -1.11982,2.12235 -0.16381,0.31237 -0.3852,0.72937 -0.49197,0.92665 -0.10678,0.19729 -0.37611,0.70845 -0.59853,1.13591 -0.22241,0.42746 -0.45102,0.8579 -0.50801,0.95655 -0.057,0.0986 -0.27231,0.50219 -0.47849,0.89676 -0.3693,0.70677 -0.72977,1.38847 -1.10645,2.09246 -0.10556,0.19729 -0.57642,1.08508 -1.04635,1.97288 -0.46994,0.8878 -0.93213,1.72822 -1.02709,1.86761 -0.22976,0.33724 -0.34717,0.68623 -0.34717,1.03193 0,0.35093 0.10177,0.64196 0.38677,1.10602 0.31469,0.5124 1.33154,2.56739 1.6714,3.37781 1.39838,3.33451 1.82261,6.1274 1.26477,8.32649 -0.20717,0.81667 -0.79796,1.92795 -1.18812,2.23485 -0.077,0.0606 -0.24399,0.25815 -0.371,0.43899 -1.68346,2.39705 -3.37726,4.09443 -5.56013,5.57189 -3.87106,2.62011 -8.7689,3.89979 -14.10912,3.68635 z m 22.96317,-14.02983 c -0.0175,-0.0883 -0.0482,-0.26823 -0.0684,-0.39976 -0.0201,-0.13152 -0.13103,-0.70994 -0.24641,-1.28536 -0.60261,-3.00536 -1.57244,-5.78366 -2.71721,-7.78411 l -0.31011,-0.54191 0.0631,-0.33957 c 0.0681,-0.3663 0.22448,-0.71403 0.7407,-1.64722 0.18189,-0.32881 0.51404,-0.94758 0.73811,-1.37504 0.22407,-0.42746 0.57467,-1.08658 0.7791,-1.46472 0.20443,-0.37813 0.49963,-0.92965 0.65599,-1.22558 0.15636,-0.29593 0.35802,-0.67257 0.44814,-0.83698 0.0901,-0.16441 0.31898,-0.59485 0.50858,-0.95655 0.18959,-0.3617 0.53904,-1.02082 0.77655,-1.46472 0.23751,-0.4439 0.62757,-1.18178 0.86682,-1.63973 0.23924,-0.45796 0.84902,-1.61479 1.35507,-2.57073 0.50605,-0.95595 0.96663,-1.82894 1.02351,-1.93998 0.17558,-0.34279 0.59868,-0.77115 0.83772,-0.84815 0.6427,-0.20702 2.58268,-1.29212 3.55061,-1.98598 2.2586,-1.61908 4.9957,-4.82329 7.00753,-8.20344 0.21528,-0.36169 0.41763,-0.69798 0.44968,-0.7473 0.0794,-0.1222 0.0806,0.34421 0.004,1.63143 -0.37055,6.2483 -1.87754,12.23964 -4.33397,17.23054 -0.98161,1.99441 -1.46228,2.78906 -3.52589,5.82898 -0.30133,0.4439 -1.10848,1.64108 -1.79366,2.6604 -0.68518,1.01933 -1.54631,2.29722 -1.91362,2.83976 -0.36732,0.54255 -1.3094,1.9415 -2.09353,3.10879 -2.96215,4.40963 -2.76754,4.13487 -2.80273,3.95693 z m -48.44073,-0.95414 c -0.23359,-0.35272 -1.34085,-1.99991 -2.46059,-3.66042 -1.11973,-1.66051 -2.587,-3.83965 -3.26058,-4.84253 -0.67359,-1.00289 -1.86072,-2.76503 -2.63808,-3.91588 -0.77736,-1.15085 -1.62411,-2.44219 -1.88168,-2.86965 -3.1058,-5.15432 -5.11949,-11.84349 -5.67816,-18.86198 -0.0768,-0.96477 -0.14788,-2.72898 -0.1084,-2.69029 0.0168,0.0164 0.21284,0.33927 0.43569,0.71741 2.05552,3.48781 4.85669,6.75757 7.20622,8.41171 0.93344,0.65717 2.77663,1.68137 3.36808,1.87154 0.3488,0.11214 0.70496,0.52331 1.10276,1.27309 0.19539,0.36826 0.965,1.82287 1.71024,3.23246 2.38,4.50166 5.33134,10.04174 5.51518,10.35274 0.21312,0.36056 0.40551,0.8614 0.46254,1.20412 0.0383,0.2299 0.0125,0.30161 -0.32303,0.90084 -1.09511,1.95555 -2.09692,4.8709 -2.6862,7.81704 -0.0986,0.49322 -0.19797,1.04473 -0.2207,1.22558 -0.0227,0.18085 -0.0587,0.36183 -0.08,0.40217 -0.0231,0.0439 -0.20919,-0.18419 -0.46333,-0.56795 z m 16.9159,-29.79535 c -0.1476,-0.10794 -0.38009,-0.51266 -1.00784,-1.75449 -0.44879,-0.88779 -0.97103,-1.91011 -1.16053,-2.2718 -0.1895,-0.3617 -0.58017,-1.11498 -0.86814,-1.67396 -0.28798,-0.55899 -0.73246,-1.41988 -0.98775,-1.91311 -1.05197,-2.03249 -1.43358,-2.80192 -1.43483,-2.89304 -0.002,-0.16125 -0.23535,-0.62409 -0.40575,-0.80551 -0.52001,-0.55358 -1.46859,-0.5397 -2.88108,0.0422 -1.34979,0.55603 -3.9544,0.88817 -6.99477,0.89196 -1.64816,0.002 -2.45048,-0.0591 -3.78169,-0.28802 -1.69357,-0.29129 -3.26472,-0.86301 -4.07996,-1.48465 -0.41871,-0.31928 -1.84283,-1.78242 -2.21755,-2.27833 -0.60848,-0.80524 -1.28738,-1.83856 -1.74791,-2.6604 -1.01826,-1.81712 -2.07088,-3.90009 -2.28413,-4.51992 -0.0646,-0.18773 -0.11744,-0.44739 -0.11744,-0.57702 0,-0.27992 0.14196,-0.60604 0.29576,-0.67947 0.0991,-0.0473 0.9442,-0.75677 3.07771,-2.58372 0.39697,-0.33993 0.80225,-0.6601 0.90063,-0.71149 0.59007,-0.3082 2.08172,-0.0654 3.73701,0.60823 0.34905,0.14205 0.78632,0.27355 0.98494,0.29619 1.001,0.11413 3.02863,0.67981 7.53433,2.102 3.84152,1.21255 4.70889,1.53116 6.09896,2.24035 1.80562,0.9212 3.81005,2.38659 4.45068,3.25379 0.26947,0.36476 0.50055,0.48348 0.82324,0.42295 0.19096,-0.0358 0.41992,-0.23519 1.51055,-1.31532 0.70701,-0.7002 1.36618,-1.31434 1.46482,-1.36475 0.0986,-0.0504 0.28979,-0.20816 0.42477,-0.35054 0.46503,-0.49053 0.4421,-0.21454 0.4421,-5.3229 0,-5.04824 0.007,-4.95222 -0.38866,-5.49705 -0.28098,-0.38712 -0.47733,-0.51903 -1.43476,-0.96382 -0.46034,-0.21387 -1.80549,-0.84597 -2.98922,-1.40468 -5.22268,-2.46506 -7.55237,-3.56361 -9.53561,-4.49647 -8.55346,-4.02329 -8.34838,-3.92285 -9.03434,-4.42426 -0.57244,-0.41843 -0.71817,-0.64144 -1.0554,-1.61508 -0.16514,-0.47678 -0.43971,-1.25697 -0.61017,-1.73375 -0.69133,-1.93371 -0.84182,-2.40832 -1.09947,-3.46749 -0.77445,-3.18368 -1.25346,-6.37405 -1.59327,-10.61173 -0.0369,-0.46034 -0.10403,-1.06566 -0.14914,-1.34515 -0.2967,-1.83832 -0.0148,-3.30299 0.88368,-4.59116 0.67605,-0.96927 1.89911,-1.92092 3.05993,-2.3809 0.22863,-0.0906 0.67253,-0.31111 0.98644,-0.49002 1.52156,-0.86721 4.44717,-2.26719 6.33994,-3.03384 4.92562,-1.99507 10.32133,-3.39358 14.85642,-3.85062 0.36169,-0.0365 0.84594,-0.0915 1.07611,-0.12221 0.63771,-0.0852 2.08437,-0.22696 2.72019,-0.26647 0.31238,-0.0194 0.75628,-0.051 0.98645,-0.0702 0.71383,-0.0596 4.67228,-0.0352 5.67952,0.0349 5.65231,0.39354 10.70883,1.41215 16.23146,3.26975 4.12699,1.38816 8.64058,3.39641 11.80741,5.25354 1.07862,0.63254 0.99852,0.59216 1.4085,0.71013 0.64716,0.18622 1.06239,0.73729 1.2755,1.69279 0.12249,0.54916 0.12733,1.94232 0.0102,2.91942 -0.0472,0.3936 -0.10254,0.95776 -0.12298,1.25369 -0.22063,3.19475 -1.12846,8.35715 -2.51795,14.31836 -0.45004,1.93076 -1.02235,3.23632 -1.76932,4.03616 -0.34443,0.36882 -0.4766,0.46371 -0.89827,0.6449 -0.27194,0.11684 -1.53019,0.70132 -2.79613,1.29883 -5.17116,2.44074 -5.23328,2.46998 -6.66595,3.13832 -0.23017,0.10737 -0.76388,0.35955 -1.18601,0.5604 -0.42213,0.20084 -0.77501,0.36517 -0.78418,0.36517 -0.009,0 -0.43053,0.19804 -0.93634,0.44009 -0.50582,0.24206 -1.59225,0.75667 -2.41428,1.1436 -0.82204,0.38692 -2.48105,1.16919 -3.6867,1.73838 -1.20565,0.56919 -2.30799,1.0661 -2.44965,1.10425 -0.4273,0.11506 -0.94482,0.40825 -1.21951,0.69088 -0.3907,0.40201 -0.50363,0.76521 -0.49461,1.59076 0.004,0.37148 -0.0124,1.80533 -0.0365,3.18635 -0.0442,2.52999 0.0143,4.6581 0.14768,5.37206 0.0518,0.27718 0.11127,0.39555 0.2854,0.56795 0.12099,0.11978 0.50752,0.54062 0.85895,0.9352 1.29254,1.45119 1.99739,2.12332 2.42757,2.31486 0.24286,0.10815 0.27238,0.10908 0.54869,0.0173 0.49546,-0.16456 1.26725,-0.78965 1.91626,-1.55201 0.35032,-0.41151 0.48401,-0.51193 1.43299,-1.07649 0.74942,-0.44583 1.48801,-0.81677 2.60102,-1.30631 2.14125,-0.94179 2.04756,-0.90484 3.049,-1.20231 0.49322,-0.1465 1.94099,-0.5786 3.21726,-0.96021 2.07289,-0.6198 3.04406,-0.89752 4.52482,-1.29391 0.24661,-0.066 0.48873,-0.12924 0.53806,-0.1405 0.0493,-0.0113 0.29145,-0.0752 0.53806,-0.14202 0.24661,-0.0668 1.10178,-0.29879 1.90039,-0.51544 0.7986,-0.21665 1.60523,-0.46168 1.7925,-0.5445 0.70075,-0.30991 1.40463,-0.36397 1.80549,-0.13867 0.1325,0.0745 0.24092,0.15503 0.24092,0.17903 0,0.024 0.77855,0.71941 1.73011,1.54539 0.95157,0.82597 1.80327,1.58829 1.89267,1.69406 0.36292,0.42935 0.48675,1.05884 0.26164,1.33008 -0.0418,0.0504 -0.14114,0.28581 -0.22071,0.52314 -0.14543,0.43379 -0.57104,1.27697 -1.09297,2.16527 -0.97663,1.66219 -2.72628,4.28479 -3.23066,4.84254 -1.49783,1.65632 -3.60625,2.82093 -5.94626,3.2845 -1.37202,0.2718 -1.76121,0.30272 -3.76641,0.29927 -1.62988,-0.003 -2.06357,-0.0232 -2.92944,-0.1378 -1.84292,-0.24388 -3.41961,-0.56452 -5.0772,-1.03251 -0.80915,-0.22844 -1.22442,-0.22145 -1.54898,0.0261 -0.11607,0.0885 -0.22868,0.22152 -0.25022,0.29553 -0.0383,0.13151 -1.25727,2.58704 -1.34296,2.70528 -0.0238,0.0329 -0.45463,0.86687 -0.95733,1.85332 -0.5027,0.98644 -0.98715,1.92804 -1.07656,2.09245 -0.45293,0.8329 -2.02788,3.97477 -2.08932,4.168 -0.10834,0.3407 -0.36641,0.52507 -0.73494,0.52507 -0.24024,0 -0.442,-0.064 -0.95751,-0.30351 -1.50516,-0.69945 -3.21134,-1.17165 -5.2708,-1.45876 -2.08152,-0.29018 -4.50273,0.18909 -6.824,1.35079 -0.88229,0.44155 -1.30481,0.51518 -1.62263,0.28276 z M 166.18979,227.0479 c 2.82754,-0.33621 5.35714,-1.09309 7.89154,-2.36121 0.85703,-0.42882 2.05684,-1.0894 2.17114,-1.19534 0.0619,-0.0573 -0.14377,-0.17543 -1.90211,-1.09241 -5.56069,-2.89993 -8.33845,-4.16434 -9.90651,-4.50933 -0.70319,-0.15471 -3.59914,-0.15598 -4.9798,-0.002 -2.08383,0.23213 -4.83153,0.72932 -7.23391,1.30894 -0.69051,0.1666 -1.33417,0.32042 -1.43036,0.34182 -0.0962,0.0214 -0.18444,0.0676 -0.19612,0.10262 -0.0117,0.035 0.24579,0.46632 0.57215,0.9584 1.24158,1.87204 2.61691,3.31626 3.90307,4.09858 1.13975,0.69327 1.79362,1.03296 2.62989,1.36627 1.27151,0.50679 2.88084,0.8828 4.44557,1.03869 1.03591,0.10321 2.92178,0.0776 4.03545,-0.0549 z m 42.38713,0.0811 c 2.397,-0.19819 4.77701,-0.87764 6.3254,-1.80577 0.18731,-0.11228 0.50198,-0.29194 0.69927,-0.39926 1.2049,-0.65543 2.5192,-1.88122 3.66444,-3.41766 0.58785,-0.78866 1.15696,-1.67309 1.16963,-1.81769 0.0187,-0.21295 -4.83573,-1.2623 -7.55426,-1.63296 -1.73963,-0.23719 -2.29832,-0.27514 -4.03545,-0.2741 -1.54274,9.3e-4 -1.79632,0.0149 -2.3017,0.12729 -0.86124,0.19144 -2.34805,0.77896 -4.30447,1.70096 -1.68415,0.79367 -7.06401,3.5462 -7.37804,3.77485 -0.10725,0.0781 -0.0944,0.0954 0.20924,0.28247 0.64278,0.39599 2.73259,1.43611 3.52195,1.75291 2.01676,0.8094 3.5613,1.24073 5.38632,1.5042 1.74914,0.25252 3.22506,0.31825 4.59767,0.20476 z"
       id="path1" /></g></svg>
