<svg xmlns="http://www.w3.org/2000/svg"  viewBox="0 0 48 48" width="48px" height="48px"><path d="M 24 3.96875 C 20.370571 3.96875 16.954925 4.9379781 14.015625 6.6308594 A 1.50015 1.50015 0 1 0 15.511719 9.2304688 C 18.010418 7.79135 20.903429 6.96875 24 6.96875 C 33.42435 6.96875 41.03125 14.57565 41.03125 24 C 41.03125 28.07 39.611267 31.790302 37.236328 34.71875 A 1.50015 1.50015 0 1 0 39.566406 36.607422 C 42.357467 33.16587 44.03125 28.77 44.03125 24 C 44.03125 12.95435 35.04565 3.96875 24 3.96875 z M 24.193359 10.5 C 23.762629 10.494298 23.333822 10.509604 22.908203 10.544922 C 17.800778 10.968737 13.150355 14.299042 11.302734 19.421875 C 8.7796901 26.41861 12.425185 34.17619 19.421875 36.699219 C 26.41861 39.222263 34.178143 35.576768 36.701172 28.580078 C 37.999719 24.978489 37.670778 21.16589 36.087891 17.984375 A 1.5006152 1.5006152 0 0 0 33.28125 18.986328 L 28.263672 18.666016 L 26.28125 13.753906 C 26.578975 13.820739 26.87589 13.896205 27.171875 13.990234 A 1.5003674 1.5003674 0 1 0 28.082031 11.130859 C 26.794487 10.721827 25.485551 10.517106 24.193359 10.5 z M 21.675781 13.765625 L 19.722656 18.691406 L 14.761719 19.039062 C 16.226223 16.298519 18.779713 14.423981 21.675781 13.765625 z M 6.9101562 15.267578 A 1.50015 1.50015 0 0 0 5.5429688 16.203125 C 4.52984 18.60025 3.96875 21.238186 3.96875 24 C 3.96875 35.04565 12.95435 44.03125 24 44.03125 C 26.123996 44.03125 28.174849 43.700131 30.099609 43.085938 A 1.50015 1.50015 0 1 0 29.1875 40.228516 C 27.55226 40.750322 25.812004 41.03125 24 41.03125 C 14.57565 41.03125 6.96875 33.42435 6.96875 24 C 6.96875 21.643814 7.4457694 19.407968 8.3066406 17.371094 A 1.50015 1.50015 0 0 0 6.9101562 15.267578 z M 23.986328 16.080078 L 25.744141 20.4375 A 1.50015 1.50015 0 0 0 26.267578 21.267578 A 1.50015 1.50015 0 0 0 26.359375 21.337891 A 1.50015 1.50015 0 0 0 27.378906 21.615234 L 27.382812 21.615234 L 32.064453 21.914062 L 28.617188 24.806641 A 1.50015 1.50015 0 0 0 28.615234 24.808594 C 27.970109 25.350873 27.689571 26.224254 27.898438 27.041016 L 29.013672 31.400391 L 25.197266 29.015625 C 24.481359 28.568574 23.566582 28.572374 22.855469 29.019531 A 1.50015 1.50015 0 0 0 22.849609 29.023438 L 19.046875 31.431641 L 20.136719 27.0625 A 1.50015 1.50015 0 0 0 20.138672 27.060547 C 20.341087 26.244657 20.058042 25.374584 19.404297 24.833984 L 15.941406 21.962891 L 20.431641 21.648438 C 21.272236 21.589288 22.013142 21.049361 22.324219 20.263672 L 22.326172 20.261719 L 23.986328 16.080078 z M 34.490234 23.796875 C 34.514827 25.043587 34.328679 26.315031 33.878906 27.5625 C 33.432419 28.800668 32.772575 29.894305 31.966797 30.835938 L 30.929688 26.783203 L 34.490234 23.796875 z M 13.507812 23.841797 L 17.105469 26.824219 L 16.085938 30.908203 C 14.393887 28.970581 13.463514 26.453303 13.507812 23.841797 z M 24.03125 31.826172 L 27.408203 33.9375 C 25.299849 34.660429 22.948375 34.712976 20.673828 33.951172 L 24.03125 31.826172 z"/></svg>