<svg width="552.06pt" height="552.06pt" version="1.1" viewBox="0 0 552.06 552.06" xmlns="http://www.w3.org/2000/svg">
 <g transform="translate(-73.97,-3.9688)" fill-rule="evenodd">
  <path d="m349.67 201.65c43.637 0 78.676 35.043 78.676 78.016 0 43.637-35.043 78.676-78.676 78.676-42.977 0-78.016-35.043-78.016-78.676 0-42.977 35.043-78.016 78.016-78.016zm19.172 58.18 33.424 9.5316-21.521 26.832 2.4968 35.812-33.571-13.331-32.377 10.943 1.3027-33.424-25.637-30.414 37.535-5.9492 19.172-27.067c15.309 21.272 15.31 19.2 19.176 27.067z"/>
  <path d="m283.55 148.76-29.09-64.133c3.3047-1.3242 6.6133-2.6445 9.2578-3.9688l27.77 64.793c-1.9844 0.66016-5.9492 2.6445-7.9336 3.3047z"/>
  <path d="m510.33 426.45-48.266-52.23c21.816-25.785 34.379-58.184 34.379-94.547 0-80.66-65.453-146.78-146.78-146.78-16.527 0-33.059 3.3047-48.266 8.5938l-23.141-66.777c22.48-7.9336 46.281-11.902 71.406-11.902 120.33 0 217.52 97.191 217.52 216.86 0 56.859-20.496 104.46-56.859 146.78z"/>
  <path d="m429.01 481.98-31.734-63.473c3.9688-1.3242 7.2734-2.6445 11.238-3.9688l32.398 62.148c-3.9688 1.9844-7.9336 3.9688-11.902 5.2891z"/>
  <path d="m380.74 423.14 27.109 66.117c-8.5938 2.6445-41.652 7.9336-58.184 7.9336-119.67 0-216.86-97.191-216.86-217.52 0-103.14 72.727-161.98 72.727-161.98l44.297 54.875c0.66016-0.66016-46.941 39.668-46.941 107.11 0 81.324 66.117 146.78 146.78 146.78 10.578 0 21.156-1.3242 31.074-3.3047z"/>
  <path d="m393.97 410.58-17.191-34.379-5.9492-11.902c3.3047-0.66016 6.6133-1.9844 9.2578-2.6445l2.6445 4.6289 21.156 40.332c1.3242 0-7.2734 3.3047-9.918 3.9688z"/>
  <path d="m357.6 366.28 5.9492 15.207 13.883 33.719c-9.2578 1.9844-18.512 2.6445-27.77 2.6445-76.031 0-137.52-61.488-137.52-138.18 0-39.668 16.527-75.371 43.637-100.5l32.398 39.668c-15.867 15.867-25.125 37.023-25.125 60.828 0 48.266 39.008 87.273 86.613 87.273 2.6445 0 5.2891 0 7.9336-0.66016z"/>
  <path d="m294.79 153.39c-2.6445 0.66016-5.2891 1.9844-7.9336 3.3047l21.156 46.941c2.6445-1.3242 4.6289-2.6445 6.6133-3.3047-6.6133-15.207-12.562-32.398-19.836-46.941z"/>
  <path d="m320.58 197.69c9.2578-3.3047 19.172-4.6289 29.09-4.6289 48.266 0 87.273 39.008 87.273 86.613 0 18.512-5.2891 35.043-15.867 50.246l35.043 37.688c19.836-23.801 31.734-54.215 31.734-87.934 0-76.031-61.488-137.52-138.18-137.52-14.547 0-31.074 2.6445-45.621 7.2734 4.6289 15.867 11.238 33.059 16.527 48.266z"/>
  <path d="m349.67 3.9688c150.74 0 276.36 121.65 276.36 275.7 0 152.73-123.64 276.36-276.36 276.36-152.07 0-275.7-123.64-275.7-276.36 0-152.07 123.64-275.7 275.7-275.7zm0 31.734c-134.88 0-243.97 109.09-243.97 243.97 0 135.54 109.09 244.63 243.97 244.63 135.54 0 244.63-109.09 244.63-244.63 0-136.86-111.07-243.97-244.63-243.97z"/>
 </g>
</svg>
