<svg xmlns="http://www.w3.org/2000/svg"  viewBox="0 0 48 48" width="48px" height="48px"><path d="M 25.291016 0.98046875 C 16.862016 0.98046875 14.803266 4.1350781 13.697266 5.8300781 C 13.589266 5.9960781 13.450516 6.2080312 13.353516 6.3320312 C 12.254516 6.4520313 11.140312 7.1728125 10.195312 8.3828125 C 8.8153125 10.148813 7.4625469 13.453078 8.1855469 16.955078 L 9.0625 21.195312 C 8.8155 22.137313 8.640625 23.319906 8.640625 24.503906 C 8.640625 27.381906 9.398625 29.642578 10.265625 29.642578 L 10.972656 29.642578 L 10.972656 35.261719 C 10.972656 36.569719 11.493 37.834719 12.5 38.886719 L 18.822266 44.751953 C 19.359266 45.313953 20.346906 45.984375 22.003906 45.984375 L 25.982422 45.984375 C 26.942422 45.984375 27.962547 45.625313 28.935547 44.945312 L 35.46875 38.902344 C 36.47775 37.993344 37.011719 36.735719 37.011719 35.261719 L 37.011719 29.642578 L 37.351562 29.642578 C 38.218562 29.642578 38.976562 27.381906 38.976562 24.503906 C 38.976562 23.998906 38.945344 23.523453 38.902344 23.064453 L 39.853516 17.423828 C 40.653516 12.683828 38.573078 9.8723281 37.455078 8.3613281 C 37.453078 8.3593281 37.451219 8.3574687 37.449219 8.3554688 C 37.979219 8.1084688 38.378062 7.6498906 38.539062 7.0878906 C 38.735062 6.4178906 38.561938 5.6791094 38.085938 5.1621094 C 35.519938 2.3871094 31.215016 0.98046875 25.291016 0.98046875 z M 20.140625 13.962891 C 21.713625 13.962891 22.170125 14.7005 23.078125 16.8125 C 23.596125 18.0165 24.181688 19.381984 25.304688 20.458984 C 25.679688 20.818984 26.071797 21.137547 26.466797 21.435547 L 16.996094 21.435547 L 16.974609 15.527344 C 16.972609 14.965344 17.070703 14.751563 17.220703 14.601562 C 17.411703 14.409562 18.080625 13.962891 20.140625 13.962891 z M 32.644531 22.974609 C 33.243531 22.974609 33.988281 23.575656 33.988281 24.472656 C 33.988281 25.369656 33.273781 26.005906 32.675781 26.003906 L 24.009766 25.96875 L 15.349609 25.998047 C 14.750609 26.000047 14.029297 25.369656 14.029297 24.472656 C 14.029297 23.575656 14.729125 22.995141 15.328125 22.994141 L 24.007812 22.978516 L 32.644531 22.974609 z M 23.929688 27.570312 C 24.545687 27.570312 25.160219 27.906359 25.574219 28.193359 C 25.942219 28.448359 26.387031 28.564484 26.832031 28.521484 L 33.603516 27.878906 C 33.744516 27.862906 33.877672 27.826875 34.013672 27.796875 L 34.013672 35.261719 C 34.013672 36.082719 33.698312 36.4595 33.445312 36.6875 L 27.138672 42.541016 C 26.707672 42.828016 26.301375 42.984375 25.984375 42.984375 L 22.005859 42.984375 C 21.285859 42.984375 21.067641 42.756187 20.931641 42.617188 L 14.607422 36.751953 C 14.319422 36.448953 13.974609 35.944719 13.974609 35.261719 L 13.974609 27.822266 C 14.068609 27.840266 14.159859 27.867906 14.255859 27.878906 L 21.050781 28.523438 C 21.481781 28.564438 21.914531 28.451125 22.269531 28.203125 C 22.683531 27.914125 23.306688 27.570312 23.929688 27.570312 z M 24.037109 33.980469 C 22.343234 33.979469 20.643937 34.381094 19.460938 35.183594 C 19.002938 35.493594 18.882406 36.115266 19.191406 36.572266 C 19.384406 36.857266 19.701484 37.011719 20.021484 37.011719 C 20.214484 37.011719 20.408078 36.955844 20.580078 36.839844 C 22.268078 35.697844 25.793453 35.691031 27.439453 36.832031 C 27.890453 37.147031 28.515078 37.034078 28.830078 36.580078 C 29.145078 36.126078 29.032125 35.504453 28.578125 35.189453 C 27.418625 34.384953 25.730984 33.981469 24.037109 33.980469 z"/></svg>