<svg width="418.56pt" height="560pt" version="1.1" viewBox="0 0 418.56 560" xmlns="http://www.w3.org/2000/svg">
 <g transform="translate(-140.72 -.005606)">
  <path d="m534.92 343.43c-0.33203 8.5664-1.1172 17.105-2.3594 25.586 0 0-11.496 94.316-34.367 149.02h4e-3c-8.918 21.605-28.02 37.348-50.934 41.969 50.34-53.051 62.602-180.44 64.844-205.9 8.6562-0.63672 16.773-4.4336 22.812-10.672z"/>
  <path d="m252.74 560c-22.887-4.5586-42-20.203-50.992-41.734-22.695-54.82-34.129-148.07-34.246-149.02-1.3281-8.4688-2.1172-17.016-2.3594-25.582 6.0977 6.2852 14.309 10.09 23.051 10.668 2.0039 25.23 14.324 152.62 64.547 205.67z"/>
  <path d="m185.24 343.84c-19.57-4.1836-20.516-24.402-20.574-25.523-1.5898-50.281 20.457-95.496 33.66-117.89 1.2969 23.578 3.832 45.625 4.5977 52.168l-25.465 33.895v0.58984c0 0.35547-0.29297 0.76562-0.41406 1.0625-0.11719 0.29297 0 0 0 0.41406v-4e-3c-0.27734 18.754 2.4883 37.426 8.1953 55.293z"/>
  <path d="m309.8 282.3-12.145-2.3594h4e-3c-16.738-3.8516-33.715-6.5898-50.812-8.1953h-0.70703c-7.957 1.1797-31.359 8.5469-39.672 16.094l-16.211-2.1211 20.039-26.352 60.773 4.9531h0.41406c1.3008-0.0156 2.5391-0.54687 3.4453-1.4766 0.90625-0.92578 1.4062-2.1758 1.3906-3.4766 0.11328-1.2852-0.30078-2.5625-1.1445-3.5391-0.84375-0.98047-2.0469-1.5742-3.3359-1.6484l-59.477-4.832c-1.1211-9.1953-3.7148-33.48-4.7734-58.121l90.363 62.246c3.1328 2.1758 5.4531 5.3242 6.6016 8.9609z"/>
  <path d="m323.47 332.58c-0.54688 2.6719-1.7188 5.1758-3.418 7.3086l-15.977 19.688c-32.895-6.7773-75.512-14.266-108.05-14.738l4e-3 4e-3c-6.0391-16.039-9.3281-32.977-9.7266-50.105l19.219 2.5352h-4e-3c8.0352 10.414 19.09 18.094 31.656 21.984 5.3008 1.4219 10.777 2.0977 16.27 2.0039 13.52-0.18359 26.898-2.8008 39.492-7.7188 2.4258-1.207 3.418-4.1484 2.2109-6.5742-1.2031-2.4258-4.1445-3.4141-6.5703-2.2109-4.3047 2.1797-30.711 10.316-48.75 5.1875-9.7422-3.0859-18.406-8.8711-24.996-16.684 10.078-5.5625 20.957-9.5391 32.246-11.789 16.367 1.7383 32.621 4.3945 48.691 7.957 7.8984 1.5898 13.383 2.6523 16.859 3.2422z"/>
  <path d="m385.25 361.64c-10.078 2.1211-18.863 4.125-25.582 5.6016l-9.668 2.1797-9.6094-2.1797c-6.7188-1.4727-15.562-3.4766-25.582-5.6016l12.613-15.68c2.9609-3.7617 4.8906-8.2305 5.6016-12.969 0.14453-0.61719 0.14453-1.2656 0-1.8867l-9.9609-37.492c8.7812 0.53125 17.684 0.94141 27.059 0.94141 9.3711 0 18.332-0.41406 27.117-0.94141l-10.02 37.492h-8e-3c-0.11328 0.625-0.11328 1.2656 0 1.8867 0.66016 4.75 2.5938 9.2344 5.6016 12.969z"/>
  <path d="m535.33 318.32c0 0.88281-1.0039 21.102-20.516 25.289 5.8047-17.594 8.75-36.004 8.7266-54.527 0.0234-0.13672 0.0234-0.27734 0-0.41406-0.0469-0.37109-0.16797-0.73437-0.35547-1.0586 0.0195-0.17578 0.0195-0.35547 0-0.53125l-25.582-33.777c0.82422-6.543 3.3594-28.293 4.6562-52.168 12.613 21.691 34.66 66.906 33.07 117.19z"/>
  <path d="m513.7 294.74c-0.50781 16.977-3.7734 33.758-9.6641 49.691-32.598 0.47266-75.219 7.957-108.11 14.738l-15.738-19.512h-4e-3c-1.7266-2.0586-2.9766-4.4766-3.6523-7.0742l10.668-39.906c3.5352-0.64844 8.9023-1.6523 16.801-3.2422v-4e-3c16.223-3.5859 32.637-6.2422 49.16-7.957 11.305 2.2773 22.195 6.2539 32.305 11.789-6.625 7.7969-15.305 13.574-25.051 16.684-18.039 5.1289-44.445-3.0078-48.75-5.1875-2.4258-1.2031-5.3711-0.21484-6.5742 2.2109-1.2031 2.4258-0.21484 5.3672 2.2109 6.5742 12.598 4.918 25.973 7.5352 39.496 7.7188 5.4883 0.0937 10.965-0.58203 16.27-2.0039 12.418-3.8984 23.355-11.484 31.359-21.75z"/>
  <path d="m509.8 285.72-16.094 2.1797c-8.3125-7.5469-31.773-14.914-39.789-16.094h-0.76562c-7.5 0.41016-14.965 1.3359-22.34 2.7734-9.1953 1.5312-19.453 3.5977-28.59 5.4219l-12.203 2.3594 5.3047-19.688 4e-3 -4e-3c1.0938-3.7539 3.4727-7.0078 6.7188-9.1953l90.309-62.07c-1.0625 24.641-3.6562 48.926-4.7148 58.121l-59.535 4.832-4e-3 4e-3c-2.668 0.11328-4.7422 2.3672-4.6289 5.0391 0.11719 2.668 2.3711 4.7422 5.043 4.625h0.35547l60.832-4.6562z"/>
  <path d="m556.32 319.32c-3.7734 25.582-8.8438 36.844-12.91 41.852v4e-3c1.2852-14.109 1.8359-28.277 1.6523-42.445 2.0625-65.902-33.012-121.31-42.68-135.58 0.51562-12.57 0.0625-25.164-1.3555-37.668 11.789-20.336 17.684-49.398 20.453-74.508 16.043 24.492 24.828 53.02 25.348 82.289l2.1797 77.633 4e-3 4e-3c4e-3 1.2461 0.51172 2.4375 1.4141 3.3008l6.957 6.8984 1.0625 15.148h-4e-3c1.6094 21.035 0.89844 42.188-2.1211 63.07z"/>
  <path d="m514.29 31.359c-0.53125 23.227-3.5352 75.039-19.867 106.4-58.945-40.258-69.379-61.832-71.266-69.023 26.727-3.4766 52.484-12.277 75.75-25.879 5.4453-3.3867 10.594-7.2305 15.383-11.496z"/>
  <path d="m155 318.73c-0.21875 14.168 0.3125 28.336 1.5898 42.445-4.0664-5.0117-9.1953-16.27-12.91-41.855-2.9844-20.902-3.7188-42.07-2.1797-63.133l1.1211-15.148 6.9531-6.8945c0.89453-0.875 1.4219-2.0547 1.4727-3.3008l2.125-77.578c0.60156-29.164 9.3828-57.574 25.348-81.996 2.8281 25.113 8.6055 54.172 20.395 74.508v4e-3c-1.3398 12.508-1.7695 25.098-1.2969 37.668-9.7266 13.91-44.742 69.379-42.617 135.28z"/>
  <path d="m276.73 68.734c-1.9453 7.4844-12.672 29.062-71.09 69.027-16.387-31.301-19.336-83.176-19.867-106.11 29.949 26.82 76.164 35.133 90.957 37.078z"/>
  <path d="m492.71 179.38-96.203 66.199c-5.0352 3.457-8.7383 8.5312-10.492 14.383l-6.3086 23.578c-9.6094 0.70703-19.512 1.1211-29.473 1.1211s-19.984-0.41406-29.473-1.1797l-6.3672-23.578c-1.7852-5.7891-5.4844-10.797-10.492-14.207l-96.613-66.316c-0.33594-10.684 0.0977-21.383 1.2969-32.008 82.527-55.883 79.344-80.227 77.871-84.531l-4e-3 0.0039c-0.63281-1.8242-2.2656-3.1133-4.1836-3.3047-24.391-2.875-48.07-10.102-69.91-21.336 24.109-15.918 69.852-38.199 137.64-38.199s113.53 22.281 137.7 38.199c-21.836 11.266-45.512 18.531-69.91 21.457-1.9023 0.19922-3.5156 1.4883-4.125 3.3008-1.7695 4.3008-4.7148 28.648 77.809 84.41 1.0898 10.633 1.5 21.324 1.2383 32.008z"/>
 </g>
</svg>
