<svg
   version="1.1"
   x="0px"
   y="0px"
   viewBox="0 0 79.3088 75.36747"
   xml:space="preserve"
   id="svg9"
   width="79.3088"
   height="75.36747"><defs
     id="defs9" />
     
     <g
     id="g8"
     transform="translate(-11.36168,-13.400708)"><path
       d="m 17.4,45.6 c -0.8,0.1 -1.4,0.1 -2.1,0.2 -1.8,0.1 -2.7,-0.7 -2.7,-2.5 0.1,-2.9 0.9,-5.7 2.5,-8.2 0.1,-0.2 0.3,-0.5 0.4,-0.6 -1,-0.9 -2,-1.8 -2.9,-2.7 -0.7,-0.7 -1.1,-1.6 -0.5,-2.4 0.4,-0.6 1.2,-1.1 1.9,-1.2 2,-0.4 3.1,-1 4.3,-2.4 -1.6,-1.3 -3.3,-2.5 -4.7,-3.9 -1.4,-1.4 -1.9,-3.3 -2.2,-5.2 -0.2,-1.2 0.4,-2.4 1.4,-2.7 1.2,-0.3 1.8,0.2 2.5,1.2 3.1,4.8 7.7,6.1 12.9,3.6 5.6,-2.7 11.4,-4.6 17.6,-5.2 6.9,-0.7 13.5,0.4 19.6,4 0.5,0.3 1.1,0.4 1.7,0.4 4.1,-0.2 8,0.8 11.7,2.6 0.7,0.3 1.3,0.9 1.8,1.5 0.9,1 1.7,2.2 2.7,3.2 0.7,0.7 1.5,1.2 2.3,1.6 1.4,0.8 1.6,2.4 0.3,3.4 -0.5,0.4 -1.2,0.7 -1.8,1 -0.6,0.3 -1.3,0.5 -2,0.8 1.7,1.9 3.8,3 6.3,3.4 1.1,0.2 1.9,0.4 2.2,1.6 0.3,1.2 -0.4,2 -1.3,2.5 -2,1.2 -4.1,2.3 -6.3,3.5 2.3,7.4 2.1,15 -0.8,22.6 1.6,0.4 3.2,0.9 4.8,1.3 1.9,0.5 2.6,1.6 2.1,3.5 -1.4,5.4 -2.9,10.7 -4.3,16.1 -0.5,1.9 -1.6,2.5 -3.5,2 -3.9,-1 -7.8,-2.1 -11.7,-3.1 C 68.3,85.2 67.6,84.3 67.4,83 54.6,89.3 42.1,89 30.6,80.4 18.8,71.6 15,59.7 17.4,45.6 Z m 57.8,18.1 c 0,-9.6 0,-19.1 0,-28.7 -1.8,0 -3.6,0 -5.4,0 -0.4,0 -0.8,0.3 -1,0.6 -1.5,1.6 -2.9,3.3 -4.5,4.7 -1.6,1.4 -3.6,2.4 -5.4,3.5 -0.9,0.5 -1.9,0.5 -2.6,-0.4 -0.7,-0.9 -0.5,-1.9 0.2,-2.7 0.1,-0.2 0.3,-0.3 0.4,-0.5 1.2,-1.7 2.4,-3.4 3.8,-5.3 -1.5,0 -2.6,0.1 -3.6,0 -2.1,-0.3 -3.8,0.4 -5.4,1.9 -3.8,3.6 -7.1,7.3 -6.4,13.1 0.1,0.8 -0.2,1.8 -1.2,2.2 -1,0.4 -1.7,0.1 -2.3,-0.7 0,0 -0.1,0 -0.2,0 -1,1.4 -1,1.5 -2.7,0.8 -1.6,-0.6 -3.1,-1.2 -4.6,-2 -2.1,-1.1 -4,-1.6 -6,0.3 0.2,-2 1,-2.7 3.5,-3.4 -0.7,-3.5 -1.4,-7 -2,-10.2 0,0.2 -0.1,0.6 -0.2,1.1 -0.3,2.1 -0.2,4.2 0.4,6.3 0.3,1 0.2,2 -0.8,2.5 -1.1,0.6 -1.9,0.2 -2.6,-0.7 -0.3,-0.3 -0.6,-0.7 -0.9,-1.1 -0.1,0.3 -0.1,0.4 -0.1,0.5 0,8.4 0,16.8 0,25.2 0,0.4 0.2,0.9 0.5,1.3 9.6,13 28.2,16.2 41.6,7.2 0.5,-0.3 0.9,-0.9 1,-1.5 1.1,-3.8 2.1,-7.7 3.1,-11.6 0.4,-2.1 1.3,-2.7 3.4,-2.4 z M 27.9,44.9 c -0.7,-6.3 -0.6,-8 0.8,-11.2 1.4,-3.3 5,-7.7 7,-8.6 -5.7,7 -4.2,16.7 -1.5,22.1 -0.7,-3.8 -0.2,-7.3 1.5,-10.5 1.6,-3.1 5.4,-7.1 7.1,-7.6 -4.7,5.6 -2.3,15.6 0.3,20.7 -0.3,-4.4 1.2,-8 4,-11.1 4.4,-5 9.9,-8.3 15.9,-10.8 0,0 0.1,0 0.3,0.1 1,2.7 0.1,5.2 -1.2,7.5 -1.2,2.3 -2.8,4.4 -4.1,6.5 3.3,-1.4 7.3,-4.6 9.3,-7.7 1.9,-2.9 2.7,-6 2.1,-9.5 C 69.2,23.9 68.9,23 68.3,22.4 65.4,19.6 62,17.6 58.2,16.5 51.5,14.5 44.7,15 38.1,16.9 c -3.3,1 -6.6,2.5 -9.8,3.8 -5.9,2.4 -11,1 -14.6,-4.2 -0.1,-0.2 -0.3,-0.4 -0.5,-0.5 0.9,6.6 5.9,8 11.3,9.2 -1.8,3.2 -2.2,6.6 -1.4,10.2 0.9,3.5 2.5,6.6 4.8,9.5 z m 41.2,38 c 0.2,0.2 0.5,0.5 0.9,0.6 3.8,1.1 7.6,2.1 11.4,3.1 0.8,0.2 1.1,0 1.3,-0.8 1.4,-5.2 2.8,-10.5 4.2,-15.7 0.2,-0.7 0.1,-1.2 -0.7,-1.4 -3.8,-1 -7.6,-2 -11.4,-3.1 -0.8,-0.2 -1.1,0 -1.3,0.7 -0.8,3.3 -1.7,6.6 -2.6,9.8 -0.6,2.2 -1.1,4.3 -1.8,6.8 z M 68.7,20 c 2.3,1.5 2.6,3.8 2.9,6.2 0,0.4 0.4,0.8 0.7,1.1 4.1,3.5 7.2,7.7 9.3,12.6 0.1,0.3 0.3,0.5 0.4,0.9 2.4,-0.6 4.5,-1.7 6.4,-3.3 -6.1,-1.9 -9.6,-4.6 -10.1,-7.8 2.3,1 4.2,0.2 6.2,-1 -2.5,-1.2 -4,-3.3 -5.6,-5.3 -0.3,-0.4 -0.6,-0.8 -1,-1 C 75.2,20.9 72.1,19.9 68.7,20 Z M 17.8,43.6 c 1.1,-2.4 2.2,-4.7 3.2,-7 0.2,-0.4 0.1,-1 0.1,-1.5 0,-1.7 -0.2,-3.3 -0.2,-5 0.1,-1.2 0.4,-2.3 0.7,-3.8 -0.7,0.1 -1.4,0 -1.7,0.3 -1.8,1.8 -3.6,3.3 -6.3,3.4 1.3,1.8 2.4,2.5 4.9,3.4 -3.3,4.7 -4.4,7.4 -3.9,10.4 1.1,-0.1 2.2,-0.1 3.2,-0.2 z m 20.4,-7.2 c -2.7,3.8 -2.7,7.8 -2,11.1 0,0.2 0.2,0.5 0.4,0.6 1.4,0.6 2.8,1.2 4.3,1.9 -1.6,-4.5 -2.8,-8.8 -2.7,-13.6 z"
       id="path1" /><path
       d="m 35.5,61.4 c -2.6,0 -4.6,-2.1 -4.6,-4.7 0,-2.6 2.2,-4.7 4.8,-4.7 2.6,0 4.6,2.2 4.6,4.7 -0.1,2.6 -2.2,4.7 -4.8,4.7 z"
       id="path2" /><path
       d="m 65.6,61.4 c -2.6,0 -4.7,-2 -4.7,-4.6 0,-2.6 2.1,-4.8 4.7,-4.8 2.6,0 4.7,2.1 4.7,4.7 -0.1,2.5 -2.2,4.6 -4.7,4.7 z"
       id="path3" /><path
       d="M 71.5,47.4 C 71.2,47.2 70.9,47 70.6,46.8 69.4,46.1 68.2,46 66.8,46.6 c -2.2,1 -4.4,2 -6.6,2.9 -1.1,0.4 -1.8,0 -2,-1.1 -0.1,-0.4 0.1,-1 0.4,-1.2 2.9,-1.6 5.9,-3 9.4,-2.9 2.1,0.1 3.3,1.2 3.5,3.1 z"
       id="path4" /><path
       d="m 51.4,64.6 c -0.5,0.6 -1,1.2 -1.5,1.8 -1.1,-0.9 0.3,-1.2 0.3,-1.7 0,-0.1 0,-0.2 0,-0.2 -0.2,-0.4 -0.3,-0.7 -0.5,-1.1 0.4,0.2 0.8,0.3 1.1,0.5 0.3,0.1 0.4,0.4 0.6,0.7 z"
       id="path5" /><path
       d="m 62.5,21 c 0.2,0.1 0.4,0.4 0.7,0.7 -0.3,0.2 -0.6,0.5 -0.9,0.6 -9.6,1.4 -15.4,7 -18.3,16.1 -0.2,0.5 -0.1,1.6 -1,1.3 -0.9,-0.3 -0.3,-1.1 -0.2,-1.6 2.8,-8.8 8.3,-14.6 17.3,-16.7 0.7,-0.2 1.4,-0.2 2.4,-0.4 z"
       id="path6" /><path
       d="m 49.5,17.9 c -5.9,0 -11.4,0.8 -16.3,3.9 -0.4,0.3 -0.8,0.6 -1.3,0.9 -0.3,0.1 -0.7,0.1 -1,0.1 0.1,-0.4 0.2,-0.8 0.4,-1 2.5,-1.9 5.3,-3.1 8.3,-3.9 4.1,-1 8.2,-1.4 12.4,-0.9 0.4,0 0.7,0.4 1.1,0.7 -0.4,0.2 -0.8,0.4 -1.2,0.5 -1,-0.1 -1.9,-0.3 -2.4,-0.3 z"
       id="path7" /><path
       d="m 79,73.2 c 1,-0.6 1.9,-1 3,-0.4 1.4,0.8 1.8,2.6 0.7,4.2 -1.2,1.8 -3,2.7 -5.1,3.1 -0.3,0.1 -0.6,0 -0.9,-0.2 -1.8,-1 -3.2,-4.4 -2.7,-6.4 0.3,-1.2 0.9,-2 2.2,-2.2 1.2,-0.1 2.1,0.4 2.6,1.5 0,0.2 0.1,0.3 0.2,0.4 z"
       id="path8" /></g></svg>
