<svg xmlns="http://www.w3.org/2000/svg"  viewBox="0 0 48 48" width="48px" height="48px"><path d="M 8.8730469 0.94140625 C 7.7892852 0.9435332 6.9726562 1.0078125 6.9726562 1.0078125 C 6.9726562 1.0078125 8.2309062 4.852 9.6289062 6.5 C 10.615906 7.565 12.405484 6.8058125 13.521484 6.2578125 C 13.975484 6.7788125 14.374422 7.5335313 14.482422 8.6445312 L 12.462891 9.8945312 L 11.923828 9.8125 L 10.949219 7.9707031 L 7 9 C 7 9 7.0003906 11.000781 7.4003906 15.800781 C 7.4253906 16.341781 7.4683906 16.850031 7.5253906 17.332031 L 6.4238281 20.355469 L 6.5761719 20.841797 C 6.9371719 21.979797 7.3496406 22.934172 7.6816406 23.701172 C 7.9936406 24.420172 8.2626094 25.039297 8.3496094 25.529297 C 8.4506094 25.991297 8.5376719 26.677656 8.6386719 27.472656 C 8.9116719 29.616656 9.2846875 32.55125 10.429688 35.40625 L 10.839844 36.439453 C 12.091844 39.618453 12.994922 41.915031 16.044922 43.832031 C 16.503922 44.121031 16.922547 44.391625 17.310547 44.640625 C 19.476547 46.035625 20.908141 46.955078 22.869141 46.955078 C 25.140141 46.955078 28.7795 45.716531 30.9375 43.644531 C 32.7495 41.907531 34.056828 40.653516 36.173828 37.603516 C 37.585828 35.457516 39.914641 29.460203 40.431641 23.408203 C 40.639641 20.977203 40.227719 18.605844 39.636719 16.589844 C 39.850719 13.887844 40 11.251 40 8 C 40 8 39.899609 7.8003906 39.599609 7.4003906 L 39.451172 7.4550781 C 39.162172 7.1560781 38.667281 6.5889531 37.988281 6.1269531 L 37.988281 5.9882812 C 37.988281 5.9882812 37.987906 4.7654531 36.628906 3.8144531 C 35.628906 3.2144531 34.046875 2.9316406 34.046875 2.9316406 C 34.046875 2.9316406 33.5 4.1 33 6 C 32.96 6.162 32.8905 6.3887656 32.8125 6.6347656 L 30.365234 4.2421875 C 30.266234 3.8981875 30.153781 3.476625 30.050781 3.015625 L 28 2 L 27.013672 1.0273438 L 26 2 C 26 2 25.535609 2.6875781 24.974609 3.5175781 L 23.435547 4.1074219 C 23.073547 3.5984219 22.725625 3.1385 22.515625 2.9375 L 21.849609 2.2949219 L 20.978516 2.6015625 C 20.905516 2.6275625 20.238234 2.8662813 19.615234 3.2382812 L 18.871094 3.6835938 L 18.904297 5.9082031 L 15.433594 8.0566406 C 15.211594 6.9016406 14.752172 6.0979219 14.326172 5.5449219 C 14.766172 4.5669219 14.643562 2.7212031 13.976562 2.0332031 C 13.227812 1.1063281 10.679316 0.93786133 8.8730469 0.94140625 z M 26.353516 6.2011719 L 26.257812 6.8339844 C 26.057813 7.7339844 26.056641 8.5335938 26.056641 9.4335938 L 25.914062 14.205078 L 27.212891 10.628906 C 27.640891 9.1519062 28.222266 8.0890156 28.697266 6.7910156 L 29.476562 7.546875 L 29.900391 9.5996094 C 30.000391 9.7996094 30 10.100391 30 10.400391 L 30 12.011719 C 29.379 13.492719 29.056641 15.080375 29.056641 16.734375 L 29.056641 18.134766 L 30.857422 13.634766 C 30.957422 13.334766 31.157031 13.034375 31.457031 12.734375 L 32.056641 12.134766 L 33.056641 15.134766 L 33.644531 11.634766 C 33.701531 11.666766 33.753641 11.706094 33.806641 11.746094 L 34.119141 12.050781 C 34.183141 12.129781 34.249781 12.206781 34.300781 12.300781 L 35.486328 14.097656 C 35.500328 14.126656 35.513344 14.1575 35.527344 14.1875 L 34.361328 19.220703 L 36.330078 16.130859 C 37.039078 18.086859 37.660359 20.612297 37.443359 23.154297 C 36.960359 28.818297 34.7085 34.371828 33.6875 35.923828 C 31.7625 38.696828 30.608375 39.802469 28.859375 41.480469 C 27.340375 42.938469 24.483141 43.955078 22.869141 43.955078 C 21.832141 43.955078 20.966594 43.424187 18.933594 42.117188 C 18.538594 41.863188 18.111578 41.589922 17.642578 41.294922 C 15.425578 39.900922 14.826859 38.376797 13.630859 35.341797 L 13.214844 34.294922 C 12.212844 31.795922 11.866281 29.079703 11.613281 27.095703 C 11.503281 26.230703 11.408016 25.482125 11.291016 24.953125 C 11.156016 24.177125 10.822547 23.405719 10.435547 22.511719 C 10.167547 21.891719 9.86975 21.202109 9.59375 20.412109 L 10.867188 16.921875 L 11.976562 21.029297 C 11.976562 21.029297 12.008547 18.307125 12.435547 15.453125 C 13.005547 17.807125 14.099609 20 14.099609 20 L 14.845703 16.570312 L 15.951172 19.154297 L 16.087891 16.144531 C 16.087891 15.044531 16.996094 13.535156 16.996094 13.535156 C 16.996094 13.535156 17.776953 14.671875 17.876953 15.171875 L 18.939453 20.138672 L 19.058594 14.732422 C 19.058594 14.667422 19.042109 14.606969 19.037109 14.542969 L 20.478516 16.765625 L 19.941406 10.953125 C 20.772406 9.984125 21.292078 9.3503281 21.830078 8.4863281 C 21.917078 8.9483281 21.993344 9.4278125 22.027344 10.007812 L 21.353516 12.814453 C 21.802516 12.365453 22.656297 11.22175 23.279297 10.21875 L 24 16 L 25.796875 6.4140625 L 26.353516 6.2011719 z M 18.001953 25.998047 C 17.691953 25.998047 17.397234 26.059484 17.115234 26.146484 C 17.627234 26.385484 17.986328 26.899 17.986328 27.5 C 17.986328 28.328 17.311469 28.998047 16.480469 28.998047 C 15.889469 28.998047 15.384672 28.655109 15.138672 28.162109 C 15.062672 28.426109 15.007812 28.699281 15.007812 28.988281 C 15.007812 30.639281 16.348953 31.978516 18.001953 31.978516 C 19.654953 31.978516 20.994141 30.640281 20.994141 28.988281 C 20.994141 27.337281 19.654953 25.998047 18.001953 25.998047 z M 29.994141 26.001953 C 29.691141 26.001953 29.405859 26.059578 29.130859 26.142578 C 29.646859 26.380578 30.007813 26.897 30.007812 27.5 C 30.007812 28.328 29.332953 28.998047 28.501953 28.998047 C 27.895953 28.998047 27.376672 28.639953 27.138672 28.126953 C 27.055672 28.400953 26.996094 28.684328 26.996094 28.986328 C 26.996094 30.635328 28.338141 31.972656 29.994141 31.972656 C 31.650141 31.972656 32.992187 30.634328 32.992188 28.986328 C 32.992188 27.338328 31.650141 26.001953 29.994141 26.001953 z M 19.988281 37.994141 C 20.410281 39.796141 21.519063 40.967141 23.914062 40.994141 C 26.421063 41.022141 27.970703 38.966797 27.970703 38.966797 C 26.973703 39.171797 25.787234 37.997859 23.990234 38.005859 C 22.802234 38.011859 20.058281 37.996141 19.988281 37.994141 z"/></svg>