<svg overflow="hidden" version="1.1" viewBox="0 0 107 116" xmlns="http://www.w3.org/2000/svg">
 <defs>
  <clipPath id="clipPath1946">
   <rect width="107" height="116"/>
  </clipPath>
  <clipPath id="clipPath1952">
   <rect width="107" height="116"/>
  </clipPath>
  <clipPath id="clipPath1958">
   <rect width="107" height="116"/>
  </clipPath>
  <clipPath id="clipPath1964">
   <rect width="107" height="116"/>
  </clipPath>
  <clipPath id="clipPath1970">
   <rect width="107" height="116"/>
  </clipPath>
  <clipPath id="clipPath1976">
   <rect width="107" height="116"/>
  </clipPath>
  <clipPath id="clipPath1982">
   <rect width="107" height="116"/>
  </clipPath>
 </defs>
 <g fill-rule="evenodd">
  <path d="m5.27 57.64 6 0.54 9.82-20.39 5.18 3.81 7.37-8.16 14.45 9.79 14.18-10.06 15.82 10.88 5.73-10.88 10.41 16.22 8.13 9.61 4.64-32.9c-2-3.26-5.02-5.62-6-9.79 2.48-1.9 3.82-1.08 5.73-1.63l-6.28-2.44-14.59 0.36 3.16-2.49 8.43-1.14c-2.09-1.15-2.13-2.31-6.27-3.46-9.95-1.48-15.25-0.34-25.09-1.7-0.29-1.61 2.36-2.54 3.55-3.81l-30.82 6.25c1.54-1.72 1.27-3.33 4.63-5.16l-22.36 5.98c-3.82 3.35-4.79 7.05-11.45 10.06-1.71-1.32-1.82-3.08-2.73-4.62l-1.64 7.88-5.27 1c0.89 0.56 2.68 1.23 3.57 2.58z" clip-path="url(#clipPath1982)"/>
  <path d="m6 65c0-28.17 21.71-51 48.5-51s48.5 22.83 48.5 51-21.71 51-48.5 51-48.5-22.83-48.5-51zm4.22 0c0 25.83 19.83 46.78 44.28 46.78s44.28-20.95 44.28-46.78-19.83-46.78-44.28-46.78-44.28 20.95-44.28 46.78z" clip-path="url(#clipPath1976)"/>
  <path d="m44.32 64.3c1.65-0.65 3.88-2.58 4.87-4.47-1.03-1.81-6.22-5.94-16.71-10.52-4.98-2.16-7.3-3.02-10.68-3.5l-2.15 3.02c-0.22 1.6-1.26 2.99-0.66 4.8 8.35 3.96 20.23 9.15 25.33 10.67z" clip-path="url(#clipPath1970)"/>
  <path d="m40.49 64.17c0.37 5.84-4.06 10.87-9.9 11.24-5.83 0.38-10.87-4.06-11.24-9.89-0.23-3.64 1.43-7.14 4.39-9.27z" clip-path="url(#clipPath1964)"/>
  <path d="m62.608 64.302c-1.6488-0.65535-3.876-2.5859-4.867-4.4681 1.0361-1.8171 6.2227-5.9394 16.715-10.526 4.9747-2.1548 7.2974-3.0141 10.675-3.4965l2.146 3.0146c0.22162 1.6 1.267 2.996 0.66485 4.8001-8.3456 3.9594-20.233 9.1512-25.335 10.675z" clip-path="url(#clipPath1958)"/>
  <path d="m66.44 64.171c-0.37124 5.8379 4.0604 10.871 9.8983 11.243 5.8379 0.37124 10.871-4.0604 11.243-9.8983 0.2314-3.6391-1.4253-7.1413-4.3855-9.2706z" clip-path="url(#clipPath1952)"/>
  <path d="m42.14 79h23.72c2.84 0 5.14 2.3 5.14 5.14v12.86h-34v-12.86c0-2.84 2.3-5.14 5.14-5.14z" clip-path="url(#clipPath1946)"/>
 </g>
</svg>
