<svg viewBox="0 0 107 116" width="107" height="116" xmlns="http://www.w3.org/2000/svg" xmlns:xlink="http://www.w3.org/1999/xlink" xml:space="preserve" overflow="hidden"><defs><clipPath id="clip0"><rect x="3268" y="1226" width="107" height="116"/></clipPath></defs><g clip-path="url(#clip0)" transform="translate(-3268 -1226)"><path d="M3273.27 1283.64 3279.27 1284.18 3289.09 1263.79 3294.27 1267.6 3301.64 1259.44 3316.09 1269.23 3330.27 1259.17 3346.09 1270.05 3351.82 1259.17 3362.23 1275.39 3370.36 1285 3375 1252.1C3373 1248.84 3369.98 1246.48 3369 1242.31 3371.48 1240.41 3372.82 1241.23 3374.73 1240.68L3368.45 1238.24 3353.86 1238.6 3357.02 1236.11 3365.45 1234.97C3363.36 1233.82 3363.32 1232.66 3359.18 1231.51 3349.23 1230.03 3343.93 1231.17 3334.09 1229.81 3333.8 1228.2 3336.45 1227.27 3337.64 1226L3306.82 1232.25C3308.36 1230.53 3308.09 1228.92 3311.45 1227.09L3289.09 1233.07C3285.27 1236.42 3284.3 1240.12 3277.64 1243.13 3275.93 1241.81 3275.82 1240.05 3274.91 1238.51L3273.27 1246.39 3268 1247.39C3268.89 1247.95 3270.68 1248.62 3271.57 1249.97L3273.27 1283.64Z" fill-rule="evenodd"/><path d="M3274 1291C3274 1262.83 3295.71 1240 3322.5 1240 3349.29 1240 3371 1262.83 3371 1291 3371 1319.17 3349.29 1342 3322.5 1342 3295.71 1342 3274 1319.17 3274 1291ZM3278.22 1291C3278.22 1316.83 3298.05 1337.78 3322.5 1337.78 3346.95 1337.78 3366.78 1316.83 3366.78 1291 3366.78 1265.17 3346.95 1244.22 3322.5 1244.22 3298.05 1244.22 3278.22 1265.17 3278.22 1291Z" fill-rule="evenodd"/><path d="M3312.32 1290.3C3313.97 1289.65 3316.2 1287.72 3317.19 1285.83 3316.16 1284.02 3310.97 1279.89 3300.48 1275.31 3295.5 1273.15 3293.18 1272.29 3289.8 1271.81L3287.65 1274.83C3287.43 1276.43 3286.39 1277.82 3286.99 1279.63 3295.34 1283.59 3307.22 1288.78 3312.32 1290.3Z" fill-rule="evenodd"/><path d="M3308.49 1290.17C3308.86 1296.01 3304.43 1301.04 3298.59 1301.41 3292.76 1301.79 3287.72 1297.35 3287.35 1291.52 3287.12 1287.88 3288.78 1284.38 3291.74 1282.25Z" fill-rule="evenodd"/><path d="M27.7345 12.6731C29.1773 11.6404 30.8747 9.23087 31.3839 7.16554 29.9411 5.65096 23.9153 2.89718 12.6275 0.969533 7.28059 0.0745544 4.81933-0.200824 1.42449 0.143399L0.0665602 3.58562C0.236302 5.192-0.442665 6.79837 0.575786 8.40474 9.62868 10.2406 22.4159 12.4207 27.7345 12.6731Z" fill-rule="evenodd" transform="matrix(-0.970643 0.240526 0.240526 0.970643 3354.48 1271.33)"/><path d="M19.9917 15.4734C17.2957 20.6648 10.9017 22.6877 5.71028 19.9917 0.51888 17.2957-1.50404 10.9017 1.19196 5.71029 2.87253 2.47422 6.09951 0.330142 9.73396 0.0348068Z" fill-rule="evenodd" transform="matrix(-0.856426 -0.51627 -0.51627 0.856426 3359.55 1287.24)"/><path d="M3310.14 1305 3333.86 1305C3336.7 1305 3339 1307.3 3339 1310.14L3339 1323 3305 1323 3305 1310.14C3305 1307.3 3307.3 1305 3310.14 1305Z" fill-rule="evenodd"/></g></svg>