<svg overflow="hidden" viewBox="0 0 199 298" viewbox="0 0 199 298" xml:space="preserve" xmlns="http://www.w3.org/2000/svg"><defs><clipPath id="a"><rect x="2726" y="1226" width="199" height="298"/></clipPath></defs><g transform="translate(-2726 -1226)" clip-path="url(#a)"><path d="m2772 1518.3c-12.71-11.82-11.64-10.55-11.22-13.27 0.51-3.27 4.05-17.99 4.34-17.99 0.12 0 3.39 3.22 7.27 7.17l7.05 7.16 1.25-1.52c5.03-6.13 8.8-9.8 11.28-11 2.81-1.36 2.96-1.37 33.18-1.34 29.09 0.02 30.46 0.08 32.73 1.24 2.28 1.17 9.26 7.94 11.41 11.08l1.04 1.52 7.3-7.28c4.01-4 7.39-7.15 7.5-7s1.23 4.66 2.5 10.03l2.29 9.76-8.43 8.08c-4.63 4.44-8.56 8.07-8.73 8.08-0.17 0-3.05-2.2-6.4-4.88-8.28-6.63-9.42-7.11-18.92-7.92-7.01-0.61-8.1-0.85-9.45-2.14-3-2.86-6.52-3.94-12.81-3.92-6.55 0.01-9.13 0.73-12.59 3.51-2.28 1.83-2.79 1.96-10.23 2.56-4.31 0.35-8.69 1.02-9.74 1.48s-4.79 3.19-8.32 6.06c-3.52 2.87-6.59 5.23-6.81 5.24-0.22 0-2.69-2.11-5.49-4.71zm4.98-28.32c-7.12-4.79-9.03-7.76-9.8-15.27-0.72-7-2.41-13.28-5.16-19.24-1.16-2.51-7.64-12.93-14.39-23.15-13.83-20.92-18.33-28.3-20.01-32.8-2.21-5.91-2.19-7.87 0.27-20.42 1.25-6.4 2.51-11.56 2.79-11.47 0.28 0.1 4.44 4.08 9.24 8.85 9.65 9.58 9.84 9.69 20.03 11.77 7.21 1.47 19.11 1.6 28.77 0.31 8.07-1.07 10.53-2.13 11.47-4.95 0.37-1.15 1.19-2.36 1.81-2.69 1.32-0.71 45.06-0.84 46.14-0.14 0.38 0.24 1.11 1.46 1.63 2.69 1.3 3.13 3.62 4.12 11.93 5.11 10.48 1.24 21.35 1.12 28.23-0.31 10.21-2.14 9.9-1.96 20.11-11.82 7.83-7.57 9.43-8.86 9.81-7.93 0.91 2.28 4.16 20.03 4.15 22.72-0.01 3.28-1.18 8.02-2.73 11.03-2.41 4.66-9 15.1-19.44 30.8-14.7 22.08-17.17 27.45-19.02 41.37-1 7.57-2.63 10.41-8.38 14.59l-4.13 3-1.2-1.43c-0.66-0.78-2.04-3.16-3.06-5.28-1.46-3.02-2.3-4.03-3.95-4.72-1.74-0.73-8.08-0.88-37.35-0.88-40.51 0-38.49-0.26-40.54 5.18-0.64 1.68-1.9 3.92-2.82 4.99l-1.66 1.93zm16.78-115.19c-4.36-0.97-13.83-3.03-21.05-4.58-7.21-1.55-16.66-3.62-20.98-4.6-4.33-0.98-7.94-1.71-8.02-1.62-0.07 0.09-0.77 1.67-1.53 3.52-0.76 1.84-1.56 3.55-1.77 3.8s-2.28-1.46-4.6-3.8l-4.21-4.24 2.02-8.1c2.77-11.07 2.88-14.37 1.01-28.89-0.86-6.74-1.86-16.35-2.21-21.35-0.78-11.27-0.14-45.03 0.89-47.06 1.17-2.28 19.48-19.19 23.22-21.44 4.98-2.99 13.52-6.29 22.04-8.5 4.05-1.05 7.68-1.91 8.05-1.91s0.83 0.89 1.01 1.98c1.82 10.77 5.62 34.14 7.07 43.4 1.95 12.5 3.54 19.02 5.85 23.93 2.44 5.18 2.35 5.17 25.58 4.96l19.89-0.18 1.74-1.94c2.14-2.39 5-11.06 6.3-19.1 7.6-46.9 8.69-53.05 9.42-53.05 1.51-0.01 18.15 4.81 21.48 6.21 9.05 3.81 12.47 6.4 26.54 20.12l6.1 5.95-0.02 25.78c-0.02 25.57-0.04 25.93-2.03 41.32-2.21 17-2.2 17.1 0.57 28.2 0.98 3.92 1.79 7.85 1.79 8.74 0 1.14-1.09 2.74-3.76 5.52-2.06 2.15-3.95 3.91-4.2 3.91-0.24 0-1.05-1.65-1.81-3.67-0.75-2.02-1.56-3.78-1.78-3.92-0.23-0.14-1.63 0.02-3.13 0.36-1.49 0.34-14.65 3.2-29.25 6.36l-26.53 5.75-22.88-0.04-22.88-0.05-7.93-1.77z" fill-rule="evenodd"/></g></svg>
