<svg width="404.9pt" height="560pt" version="1.1" viewBox="0 0 404.9 560" xmlns="http://www.w3.org/2000/svg">
 <g transform="translate(-147.55 -.001)">
  <path d="m414.66 481.5h-129.32l-24.617 27.109-38.707-17.148c-5.1953 19.945-10.336 39.711-10.574 40.73-0.39062 1.7266 0.66016 10.039 15.008 19.605 14.348 9.5703 23.492 12.789 43.109-1.5586 19.605-14.34 27.977-16.141 38.5-16.141h19.605l4.1328-9.418h36.047l4.4805 9.418h19.605c10.527 0 18.895 1.7969 38.496 16.141 19.617 14.348 28.762 11.129 43.113 1.5586 14.34-9.5664 15.398-17.887 15.004-19.605-0.22266-1.0312-5.3633-20.781-10.566-40.73l-38.711 17.148z"/>
  <path d="m551.69 290.54-16.5-71.738 2.1445-153.52s-2.1445-5.0195-29.41-26.543c-27.254-21.523-68.875-38.738-68.875-38.738l-30.852 94.664h-116.41l-30.855-94.664s-41.609 17.215-68.867 38.734c-27.262 21.52-29.418 26.543-29.418 26.543l2.1523 153.52-16.492 71.742s-5.0273 30.855 10.762 51.656c15.781 20.805 65.277 79.637 66.719 102.59 1.4297 22.965 0.71875 30.133 0.71875 30.133l31.207 12.707 21.879-23.465h140.8l21.879 23.465 31.199-12.707s-0.71094-7.168 0.72266-30.133c1.4453-22.961 50.941-81.781 66.723-102.59 15.789-20.797 10.77-51.656 10.77-51.656zm-261.93-15.785s-35.547 10.891-63.746 8.7852c-28.785-2.1523-47.863-12.371-46.762-18.832 1.1016-6.457 11.25-34.195 11.25-34.195l99.477 31.328zm184.21 8.793c-28.195 2.1055-63.738-8.7852-63.738-8.7852l-0.23047-12.906 99.477-31.328s10.148 27.738 11.258 34.195c1.1055 6.4531-17.984 16.672-46.766 18.824z"/>
 </g>
</svg>
