<svg viewBox="0 0 78 117" width="78" height="117" xmlns="http://www.w3.org/2000/svg" xmlns:xlink="http://www.w3.org/1999/xlink" xml:space="preserve" overflow="hidden"><defs><clipPath id="clip0"><rect x="2847" y="1226" width="78" height="117"/></clipPath></defs><g clip-path="url(#clip0)" transform="translate(-2847 -1226)"><path d="M2864.89 1340.16C2859.95 1335.55 2860.37 1336.04 2860.53 1334.98 2860.73 1333.71 2862.11 1327.95 2862.22 1327.95 2862.26 1327.95 2863.54 1329.21 2865.04 1330.75L2867.79 1333.55 2868.27 1332.96C2870.23 1330.57 2871.7 1329.13 2872.66 1328.66 2873.75 1328.13 2873.81 1328.13 2885.56 1328.14 2896.87 1328.15 2897.41 1328.17 2898.29 1328.62 2899.18 1329.08 2901.89 1331.72 2902.73 1332.95L2903.13 1333.54 2905.97 1330.7C2907.53 1329.14 2908.84 1327.91 2908.89 1327.97 2908.93 1328.03 2909.37 1329.79 2909.86 1331.89L2910.75 1335.7 2907.47 1338.85C2905.67 1340.59 2904.14 1342.01 2904.08 1342.01 2904.01 1342.01 2902.89 1341.15 2901.59 1340.1 2898.37 1337.51 2897.93 1337.33 2894.23 1337.01 2891.51 1336.77 2891.08 1336.67 2890.56 1336.17 2889.39 1335.06 2888.02 1334.63 2885.57 1334.64 2883.03 1334.65 2882.02 1334.93 2880.68 1336.01 2879.79 1336.73 2879.59 1336.78 2876.7 1337.01 2875.02 1337.15 2873.32 1337.41 2872.91 1337.59 2872.5 1337.77 2871.05 1338.84 2869.68 1339.96 2868.31 1341.08 2867.12 1342 2867.03 1342 2866.94 1342.01 2865.98 1341.18 2864.89 1340.16ZM2866.83 1329.1C2864.06 1327.23 2863.32 1326.07 2863.02 1323.14 2862.74 1320.41 2862.08 1317.95 2861.01 1315.62 2860.56 1314.64 2858.04 1310.57 2855.42 1306.58 2850.04 1298.41 2848.29 1295.53 2847.63 1293.77 2846.77 1291.46 2846.78 1290.7 2847.74 1285.8 2848.22 1283.3 2848.71 1281.28 2848.82 1281.32 2848.93 1281.36 2850.55 1282.91 2852.42 1284.77 2856.17 1288.52 2856.24 1288.56 2860.21 1289.37 2863.01 1289.94 2867.64 1290 2871.4 1289.49 2874.53 1289.07 2875.49 1288.66 2875.85 1287.56 2876 1287.11 2876.32 1286.64 2876.56 1286.51 2877.07 1286.23 2894.08 1286.18 2894.5 1286.45 2894.65 1286.55 2894.94 1287.02 2895.14 1287.5 2895.64 1288.72 2896.54 1289.11 2899.78 1289.5 2903.85 1289.98 2908.08 1289.94 2910.75 1289.38 2914.73 1288.54 2914.6 1288.61 2918.57 1284.76 2921.62 1281.8 2922.24 1281.3 2922.39 1281.67 2922.75 1282.56 2924.01 1289.49 2924 1290.54 2924 1291.82 2923.54 1293.67 2922.94 1294.85 2922.01 1296.67 2919.44 1300.75 2915.38 1306.87 2909.66 1315.5 2908.7 1317.6 2907.99 1323.04 2907.6 1325.99 2906.96 1327.1 2904.73 1328.73L2903.12 1329.9 2902.65 1329.35C2902.4 1329.04 2901.86 1328.11 2901.46 1327.28 2900.9 1326.1 2900.57 1325.71 2899.93 1325.44 2899.25 1325.15 2896.79 1325.1 2885.4 1325.1 2869.65 1325.1 2870.43 1325 2869.64 1327.12 2869.39 1327.78 2868.9 1328.65 2868.54 1329.07L2867.9 1329.82ZM2873.35 1284.11C2871.66 1283.74 2867.98 1282.93 2865.17 1282.32 2862.36 1281.72 2858.69 1280.91 2857.01 1280.53 2855.33 1280.14 2853.92 1279.86 2853.89 1279.89 2853.86 1279.93 2853.59 1280.55 2853.3 1281.27 2853 1281.99 2852.69 1282.66 2852.61 1282.75 2852.53 1282.85 2851.72 1282.18 2850.82 1281.27L2849.18 1279.61 2849.97 1276.45C2851.04 1272.13 2851.09 1270.84 2850.36 1265.17 2850.02 1262.53 2849.64 1258.78 2849.5 1256.83 2849.2 1252.43 2849.44 1239.24 2849.85 1238.45 2850.3 1237.56 2857.42 1230.95 2858.88 1230.07 2860.81 1228.91 2864.13 1227.62 2867.45 1226.75 2869.02 1226.34 2870.43 1226.01 2870.58 1226.01 2870.72 1226.01 2870.9 1226.35 2870.97 1226.78 2871.68 1230.99 2873.16 1240.12 2873.72 1243.73 2874.48 1248.61 2875.1 1251.16 2876 1253.08 2876.94 1255.1 2876.91 1255.1 2885.94 1255.02L2893.68 1254.95 2894.36 1254.19C2895.19 1253.25 2896.3 1249.87 2896.8 1246.73 2899.76 1228.41 2900.18 1226.01 2900.47 1226.01 2901.06 1226.01 2907.53 1227.89 2908.82 1228.43 2912.34 1229.92 2913.67 1230.93 2919.14 1236.29L2921.52 1238.61 2921.51 1248.69C2921.5 1258.67 2921.49 1258.81 2920.72 1264.82 2919.86 1271.46 2919.86 1271.5 2920.94 1275.84 2921.32 1277.37 2921.64 1278.9 2921.64 1279.25 2921.64 1279.7 2921.21 1280.32 2920.17 1281.41 2919.37 1282.25 2918.64 1282.94 2918.54 1282.94 2918.45 1282.94 2918.13 1282.29 2917.84 1281.5 2917.54 1280.71 2917.23 1280.02 2917.14 1279.97 2917.06 1279.91 2916.51 1279.98 2915.93 1280.11 2915.35 1280.24 2910.23 1281.36 2904.55 1282.6L2894.23 1284.84 2885.34 1284.82 2876.44 1284.8 2873.36 1284.11Z" fill-rule="evenodd"/></g></svg>