<svg width="360.89pt" height="516.59pt" version="1.1" viewBox="0 0 360.89 516.59" xmlns="http://www.w3.org/2000/svg">
 <g transform="translate(-169.56 -12.621)">
  <path d="m302.63 362.48c-26.453-0.0508-51.066-13.543-65.332-35.816-12.66-20.184-63.641-135.16-67.492-237.07-1.6914-44.801 5.4258-70 21.117-75.832 15.691-5.832 35 12.016 44.742 23.625v-0.0039c1.8945 2.1133 3.6641 4.3359 5.3086 6.6523 1.1523 1.6328 0.78906 3.8867-0.81641 5.0742-0.78125 0.57031-1.7578 0.80469-2.7109 0.64844-0.95312-0.15234-1.8047-0.67969-2.3672-1.4648-1.3984-1.8086-2.7422-3.5586-4.1406-5.25-5.543-6.418-13.242-13.125-18.551-12.543-2.625 0-4.8984 2.625-6.6484 6.9414-9.8008 23.332 60.668 242.67 77.234 268.33v4e-3c10.469 16.188 18.855 33.629 24.965 51.914 0.35938 1.0664 0.18359 2.2383-0.46484 3.1523-0.64453 0.92578-1.6758 1.5039-2.8008 1.5742zm-105-342.48c-1.3867 0-2.7617 0.21875-4.082 0.64063-6.8828 2.6836-18.551 14.703-16.449 68.777 3.793 100.39 53.898 213.56 66.383 233.33 12.367 19.055 33.137 31.012 55.824 32.141-5.8008-15.883-13.332-31.086-22.457-45.324-15.984-24.5-89.543-246.75-77.875-274.57 1.6211-5.0391 5.4414-9.0703 10.383-10.965-3.5547-2.3438-7.6562-3.7305-11.902-4.0273z"/>
  <path d="m201.71 52.148c-1.9141-0.15234-3.3867-1.7539-3.3828-3.6719-0.22656-3.9258 1.6367-7.6758 4.9023-9.8594 10.09-6.5898 32.141 2.3906 36.516 4.2578 0.88281 0.38281 1.5781 1.1055 1.9297 2.0039 0.35156 0.89844 0.32812 1.8984-0.0625 2.7812-0.37109 0.89453-1.0898 1.5977-1.9961 1.9492-0.90234 0.35547-1.9102 0.32422-2.7891-0.08594-9.332-3.9648-24.848-8.1055-29.867-4.7812-0.75781 0.46484-1.6328 1.3398-1.6328 3.7344 0 2.0039-1.6094 3.6406-3.6172 3.6719z"/>
  <path d="m344.69 386.52c-0.90625 0.0117-1.7812-0.32031-2.4492-0.93359l-15.574-13.883c-0.34375-0.3125-0.62109-0.6875-0.81641-1.1094l-25.957-52.5h-4e-3c-0.69531-1.4336-0.39062-3.1523 0.75781-4.2578 1.1719-1.0977 2.918-1.3086 4.3164-0.52344l28.176 15.633c0.88672 0.46875 1.5273 1.2969 1.75 2.2734l13.242 50.809c0.43359 1.5586-0.23828 3.2109-1.6328 4.0273-0.55078 0.30859-1.1758 0.47266-1.8086 0.46484zm-12.543-19.773 5.832 5.3672-9.8008-37.625-16.625-9.2148z"/>
  <path d="m299.66 487.14c-0.66016 0-1.3047-0.18359-1.8672-0.52344-35-20.535-45.559-45.266-45.965-46.316h-4e-3c-0.37109-0.89062-0.375-1.8906-8e-3 -2.7812 0.36719-0.89453 1.0742-1.6016 1.9609-1.9727 1.8555-0.77344 3.9844 0.10156 4.7578 1.9531 0 0 10.207 23.332 42.934 42.816h-4e-3c1.4062 0.84375 2.082 2.5117 1.6641 4.0938-0.42188 1.582-1.8359 2.6953-3.4688 2.7305z"/>
  <path d="m303.33 320.07c-1.3867-8e-3 -2.6484-0.79688-3.2656-2.0391-6.8242-14.059-13.477-17.5-13.535-17.5h4e-3c-1.7852-0.89062-2.5352-3.0391-1.6953-4.8438 0.38281-0.87109 1.0977-1.5508 1.9883-1.8906 0.88672-0.33984 1.8711-0.30859 2.7383 0.082 0.93359 0.41016 9.1016 4.4336 17.035 20.883 0.4375 0.87109 0.50391 1.8867 0.1875 2.8086-0.32031 0.92188-0.99609 1.6758-1.8789 2.0938-0.48828 0.25-1.0273 0.39062-1.5781 0.40625z"/>
  <path d="m397.37 362.48h-2.043c-1.125-0.0703-2.1562-0.64844-2.8008-1.5742-0.64844-0.91797-0.82422-2.0859-0.46484-3.1523 6.1094-18.285 14.496-35.727 24.965-51.918 16.566-25.609 87.035-245 77.234-268.33-1.75-4.3164-4.0234-6.6484-6.6484-6.9414-5.25-0.58203-13.008 5.832-18.551 12.543-1.3984 1.6914-2.7422 3.4414-4.1406 5.25-0.5625 0.78516-1.4141 1.3125-2.3672 1.4648-0.95312 0.15625-1.9297-0.07813-2.7109-0.64844-1.6055-1.1875-1.9688-3.4453-0.81641-5.0742 1.6445-2.3164 3.4141-4.5391 5.3086-6.6523 9.8594-11.668 28.352-29.168 44.742-23.332 16.391 5.832 22.809 31.035 21.117 75.832-3.8516 101.62-54.832 216.59-67.492 236.72-14.266 22.273-38.879 35.766-65.332 35.816zm93.332-338.74c4.9844 1.9727 8.7891 6.1211 10.324 11.258 11.668 28.117-61.891 250.37-77.875 274.98-9.125 14.238-16.656 29.438-22.457 45.324 22.688-1.1328 43.457-13.086 55.824-32.141 12.484-19.891 62.59-133.06 66.383-233.33 2.1016-54.484-9.5664-66.504-16.273-69.188-5.5234-1.2812-11.336-0.15625-15.984 3.0938z"/>
  <path d="m498.29 52.148c-2.0078-0.03125-3.6172-1.668-3.6172-3.6719 0-2.3906-0.875-3.2656-1.6328-3.7344-5.0156-3.3242-20.301 0.81641-29.574 4.7852l-4e-3 -0.0039c-0.91016 0.53516-2.0078 0.64062-3.0039 0.29687-1-0.34766-1.7969-1.1094-2.1836-2.0898s-0.32422-2.082 0.16797-3.0156 1.3672-1.6055 2.3945-1.8398c4.375-1.8672 26.426-10.852 36.516-4.2578h4e-3c3.2656 2.1836 5.1289 5.9336 4.8984 9.8594 4e-3 1.0273-0.42188 2.0078-1.1758 2.707-0.75391 0.69531-1.7656 1.0469-2.7891 0.96484z"/>
  <path d="m350.29 315h-0.70312c-6.6719-0.0977-13.312-1-19.773-2.6836-20.301-5.832-30.859-7.9336-39.199-9.7422-3.6133-1.0703-6.875-3.0859-9.4492-5.832-1.875-1.8242-4.3867-2.8477-7-2.8594h-2.8008c-1.0469 0.13281-2.1016-0.19141-2.8906-0.88672-0.79297-0.69922-1.2461-1.7031-1.2461-2.7578s0.45312-2.0586 1.2461-2.7578c0.78906-0.69922 1.8438-1.0195 2.8906-0.89062h2.8008c4.3281 8e-3 8.4961 1.6562 11.664 4.6094 1.5938 1.793 3.5938 3.1719 5.8359 4.0273 8.457 1.8086 19.133 4.1992 39.609 9.8008l-4e-3 -4e-3c11.953 3.2695 24.566 3.2695 36.52 0 20.477-5.832 31.148-7.9922 39.609-9.8008l-4e-3 4e-3c2.2422-0.85547 4.2422-2.2344 5.8359-4.0273 3.168-2.9531 7.3359-4.6016 11.664-4.6094h2.8008c1.0469-0.12891 2.1016 0.19141 2.8945 0.89062 0.78906 0.69922 1.2422 1.7031 1.2422 2.7578s-0.45313 2.0586-1.2422 2.7578c-0.79297 0.69531-1.8477 1.0195-2.8945 0.88672h-1.8672c-2.5312 8e-3 -4.9648 0.96484-6.8242 2.6836-2.5781 2.75-5.8359 4.7617-9.4492 5.832-8.3398 1.8086-18.898 4.1992-39.199 9.7422-6.5469 1.7656-13.289 2.7266-20.066 2.8594z"/>
  <path d="m355.31 386.52c-0.66016 0-1.3047-0.18359-1.8672-0.52344-1.3945-0.81641-2.0664-2.4688-1.6328-4.0273l13.242-50.809v4e-3c0.22266-0.98047 0.86328-1.8086 1.75-2.2773l28.176-15.633c1.3984-0.78516 3.1445-0.57422 4.3164 0.52344 1.1484 1.1055 1.4531 2.8281 0.75781 4.2617l-25.957 52.5h-4e-3c-0.19531 0.41797-0.47266 0.79297-0.81641 1.1055l-15.516 13.941c-0.66797 0.61328-1.543 0.94531-2.4492 0.93359zm16.391-52.035-10.031 37.629 5.832-5.3672 20.477-41.477z"/>
  <path d="m385.64 529.02c-1.0078 0.12891-2.0234 0.12891-3.0312 0-1.1875-0.33594-2.1172-1.2578-2.4727-2.4375-0.35156-1.1797-0.082-2.4609 0.72266-3.3945 14.816-15.75 18.023-54.715 18.023-55.125 0.10547-1.3828 0.98828-2.582 2.2773-3.0898 24.148-9.5664 46.668-59.676 46.375-74.316-1.043-9.293-5.1484-17.977-11.668-24.676-19.594 7.8789-39.758 14.258-60.316 19.074l-9.043 8.3984c-0.25391 0.26172-0.55078 0.47656-0.875 0.64453l-13.941 6.8242c-1.0234 0.52734-2.2422 0.52734-3.2656 0l-13.941-6.8242c-0.32422-0.16797-0.62109-0.38281-0.875-0.64453l-9.043-8.3984c-20.562-4.8164-40.723-11.195-60.316-19.074-6.5195 6.6992-10.625 15.383-11.668 24.676-0.41016 14.641 22.227 64.75 46.375 74.316 1.2891 0.50781 2.1719 1.707 2.2773 3.0898 0 0.41016 3.207 39.375 18.023 55.125 0.80469 0.93359 1.0742 2.2148 0.71875 3.3945-0.35156 1.1797-1.2852 2.1016-2.4688 2.4375-1.168 0-30.16 6.9414-67.668-62.477v4e-3c-8e-3 -0.21484-8e-3 -0.42969 0-0.64062-21.117-64.809-17.035-148.57-16.977-149.39l4e-3 -4e-3c0.17969-1.957 1.8281-3.4492 3.793-3.4414 0.97266 0.0469 1.8906 0.47656 2.5469 1.1992 0.65625 0.72266 1 1.6758 0.95312 2.6523 0 0.81641-4.082 82.949 16.566 146.42 23.332 43.34 42.523 54.832 52.5 57.75-10.441-16.801-13.824-42.699-14.582-50.457-27.359-13.012-49.645-64.172-49.645-80.68s14.992-30.859 15.633-31.441c1.0508-0.94141 2.5391-1.2109 3.8516-0.69922 20.184 8.207 40.973 14.836 62.184 19.832 0.67578 0.10937 1.3008 0.41406 1.8086 0.875l9.8555 8.8086 11.668 5.832 11.668-5.832 9.3906-8.8086c0.50391-0.46094 1.1328-0.76563 1.8086-0.875 21.23-4.9805 42.039-11.613 62.242-19.832 1.3125-0.51172 2.8008-0.24219 3.8477 0.69922 0.64062 0.58203 15.109 14.234 15.633 31.441 0.52344 17.207-22.109 67.668-48.883 80.383-0.75781 7.7578-4.1406 33.66-14.582 50.457 9.7422-2.918 28.816-14.352 52.5-57.75 20.648-63.465 16.625-145.83 16.566-146.42v4e-3c-0.0469-0.97266 0.29688-1.9297 0.95312-2.6523 0.65625-0.71875 1.5703-1.1523 2.5469-1.1953 1.9648-0.0117 3.6094 1.4844 3.793 3.4414 0 0.81641 4.1406 84.582-16.977 149.39 0.0117 0.21484 0.0117 0.42578 0 0.64062-31.207 57.285-56.348 62.766-64.867 62.766z"/>
  <path d="m400.34 487.14c-1.6328-0.0352-3.0469-1.1484-3.4688-2.7305-0.41797-1.582 0.25781-3.25 1.6641-4.0938 32.727-19.191 42.816-42.582 42.934-42.816h-4e-3c0.77344-1.8516 2.9023-2.7266 4.7578-1.9531 1.8516 0.77344 2.7266 2.9023 1.9531 4.7539-0.41016 1.0508-10.965 25.785-45.965 46.316h-4e-3c-0.5625 0.33984-1.207 0.52344-1.8672 0.52344z"/>
  <path d="m396.67 320.07c-0.54688 4e-3 -1.082-0.11719-1.5781-0.34766-0.88281-0.41797-1.5586-1.1719-1.8789-2.0938-0.31641-0.92187-0.25-1.9375 0.1875-2.8086 7.9336-16.449 16.102-20.477 17.035-20.883 0.88281-0.39062 1.8828-0.41406 2.7812-0.0625 0.89844 0.35156 1.6172 1.0469 2 1.9297 0.82422 1.8203 0.0117 3.9609-1.8047 4.7812 0 0-6.6484 3.3828-13.477 17.5-0.63281 1.2227-1.8945 1.9883-3.2656 1.9844z"/>
  <path d="m350 340.43h-0.875l-18.551-4.7266c-1.9609-0.48828-3.1602-2.4688-2.6836-4.4336 0.51562-1.9375 2.4883-3.1055 4.4336-2.625l17.5 4.4922 17.5-4.4922c1.9453-0.48047 3.918 0.6875 4.4336 2.625 0.47656 1.9648-0.72266 3.9453-2.6836 4.4336l-18.551 4.7266z"/>
 </g>
</svg>
