<svg
   version="1.1"
   id="svg1"
   width="539.35199"
   height="366.07196"
   viewBox="0 0 539.35199 366.07196"
   xmlns="http://www.w3.org/2000/svg">
   <defs
      id="defs1" />
   <g
      id="g1"
      transform="translate(-30,-116.92803)">
      <path
         style="stroke:none"
         d="m 208,247 -3,1 -4,-3 -3,-16 h -1 c 0.73067,7.72174 1.31728,21.30743 7,27 l -1,-6 h 1 l 8,39 h 1 v -7 h 1 l 5,20 h 1 v -3 h 1 l 5,23 h 1 c 0.0386,-1.83124 0.52179,-7.68973 3,-5 h 1 v -4 h 1 l 3,14 h 1 l -1,-24 h 1 c 2.04553,5.9722 6.86943,13.58218 14,11 l 4,11 4,-9 h 1 l 1,16 -3,-2 2,12 2,-1 1,4 3,-1 3,8 h 1 l -4,-25 h 4 l -1,-5 7,20 h 2 l 1,-4 2,2 h 1 l 7,-16 h 1 l 5,10 1,-7 h 1 v 6 l 5,1 7,-11 -5,16 h 1 l 2,-5 h 1 l -1,10 h 1 l 6,-8 -1,6 3,4 h 1 l 1,-4 h 1 l -1,5 5,-6 3,2 4,-7 -1,3 h 1 l 6,-10 h 1 l 2,-6 h 1 l -6,15 9,-9 -9,16 26,-36 -17,32 c 11.63165,-9.58557 14.05814,-22.22705 21.85895,-33.99927 C 377.06668,287.06897 409.1554,267.7312 402,239 c -8.64255,10.95972 -16.74597,21.70465 -29,29 l 4,-9 -6,5 3,-16 h -1 l -8,18 h -1 c 1.39066,-5.95688 2.91104,-11.36771 -3,-15 l -1,4 h -1 l 1,-6 h -1 l -7,11 h -1 v -12 h -1 v 3 h -1 l 1,-6 -2,-1 h -1 l -1,2 -3,-2 -5,7 1,-9 h -1 l -7,18 h -1 l -1,-8 h -1 l -1,4 h -1 l 7,-54 h -1 l -15,51 h -1 l -2,-15 h -1 v -4 h -1 v 3 h -1 l -3,-22 h -1 l -2,17 h -1 l -3,-29 c -5.53708,4.27737 -4.93991,13.4957 -5,20 h -1 l -1,-7 h -1 v 7 l -4,-6 h -1 l -1,2 -5,-16 h -1 v 2 h -1 l -2,-7 h -1 v 3 h -1 c -1.58401,-38.9361 51.69272,-62.99973 85,-50.73743 19.57843,7.20792 26.71854,21.76389 41,34.73743 C 395.6488,123.24368 311.1106,103.05594 263,126.28452 213.98273,149.95084 203.40053,197.86218 208,247 m 188,-76 c -13.23407,-9.86551 -24.16562,-21.64587 -41,-25.29007 -11.34726,-2.45639 -22.90036,-0.39267 -34,2.41739 -10.17426,2.57577 -20.78693,6.72162 -28.99744,13.41 -59.47255,48.44718 18.61801,149.69217 81.99744,109.3162 9.62137,-6.12934 18.54761,-14.46296 25,-23.85352 2.37164,9.36807 -5.65497,21.87531 -11.03003,29 -14.96155,19.83173 -33.04867,35.9213 -57.96997,41.31223 -16.17566,3.49908 -35.96277,4.93426 -52,0.2073 C 244.11444,307.5318 219.01358,275.51379 211.4458,242 200.87846,195.20276 224.52997,143.96481 270,126.22229 311.31137,110.10248 381.60983,122.18161 396,171 m -69,20 c -0.91113,2.26672 -1.65042,3.53455 -3,1 h -1 v 27 h 1 l 3,-28 m 11,16 -2,13 h 1 v -2 h 1 l 1,4 h 1 l 2,-11 h -1 l -1,3 h -1 l -1,-7 m 11,4 c -1.82382,5.51508 -5.82388,11.95471 0,16 l 3,-10 h -1 v 2 h -1 l 1,-4 h -2 v -4 m -74,3 8,27 h -1 c -3.89096,-7.15591 -9.11636,-18.75363 -7,-27 m 64,0 v 3 h -1 l 1,-3 m 21,0 -7,22 h 1 l 6,-22 m -69,20 2,15 h -1 l -1,-15 m 45,0 c -2.2941,5.03976 -8.05048,14.55643 -3,19 1.84848,-5.97089 6.4545,-13.00812 3,-19 m 11.66666,12.66666 -0.33332,0.66668 0.33332,-0.66668 m -144.99999,1 -0.33334,0.66668 0.33334,-0.66668 M 336,253 l -5,14 h -1 l 6,-14 m -10.33334,3.66666 -0.33332,0.66668 0.33332,-0.66668 m 25,4 -0.33332,0.66668 0.33332,-0.66668 M 210,267 l 4,13 c -3.59712,-3.09195 -4.68466,-8.39673 -4,-13 m 24.66667,34.66666 -0.33334,0.66668 0.33334,-0.66668 M 230,303 l 1,9 h -1 v -9 m 138,6 -9,17 h 1 l 8,-17 m -111,2 1,5 h -1 v -5 m 93,4 -2,5 h -1 l 3,-5 m -119,4 v 4 h 1 l -1,-4 m 110,1 -1,3 h -1 l 2,-3 m -91,6 6,20 h 1 c -0.45877,-7.17386 -2.28792,-14.43265 -7,-20 m 92.66666,1.66666 -0.33332,0.66668 0.33332,-0.66668 M 258,332 l -1,1 1,-1 M 569,344 503,368.93002 378,411.3165 325,423 l 5,9 8,2 -8,-8 v -2 c 6.58511,0.3288 9.32617,6.64615 12,12 l 20,8 v -1 l -10,-9 14,10 -3,-6 4,2 -1,-4 c 9.05667,5.74103 30.42032,12.45914 31,25 l 11,2 -2,-4 4,-1 -9,-6 -4,2 -2,-4 6,1 v -1 l -3,-1 1,-5 22,9 v 1 l -8,-2 c 8.55142,9.41327 20.97324,12.75848 33,15 v 1 h -6 v 1 l 51,-1 v -1 l -43,-2 v -1 c 22.7348,0 41.6431,-1.13202 62,-12 v -1 l -16,4 v -4 l 6,-3 -1,-2 23,-7 v -1 l -17,3 v -1 l 4,-1 v -1 L 489,445.00598 465,450 v -1 c 7.00143,-1.76099 22.97095,-2.03723 25,-10 l 6,-2 -1,-2 9,-3 c 0.47519,-3.6568 5.64023,-4.54337 9,-4.91669 6.33295,-0.70367 15.94025,-2.71774 19,-9.08331 l -18,7 27,-23 -8,12 12,-9 -2,4 c 11.82312,-9.8551 19.99493,-28.05084 26,-42 l -7,10 h -1 c 2.89905,-9.19482 10.00781,-23.28424 8,-33 m -539,3 6,24 c 2.478966,29.55884 29.791023,36.62564 45,57 l -13,-5 v 1 l 4,2 v 1 l -11,-8 30,23 -4,-1 v 1 l 33,12 v 1 l -14,1 v 1 h 4 v 1 l -4,1 v 2 l 3,1 -2,1 v 1 l 16,2 v 1 h -22 v 1 l 14,2 v 1 l -7,1 v 1 c 26.77542,4.09589 50.63461,3.51721 77,-2 v -1 l -34,3 v -1 l 11,-3 -38,-1 v -1 h 37 l -1,-3 h 6 l -1,-3 18,-2 v -1 l -16,-1 v -1 h 5 v -1 l -8,-1 v -1 l 5,-1 v -1 l -16,-1 v -1 l 30,-4 c 8.6843,7.56085 28.50952,-7.6875 35,-13 l -7,11 3,-1 2,2 -2,6 6,-4 1,3 4,-2 v 2 l 10,-6 -3,6 17,-16 -8,13 24,-24 -5,11 c 5.40088,-2.77344 6.33829,-7.83023 8,-13 -32.8922,-0.62592 -66.60886,-14.14862 -97,-25.56683 C 142.54819,383.74359 113.61731,374.49725 85,364.29071 68.214943,358.3042 50.668259,349.70569 33,347 l 4,10 h -1 l -6,-10 m 7.666668,10.66669 -0.333336,0.66662 0.333336,-0.66662 M 67,361 126,380.67175 206,409 c -13.68434,15.16028 -29.25697,11.14865 -47,7.60001 C 129.78345,410.75665 92.912964,405.67596 75.732742,379 72.370758,373.77979 67.538223,367.30353 67,361 m 458,1 c -2.54095,14.20377 -15.62463,34.27435 -28.01859,41.77203 -12.60247,7.62384 -30.76,9.98713 -44.98141,13.10898 -12.49948,2.74387 -28.24609,6.58856 -41,3.60089 -6.78821,-1.59018 -13.28806,-6.66165 -19,-10.4819 v -1 l 133,-47 m 40,1 -1,1 1,-1 m -4,14 -13,24 c 0.8468,-7.92517 8.0036,-17.84802 13,-24 m -523,17 12,18 -3,-5 c 1.41946,-2.52557 -0.651073,-3.41983 -3,-4 l -6,-9 m 507,3 -3,5 h -1 l 4,-5 m -499,6 -1,1 1,-1 m 227,25 -8,11 c 3.89401,-2.5722 7.94907,-6.05725 8,-11 m -209,1 v 1 l 4,2 v 1 l -4,-1 v 1 l 24,12 v -1 l -14,-7 v -1 l 4,1 v -1 l -14,-7 m 186,3 -1,1 1,-1 m -181,1 5,2 v 1 l -6,-2 1,-1 m 275,1 -1,1 1,-1 m 41,3 13,11 c -5.38763,-1.96301 -10.91089,-5.44434 -13,-11 m -286,2 18,9 v 1 l 13,1 v 1 c -12.50449,-0.11584 -21.46992,-4.92432 -32,-11 l 1,-1 m 406,2 v 1 l -3,1 3,-2 m -413,1 19,6 v 1 l -20,-6 1,-1 m 144,0 -1,1 1,-1 m 150,1 9,7 -10,-6 1,-1 m 13,0 -1,1 1,-1 m -283,4 1,1 -1,-1 m 338,2 v 1 l -21,-1 c 6.75342,-2.30139 14.19485,-1.69812 21,0 m -71,3 v 2 l 9,3 1,-2 -10,-3 m 103,-1 v 1 l -15,2 15,-3 m -322,1 v 1 h -17 l 17,-1 m -47,6 v 1 h -7 l 7,-1 m 343,4 v 1 h -21 l 21,-1 m -7,5 -1,1 1,-1 m 12,5 v 1 h 14 l -14,-1 m -365,4 -1,4 54,3 c -16.42906,-5.92084 -35.55817,-6.66806 -53,-7 m 362,3 19,-1 c -4.93561,-1.67206 -14.90063,-2.60068 -19,1 z"
         id="path1" />
   </g>
</svg>