<svg width="521.21pt" height="425.04pt" version="1.1" viewBox="0 0 521.21 425.04" xmlns="http://www.w3.org/2000/svg">
 <g transform="translate(-89.273 -70.561)">
  <path d="m605.92 300.72c-35.84-17.359-63.281-65.52-73.359-84.559 35.281-19.602 43.121-76.16 36.961-113.12-4.4805-26.879-14.559-32.48-22.398-32.48-22.961 0-68.879 30.238-89.602 69.441-13.441-8.9609-43.121-20.16-107.52-20.16-64.398 0-94.078 11.199-107.52 20.16-20.719-39.199-66.641-69.441-89.602-69.441-7.8398 0-17.922 5.6016-22.398 32.48-6.1602 36.961 1.6797 93.52 36.961 113.12-9.5195 18.48-37.52 67.199-73.359 84.559-3.9219 2.2383-6.1602 7.2812-3.9219 11.199 1.6797 2.8008 4.4805 4.4805 7.2812 4.4805 1.1211 0 2.2383 0 3.9219-1.1211 39.754-19.039 69.434-69.438 80.633-90.156l0.55859-0.55859c24.641-28 83.441 17.359 84 17.922 1.6797 1.1211 3.9219 1.6797 5.6016 0.55859 1.6797-1.1211 3.3594-2.8008 3.3594-5.0391l0.55859-17.922c12.32 19.039 24.641 43.68 21.281 55.441-0.55859 2.8008-2.8008 11.199-16.238 8.9609-10.078-1.6797-18.48-7.8398-26.879-14-8.3984-6.1602-17.359-12.879-28-15.121-13.441-2.8008-26.32 11.762-42.559 30.238-14.559 16.238-30.801 34.16-47.602 40.879 0 0-22.961 8.9609-36.961 7.2812-2.8008-0.55859-6.1602 1.6797-6.1602 5.0391-0.55859 2.8008 1.6797 6.1602 5.0391 6.1602 1.6797 0 3.3594 0.55859 5.6016 0.55859 15.68 0 35.281-7.2812 36.961-7.8398 15.68-5.6016 29.68-19.039 42-33.039 1.6797 0.55859 5.0391 4.4805 7.8398 7.2812 8.9609 10.078 22.961 24.641 48.16 25.762h2.2383c22.398 0 36.398-17.922 46.48-30.801 4.4805-6.1602 8.9609-11.199 12.32-13.441 0.55859 0 0.55859-0.55859 0.55859-0.55859 3.9219-2.8008 7.2812-7.2812 8.3984-13.441 6.7188-25.199-28.559-73.359-32.48-78.961-1.6797-1.6797-3.9219-2.8008-6.1602-2.2383-2.2383 0.55859-3.9219 2.8008-3.9219 5.0391l-0.55859 24.641c-16.238-11.199-52.641-31.359-78.398-19.602-1.1211-1.6797-2.8008-3.3594-4.4805-3.9219-26.32-8.9609-33.039-44.801-35.281-59.922-3.3594-25.762 1.1211-48.16 5.6016-55.441 35.84 17.363 62.723 85.684 63.281 86.805 1.1211 2.2383 2.8008 3.3594 5.0391 3.3594 0.55859 0 1.1211 0 2.2383-0.55859 2.8008-1.1211 4.4805-4.4805 3.3594-7.2812-1.1211-2.2383-17.359-43.121-42.559-71.68 19.039 12.879 39.762 33.602 48.16 57.121 1.1211 3.3594 3.9219 5.0391 7.2812 5.6016 3.3594 0 6.7188-1.6797 7.8398-5.0391 0 0 15.68-21.281 102.48-21.281 87.922 0 102.48 21.281 102.48 21.281 1.6797 2.8008 4.4805 5.0391 7.8398 5.0391 3.3594 0 6.1602-2.2383 7.2812-5.6016 8.9609-23.52 29.121-44.238 48.16-57.121-25.762 28-42 68.879-42.559 71.68-1.1211 2.8008 0.55859 6.1602 3.3594 7.2812 0.55859 0 1.1211 0.55859 2.2383 0.55859 2.2383 0 4.4805-1.1211 5.0391-3.3594 0.55859-1.1211 27.441-69.441 63.84-86.801 4.4805 7.2812 8.3984 29.121 5.6016 55.441-1.6797 15.121-8.9609 50.961-35.281 59.922-2.2383 0.55859-3.3594 2.2383-4.4805 3.9219-25.762-11.762-62.16 8.3984-78.398 19.602l-0.55859-24.641c0-2.2383-1.6797-4.4805-3.9219-5.0391-2.2383-0.55859-4.4805 0-6.1602 2.2383-3.9219 5.6016-39.199 53.762-32.48 78.961 1.6797 5.6016 4.4805 10.078 8.3984 13.441l0.55859 0.55859c3.3594 2.2383 7.8398 7.8398 12.32 13.441 10.078 13.441 24.078 30.801 46.48 30.801h2.2383c25.199-1.1211 39.199-16.238 48.16-25.762 2.8008-2.8008 6.1602-6.7188 7.8398-7.2812 12.879 13.441 26.879 26.879 42 33.039 1.6797 0.55859 20.719 7.8398 36.961 7.8398 1.6797 0 3.9219 0 5.6016-0.55859 2.8008-0.55859 5.0391-3.3594 5.0391-6.1602-0.55859-2.8008-3.3594-5.0391-6.1602-5.0391-14 1.6797-36.398-6.7188-36.961-7.2812-17.359-6.1602-33.602-24.641-47.602-40.879-16.238-18.48-29.121-33.039-42.559-30.238-11.199 2.2383-19.602 8.9609-28 15.121-8.3984 6.7188-16.801 12.32-26.879 14-13.441 2.2383-15.68-6.1602-16.238-8.9609-3.3594-11.762 8.9609-36.398 21.281-55.441l0.55859 17.922c0 2.2383 1.1211 3.9219 3.3594 5.0391 1.6797 1.1211 3.9219 0.55859 5.6016-0.55859 0.55859-0.55859 59.359-45.922 84-17.922l0.55859 0.55859c11.199 21.281 40.32 71.121 80.078 90.719 1.1211 0.55859 2.2383 1.1211 3.9219 1.1211 3.3594 0 6.1602-1.6797 7.2812-4.4805 1.6797-5.043 0-10.086-3.918-11.766zm-367.36 25.203c-20.719-1.1211-31.922-13.441-40.32-22.398-2.8008-2.8008-5.6016-5.6016-8.3984-7.8398 0.55859-1.1211 1.6797-1.6797 2.2383-2.8008 11.762-12.879 24.641-28 31.922-26.32-10.078 6.7188-20.16 19.039-24.078 23.52-1.6797 2.2383-1.6797 6.1602 1.1211 7.8398 1.1211 0.55859 2.2383 1.1211 3.3594 1.1211 1.6797 0 3.3594-0.55859 4.4805-2.2383 10.641-14 24.641-25.762 29.121-24.641 3.3594 2.2383 6.7188 4.4805 10.078 7.2812 9.5195 7.2812 19.039 14 31.922 16.238h0.55859c-1.1211 1.1211-1.6797 2.2383-2.8008 3.3594-10.641 12.879-21.84 27.438-39.203 26.879zm213.92-46.48c3.3594-2.2383 6.7188-5.0391 10.078-7.2812 4.4805-1.1211 18.48 10.641 29.121 24.641 1.1211 1.6797 2.8008 2.2383 4.4805 2.2383 1.1211 0 2.2383-0.55859 3.3594-1.1211 2.2383-1.6797 2.8008-5.6016 1.1211-7.8398-3.9219-5.0391-13.441-16.801-24.078-23.52 6.7188-1.1211 20.16 13.441 31.922 26.32 0.55859 1.1211 1.6797 1.6797 2.2383 2.8008-2.8008 2.2383-5.6016 5.0391-8.3984 7.8398-8.3984 8.9609-19.602 21.281-40.32 22.398-17.922 0.55859-29.121-14-39.199-26.879-1.1211-1.1211-1.6797-2.2383-2.8008-3.3594h0.55859c13.438-1.6797 22.957-8.9609 31.918-16.238z"/>
  <path d="m598.08 393.12-50.398-6.7227c-2.8008-0.55859-6.1602 1.6797-6.1602 5.0391-0.55859 2.8008 1.6797 5.6016 5.0391 6.1602l49.84 6.7188h0.55859c2.8008 0 5.0391-2.2383 5.6016-5.0391 0.5625-2.7969-1.6797-6.1562-4.4805-6.1562z"/>
  <path d="m602 362.88c-4.4805 0-27.441-2.8008-42-5.0391-2.8008-0.55859-6.1602 1.6797-6.1602 5.0391-0.55859 2.8008 1.6797 6.1602 5.0391 6.1602 3.9219 0.55859 36.961 5.0391 43.121 5.0391 3.3594 0 5.6016-2.2383 5.6016-5.6016 0-3.3555-2.2422-5.5977-5.6016-5.5977z"/>
  <path d="m158.48 391.44c-0.55859-2.8008-3.3594-5.0391-6.1602-5.0391l-49.84 6.7188c-2.8008 0.55859-5.0391 3.3594-5.0391 6.1602 0.55859 2.8008 2.8008 5.0391 5.6016 5.0391h0.55859l49.84-6.7188c3.3594-0.5625 5.5977-3.3633 5.0391-6.1602z"/>
  <path d="m141.12 368.48c2.8008-0.55859 5.0391-3.3594 5.0391-6.1602-0.55859-2.8008-3.3594-5.0391-6.1602-5.0391-14.559 2.2383-37.52 5.0391-42 5.0391-3.3594 0-5.6016 2.2383-5.6016 5.6016 0 3.3594 2.2383 5.6016 5.6016 5.6016 6.7188 0.55469 39.762-4.4844 43.121-5.043z"/>
  <path d="m573.44 422.8c-2.8008-0.55859-5.6016-0.55859-8.3984-0.55859-16.801-6.1602-36.398-11.762-37.52-11.762-2.8008-0.55859-6.1602 1.1211-6.7188 3.9219-0.55859 2.8008 1.1211 6.1602 3.9219 6.7188 0 0 5.6016 1.6797 13.441 3.9219-20.16 4.4805-41.441 13.441-63.84 22.398-21.281 8.9609-43.121 17.922-63.281 22.398 1.6797-3.9219 2.2383-7.8398 2.2383-11.199 0-1.1211 0-2.2383-0.55859-3.3594 1.6797-1.6797 3.3594-3.9219 5.0391-6.1602 34.719-49.281 15.121-87.922-1.1211-119.28-3.3594-7.2812-6.7188-13.441-9.5195-20.16-1.1211-2.8008-4.4805-4.4805-7.2812-2.8008-2.8008 1.1211-4.4805 4.4805-2.8008 7.2812 2.8008 6.7188 6.1602 13.441 10.078 20.719 16.238 31.359 32.48 64.398 1.6797 108.08-4.4805 6.1602-9.5195 9.5195-16.238 10.641-17.922 2.8008-38.078-11.762-38.641-11.762-0.55859 0-0.55859-0.55859-1.1211-0.55859-0.55859 0-0.55859-0.55859-1.1211-0.55859h-2.2422c-0.55859 0-0.55859 0-1.1211 0.55859-0.55859 0-0.55859 0-1.1211 0.55859 0 0-20.719 15.121-38.641 11.762-6.7188-1.1211-11.762-4.4805-16.238-10.641-30.801-43.68-14-76.16 1.6797-108.08 3.9219-7.2812 7.2812-14 10.078-20.719 1.1211-2.8008 0-6.1602-2.8008-7.2812-2.8008-1.1211-6.1602 0-7.2812 2.8008-2.8008 6.1602-6.1602 12.879-9.5195 20.16-15.68 31.359-35.84 70.559-1.1211 119.28 1.6797 2.2383 3.3594 4.4805 5.0391 6.1602-0.55859 1.1211-0.55859 2.2383-0.55859 3.3594 0 3.3594 0.55859 7.2812 2.2383 11.199-20.16-4.4805-42-13.441-63.281-22.398-22.398-8.9609-43.68-17.922-63.84-22.398 7.8398-2.2383 13.441-3.9219 13.441-3.9219 2.8008-0.55859 5.0391-3.9219 3.9219-6.7188-0.55859-2.8008-3.9219-5.0391-6.7188-3.9219-1.1211 0-21.281 5.6016-37.52 11.762-2.8008 0-5.6016 0.55859-8.3984 0.55859-4.4805 0.55859-7.8398 5.0391-7.2812 9.5195 0.55859 4.4805 5.0391 7.8398 9.5195 7.2812 24.078-3.9219 57.68 10.078 90.16 23.52 31.359 12.879 63.281 26.32 91.84 26.879 8.9609 3.3594 21.84 5.6016 38.641 5.6016s29.121-2.2383 38.641-5.6016c28.559-0.55859 60.48-14 91.84-26.879 32.48-13.441 66.078-27.441 90.16-23.52 4.4805 0.55859 8.9609-2.2383 9.5195-7.2812 0.56641-4.4805-2.793-8.9609-7.2734-9.5195zm-267.12 42c2.2383 0.55859 4.4805 0.55859 6.7188 0.55859 15.68 0 30.801-8.3984 36.961-12.32 6.1602 3.9219 21.281 12.32 36.961 12.32 2.2383 0 4.4805 0 6.7188-0.55859h1.1211c-1.6797 3.9219-5.6016 7.2812-10.641 9.5195-0.55859 0-1.1211 0.55859-1.6797 0.55859-10.078 3.9219-22.961 4.4805-32.48 4.4805s-22.961-0.55859-32.48-4.4805c-0.55859 0-1.1211-0.55859-1.6797-0.55859-5.0391-2.2383-8.9609-5.0391-10.641-9.5195 0.5625-0.5625 0.5625-0.5625 1.1211 0z"/>
  <path d="m368.48 290.08c7.8398 0 14.559-8.3984 16.801-21.281 3.3594-19.039 14-70.559 14.559-71.121 0.55859-1.6797 0-3.3594-1.1211-4.4805s-2.8008-2.2383-4.4805-2.2383h-24.078c-2.8008 0-5.0391 1.6797-5.6016 4.4805-0.55859 1.6797-8.3984 47.039-8.3984 72.238 0 18.48 7.2812 21.84 11.762 22.398-0.5625 4e-3 0 4e-3 0.55859 4e-3zm5.5977-87.918h12.879c-2.8008 14.559-10.078 49.84-12.879 64.961-1.1211 7.2812-3.9219 10.641-5.6016 11.762-0.55469-1.1211-1.6758-4.4844-1.6758-11.203 0-19.602 5.5977-53.199 7.2773-65.52z"/>
  <path d="m331.52 290.08h1.1211c4.4805-0.55859 11.762-3.9219 11.762-22.398 0-25.762-8.3984-70.559-8.3984-72.238-0.55859-2.8008-2.8008-4.4805-5.6016-4.4805h-24.078c-1.6797 0-3.3594 0.55859-4.4805 2.2383-1.1211 1.6797-1.6797 2.8008-1.1211 4.4805 0 0.55859 11.199 52.078 14.559 71.121 2.2383 12.879 8.957 21.277 16.238 21.277zm-18.48-87.918h12.879c1.6836 12.32 7.2812 45.918 7.2812 65.52 0 6.7188-1.1211 9.5195-1.6797 10.641-1.6797-1.1211-3.9219-5.0391-5.6016-11.762-2.7969-14.559-9.5195-49.84-12.879-64.398z"/>
  <path d="m301.28 375.2 19.602 38.078c1.1211 1.6797 2.8008 2.8008 5.0391 2.8008h48.719c2.2383 0 3.9219-1.1211 5.0391-2.8008l19.602-38.078c1.1211-1.6797 0.55859-4.4805-0.55859-6.1602l-16.238-21.281c-1.1211-1.1211-2.8008-2.2383-4.4805-2.2383h-55.445c-1.6797 0-3.3594 0.55859-4.4805 2.2383l-16.238 21.281c-1.6797 1.6797-1.6797 3.9219-0.55859 6.1602zm24.078-18.48h49.281l12.32 16.238-16.238 31.359-20.723 4e-3h-21.281l-16.238-31.359z"/>
  <path d="m377.44 372.4c0-3.3594-2.2383-5.6016-5.6016-5.6016h-43.121c-3.3594 0-5.6016 2.2383-5.6016 5.6016 0 3.3594 2.2383 5.6016 5.6016 5.6016h43.121c2.8008 0 5.6016-2.8008 5.6016-5.6016z"/>
  <path d="m469.28 359.52c10.641 0 24.078-3.9219 37.52-16.238 2.2383-2.2383 2.2383-5.6016 0.55859-7.8398-1.6797-2.2383-5.6016-2.2383-7.8398-0.55859-30.238 26.879-53.762 5.0391-54.879 3.9219-2.2383-2.2383-5.6016-2.2383-7.8398 0-2.2383 2.2383-2.2383 5.6016 0 7.8398 0.55859 0.55469 13.438 12.875 32.48 12.875z"/>
  <path d="m263.2 347.2c2.2383-2.2383 2.2383-5.6016 0-7.8398s-5.6016-2.2383-7.8398 0c-1.1211 1.1211-24.641 22.961-54.879-3.9219-2.2383-2.2383-5.6016-1.6797-7.8398 0.55859-2.2383 2.2383-1.6797 5.6016 0.55859 7.8398 14 12.32 26.879 16.238 37.52 16.238 19.043-0.55469 31.922-12.875 32.48-12.875z"/>
 </g>
</svg>
