<svg viewBox="0 0 141 116" width="141" height="116" xmlns="http://www.w3.org/2000/svg" xmlns:xlink="http://www.w3.org/1999/xlink" xml:space="preserve" overflow="hidden"><defs><clipPath id="clip0"><rect x="4190" y="1226" width="141" height="116"/></clipPath></defs><g clip-path="url(#clip0)" transform="translate(-4190 -1226)"><path d="M4329.77 1288.78C4320.07 1284.04 4312.65 1270.91 4309.92 1265.71 4319.46 1260.37 4321.59 1244.94 4319.92 1234.86 4318.71 1227.53 4315.98 1226 4313.86 1226 4307.65 1226 4295.23 1234.25 4289.62 1244.94 4285.98 1242.5 4277.96 1239.44 4260.53 1239.44 4243.11 1239.44 4235.08 1242.5 4231.45 1244.94 4225.84 1234.25 4213.42 1226 4207.21 1226 4205.09 1226 4202.36 1227.53 4201.15 1234.86 4199.48 1244.94 4201.6 1260.37 4211.15 1265.71 4208.57 1270.76 4201 1284.04 4191.3 1288.78 4190.24 1289.39 4189.63 1290.77 4190.24 1291.83 4190.69 1292.6 4191.45 1293.06 4192.21 1293.06 4192.51 1293.06 4192.82 1293.06 4193.27 1292.75 4204.03 1287.56 4212.05 1273.81 4215.08 1268.16L4215.24 1268.01C4221.9 1260.37 4237.81 1272.74 4237.96 1272.9 4238.41 1273.2 4239.02 1273.35 4239.48 1273.05 4239.93 1272.74 4240.38 1272.28 4240.38 1271.67L4240.53 1266.78C4243.87 1271.98 4247.2 1278.7 4246.29 1281.91 4246.14 1282.67 4245.53 1284.96 4241.9 1284.35 4239.17 1283.89 4236.9 1282.21 4234.63 1280.53 4232.36 1278.85 4229.93 1277.02 4227.05 1276.41 4223.42 1275.64 4219.93 1279.62 4215.54 1284.66 4211.6 1289.08 4207.21 1293.97 4202.66 1295.81 4202.66 1295.81 4196.45 1298.25 4192.66 1297.79 4191.91 1297.64 4191 1298.25 4191 1299.17 4190.85 1299.93 4191.45 1300.85 4192.36 1300.85 4192.81 1300.85 4193.27 1301 4193.88 1301 4198.12 1301 4203.42 1299.01 4203.87 1298.86 4208.12 1297.33 4211.9 1293.67 4215.24 1289.85 4215.69 1290 4216.6 1291.07 4217.36 1291.83 4219.78 1294.58 4223.57 1298.56 4230.39 1298.86L4230.99 1298.86C4237.05 1298.86 4240.84 1293.97 4243.57 1290.46 4244.78 1288.78 4245.99 1287.41 4246.9 1286.79 4247.05 1286.79 4247.05 1286.64 4247.05 1286.64 4248.11 1285.88 4249.02 1284.66 4249.32 1282.98 4251.14 1276.1 4241.6 1262.97 4240.53 1261.44 4240.08 1260.98 4239.47 1260.67 4238.87 1260.83 4238.26 1260.98 4237.81 1261.59 4237.81 1262.2L4237.66 1268.92C4233.26 1265.87 4223.42 1260.37 4216.45 1263.58 4216.14 1263.12 4215.69 1262.66 4215.24 1262.51 4208.12 1260.06 4206.3 1250.29 4205.69 1246.16 4204.78 1239.14 4205.99 1233.03 4207.21 1231.04 4216.9 1235.78 4224.17 1254.41 4224.33 1254.72 4224.63 1255.33 4225.08 1255.63 4225.69 1255.63 4225.84 1255.63 4225.99 1255.63 4226.29 1255.48 4227.05 1255.18 4227.51 1254.26 4227.2 1253.49 4226.9 1252.88 4222.51 1241.73 4215.69 1233.94 4220.84 1237.46 4226.45 1243.11 4228.72 1249.52 4229.02 1250.44 4229.78 1250.9 4230.69 1251.05 4231.6 1251.05 4232.51 1250.59 4232.81 1249.68 4232.81 1249.68 4237.05 1243.87 4260.53 1243.87 4284.32 1243.87 4288.26 1249.68 4288.26 1249.68 4288.71 1250.44 4289.47 1251.05 4290.38 1251.05 4291.29 1251.05 4292.04 1250.44 4292.35 1249.52 4294.77 1243.11 4300.22 1237.46 4305.37 1233.94 4298.41 1241.58 4294.01 1252.73 4293.86 1253.49 4293.56 1254.26 4294.01 1255.18 4294.77 1255.48 4294.92 1255.48 4295.07 1255.63 4295.38 1255.63 4295.98 1255.63 4296.59 1255.33 4296.74 1254.72 4296.89 1254.41 4304.16 1235.78 4314.01 1231.04 4315.22 1233.03 4316.28 1238.98 4315.52 1246.16 4315.07 1250.29 4313.1 1260.06 4305.98 1262.51 4305.37 1262.66 4305.07 1263.12 4304.77 1263.58 4297.8 1260.37 4287.95 1265.87 4283.56 1268.92L4283.41 1262.2C4283.41 1261.59 4282.95 1260.98 4282.35 1260.83 4281.74 1260.68 4281.14 1260.83 4280.68 1261.44 4279.62 1262.97 4270.08 1276.1 4271.89 1282.98 4272.35 1284.5 4273.11 1285.73 4274.17 1286.64L4274.32 1286.8C4275.23 1287.41 4276.44 1288.93 4277.65 1290.46 4280.38 1294.13 4284.16 1298.86 4290.22 1298.86L4290.83 1298.86C4297.65 1298.56 4301.43 1294.43 4303.86 1291.84 4304.62 1291.07 4305.52 1290 4305.98 1289.85 4309.46 1293.52 4313.25 1297.18 4317.34 1298.86 4317.8 1299.01 4322.95 1301 4327.34 1301 4327.79 1301 4328.4 1301 4328.85 1300.85 4329.61 1300.7 4330.22 1299.93 4330.22 1299.17 4330.07 1298.4 4329.31 1297.79 4328.55 1297.79 4324.76 1298.25 4318.71 1295.96 4318.55 1295.81 4313.86 1294.13 4309.46 1289.09 4305.68 1284.66 4301.28 1279.62 4297.8 1275.64 4294.16 1276.41 4291.13 1277.02 4288.86 1278.85 4286.59 1280.53 4284.32 1282.37 4282.04 1283.89 4279.32 1284.35 4275.68 1284.96 4275.07 1282.67 4274.92 1281.91 4274.01 1278.7 4277.35 1271.98 4280.68 1266.79L4280.83 1271.67C4280.83 1272.28 4281.13 1272.74 4281.74 1273.05 4282.19 1273.35 4282.8 1273.2 4283.26 1272.9 4283.41 1272.74 4299.31 1260.37 4305.98 1268.01L4306.13 1268.16C4309.16 1273.96 4317.04 1287.56 4327.79 1292.9 4328.1 1293.06 4328.4 1293.21 4328.85 1293.21 4329.76 1293.21 4330.52 1292.75 4330.82 1291.99 4331.28 1290.61 4330.82 1289.24 4329.76 1288.78ZM4230.39 1295.65C4224.78 1295.35 4221.75 1291.99 4219.48 1289.54 4218.72 1288.78 4217.96 1288.02 4217.21 1287.41 4217.36 1287.1 4217.66 1286.95 4217.81 1286.64 4220.99 1283.13 4224.48 1279 4226.45 1279.46 4223.72 1281.3 4220.99 1284.66 4219.93 1285.88 4219.48 1286.49 4219.48 1287.56 4220.24 1288.02 4220.54 1288.17 4220.84 1288.32 4221.15 1288.32 4221.6 1288.32 4222.05 1288.17 4222.36 1287.71 4225.24 1283.89 4229.02 1280.68 4230.24 1280.99 4231.14 1281.6 4232.05 1282.21 4232.96 1282.98 4235.54 1284.96 4238.11 1286.8 4241.6 1287.41L4241.75 1287.41C4241.45 1287.71 4241.29 1288.02 4240.99 1288.32 4238.11 1291.84 4235.08 1295.81 4230.39 1295.65ZM4288.26 1282.98C4289.17 1282.37 4290.07 1281.6 4290.98 1280.99 4292.19 1280.68 4295.98 1283.89 4298.86 1287.71 4299.16 1288.17 4299.62 1288.32 4300.07 1288.32 4300.38 1288.32 4300.68 1288.17 4300.98 1288.02 4301.59 1287.56 4301.74 1286.49 4301.28 1285.88 4300.22 1284.5 4297.65 1281.29 4294.77 1279.46 4296.59 1279.16 4300.23 1283.13 4303.41 1286.64 4303.56 1286.95 4303.86 1287.1 4304.01 1287.4 4303.25 1288.02 4302.5 1288.78 4301.74 1289.54 4299.47 1291.99 4296.44 1295.35 4290.83 1295.65 4285.98 1295.8 4282.96 1291.83 4280.23 1288.32 4279.93 1288.02 4279.77 1287.71 4279.47 1287.4L4279.62 1287.4C4283.26 1286.95 4285.83 1284.96 4288.26 1282.98Z" fill-rule="evenodd"/><path d="M4327.81 1313.89 4314.63 1312.02C4313.9 1311.87 4313.02 1312.49 4313.02 1313.42 4312.88 1314.2 4313.46 1314.98 4314.34 1315.13L4327.37 1317 4327.51 1317C4328.25 1317 4328.83 1316.38 4328.98 1315.6 4329.12 1314.82 4328.54 1313.89 4327.81 1313.89Z" fill-rule="evenodd"/><path d="M4329.44 1305.57C4328.19 1305.57 4321.8 1304.71 4317.74 1304.03 4316.96 1303.85 4316.02 1304.54 4316.02 1305.57 4315.87 1306.43 4316.49 1307.46 4317.43 1307.46 4318.52 1307.63 4327.72 1309 4329.44 1309 4330.38 1309 4331 1308.31 4331 1307.28 4331 1306.26 4330.38 1305.57 4329.44 1305.57Z" fill-rule="evenodd"/><path d="M4208.98 1313.41C4208.82 1312.62 4208.04 1312 4207.26 1312L4193.4 1313.88C4192.62 1314.03 4192 1314.81 4192 1315.59 4192.16 1316.38 4192.78 1317 4193.56 1317L4193.71 1317 4207.57 1315.13C4208.51 1314.97 4209.13 1314.19 4208.98 1313.41Z" fill-rule="evenodd"/><path d="M4203.69 1307.44C4204.42 1307.27 4205 1306.41 4205 1305.55 4204.85 1304.69 4204.13 1304 4203.4 1304 4199.6 1304.69 4193.63 1305.55 4192.46 1305.55 4191.58 1305.55 4191 1306.23 4191 1307.27 4191 1308.3 4191.58 1308.99 4192.46 1308.99 4194.21 1309.16 4202.81 1307.61 4203.69 1307.44Z" fill-rule="evenodd"/><path d="M4321.01 1322.01C4320.25 1321.86 4319.49 1321.86 4318.73 1321.86 4314.17 1320.17 4308.85 1318.63 4308.54 1318.63 4307.78 1318.48 4306.87 1318.94 4306.72 1319.71 4306.57 1320.47 4307.02 1321.4 4307.78 1321.55 4307.78 1321.55 4309.3 1322.01 4311.43 1322.63 4305.96 1323.86 4300.18 1326.32 4294.1 1328.78 4288.32 1331.24 4282.4 1333.7 4276.92 1334.93 4277.38 1333.85 4277.53 1332.77 4277.53 1331.85 4277.53 1331.54 4277.53 1331.24 4277.38 1330.93 4277.83 1330.47 4278.29 1329.85 4278.75 1329.24 4288.17 1315.71 4282.85 1305.1 4278.44 1296.49 4277.53 1294.49 4276.62 1292.8 4275.86 1290.95 4275.55 1290.18 4274.64 1289.72 4273.88 1290.18 4273.12 1290.49 4272.66 1291.41 4273.12 1292.18 4273.88 1294.03 4274.79 1295.87 4275.86 1297.87 4280.26 1306.48 4284.67 1315.55 4276.31 1327.55 4275.1 1329.24 4273.73 1330.16 4271.9 1330.47 4267.04 1331.24 4261.57 1327.24 4261.41 1327.24 4261.26 1327.24 4261.26 1327.09 4261.11 1327.09 4260.96 1327.09 4260.96 1326.93 4260.81 1326.93L4260.5 1326.93 4260.2 1326.93C4260.05 1326.93 4260.05 1326.93 4259.89 1327.09 4259.74 1327.09 4259.74 1327.09 4259.59 1327.24 4259.59 1327.24 4253.96 1331.39 4249.1 1330.47 4247.27 1330.16 4245.9 1329.24 4244.69 1327.55 4236.33 1315.55 4240.89 1306.64 4245.15 1297.87 4246.21 1295.87 4247.12 1294.03 4247.88 1292.18 4248.19 1291.41 4247.88 1290.49 4247.12 1290.18 4246.36 1289.88 4245.45 1290.18 4245.14 1290.95 4244.38 1292.64 4243.47 1294.49 4242.56 1296.49 4238.3 1305.1 4232.83 1315.86 4242.26 1329.24 4242.71 1329.85 4243.17 1330.47 4243.62 1330.93 4243.47 1331.24 4243.47 1331.54 4243.47 1331.85 4243.47 1332.77 4243.62 1333.85 4244.08 1334.93 4238.61 1333.7 4232.68 1331.24 4226.9 1328.78 4220.82 1326.32 4215.04 1323.86 4209.57 1322.63 4211.7 1322.01 4213.22 1321.55 4213.22 1321.55 4213.98 1321.4 4214.59 1320.47 4214.28 1319.71 4214.13 1318.94 4213.22 1318.32 4212.46 1318.63 4212.15 1318.63 4206.68 1320.17 4202.27 1321.86 4201.51 1321.86 4200.75 1322.01 4199.99 1322.01 4198.78 1322.17 4197.86 1323.4 4198.02 1324.63 4198.17 1325.86 4199.38 1326.78 4200.6 1326.62 4207.14 1325.55 4216.26 1329.39 4225.08 1333.08 4233.59 1336.62 4242.26 1340.31 4250.01 1340.46 4252.44 1341.38 4255.94 1342 4260.5 1342 4265.06 1342 4268.41 1341.39 4270.99 1340.46 4278.74 1340.31 4287.41 1336.62 4295.92 1333.08 4304.74 1329.39 4313.86 1325.55 4320.4 1326.62 4321.62 1326.78 4322.83 1326.01 4322.98 1324.63 4323.14 1323.4 4322.23 1322.17 4321.01 1322.01ZM4248.49 1333.54C4249.1 1333.7 4249.71 1333.7 4250.32 1333.7 4254.57 1333.7 4258.68 1331.39 4260.35 1330.31 4262.02 1331.39 4266.13 1333.7 4270.38 1333.7 4270.99 1333.7 4271.6 1333.7 4272.21 1333.54L4272.51 1333.54C4272.06 1334.62 4270.99 1335.54 4269.62 1336.16 4269.47 1336.16 4269.32 1336.31 4269.17 1336.31 4266.43 1337.39 4262.93 1337.54 4260.35 1337.54 4257.77 1337.54 4254.12 1337.39 4251.53 1336.31 4251.38 1336.31 4251.23 1336.16 4251.08 1336.16 4249.71 1335.54 4248.64 1334.77 4248.19 1333.54 4248.34 1333.39 4248.34 1333.39 4248.49 1333.54Z" fill-rule="evenodd"/><path d="M4265.37 1286C4267.51 1286 4269.35 1283.71 4269.96 1280.2 4270.88 1275.02 4273.79 1260.98 4273.94 1260.83 4274.09 1260.37 4273.94 1259.92 4273.63 1259.61 4273.33 1259.3 4272.87 1259 4272.41 1259L4265.83 1259C4265.06 1259 4264.45 1259.46 4264.3 1260.22 4264.14 1260.68 4262 1273.03 4262 1279.9 4262 1284.93 4263.99 1285.85 4265.21 1286 4265.06 1286 4265.21 1286 4265.37 1286ZM4266.9 1262.05 4270.42 1262.05C4269.65 1266.02 4267.66 1275.63 4266.9 1279.75 4266.59 1281.73 4265.83 1282.65 4265.37 1282.95 4265.21 1282.65 4264.91 1281.73 4264.91 1279.9 4264.91 1274.56 4266.44 1265.41 4266.9 1262.05Z" fill-rule="evenodd"/><path d="M4255.48 1286 4255.78 1286C4257.01 1285.85 4259 1284.93 4259 1279.9 4259 1272.88 4256.7 1260.68 4256.7 1260.22 4256.55 1259.46 4255.94 1259 4255.17 1259L4248.59 1259C4248.13 1259 4247.67 1259.15 4247.37 1259.61 4247.06 1260.07 4246.91 1260.37 4247.06 1260.83 4247.06 1260.98 4250.12 1275.02 4251.04 1280.2 4251.65 1283.71 4253.49 1286 4255.48 1286ZM4250.43 1262.05 4253.95 1262.05C4254.41 1265.41 4255.94 1274.56 4255.94 1279.9 4255.94 1281.73 4255.63 1282.49 4255.48 1282.8 4255.02 1282.49 4254.41 1281.42 4253.95 1279.59 4253.18 1275.63 4251.34 1266.02 4250.43 1262.05Z" fill-rule="evenodd"/><path d="M4247.21 1308.99 4252.54 1319.25C4252.84 1319.7 4253.3 1320 4253.91 1320L4267.14 1320C4267.75 1320 4268.21 1319.7 4268.51 1319.25L4273.83 1308.99C4274.14 1308.54 4273.99 1307.79 4273.68 1307.33L4269.27 1301.6C4268.97 1301.3 4268.51 1301 4268.05 1301L4252.99 1301C4252.54 1301 4252.08 1301.15 4251.78 1301.6L4247.36 1307.33C4246.91 1307.79 4246.91 1308.39 4247.21 1308.99ZM4253.75 1304.02 4267.14 1304.02 4270.49 1308.39 4266.08 1316.83 4260.45 1316.83 4254.67 1316.83 4250.25 1308.39Z" fill-rule="evenodd"/><path d="M4268 1308.5C4268 1307.6 4267.38 1307 4266.45 1307L4254.55 1307C4253.62 1307 4253 1307.6 4253 1308.5 4253 1309.4 4253.62 1310 4254.55 1310L4266.45 1310C4267.23 1310 4268 1309.25 4268 1308.5Z" fill-rule="evenodd"/><path d="M4293.3 1305C4296.2 1305 4299.86 1303.94 4303.52 1300.6 4304.13 1299.99 4304.13 1299.08 4303.67 1298.48 4303.22 1297.87 4302.15 1297.87 4301.54 1298.32 4293.3 1305.61 4286.9 1299.69 4286.59 1299.39 4285.98 1298.78 4285.07 1298.78 4284.46 1299.39 4283.85 1299.99 4283.85 1300.9 4284.46 1301.51 4284.61 1301.66 4288.12 1305 4293.3 1305Z" fill-rule="evenodd"/><path d="M4236.54 1301.54C4237.15 1300.94 4237.15 1300.04 4236.54 1299.44 4235.94 1298.84 4235.02 1298.84 4234.42 1299.44 4234.11 1299.74 4227.73 1305.6 4219.52 1298.38 4218.91 1297.78 4217.99 1297.93 4217.39 1298.53 4216.78 1299.13 4216.93 1300.04 4217.54 1300.64 4221.34 1303.95 4224.84 1305 4227.73 1305 4232.9 1304.85 4236.39 1301.54 4236.54 1301.54Z" fill-rule="evenodd"/></g></svg>