<svg viewBox="0 0 115 116" width="115" height="116" xmlns="http://www.w3.org/2000/svg" xmlns:xlink="http://www.w3.org/1999/xlink" xml:space="preserve" overflow="hidden"><defs><clipPath id="clip0"><rect x="3710" y="1226" width="115" height="116"/></clipPath></defs><g clip-path="url(#clip0)" transform="translate(-3710 -1226)"><path d="M3766.84 1257.57C3766.94 1257.83 3767.21 1258 3767.51 1258 3767.82 1258 3768.09 1257.83 3768.19 1257.57 3768.97 1256.36 3770.18 1254.47 3770.88 1253.21L3770.88 1253.21C3771.04 1252.96 3771.04 1252.65 3770.87 1252.4 3770.71 1252.15 3770.41 1252 3770.09 1252L3764.93 1252C3764.6 1251.99 3764.3 1252.14 3764.13 1252.39 3763.96 1252.64 3763.96 1252.96 3764.12 1253.21 3764.89 1254.51 3766.1 1256.44 3766.84 1257.57Z" fill-rule="evenodd"/><path d="M3821.08 1237.66C3820.35 1234 3819.65 1230.34 3818.93 1226.6 3818.85 1225.93 3817.83 1225.76 3817.72 1226.42 3815.84 1233.64 3812.88 1240.53 3808.95 1246.85 3808.88 1247.02 3808.74 1247.16 3808.56 1247.22 3808.38 1247.28 3808.19 1247.26 3808.03 1247.17 3802.4 1244.01 3795.62 1243.72 3789.76 1246.4 3789.34 1245.87 3788.73 1245.53 3788.07 1245.45 3787.4 1245.38 3786.73 1245.57 3786.21 1245.99L3778.24 1252.61C3777.48 1253.19 3776.45 1253.23 3775.64 1252.72 3774.83 1252.3 3773.84 1252.61 3773.4 1253.42L3767.83 1264.13 3767.83 1264.13C3767.78 1264.24 3767.67 1264.31 3767.54 1264.31 3767.42 1264.31 3767.31 1264.24 3767.25 1264.13L3761.71 1253.42 3761.71 1253.42C3761.48 1253.02 3761.11 1252.73 3760.66 1252.61 3760.22 1252.49 3759.75 1252.56 3759.36 1252.8 3758.51 1253.23 3757.48 1253.12 3756.74 1252.52L3748.89 1245.99 3748.89 1245.99C3748.37 1245.57 3747.7 1245.38 3747.04 1245.45 3746.37 1245.53 3745.77 1245.87 3745.35 1246.4 3739.49 1243.72 3732.71 1244.01 3727.08 1247.17 3726.92 1247.26 3726.72 1247.28 3726.55 1247.22 3726.37 1247.16 3726.22 1247.02 3726.15 1246.85 3722.2 1240.53 3719.22 1233.64 3717.31 1226.42 3717.16 1225.76 3716.1 1225.93 3716.1 1226.6 3715.4 1230.26 3714.69 1233.99 3713.97 1237.66 3708.4 1266.1 3707.76 1296.99 3718.12 1324.45 3719.44 1328.04 3721.14 1331.47 3723.2 1334.69 3723.84 1335.81 3724.55 1336.87 3725.29 1337.91 3725.75 1338.53 3726.21 1339.13 3726.71 1339.76L3726.71 1339.76C3727.37 1340.53 3728.1 1341.25 3728.87 1341.91 3728.98 1341.91 3729.24 1342.11 3729.27 1341.91 3729.31 1341.72 3727.54 1338.36 3727.25 1337.81 3725.92 1334.96 3724.81 1332 3723.94 1328.98 3722.87 1325.47 3721.96 1321.92 3721.15 1318.35 3720.34 1314.79 3719.67 1311.2 3719.01 1307.59 3717.25 1297.1 3716.49 1286.26 3718.32 1275.73 3720.5 1263.13 3732.02 1251.65 3754.21 1271.98L3762.86 1279.64 3762.86 1279.64C3763.16 1279.83 3763.55 1279.81 3763.82 1279.58 3764.1 1279.35 3764.2 1278.97 3764.07 1278.64L3760.55 1269.97C3760.46 1269.76 3760.52 1269.51 3760.7 1269.38 3760.89 1269.24 3761.14 1269.26 3761.31 1269.41L3766.42 1273.8 3766.42 1273.8C3767.03 1274.35 3767.95 1274.35 3768.56 1273.8L3773.67 1269.4 3773.67 1269.41C3773.84 1269.25 3774.09 1269.24 3774.28 1269.37 3774.47 1269.51 3774.54 1269.75 3774.46 1269.97L3770.9 1278.64C3770.77 1278.97 3770.87 1279.35 3771.14 1279.58 3771.42 1279.81 3771.81 1279.83 3772.11 1279.64L3780.77 1271.98C3802.95 1251.65 3814.49 1263.13 3816.66 1275.73 3818.49 1286.26 3817.7 1297.1 3815.97 1307.59 3815.36 1311.26 3814.65 1314.8 3813.85 1318.35 3813.05 1321.91 3812.12 1325.47 3811.04 1328.98L3811.04 1328.98C3810.16 1332 3809.06 1334.95 3807.75 1337.81 3807.43 1338.41 3805.7 1341.75 3805.7 1341.92 3805.7 1342.09 3806 1341.92 3806.1 1341.92L3806.1 1341.92C3806.88 1341.26 3807.62 1340.55 3808.29 1339.77 3808.76 1339.16 3809.24 1338.55 3809.7 1337.92 3810.44 1336.88 3811.14 1335.82 3811.78 1334.71L3811.78 1334.71C3813.83 1331.48 3815.54 1328.04 3816.86 1324.45 3827.22 1296.99 3826.6 1266.1 3821.08 1237.66Z" fill-rule="evenodd"/><path d="M3719.77 1291.63C3720.42 1288.09 3728.97 1286.69 3738.86 1288.51 3748.76 1290.33 3756.25 1294.68 3755.6 1298.23 3748.83 1293.32 3734.92 1290.02 3724.54 1290.85 3722.76 1291 3721.15 1291.26 3719.77 1291.63Z" fill-rule="evenodd"/><path d="M3755.79 1297.64C3754.26 1303.05 3746.04 1305.46 3737.42 1303.02 3728.81 1300.58 3723.07 1294.22 3724.61 1288.81 3724.92 1294.74 3732.42 1300.59 3741.36 1301.87 3747.73 1302.78 3753.38 1301.13 3755.79 1297.64Z" fill-rule="evenodd"/><path d="M6.52385 36.4361C2.92083 36.4361 0 28.2796 0 18.218 -8.30573e-16 8.15649 2.92083-2.3194e-15 6.52385-4.6388e-15 2.92083 7.54615 2.19062 21.82 4.89289 31.8815 5.35652 33.6078 5.90567 35.1413 6.52385 36.4361Z" fill-rule="evenodd" transform="matrix(0.18096 0.98349 0.98349 -0.18096 3778.42 1291.81)"/><path d="M10.1815 32.4125C4.55841 32.4125 0 25.1567 0 16.2062-1.29624e-15 7.25578 4.55841-2.06327e-15 10.1815-4.12654e-15 4.55841 1.70455 0.868118 10.3421 1.93899 19.2926 2.73477 25.9438 6.0029 31.1458 10.1815 32.4125Z" fill-rule="evenodd" transform="matrix(-0.27259 -0.96213 -0.96213 0.27259 3813.37 1298.6)"/></g></svg>