<svg width="560pt" height="560.58pt" version="1.1" viewBox="0 0 560 560.58"
    xmlns="http://www.w3.org/2000/svg">
    <g transform="translate(-70 .63318)">
        <path
            d="m347.05 155.15c0.55859 0.97266 1.5938 1.5742 2.7148 1.5742 1.1172 0 2.1523-0.60156 2.7109-1.5742 3.4766-5.8945 8.8438-15.68 12.203-21.988 0.59375-1.2461 0.52344-2.707-0.19141-3.8945-0.71094-1.1836-1.9648-1.9336-3.3477-2h-22.516c-1.3828 0.0664-2.6406 0.81641-3.3516 2-0.71094 1.1875-0.78125 2.6484-0.1875 3.8945 3.3594 6.3086 8.7227 16.035 11.965 21.988z" />
        <path
            d="m105.84 315.78v-2.8867c-15.09-6.3672-27.527-21.457-35.426-33.426-0.41406 10.434-0.41406 21.164-0.41406 32.305 0 158.45 44.859 224.65 65.902 247.22 0.98438 0.97266 2.5117 1.1289 3.6719 0.37891 1.1602-0.75 1.6445-2.207 1.1641-3.5-11.141-29.062-34.898-107.88-34.898-240.09z" />
        <path
            d="m133.96 154.8c-3.2969 0.70703-6.6484 1.1211-10.02 1.2383-6.3477-0.0742-12.355-2.8672-16.508-7.6641-10.609-11.199-16.504-34.309-19.688-57.59-1.7109 12.145-3.4766 24.402-5.2461 36.547-1.9453 13.5-4.3633 32.422-6.6016 55.941v-4e-3c4.0664 8.0156 14.5 25.938 30.711 31.359v4e-3c4.8477 1.5859 10.012 1.9531 15.031 1.0586 11.023-27.055 27.707-44.738 49.988-44.738 3.0078 0 5.8945 0 9.0781 0.41406-18.863-21.344-34.07-18.75-46.746-16.566z" />
        <path
            d="m106.02 302.93c0.40234-26.297 4.4922-52.41 12.145-77.574h-1.7695c-4.2461-0.0391-8.4609-0.73438-12.496-2.0625-12.23-4.8086-22.574-13.453-29.473-24.641-1.4141 19.453-2.7695 40.676-3.5977 64.254 5.0703 9.0195 18.395 31.062 35.191 40.023z" />
        <path
            d="m567.46 145.78c2.8281 0.63672 5.7109 1.0117 8.6055 1.1211 3.9297-0.0937 7.625-1.8789 10.141-4.8945 14.797-15.621 19.277-60.656 20.516-90.426-1.7109-11.496-3.3008-22.812-4.8945-34.367l-1.9453-14.559c0.17969-1.6289-0.99609-3.0938-2.625-3.2695-1.6289-0.17969-3.0898 0.99219-3.2695 2.6211l-5.8945 17.211v0.0039c-9.6992 28.051-21.727 55.238-35.961 81.285-0.32422 0.85547-1.0078 1.5234-1.8711 1.832-0.86328 0.30469-1.8164 0.21875-2.6055-0.23828-27.328-15.82-60.668-17.25-89.25-3.832-1.9336-2.6055-4.8594-4.2969-8.082-4.6758-3.2266-0.38281-6.4648 0.58594-8.9531 2.6719l-38.434 32.48c-3.6172 2.9883-8.668 3.543-12.848 1.4141-1.9023-1.1875-4.2148-1.5273-6.375-0.93359-2.1641 0.59375-3.9766 2.0664-5.0039 4.0586l-27.117 53.465c-0.30469 0.52344-0.86719 0.84375-1.4727 0.84375-0.60547 0-1.1641-0.32031-1.4727-0.84375l-27.117-53.465c-1.0273-1.9922-2.8398-3.4648-5.0039-4.0586-2.1602-0.59375-4.4727-0.25391-6.3711 0.93359-4.1836 2.1289-9.2305 1.5742-12.852-1.4141l-38.668-32.48c-2.5-2.1641-5.793-3.1797-9.0781-2.8008-3.2852 0.38281-6.2578 2.125-8.1953 4.8047-28.465-13.273-61.613-11.844-88.832 3.832-0.79297 0.45703-1.7461 0.54297-2.6094 0.23828-0.85938-0.30859-1.5469-0.97656-1.8711-1.832-14.332-26.035-26.461-53.227-36.254-81.285l-5.9531-17.215c-0.17969-1.6289-1.6445-2.8008-3.2695-2.6211-1.6289 0.17578-2.8047 1.6406-2.625 3.2695l-1.7695 14.441c-1.5898 11.789-3.1836 22.871-4.8945 34.367 1.2383 29.77 5.8945 74.805 20.516 90.426 2.5156 3.0156 6.2109 4.8008 10.141 4.8906 2.8789-0.10547 5.7383-0.48047 8.5469-1.1172 14.617-2.4766 36.371-6.3086 61.129 27.707 71.855 13.969 133.81 90.66 133.81 90.66v-4e-3c1.5 0.92578 3.4258 0.77734 4.7695-0.36328 1.3398-1.1406 1.7969-3.0156 1.125-4.6445l-17.27-43.27c-0.46484-1.0312-0.14844-2.2461 0.75391-2.9219 0.90625-0.67969 2.1562-0.64062 3.0195 0.0937l24.992 21.93c2.9102 2.7539 7.4648 2.7539 10.375 0l24.992-21.93c0.86328-0.73438 2.1133-0.77344 3.0195-0.0937 0.90234 0.67578 1.2188 1.8906 0.75391 2.9219l-17.27 43.621c-0.67188 1.6289-0.21484 3.5078 1.125 4.6484 1.3438 1.1406 3.2695 1.2891 4.7695 0.36328 0 0 61.953-76.926 133.63-90.898 24.934-34.012 46.688-30.18 61.246-27.703z" />
        <path
            d="m629.59 279.47c-7.8984 11.789-20.395 27.059-35.367 33.363v2.9492c0 132.39-23.578 211.03-34.957 240.09-0.54688 1.3203-0.0664 2.8438 1.1367 3.6133 1.207 0.76953 2.7891 0.5625 3.7578-0.49219 20.984-22.574 65.844-88.773 65.844-247.22 0-11.141 0-21.871-0.41406-32.305z" />
        <path
            d="m596.11 223.35c-4.0352 1.3281-8.25 2.0234-12.496 2.0625h-1.7695c7.6523 25.164 11.742 51.277 12.145 77.574 16.801-8.9609 30.238-31.008 35.367-40.023-0.82422-23.578-2.1797-45.094-3.7148-64.195-6.9219 11.176-17.285 19.801-29.531 24.582z" />
        <path
            d="m578.36 215.75c5.0273 0.84766 10.184 0.46094 15.031-1.1172 16.328-5.4219 26.762-23.578 30.711-31.477-2.1797-23.578-4.6562-42.324-6.6016-55.824-1.7695-12.223-3.5156-24.445-5.2461-36.664-3.1836 23.578-9.0781 46.508-19.688 57.711v-4e-3c-4.1523 4.7969-10.16 7.5898-16.508 7.6641-3.3906-0.11328-6.7617-0.52734-10.078-1.2383-12.613-2.1797-27.883-4.7734-46.688 16.801 3.0078-0.29297 5.8945-0.41406 9.0781-0.41406 22.281-0.23438 38.965 17.449 49.988 44.562z" />
        <g transform="translate(-6.4771 -2.4905)" fill-rule="evenodd" stroke-width="3.8208">
            <path
                d="m141.86 312.58c2.5298-13.278 35.806-18.529 74.297-11.703 38.53 6.8266 67.681 23.143 65.151 36.458-26.349-18.417-67.82-28.261-108.22-25.148-6.9277 0.56263-70.612-0.99532-31.23 0.39249z" />
            <path
                d="m282.05 335.12c-5.9547 20.292-37.947 29.332-71.495 20.18-33.51-9.1521-55.85-33.007-49.856-53.3 1.2065 22.243 30.396 44.185 65.19 48.986 24.792 3.4133 46.781-2.7756 56.161-15.866z" />
        </g>
        <g transform="translate(-6.4771 -2.5332)" fill-rule="evenodd" stroke-width="3.8208">
            <path
                d="m570.84 312.66c-2.5298-13.278-35.806-18.529-74.297-11.703-38.53 6.8266-67.681 23.143-65.151 36.458 26.349-18.417 80.486-30.794 120.88-27.681 6.9277 0.56263 13.194 1.5378 18.565 2.9257z" />
            <path
                d="m430.65 333.1c5.9547 20.292 37.947 29.332 71.495 20.18 33.51-9.1521 55.85-33.007 49.856-53.3-1.2065 22.243-30.396 44.185-65.19 48.986-24.792 3.4133-46.781-2.7756-56.161-15.866z" />
        </g>
    </g>
</svg>