<svg
   width="199.79849mm"
   height="202.02258mm"
   viewBox="0 0 199.79849 202.02258"
   version="1.1"
   id="svg1"><defs
     id="defs1" /><g
     id="layer1"
     transform="translate(-4.9561282,-30.816302)"><path
       d="m 95.452311,232.77948 c -14.4258,-0.57354 -28.88475,-4.51222 -41.38926,-11.27463 -3.99261,-2.15919 -10.78051,-6.68933 -14.43144,-9.6313 -3.2191,-2.594 -9.79322,-8.9821 -12.24065,-11.89429 -12.18133,-14.4945 -19.2694399,-30.51307 -21.9389299,-49.5802 -0.5878,-4.19848 -0.67651,-18.31573 -0.13965,-22.225 1.75656,-12.79079 4.63275,-22.26383 9.8407299,-32.411468 6.02448,-11.738565 14.82527,-22.470075 25.12656,-30.638812 2.95345,-2.342034 8.93823,-6.535141 9.32754,-6.535141 0.0817,0 -0.20936,1.101328 -0.64677,2.447396 -1.6459,5.065092 -3.67175,12.823859 -5.12948,19.645313 l -0.73504,3.439579 -1.92373,2.11667 c -11.0062,12.110025 -17.76855,26.908643 -19.78748,43.302553 -0.49186,3.99395 -0.55627,14.01435 -0.11233,17.47596 0.16515,1.28778 0.33288,2.30788 0.37274,2.26688 0.0399,-0.041 0.32087,-1.46471 0.62447,-3.16379 0.68827,-3.85178 2.19084,-8.86432 3.25768,-10.86754 0.77262,-1.45075 1.25989,-1.90734 1.27061,-1.19062 0.009,0.60501 1.85144,3.98539 2.8393,5.20948 1.14484,1.41863 1.82444,2.06237 3.70419,3.50873 l 1.38906,1.0688 v 1.93529 c 0,1.06441 0.18138,2.80628 0.40306,3.87082 0.64455,3.09526 1.50184,4.55017 4.26065,7.23072 2.72184,2.64462 3.56797,4.10329 3.57003,6.15441 0.002,1.61993 -0.6035,3.55535 -1.46456,4.68426 -0.37607,0.49305 -0.68376,0.97439 -0.68376,1.06966 0,0.0953 0.50602,0.0914 1.12448,-0.009 2.92541,-0.47312 4.71184,-2.02047 5.23345,-4.53305 0.43435,-2.09227 0.0422,-3.6689 -1.64333,-6.60653 -2.28763,-3.98708 -2.4347,-4.42504 -2.43322,-7.2459 10e-4,-2.04224 0.11521,-2.77244 0.60876,-3.89427 0.85037,-1.93293 1.09456,-2.08455 2.46469,-1.53042 0.62469,0.25265 2.13035,0.50805 3.37642,0.57272 2.51976,0.13078 2.52578,0.26015 -0.0774,-1.66169 -2.82649,-2.08667 -5.29893,-5.95133 -6.29234,-9.83552 -0.88872,-3.47486 -0.55595,-9.77761 0.70491,-13.35126 0.20836,-0.59058 0.32107,-1.13155 0.25045,-1.20217 -0.23233,-0.23233 -2.45694,1.76956 -3.39303,3.05333 -2.63238,3.61008 -3.46294,6.45062 -3.48176,11.90781 -0.01,2.82707 -0.10388,4.03467 -0.3145,4.0349 -0.59802,6.4e-4 -3.55154,-2.18275 -4.58857,-3.39209 -1.4122,-1.64686 -2.84128,-4.59006 -3.31547,-6.82821 -0.21183,-0.99986 -0.38722,-3.04457 -0.38975,-4.54382 -0.0103,-6.09399 1.88552,-10.35524 6.78896,-15.25984 1.25157,-1.25187 1.93536,-2.11694 1.72948,-2.18799 -0.98448,-0.33975 -2.96678,-2.7661 -2.96678,-3.63136 0,-0.0803 0.47059,-0.0707 1.04575,0.0213 1.65689,0.26494 2.77757,-0.0739 3.83905,-1.16091 1.98854,-2.036268 2.49049,-3.693528 5.69239,-18.794017 1.67176,-7.884228 3.82172,-16.240923 5.4244,-21.084176 1.2346,-3.730914 1.95906,-5.521147 3.80096,-9.392708 4.78149,-10.050359 14.74817,-17.702685 26.76412,-20.549243 3.84548,-0.910989 11.90236,-1.158859 16.40416,-0.504676 7.568279,1.099792 14.785469,3.636349 20.174409,7.090503 3.73311,2.392818 7.93236,7.631244 9.28454,11.582166 0.73125,2.136626 0.48315,4.969824 -0.70665,8.069792 -1.28761,3.354804 -4.40721,11.10853 -5.84394,14.525021 -0.66689,1.585845 -1.21253,3.197064 -1.21253,3.580486 0,0.383422 0.94159,2.403446 2.09241,4.488941 1.8461,3.345458 2.06252,3.877538 1.83852,4.520128 -0.35261,1.01149 -1.16705,1.82168 -2.02002,2.00948 -0.39616,0.0872 -1.32196,0.32332 -2.05735,0.52465 -1.30366,0.35691 -1.34565,0.39957 -1.68098,1.70795 -0.19415,0.75755 -0.26671,1.753425 -0.16662,2.286955 0.14394,0.76724 0.0651,1.0645 -0.41895,1.57976 -0.46005,0.4897 -0.52453,0.7064 -0.28225,0.94867 0.50849,0.50849 0.37074,1.10919 -0.63193,2.7558 -0.90713,1.4897 -0.93909,1.62599 -0.77929,3.323508 0.31396,3.33512 -0.7202,5.24924 -2.82682,5.23213 -0.98038,-0.008 -1.94008,-0.16064 -6.0509,-0.96263 -0.61938,-0.12083 -0.7502,0.019 -1.44439,1.54398 -0.54841,1.2047 -0.79292,2.21242 -0.8684,3.57899 -0.0971,1.75853 -0.0539,1.95331 0.57246,2.57969 1.01597,1.01597 2.44455,0.9148 5.44233,-0.38541 8.47788,-3.67705 16.8296,-5.92966 23.17281,-6.25011 6.72149,-0.33956 13.12032,1.13183 20.37292,4.68469 l 3.70416,1.81457 1.71979,-0.24924 c 3.94016,-0.57103 7.45268,-0.11451 10.91407,1.41847 1.19452,0.52903 1.52135,0.59145 1.52135,0.29054 0,-0.64712 -2.39642,-7.76517 -3.57395,-10.61565 -1.62549,-3.934868 -3.6772,-6.785178 -8.29786,-11.527728 l -1.74004,-1.785935 h -2.06423 c -1.42899,0 -2.53037,0.16939 -3.57897,0.55042 -4.17361,1.516585 -6.0528,2.094875 -6.7899,2.089475 -0.44564,-0.003 -2.87465,-0.4664 -5.3978,-1.02919 -4.18958,-0.93448 -4.66864,-1.100365 -5.5225,-1.912285 -0.51423,-0.48897 -1.20632,-1.4646 -1.53796,-2.16806 l -0.603,-1.27902 0.54889,-1.5071 0.54889,-1.507097 -1.3687,-1.698545 c -0.90275,-1.120304 -1.3687,-1.945508 -1.3687,-2.423981 0,-0.398989 0.87681,-2.488548 1.94847,-4.643463 1.07166,-2.154915 2.23252,-4.664861 2.57969,-5.577658 0.54374,-1.429641 0.82314,-1.787133 2.0162,-2.579688 1.57319,-1.045074 2.00796,-1.099339 3.77619,-0.471317 1.11861,0.397295 1.39186,0.406362 2.3835,0.07909 1.10955,-0.366184 1.14039,-0.358793 3.29095,0.78853 2.10016,1.120441 2.19153,1.143727 2.80411,0.71466 0.34827,-0.243935 0.85224,-0.443519 1.11993,-0.443519 0.26769,0 2.2355,1.055405 4.3729,2.345343 3.86837,2.334591 5.45795,3.189306 9.9481,5.349053 2.7515,1.323465 5.76219,3.507938 7.8575,5.701194 1.29567,1.356241 6.5164,7.549048 9.23162,10.950513 0.50933,0.63805 1.23256,1.52315 1.60719,1.96689 1.55017,1.83613 9.48645,11.728748 10.91178,13.601588 4.83029,6.34688 7.27337,11.40137 8.07493,16.70626 0.16491,1.0914 0.47833,3.19703 0.69649,4.67917 0.21816,1.48214 0.76587,3.80386 1.21714,5.15938 0.94885,2.85014 0.90689,3.87413 -0.20645,5.03795 -1.67336,1.74924 -2.49688,2.04653 -8.26686,2.98428 -9.2675,1.50619 -10.85808,1.78642 -13.76963,2.42596 -1.67349,0.36759 -4.65005,1.26404 -6.61459,1.99211 -4.54942,1.68605 -7.54625,2.61172 -12.83229,3.96363 -4.13097,1.05651 -4.3101,1.07885 -7.40833,0.92365 -3.08077,-0.15432 -5.64201,-0.54923 -8.97085,-1.3832 -1.782,-0.44644 -2.09132,-0.54785 -4.82851,-1.58298 l -1.8931,-0.71592 -2.67096,2.186 c -1.46903,1.20229 -2.67096,2.26742 -2.67096,2.36694 0,0.0995 0.54838,0.88637 1.21863,1.74855 3.2721,4.20914 4.77856,8.8569 4.52986,13.97568 -0.24286,4.99864 -2.05425,9.7693 -5.38503,14.18255 l -1.49765,1.98437 -0.0702,2.91042 c -0.0857,3.55124 -0.33159,4.70194 -1.83735,8.59896 -1.68621,4.36406 -2.45978,7.28335 -2.75124,10.38262 -0.28125,2.99071 -0.19881,5.83225 0.1728,5.95612 0.45222,0.15074 9.72447,-4.67001 12.62736,-6.56511 9.49098,-6.19602 18.29079,-15.14502 24.10351,-24.51213 5.66178,-9.1239 9.58561,-19.81598 10.85408,-29.57637 0.22715,-1.74781 0.50446,-3.35513 0.61626,-3.57183 0.41651,-0.80733 4.48926,-1.88734 11.52632,-3.05652 2.32833,-0.38684 4.34007,-0.7688 4.47052,-0.8488 0.25648,-0.15728 0.0283,4.29769 -0.38958,7.6066 -2.06685,16.36547 -8.10039,31.32138 -18.06615,44.78224 -12.31008,16.62737 -31.30908,29.39248 -51.49917,34.60145 -8.64269,2.22977 -18.63598,3.33403 -27.119789,2.99673 z M 66.714861,205.4128 c -1.3223,-4.78163 -1.96825,-6.32947 -3.19391,-7.65332 -3.07752,-3.32409 -9.55897,-11.32857 -12.05102,-14.88281 -0.79074,-1.12779 -1.5171,-2.04564 -1.61413,-2.03968 -0.097,0.006 -0.46596,0.63104 -0.81986,1.38906 -1.13414,2.42922 -3.3299,5.93507 -5.41297,8.64259 l -1.31417,1.70812 2.62696,2.48467 c 4.77759,4.51882 9.66714,8.18838 15.06238,11.30419 2.6491,1.52988 7.85496,4.13231 7.99202,3.99524 0.0401,-0.0401 -0.53381,-2.26671 -1.2753,-4.94806 z m 47.015189,-21.87468 c 0.41842,-1.85787 0.77127,-3.09626 1.82814,-6.41614 0.62541,-1.96453 1.40026,-4.66691 1.72191,-6.00529 l 0.5848,-2.43342 -0.94996,-1.5638 c -0.52248,-0.8601 -1.32006,-2.35467 -1.77238,-3.32128 -0.45233,-0.9666 -0.86632,-1.75746 -0.91998,-1.75746 -0.0537,0 -0.72704,0.25214 -1.49641,0.56032 -2.33725,0.93621 -6.63252,2.35009 -7.13939,2.35009 -0.26245,0 -0.47718,-0.12186 -0.47718,-0.27081 0,-0.44456 3.69908,-7.44118 4.59492,-8.69107 0.58195,-0.81195 2.32545,-2.19192 5.84996,-4.63021 l 5.02092,-3.47353 1.10943,-2.77813 c 0.61018,-1.52796 1.11897,-2.90313 1.13064,-3.05591 0.0117,-0.15279 -0.72293,-0.42691 -1.63243,-0.60916 -5.83285,-1.16883 -14.89095,-3.81726 -17.45196,-5.10265 -1.33286,-0.66897 -1.63645,-0.62698 -2.44908,0.33877 -1.536209,1.8257 -2.292049,3.94124 -3.578629,10.01645 -1.09602,5.1754 -3.18857,10.82432 -5.13934,13.87387 -0.94962,1.48449 -0.96461,1.54593 -0.51148,2.09596 1.01085,1.227 2.21718,2.10193 5.61402,4.07172 3.358069,1.94731 3.592139,2.13824 4.622959,3.77095 2.00026,3.16824 3.92935,5.93809 5.4313,7.79843 1.82352,2.25863 5.31427,5.95991 5.62092,5.95991 0.12344,0 0.29817,-0.32742 0.3883,-0.72761 z m -51.180269,-9.44376 c 2.30162,-0.48784 3.70846,-1.2302 5.44659,-2.87405 3.98987,-3.77345 6.14916,-9.76197 5.36101,-14.86812 -0.15723,-1.01865 -0.35055,-2.26881 -0.42961,-2.77813 -0.13337,-0.85926 -0.0711,-0.9642 0.86338,-1.45521 0.55392,-0.29104 1.90753,-1.42465 3.00804,-2.51913 1.53413,-1.52573 2.26213,-2.51727 3.12066,-4.25036 1.02388,-2.06686 1.89036,-5.04006 1.90182,-6.52582 0.006,-0.75263 0.33416,-0.74467 2.03972,0.0494 1.2193,0.5677 1.40859,0.76811 1.68448,1.78336 0.59682,2.19631 1.02451,5.12753 1.03367,7.08446 l 0.009,1.97192 1.0744,-1.04588 c 2.25003,-2.19031 3.30751,-5.58004 3.2565,-10.43859 -0.0363,-3.45887 -0.40331,-5.64974 -1.5106,-9.01803 -1.69402,-5.15308 -1.80848,-9.22886 -0.34302,-12.21479 l 0.6168,-1.25677 h -1.14571 c -1.10204,0 -1.16971,0.0479 -1.7754,1.25677 -0.34633,0.69123 -0.79267,1.91162 -0.99187,2.71198 -0.48331,1.94189 -0.41577,7.2378 0.12655,9.92188 0.23522,1.16417 0.42769,2.26968 0.42772,2.4567 7e-5,0.51491 -0.68447,0.0653 -2.6664,-1.75109 -2.01547,-1.84718 -3.51366,-4.50272 -3.98061,-7.05561 -0.38508,-2.10529 -0.10965,-5.17801 0.66947,-7.46873 l 0.63084,-1.85474 -1.5623,-1.37519 c -1.46782,-1.29204 -2.65617,-2.92738 -2.12722,-2.92738 0.13076,0 0.79385,0.24599 1.47354,0.54665 3.1823,1.40768 6.93412,1.86589 9.7851,1.19506 7.59203,-1.78638 12.861519,-8.5417 15.909019,-20.394848 l 0.61224,-2.381245 0.0205,3.042705 c 0.0322,4.76647 -0.8744,9.106388 -2.54234,12.170838 -1.17841,2.16506 -0.5098,1.64707 1.87834,-1.45521 3.43806,-4.466138 5.46036,-8.701648 7.95873,-16.668753 1.11572,-3.557959 3.15389,-8.921726 4.5883,-12.074824 1.32547,-2.913614 3.73724,-9.328925 4.36294,-11.605381 0.67437,-2.453547 1.19051,-5.820833 0.89222,-5.820833 -0.0821,0 -0.76743,1.220391 -1.5229,2.711979 -1.55688,3.073911 -3.53804,6.49856 -5.00763,8.656225 -1.21957,1.790592 -3.29167,4.053205 -3.03695,3.316171 0.10059,-0.291041 0.77314,-2.076979 1.49456,-3.96875 1.43415,-3.760739 2.45709,-7.545344 2.73543,-10.120313 0.19662,-1.818939 -0.0528,-2.105343 -0.80653,-0.926041 -0.36532,0.571602 -9.31097,9.591146 -9.51257,9.591146 -0.0274,0 0.0487,-0.720836 0.16921,-1.601857 0.37844,-2.767199 2.09477,-7.239465 3.43695,-8.955723 0.27343,-0.349637 0.448,-0.684855 0.38793,-0.744928 -0.16566,-0.165655 -3.23646,1.430885 -5.32215,2.767031 -1.01865,0.652573 -2.88965,2.242994 -4.15779,3.534269 -5.014239,5.105736 -6.203829,10.323432 -4.990029,21.886845 0.68413,6.517364 0.7538,13.456069 0.15797,15.732329 -0.93046,3.554668 -2.89888,5.879158 -6.88647,8.132138 -1.15935,0.65503 -5.44627,2.17696 -5.62593,1.9973 -0.0618,-0.0618 0.26721,-0.66389 0.73105,-1.33807 1.1538,-1.67699 2.24732,-4.16096 2.92754,-6.65 1.07069,-3.917888 0.99535,-10.655153 -0.16532,-14.783293 -1.01554,-3.611956 -1.27901,-5.839563 -1.28303,-10.847916 -0.003,-4.19867 0.0946,-5.506691 0.59463,-7.9375 0.80694,-3.922925 2.43123,-8.677651 4.01123,-11.741926 0.71593,-1.388468 1.25651,-2.569665 1.20129,-2.624883 -0.0552,-0.05522 -0.79418,0.375216 -1.64214,0.956519 -3.54555,2.430583 -6.01325,6.034153 -7.37143,10.764456 -0.25069,0.873125 -0.50899,1.766094 -0.57399,1.984375 -0.34612,1.162381 -1.65693,-3.965809 -1.65693,-6.482291 0,-3.029165 1.24618,-7.068407 2.89522,-9.384267 0.76496,-1.074291 0.6771,-1.149696 -0.58931,-0.505745 -6.11165,3.107708 -11.14235,9.354239 -12.89282,16.008799 -1.15559,4.393036 -1.21702,7.716298 -0.35887,19.413509 0.45158,6.155335 0.35956,9.839315 -0.3118,12.482255 -0.61,2.40141 -2.47573,6.100588 -4.31337,8.552118 -0.87265,1.16417 -1.48456,2.15441 -1.35979,2.20054 0.56698,0.20962 3.95216,-1.81198 5.56138,-3.32121 2.30326,-2.16014 4.27234,-5.985528 5.05628,-9.822988 0.28565,-1.39827 0.55555,-2.5785 0.59979,-2.62274 0.17044,-0.17043 0.67702,4.01258 0.67702,5.59038 0,2.094148 -0.647,7.138358 -1.22667,9.563518 -1.00321,4.19709 -3.45574,8.71672 -6.30928,11.627 -1.65714,1.69009 -4.79835,3.94543 -6.44532,4.62762 -1.25708,0.52071 -1.01028,0.81137 0.68595,0.80787 2.00865,-0.004 4.08705,-0.57946 5.68741,-1.5743 0.7154,-0.44472 1.39316,-0.75145 1.50613,-0.68163 0.11297,0.0698 0.27555,0.71925 0.36129,1.44318 0.48693,4.11132 3.79668,8.87134 8.20245,11.79661 1.43372,0.95193 1.51839,1.06612 1.35722,1.8303 -0.73765,3.4973 -4.87076,7.73264 -7.71057,7.90128 l -0.96812,0.0575 -0.31506,-1.98438 c -0.2719,-1.71249 -0.97246,-3.96875 -1.23228,-3.96875 -0.0461,0 -0.0395,1.29673 0.0148,2.88161 0.0774,2.26144 -0.0231,3.41617 -0.46722,5.36549 -0.69165,3.03611 -0.74098,6.47733 -0.14536,10.14145 0.48439,2.97993 0.36702,4.74604 -0.46566,7.0068 -1.17459,3.18908 -4.2245,6.42214 -7.8084,8.2773 -0.90897,0.47051 -1.65311,0.94478 -1.65365,1.05392 -0.002,0.3173 2.09698,0.22125 4.00587,-0.18335 z m 72.007899,-8.28332 c 1.41127,-1.83727 2.30514,-3.53514 2.29281,-4.35508 -0.0243,-1.61671 -2.1696,-5.75191 -4.21031,-8.11565 l -0.77288,-0.89522 -1.42585,1.21814 -1.42584,1.21814 -0.33013,2.52332 -0.33013,2.52332 1.22393,1.38709 c 1.03894,1.17743 2.56371,3.87737 3.13674,5.55427 0.25662,0.75099 0.60617,0.55012 1.84166,-1.05833 z m 22.72605,-26.68378 c 1.39255,-4.19522 1.81523,-12.06295 0.88695,-16.50945 -0.74393,-3.56341 -2.30333,-7.53538 -3.49163,-8.89356 -0.56133,-0.64158 -2.19678,-1.68732 -2.64111,-1.68878 -0.2097,-7e-4 -0.18383,0.33554 0.0861,1.11899 0.73316,2.12803 0.98444,5.63747 0.63449,8.86154 l -0.32238,2.97007 1.19352,2.85076 c 3.19219,7.62471 3.09617,7.174 2.17301,10.20055 -0.37775,1.23846 -0.68682,2.33137 -0.68682,2.42869 0,0.0973 0.38695,0.13963 0.8599,0.094 0.77655,-0.0749 0.90332,-0.21375 1.30798,-1.43284 z m -7.91442,-0.30372 c 0.6843,-1.7131 1.24862,-3.83396 1.24862,-4.69262 0,-0.57491 -0.65107,-1.86828 -2.14016,-4.25146 -2.68321,-4.2943 -2.94614,-4.80131 -2.77798,-5.35664 0.0749,-0.24739 0.26507,-1.74322 0.42256,-3.32407 0.31908,-3.20266 0.009,-8.03209 -0.66568,-10.38374 -0.37516,-1.30675 -0.43444,-1.36613 -1.7806,-1.78357 -4.57393,-1.41836 -9.53446,-1.60023 -15.19938,-0.55726 -2.58766,0.47641 -3.93708,0.85842 -4.619,1.3076 -0.52985,0.34901 -2.37675,1.98091 -4.10421,3.62644 -7.24563,6.902 -6.45942,6.29917 -8.21539,6.29917 -2.06288,0 -4.41385,-0.62908 -5.99704,-1.60471 l -1.28835,-0.79393 0.18252,1.53005 c 0.40711,3.41268 1.50311,5.65151 3.37061,6.88519 1.03584,0.68428 1.2859,0.73028 3.9701,0.73028 2.10256,0 2.83254,0.0836 2.74401,0.31418 -0.0663,0.1728 -0.256,0.82764 -0.42148,1.45521 -0.69267,2.62698 -2.60956,4.77796 -5.38867,6.04672 l -1.61582,0.73768 0.79375,0.31294 c 1.90339,0.75042 5.09157,1.67474 9.525,2.76149 7.42321,1.81962 6.25922,1.9511 9.59086,-1.08335 9.36587,-8.53039 11.17163,-10.06205 12.24025,-10.38221 0.54145,-0.16223 2.06333,-0.29495 3.38195,-0.29495 2.8351,0 2.5384,-0.25132 5.39774,4.5721 l 1.8477,3.11689 -0.81727,2.59598 c -0.4495,1.42779 -0.81727,2.73386 -0.81727,2.90238 0,0.69797 0.76488,0.23485 1.13263,-0.68579 z m 50.99847,-4.58039 c 1.84368,-0.46857 1.87654,-0.58479 1.00531,-3.55555 -0.42676,-1.45521 -0.88877,-3.24114 -1.02668,-3.96875 -0.28251,-1.49048 -1.98967,-5.15937 -2.40069,-5.15937 -0.25448,0 -0.20327,1.63137 0.18477,5.88698 0.0763,0.83674 0.0339,1.52135 -0.0943,1.52135 -0.29384,0 -2.73761,-2.55634 -3.28811,-3.43958 -0.34093,-0.54701 -0.36991,-1.00481 -0.16747,-2.64584 0.31632,-2.56425 0.0659,-5.95404 -0.57824,-7.82615 -0.68928,-2.00344 -1.60499,-3.57254 -5.70085,-9.76864 C 179.37417,91.782582 175.249,86.327027 170.0928,81.206488 c -4.28182,-4.252208 -5.49085,-4.901012 -16.82905,-9.031012 -2.98318,-1.086638 -7.25499,-2.761017 -9.49292,-3.720842 -3.92805,-1.684702 -4.09298,-1.730601 -4.7625,-1.325376 -0.38145,0.230869 -0.79526,0.579804 -0.91959,0.77541 -0.15554,0.244725 0.6903,1.714886 2.71198,4.713725 1.87775,2.785325 2.93803,4.607342 2.93803,5.048786 0,0.890309 -1.67969,2.810886 -3.45421,3.949594 -1.19008,0.763675 -1.32623,0.943177 -1.17683,1.551579 0.35499,1.445545 0.75033,1.731235 2.86022,2.066935 1.10384,0.17563 2.90718,0.58089 4.00743,0.90058 2.54036,0.73813 3.19259,0.56596 6.6741,-1.76183 1.40527,-0.939571 2.75964,-1.708314 3.00972,-1.708314 0.70625,0 3.5249,1.995664 5.16591,3.657584 1.96977,1.99488 3.49802,4.292955 6.45315,9.703865 4.3695,8.000678 10.97554,18.729348 12.28832,19.957118 0.37785,0.35339 2.02594,1.27242 3.66241,2.04228 1.63647,0.76987 3.0638,1.5523 3.17184,1.73873 0.38151,0.65831 2.58169,6.02646 2.58169,6.29897 0,0.45102 -0.78466,-0.0941 -2.64584,-1.83812 -0.94588,-0.88634 -2.61276,-2.08039 -3.70416,-2.65343 -1.09141,-0.57304 -3.23453,-1.70953 -4.7625,-2.52553 -7.25552,-3.87478 -7.97219,-4.16401 -10.66702,-4.30497 -1.35979,-0.0711 -3.51666,0.0189 -4.79305,0.20011 l -2.32071,0.32942 0.19255,0.82876 c 0.1059,0.45582 0.27037,1.42407 0.3655,2.15168 0.0951,0.7276 0.26623,1.47259 0.38024,1.65552 0.341,0.54715 1.51269,1.03243 3.61332,1.49653 3.74137,0.8266 14.2875,4.00155 14.2875,4.3013 0,0.0734 -3.73322,0.0469 -8.29604,-0.0587 l -8.29604,-0.19212 -0.16508,1.55811 c -0.0908,0.85697 -0.24412,2.77851 -0.34074,4.27009 l -0.17566,2.71198 h 2.16564 c 2.54465,0 5.28075,-0.52189 8.45475,-1.6127 3.66006,-1.25785 6.1026,-1.27563 12.474,-0.0908 1.23693,0.23002 4.68974,0.87609 7.67292,1.4357 5.2439,0.98371 5.93023,1.02829 7.94568,0.51607 z M 40.815851,110.13187 c 0.80036,-0.65829 3.06255,-2.26765 5.02708,-3.57636 5.66776,-3.77567 8.85601,-7.566398 10.42053,-12.389638 1.228,-3.78581 1.55515,-9.505855 0.81794,-14.301327 -1.01603,-6.60911 -1.17491,-8.127139 -1.17945,-11.26874 -0.007,-4.683644 0.6785,-9.366164 1.88713,-12.894849 0.26985,-0.787861 0.44379,-1.479326 0.38653,-1.536588 -0.43269,-0.432688 -3.61795,6.100316 -4.35015,8.922188 -1.17153,4.515088 -1.23828,5.337453 -1.17037,14.419792 0.0839,11.224609 -0.32671,15.216124 -2.00062,19.446874 -1.55309,3.925338 -3.25801,6.098948 -7.30204,9.309298 -2.87861,2.28518 -4.69227,4.07928 -6.23607,6.16883 -1.79307,2.42694 -1.69365,2.68596 0.29617,0.77163 1.07146,-1.03082 2.60296,-2.41282 3.40332,-3.07111 z M 120.08568,47.192897 c 0.62508,-0.430066 1.20358,-0.890471 1.28557,-1.023124 0.21048,-0.340575 -2.9091,-3.038463 -5.63028,-4.86919 -4.78273,-3.217671 -10.10923,-5.43056 -16.172179,-6.718703 -3.02208,-0.642076 -3.86139,-0.707122 -9.27586,-0.718868 -5.72509,-0.01242 -9.72481,0.375762 -9.3936,0.911672 0.0694,0.112305 0.81238,0.286455 1.65105,0.386999 1.72226,0.206475 5.79913,1.148144 6.45521,1.491016 0.36584,0.19119 0.39249,0.413362 0.17303,1.442364 -0.14269,0.668999 -0.19635,1.279437 -0.11926,1.356529 0.0771,0.07709 0.59454,-0.220625 1.14989,-0.661594 1.35348,-1.074713 5.37535,-2.392226 5.37535,-1.760893 0,0.07496 -0.35655,0.768072 -0.79233,1.540238 -0.43579,0.772166 -0.86826,1.990753 -0.96105,2.707971 l -0.16872,1.304033 1.42407,-1.506527 c 1.90173,-2.011838 4.21259,-3.105243 7.009899,-3.316803 2.2372,-0.169199 2.20318,-0.21992 0.96188,1.43426 -0.7198,0.959208 -1.65292,3.257455 -1.65292,4.07108 0,0.488423 0.11685,0.448294 1.14297,-0.392531 1.66511,-1.364438 3.93012,-2.317244 5.88075,-2.473822 2.45601,-0.197145 2.97701,0.116917 1.26575,0.763009 -0.83314,0.314555 -1.73811,0.926298 -2.3151,1.564955 -1.09992,1.217475 -1.2248,1.712648 -0.35197,1.395563 0.32742,-0.118947 1.25015,-0.216267 2.05052,-0.216267 1.26437,0 1.75014,0.171533 3.70417,1.308009 1.23692,0.719405 2.84427,1.705263 3.57187,2.190795 1.51998,1.014289 1.99008,0.98781 3.73129,-0.210171 z m 43.01479,24.84882 c -3.11727,-1.480945 -4.86435,-2.456268 -9.81424,-5.478895 -2.27232,-1.387584 -3.16367,-1.604759 -4.35623,-1.06139 -0.56557,0.257693 -0.88765,0.167824 -2.37054,-0.661459 -1.76333,-0.986108 -3.16492,-1.218864 -4.15355,-0.689762 -0.37232,0.199256 -0.92207,0.129178 -2.10026,-0.267725 -1.45843,-0.491311 -1.67647,-0.503978 -2.53077,-0.147025 -1.89941,0.793622 -3.34865,2.067861 -3.98985,3.508064 l -0.61389,1.378844 -1.00004,-0.416818 c -0.55002,-0.229249 -1.53582,-0.682639 -2.19067,-1.007532 -0.65484,-0.324894 -2.11336,-0.922582 -3.24114,-1.328197 -1.12779,-0.405614 -2.05052,-0.826027 -2.05052,-0.93425 0,-0.108224 0.64478,-1.792448 1.43285,-3.74272 1.93921,-4.799023 2.35618,-6.496342 2.19974,-8.954213 -0.0695,-1.091406 -0.21358,-2.192735 -0.32026,-2.447396 -0.27254,-0.650632 0.0435,-0.599632 2.98307,0.481438 9.05387,3.329655 16.91027,7.624993 24.66085,13.482843 3.44622,2.604636 11.11442,9.471639 10.84791,9.714484 -0.0728,0.0663 -1.59937,-0.576432 -3.39246,-1.428291 z"
       id="path1" /></g></svg>
