<svg viewbox="0 0 34 34" width="34" height="34" xmlns="http://www.w3.org/2000/svg" xmlns:xlink="http://www.w3.org/1999/xlink" xml:space="preserve" overflow="hidden"><defs><clipPath id="clip0"><rect x="739" y="431" width="34" height="34"/></clipPath><clipPath id="clip1"><rect x="741" y="444" width="29" height="19"/></clipPath><clipPath id="clip2"><rect x="741" y="444" width="29" height="19"/></clipPath><clipPath id="clip3"><rect x="741" y="444" width="29" height="19"/></clipPath></defs><g clip-path="url(#clip0)" transform="translate(-739 -431)"><g clip-path="url(#clip1)"><g clip-path="url(#clip2)"><g clip-path="url(#clip3)"><path d="M25.9882 35.3244C25.011 34.915 23.9572 34.4551 23.6574 34.3073 23.4548 34.2077 23.4422 34.193 23.4485 34.0658 23.4522 33.9914 23.4819 33.911 23.5145 33.8871 23.5471 33.8633 23.7822 33.8052 24.0367 33.7583 25.7811 33.4364 27.9934 33.4426 30.0996 33.7753 30.6062 33.8554 30.6786 33.8837 30.6626 33.9957 30.6481 34.0978 30.5702 34.1381 29.3573 34.6699 28.1492 35.1999 27.0783 35.6346 26.9358 35.6529 26.8433 35.6649 26.5981 35.5799 25.9882 35.3244ZM21.8553 33.4447C20.7398 32.8834 19.7098 32.3225 18.8976 31.8338 18.0872 31.3462 17.5083 30.9525 17.5075 30.8884 17.5071 30.8548 17.5563 30.7799 17.6167 30.722 17.7492 30.5949 17.9528 30.584 18.4452 30.6774 19.4695 30.8718 20.737 31.5231 21.7965 32.3998 22.1322 32.6774 23.0531 33.5725 23.1101 33.6761 23.1621 33.771 23.0965 33.9644 23.0083 33.9766 22.9667 33.9822 22.4478 33.7429 21.8553 33.4447ZM31.0085 33.8103C30.9637 33.6938 31.7266 32.928 32.3951 32.4179 33.3535 31.6867 34.5565 31.0832 35.6765 30.7717 35.92 30.7039 36.158 30.6583 36.2054 30.6703 36.3043 30.6955 36.4041 30.8352 36.3665 30.8961 36.2915 31.0173 34.6319 32.0394 33.5491 32.6312 32.7969 33.0423 31.1516 33.8682 31.085 33.8682 31.0551 33.8682 31.0206 33.8421 31.0085 33.8103ZM23.5632 33.6394C23.5432 33.607 23.8682 32.1369 23.9106 32.0685 23.9226 32.0491 24.0998 31.9952 24.3044 31.9485L24.6767 31.8637 25.1365 32.0785C26.0283 32.4952 26.7266 32.6625 27.2281 32.58 27.6296 32.514 28.2555 32.298 28.801 32.0374L29.2632 31.8166 29.6337 31.9059C29.8376 31.955 30.0388 32.0245 30.0811 32.06 30.1331 32.104 30.2217 32.3538 30.3551 32.8328 30.4634 33.2222 30.5521 33.5703 30.5521 33.6065 30.5521 33.6886 30.5527 33.6886 29.9409 33.5953 28.8307 33.4259 28.2274 33.3839 26.8893 33.3824 25.5341 33.3809 24.9528 33.425 24.0687 33.5962 23.6245 33.6822 23.5915 33.685 23.5632 33.6394ZM30.9064 33.4318C30.8518 33.3049 30.4738 31.953 30.4738 31.8846 30.4738 31.7954 30.7813 31.2097 30.9953 30.8912 31.2545 30.5052 31.902 29.8644 32.2954 29.6045 32.8872 29.2136 33.5686 28.9373 34.2885 28.7962L34.636 28.7281 34.7256 28.8204C34.9908 29.0937 36.0366 30.4097 36.0274 30.4586 36.0215 30.4901 35.955 30.532 35.8798 30.5515 35.8044 30.5712 35.4873 30.671 35.1748 30.7733 33.7958 31.2251 32.4981 32.016 31.425 33.0592 30.964 33.5072 30.9448 33.521 30.9064 33.4318ZM22.6387 32.956C22.0549 32.3847 21.6459 32.0507 21.013 31.6278 20.154 31.0541 19.2106 30.6546 18.378 30.5123 18.1682 30.4763 17.9815 30.434 17.9631 30.4181 17.9304 30.3899 19.3925 28.7943 19.4799 28.7631 19.5488 28.7385 20.0285 28.9184 20.5038 29.1473 20.9896 29.3812 21.5464 29.7356 21.9532 30.0696 22.5259 30.5398 23.2626 31.3871 23.4714 31.8153L23.5496 31.9758 23.3814 32.7066C23.2888 33.1085 23.1941 33.4367 23.1708 33.4361 23.1474 33.4355 22.908 33.2194 22.6387 32.956ZM23.9849 31.7112C23.9994 31.6385 24.0267 31.5637 24.0453 31.5449 24.0834 31.5068 24.2831 31.5984 24.3574 31.6879 24.4186 31.7617 24.379 31.7858 24.1441 31.8179L23.9584 31.8434ZM29.7197 31.766C29.6174 31.7347 29.5336 31.6944 29.5336 31.6767 29.5336 31.6588 29.5777 31.6158 29.6316 31.581 29.9454 31.3782 29.9163 31.3884 29.9582 31.4667 29.9794 31.5064 30.009 31.6046 30.0241 31.685 30.056 31.8544 30.0306 31.8612 29.7197 31.766ZM23.3041 31.2731C22.9908 30.8258 22.2672 30.0921 21.7965 29.7443 21.3165 29.3895 20.7143 29.0505 20.1521 28.8182 19.894 28.7115 19.6765 28.6052 19.6688 28.582 19.6511 28.5287 20.6007 27.515 20.6523 27.5322 20.673 27.539 20.8305 27.7644 21.0021 28.0328 21.8183 29.3091 22.8632 30.5689 23.5551 31.1103 23.707 31.2292 23.7074 31.2303 23.6726 31.4195 23.6534 31.5237 23.6198 31.6151 23.598 31.6223 23.5761 31.6297 23.4439 31.4725 23.3041 31.2731ZM30.321 31.3943C30.2973 31.3265 30.2779 31.2411 30.2779 31.2047 30.2779 31.1681 30.4454 30.9843 30.65 30.796 31.3777 30.1267 32.4416 28.7348 33.1749 27.4924 33.2672 27.3362 33.3569 27.2084 33.3744 27.2084 33.4244 27.2084 34.4698 28.4893 34.4698 28.5505 34.4698 28.5872 34.3824 28.6211 34.2053 28.6534 33.2319 28.8307 32.1939 29.3744 31.4778 30.0819 31.1291 30.4266 30.6382 31.0948 30.5166 31.3903 30.4504 31.5514 30.3762 31.5529 30.321 31.3943ZM16.5405 30.2341C15.0809 29.1279 13.9953 28.0861 13.4365 27.2556 13.0066 26.6167 12.6762 25.5947 12.8547 25.4564 12.94 25.3903 13.8004 25.0923 13.9048 25.0926 14.0396 25.093 14.7093 25.4966 15.1064 25.8166 16.1305 26.6421 16.9496 27.9986 17.329 29.4978 17.537 30.3201 17.5363 30.2732 17.3467 30.4787 17.2569 30.5761 17.1636 30.6556 17.1395 30.6553 17.1153 30.655 16.8457 30.4655 16.5405 30.2341ZM36.5826 30.4956 36.4965 30.3746 36.5837 30.0549C37.0021 28.522 37.9695 27.0115 39.1435 26.0581 39.5181 25.7538 40.1456 25.3404 40.2865 25.305 40.3814 25.2813 41.0096 25.5111 41.0357 25.5793 41.0641 25.6534 40.9419 26.1752 40.8313 26.4516 40.5696 27.1061 40.1739 27.6536 39.4058 28.4247 39.0719 28.76 38.585 29.2108 38.324 29.4268 37.6358 29.9963 36.8059 30.6167 36.7325 30.6167 36.6974 30.6167 36.63 30.5622 36.5826 30.4956ZM35.6688 29.3934 35.0127 28.5992 35.0368 28.3053C35.1418 27.0343 35.7234 25.7403 36.6746 24.6618 36.8551 24.4572 37.0693 24.239 37.1503 24.1772L37.2978 24.0647 38.6718 24.6082C39.4274 24.9072 40.0506 25.1694 40.0567 25.1909 40.0627 25.2125 39.8702 25.3583 39.6291 25.5153 38.2322 26.4234 37.1448 27.8766 36.5638 29.6119 36.4707 29.8903 36.3787 30.1336 36.3596 30.1527 36.3394 30.1729 36.0512 29.8562 35.6688 29.3934ZM17.6537 30.084C17.6412 30.0638 17.5838 29.8552 17.526 29.6202 17.2925 28.6693 16.9228 27.8104 16.4205 27.0517 15.9167 26.2911 15.0566 25.494 14.2944 25.0815 14.217 25.0396 14.179 24.9969 14.2001 24.9759 14.2197 24.9563 14.7543 24.7522 15.3883 24.5219L16.5408 24.1033 16.7804 24.2215C17.9394 24.793 18.8265 26.1376 19.1497 27.8126 19.2757 28.465 19.2966 28.4015 18.7702 28.9659 17.9279 29.869 17.6765 30.1208 17.6537 30.084ZM34.8001 28.3136C34.7687 28.2924 33.8078 27.1356 33.6002 26.869 33.5771 26.8393 33.6456 26.6619 33.797 26.3597 34.2404 25.475 34.7078 24.3126 34.9408 23.5161 35.0006 23.3116 35.0488 23.2126 35.0884 23.2126 35.1874 23.2126 37.0553 23.9676 37.0553 24.0077 37.0553 24.0283 36.8922 24.2157 36.6929 24.4241 35.7474 25.4124 35.058 26.7904 34.9178 27.9724 34.8834 28.2626 34.8534 28.3495 34.8001 28.3136ZM19.3872 28.2093C19.3872 28.1997 19.3509 28.0035 19.3065 27.7734 19.0128 26.2512 18.2601 25.0028 17.213 24.301 17.0191 24.171 16.8604 24.0474 16.8604 24.0261 16.8604 24.0047 17.2923 23.8314 17.8203 23.6409 18.5606 23.3737 18.7901 23.3053 18.8241 23.3417 18.8483 23.3676 18.9072 23.521 18.9547 23.6827 19.1848 24.4636 19.7298 25.7657 20.1934 26.6421 20.3317 26.9034 20.445 27.1296 20.445 27.1447 20.445 27.1874 19.463 28.2269 19.4229 28.2269 19.4032 28.2269 19.3872 28.2191 19.3872 28.2093ZM22.3972 25.8951C21.1169 25.5436 20.2417 24.6929 19.6638 23.2382 19.0246 21.629 18.7101 19.4996 18.8355 17.6301 18.9032 16.6214 18.9335 16.5114 19.0603 16.8171 19.161 17.0601 19.4469 17.463 19.7087 17.7311 20.0132 18.0429 20.3332 18.2148 21.3116 18.5918 22.1902 18.9306 22.9567 19.2954 23.3684 19.5708 24.3471 20.2258 25.1882 21.5531 26.0032 23.7284 26.1135 24.0231 26.2038 24.3058 26.2038 24.3568 26.2038 24.564 25.3327 25.2482 24.6171 25.6031 23.8106 26.0033 23.1214 26.0939 22.3972 25.8951ZM23.6393 25.0732C24.1201 24.9516 25.2243 24.2994 25.2243 24.1368 25.2243 24.0296 24.8221 23.0681 24.5179 22.4486 23.9975 21.3883 23.5604 20.7872 23.0167 20.3838 22.6388 20.1037 21.9053 19.7412 21.0913 19.4328 20.7682 19.3102 20.3382 19.1322 20.1361 19.037 19.9339 18.942 19.7532 18.8641 19.7346 18.8641 19.6292 18.8641 19.7452 20.1594 19.9346 21.0984 20.2522 22.6722 20.7518 23.7757 21.4345 24.4115 22.0564 24.9904 22.9295 25.2525 23.6393 25.0732ZM30.0212 25.9171C29.6572 25.8218 29.3408 25.6862 28.9298 25.4497 28.4547 25.1764 27.6141 24.5028 27.6141 24.3956 27.6141 24.3736 27.7003 24.1202 27.8055 23.833 28.6839 21.4372 29.5657 20.0987 30.7095 19.4254 31.2119 19.1297 31.5292 18.984 32.4026 18.6482 33.408 18.2615 33.7567 18.0828 34.061 17.798 34.3448 17.5327 34.5977 17.1981 34.7619 16.8712 34.8202 16.7551 34.8823 16.676 34.9005 16.695 35.0071 16.8057 35.0598 18.9075 34.9779 19.7848 34.8084 21.6014 34.2568 23.4083 33.5672 24.4058 33.3052 24.7847 32.7915 25.2756 32.4493 25.4735 31.6379 25.9432 30.7436 26.1067 30.0212 25.9171ZM31.2571 25.0513C31.9077 24.8709 32.4654 24.4703 32.8596 23.9002 33.458 23.0345 33.9104 21.5744 34.0983 19.9022 34.1658 19.3022 34.1733 18.8641 34.1162 18.8641 34.0941 18.8641 33.9575 18.9235 33.8125 18.9959 33.6677 19.0684 33.2405 19.2461 32.8636 19.3906 30.9303 20.132 30.3836 20.548 29.6436 21.8414 29.2477 22.5333 28.6116 23.9947 28.6405 24.1458 28.675 24.3262 29.7194 24.9458 30.1996 25.0709 30.5147 25.1528 30.9171 25.1454 31.2571 25.0513ZM40.6107 24.9892C40.3276 24.874 40.2345 24.813 40.0735 24.6368 39.4856 23.9936 38.8681 22.7834 38.5236 21.5987 38.2966 20.8185 38.0227 19.3327 38.0929 19.2631 38.1308 19.2257 38.2473 19.3773 38.7346 20.0981 40.0035 21.9748 40.8605 23.7125 41.0112 24.7138 41.0558 25.0101 41.0477 25.1342 40.9838 25.1303 40.967 25.1293 40.799 25.0658 40.6107 24.9892ZM12.8252 25.0144C12.7873 24.9529 12.8356 24.5963 12.9261 24.2696 13.1015 23.6368 13.5908 22.5836 14.1907 21.5476 14.6934 20.6797 15.9 18.9053 15.9887 18.9038 16.0419 18.9029 16.0196 19.1642 15.9212 19.6971 15.6379 21.2308 14.9327 23.002 14.0517 24.3924L13.8626 24.6909 13.4027 24.858C13.1498 24.95 12.9226 25.0327 12.8979 25.0421 12.8731 25.0514 12.8404 25.039 12.8252 25.0144ZM38.5032 24.1558C37.0606 23.5876 37.1034 23.6165 36.8677 23.0499 36.4355 22.0108 36.4007 20.7185 36.7662 19.2763 36.8209 19.0606 36.8822 18.8643 36.9023 18.84 36.9226 18.8155 37.1093 18.773 37.3173 18.7457L37.6955 18.6955 37.7818 18.7958C37.8437 18.8678 37.8757 18.972 37.8951 19.1641 38.0969 21.1607 38.6644 22.8946 39.5404 24.1907 39.7004 24.4276 39.8187 24.6294 39.803 24.639 39.7875 24.6487 39.2025 24.4312 38.5032 24.1558ZM14.1769 24.5224C14.1769 24.5102 14.2661 24.3493 14.375 24.1648 15.3208 22.5636 16.0617 20.4376 16.197 18.9367 16.212 18.7717 16.2385 18.6136 16.2561 18.5851 16.2989 18.5159 17.152 18.6768 17.2181 18.7668 17.361 18.9612 17.4072 20.5631 17.2943 21.4105 17.1848 22.234 16.8467 23.5249 16.7111 23.6374 16.6532 23.6854 14.2998 24.5444 14.2259 24.5444 14.1989 24.5444 14.1769 24.5345 14.1769 24.5224ZM16.9584 23.5112C16.9584 23.5032 16.9856 23.4194 17.0191 23.3253 17.0524 23.231 17.1315 22.9599 17.1945 22.7228 17.5127 21.5297 17.599 20.2531 17.4455 19.011L17.4177 18.7858 17.5503 18.7895C17.6233 18.7915 17.7712 18.8136 17.879 18.8386L18.0748 18.8839 18.1247 19.3147C18.2366 20.2803 18.3799 21.2028 18.5474 22.0325 18.6447 22.5146 18.7163 22.9172 18.7064 22.927 18.6966 22.9368 18.3302 23.0752 17.8921 23.2345 17.1818 23.4929 16.9584 23.5591 16.9584 23.5112ZM36.0201 23.1738C35.5909 23.0029 35.2175 22.8404 35.1904 22.8125 35.151 22.772 35.1597 22.6812 35.2352 22.3507 35.3713 21.7558 35.5924 20.3979 35.6772 19.6373 35.7175 19.2762 35.7585 18.9725 35.7684 18.9626 35.8063 18.9248 36.6413 18.826 36.671 18.856 36.6882 18.8731 36.6577 19.0627 36.6032 19.2772 36.237 20.7189 36.28 22.0518 36.7266 23.1107 36.8653 23.4397 36.8785 23.4875 36.83 23.4856 36.8139 23.485 36.4494 23.3448 36.0201 23.1738ZM35.8072 18.227C35.8149 18.0423 35.8359 17.8765 35.854 17.8586 35.8721 17.8407 35.9215 17.87 35.964 17.9239 36.0065 17.9778 36.1284 18.1222 36.235 18.2446 36.3416 18.3672 36.4134 18.4771 36.3944 18.4888 36.3755 18.5005 36.2325 18.5219 36.0765 18.5364L35.7932 18.5628ZM17.5949 18.4267C17.5034 18.4061 17.4285 18.3721 17.4285 18.3508 17.4285 18.2923 17.9141 17.3772 17.9458 17.3762 17.9843 17.375 18.0084 17.5614 18.0332 18.0512L18.0545 18.4723 17.9079 18.4682C17.8274 18.4658 17.6865 18.4472 17.5949 18.4267ZM36.4488 18.2345C36.3269 18.1193 36.1396 17.894 36.0326 17.7339L35.8379 17.4427 35.8491 17.1282C35.8571 16.9049 35.8759 16.8085 35.914 16.7959 35.9723 16.7767 36.8685 17.6637 37.2085 18.077 37.4513 18.3725 37.447 18.379 36.9863 18.4175L36.6701 18.4439ZM16.8044 18.273C16.4705 18.2074 16.468 18.2119 17.3608 17.3069 17.8617 16.7991 18.0108 16.6911 17.956 16.8759 17.9223 16.9899 17.4165 18.0222 17.313 18.1883 17.2264 18.3275 17.1483 18.3405 16.8044 18.273Z" transform="matrix(1.02672 0 0 1 727.853 427.333)"/></g></g></g><path d="M749.851 432.953C749.516 432.993 749.124 433.383 748.872 433.593 748.134 434.208 747.449 434.85 746.821 435.568 744.892 437.777 743.857 440.724 742.588 443.301 742.199 444.092 741.814 444.882 741.388 445.655 741.212 445.974 741.044 446.41 740.776 446.664 740.748 446.896 740.523 447.168 740.402 447.373 740.182 447.746 739.994 448.142 739.811 448.532 739.242 449.741 738.929 451.049 739.022 452.38 739.349 457.068 744.348 459.476 748.286 461.246 749.099 461.611 749.896 462.002 750.712 462.36 751.617 462.757 752.543 463.11 753.45 463.501 753.78 463.644 754.276 463.737 754.545 463.961 755.161 463.932 755.716 464.08 756.344 463.951 756.917 463.834 757.482 463.511 758.026 463.305 759.435 462.771 760.811 462.143 762.173 461.509 764.841 460.266 767.713 458.945 769.87 456.947 770.265 456.582 770.622 456.125 770.888 455.667 771.052 455.385 771.175 455.005 771.404 454.771 771.45 454.336 771.72 453.894 771.825 453.463 772.02 452.662 772.056 451.775 771.941 450.96 771.617 448.667 770.158 446.75 769.111 444.721 767.076 440.779 765.686 436.089 761.824 433.359 759.892 431.994 757.641 430.908 755.171 431.012 754.233 431.051 753.313 431.279 752.433 431.576 751.823 431.781 751.281 432.077 750.71 432.36 750.435 432.497 750.011 432.693 749.851 432.953M755.055 431.134C756.53 430.931 758.258 431.504 759.552 432.122 761.723 433.158 763.651 434.822 764.945 436.785 766.187 438.668 767 440.782 768.011 442.778 768.553 443.849 769.061 444.936 769.648 445.985 770.774 447.996 772.04 449.968 771.87 452.342 771.752 453.989 770.999 455.614 769.815 456.815 769.062 457.58 768.098 458.189 767.18 458.756 765.12 460.03 762.907 461.066 760.686 462.051 759.641 462.515 758.589 462.969 757.518 463.378 756.992 463.579 756.483 463.842 755.914 463.913 754.879 464.041 753.938 463.576 753.02 463.188 751.55 462.567 750.077 461.967 748.639 461.28 746.694 460.352 744.744 459.412 742.967 458.202 741.402 457.138 740.065 455.862 739.487 454.061 739.067 452.753 738.991 451.315 739.38 449.989 739.913 448.172 741.069 446.582 741.94 444.908 743.411 442.081 744.478 438.916 746.383 436.318 747.755 434.448 749.73 432.828 751.924 431.902 752.938 431.474 753.967 431.283 755.055 431.134Z" fill-rule="evenodd"/></g></svg>