<svg viewbox="0 0 112 117" width="112" height="117" xmlns="http://www.w3.org/2000/svg" xmlns:xlink="http://www.w3.org/1999/xlink" xml:space="preserve" overflow="hidden"><defs><clipPath id="clip0"><rect x="2624" y="1226" width="112" height="117"/></clipPath><clipPath id="clip1"><rect x="2630" y="1270" width="100" height="67"/></clipPath><clipPath id="clip2"><rect x="2630" y="1270" width="100" height="67"/></clipPath><clipPath id="clip3"><rect x="2630" y="1270" width="100" height="67"/></clipPath></defs><g clip-path="url(#clip0)" transform="translate(-2624 -1226)"><g clip-path="url(#clip1)"><g clip-path="url(#clip2)"><g clip-path="url(#clip3)"><path d="M91.0887 123.812C87.6635 122.377 83.97 120.765 82.9191 120.247 82.2092 119.898 82.1651 119.847 82.1869 119.401 82.1998 119.14 82.3042 118.858 82.4183 118.774 82.5325 118.691 83.3566 118.487 84.2487 118.323 90.3626 117.195 98.117 117.216 105.499 118.383 107.275 118.663 107.528 118.762 107.472 119.155 107.422 119.513 107.149 119.654 102.897 121.518 98.663 123.376 94.9093 124.899 94.41 124.964 94.0857 125.006 93.2263 124.708 91.0887 123.812ZM76.6028 117.224C72.6929 115.256 69.083 113.29 66.236 111.577 63.3957 109.868 61.3665 108.489 61.3639 108.264 61.3624 108.146 61.5347 107.883 61.7464 107.68 62.2109 107.235 62.9245 107.197 64.6505 107.524 68.2407 108.206 72.6831 110.489 76.3968 113.561 77.5733 114.534 80.8012 117.672 81.001 118.035 81.1832 118.368 80.9533 119.045 80.644 119.088 80.4982 119.108 78.6797 118.269 76.6028 117.224ZM108.685 118.505C108.528 118.097 111.202 115.413 113.545 113.625 116.904 111.062 121.121 108.947 125.046 107.855 125.9 107.617 126.734 107.457 126.9 107.499 127.246 107.588 127.596 108.077 127.464 108.291 127.202 108.716 121.385 112.298 117.59 114.373 114.953 115.813 109.187 118.708 108.953 118.708 108.848 118.708 108.727 118.617 108.685 118.505ZM82.5891 117.906C82.519 117.793 83.6581 112.64 83.8066 112.4 83.8486 112.332 84.4698 112.143 85.187 111.98L86.4917 111.682 88.1036 112.435C91.2293 113.896 93.6767 114.482 95.4345 114.193 96.8419 113.962 99.0356 113.204 100.947 112.291L102.568 111.517 103.866 111.83C104.581 112.002 105.286 112.246 105.434 112.37 105.617 112.524 105.927 113.4 106.394 115.079 106.774 116.444 107.085 117.664 107.085 117.791 107.085 118.078 107.087 118.078 104.943 117.752 101.052 117.158 98.937 117.01 94.2471 117.005 89.497 117 87.4595 117.155 84.3608 117.755 82.8039 118.056 82.6882 118.066 82.5891 117.906ZM108.327 117.179C108.136 116.734 106.811 111.995 106.811 111.755 106.811 111.443 107.889 109.39 108.638 108.274 109.547 106.921 111.817 104.675 113.196 103.764 115.27 102.394 117.658 101.425 120.181 100.931L121.399 100.692 121.713 101.015C122.643 101.973 126.308 106.586 126.276 106.757 126.255 106.868 126.022 107.015 125.759 107.083 125.494 107.152 124.383 107.502 123.288 107.861 118.454 109.444 113.906 112.216 110.145 115.872 108.529 117.443 108.462 117.491 108.327 117.179ZM79.3486 115.511C77.3024 113.508 75.869 112.338 73.6504 110.856 70.6399 108.845 67.3331 107.444 64.4149 106.946 63.6796 106.82 63.0251 106.671 62.9608 106.616 62.8461 106.516 67.9709 100.924 68.2771 100.815 68.5184 100.728 70.1998 101.359 71.8657 102.161 73.5684 102.981 75.5202 104.223 76.9458 105.394 78.9532 107.042 81.5356 110.012 82.2673 111.513L82.5413 112.075 81.9518 114.637C81.6274 116.045 81.2953 117.196 81.2138 117.194 81.1318 117.192 80.2926 116.434 79.3486 115.511ZM84.0671 111.148C84.1179 110.893 84.2134 110.631 84.2788 110.565 84.4122 110.432 85.1123 110.752 85.3728 111.066 85.5871 111.325 85.4486 111.409 84.625 111.522L83.9742 111.611ZM104.168 111.34C103.809 111.23 103.515 111.089 103.515 111.027 103.515 110.964 103.67 110.813 103.859 110.692 104.959 109.981 104.857 110.016 105.004 110.291 105.078 110.43 105.182 110.774 105.235 111.056 105.346 111.65 105.257 111.673 104.168 111.34ZM81.6809 109.612C80.5827 108.044 78.0466 105.473 76.3968 104.254 74.7143 103.01 72.6037 101.822 70.6332 101.008 69.7286 100.634 68.9662 100.261 68.9393 100.18 68.877 99.9931 72.2056 96.4402 72.3862 96.5004 72.4589 96.5243 73.0111 97.3142 73.6125 98.255 76.4731 102.729 80.1354 107.144 82.5605 109.042 83.093 109.458 83.0945 109.462 82.9726 110.125 82.9051 110.491 82.7873 110.811 82.711 110.836 82.6342 110.862 82.1708 110.311 81.6809 109.612ZM106.275 110.037C106.192 109.799 106.124 109.5 106.124 109.372 106.124 109.244 106.711 108.6 107.428 107.94 109.979 105.594 113.708 100.715 116.278 96.3608 116.601 95.8133 116.916 95.3655 116.977 95.3655 117.153 95.3655 120.817 99.855 120.817 100.069 120.817 100.198 120.51 100.317 119.89 100.43 116.478 101.052 112.84 102.957 110.33 105.437 109.108 106.645 107.387 108.987 106.961 110.023 106.729 110.588 106.469 110.593 106.275 110.037ZM57.9746 105.97C52.8586 102.093 49.0537 98.4419 47.0949 95.531 45.5882 93.2917 44.43 89.7093 45.0559 89.2245 45.3547 88.9931 48.3703 87.9484 48.7362 87.9494 49.2088 87.951 51.5562 89.3657 52.9479 90.4872 56.5376 93.3804 59.4085 98.1352 60.7381 103.39 61.4672 106.272 61.4646 106.108 60.8003 106.828 60.4853 107.169 60.1584 107.448 60.0738 107.447 59.9892 107.446 59.0442 106.782 57.9746 105.97ZM128.222 106.887 127.92 106.463 128.226 105.343C129.692 99.9697 133.083 94.6752 137.198 91.3336 138.511 90.2671 140.71 88.8182 141.204 88.6942 141.537 88.6111 143.739 89.4166 143.83 89.6553 143.93 89.9153 143.501 91.7441 143.114 92.713 142.196 95.0069 140.81 96.926 138.117 99.6287 136.947 100.804 135.241 102.384 134.326 103.141 131.914 105.137 129.005 107.312 128.747 107.312 128.624 107.312 128.388 107.121 128.222 106.887ZM125.019 103.024 122.72 100.24 122.804 99.2099C123.172 94.7551 125.211 90.2199 128.544 86.4398 129.177 85.7226 129.928 84.9576 130.212 84.7412L130.729 84.3468 135.545 86.2519C138.193 87.2997 140.377 88.2188 140.399 88.294 140.42 88.3698 139.745 88.881 138.9 89.4311 134.004 92.6139 130.193 97.7075 128.156 103.79 127.83 104.765 127.508 105.618 127.441 105.685 127.369 105.756 126.36 104.646 125.019 103.024ZM61.8761 105.444C61.8326 105.374 61.6312 104.642 61.4288 103.819 60.6104 100.486 59.3145 97.4756 57.5537 94.8164 55.7882 92.1505 52.7735 89.3564 50.102 87.9105 49.8306 87.7637 49.6973 87.6142 49.7715 87.5405 49.84 87.472 51.714 86.7563 53.936 85.9494L57.9756 84.4822 58.8153 84.8964C62.8778 86.8996 65.9869 91.6123 67.1198 97.4833 67.5614 99.7699 67.6346 99.5473 65.7897 101.526 62.8373 104.691 61.9561 105.573 61.8761 105.444ZM121.974 99.239C121.864 99.1648 118.496 95.1101 117.769 94.176 117.688 94.0717 117.928 93.45 118.458 92.3907 120.013 89.2899 121.651 85.2155 122.467 82.424 122.677 81.7073 122.846 81.3602 122.985 81.3602 123.332 81.3602 129.879 84.0064 129.879 84.147 129.879 84.2191 129.307 84.8761 128.609 85.6063 125.295 89.0704 122.878 93.9004 122.387 98.0433 122.267 99.0605 122.161 99.3651 121.974 99.239ZM67.9522 98.8736C67.9522 98.8399 67.825 98.1523 67.6693 97.3458 66.6397 92.0103 64.0018 87.635 60.3317 85.1751 59.6519 84.7194 59.0955 84.2861 59.0955 84.2113 59.0955 84.1366 60.6094 83.5289 62.46 82.8615 65.0548 81.9248 65.8592 81.685 65.9786 81.8127 66.0632 81.9035 66.2697 82.4412 66.4363 83.0079 67.2428 85.7449 69.1531 90.3087 70.7779 93.3804 71.2627 94.2964 71.6597 95.0894 71.6597 95.1423 71.6597 95.2918 68.2179 98.9354 68.0773 98.9354 68.0082 98.9354 67.9522 98.9079 67.9522 98.8736ZM78.5022 90.7622C74.0147 89.5302 70.9471 86.5488 68.9216 81.4499 66.6812 75.8098 65.579 68.3461 66.0185 61.7936 66.2557 58.2579 66.3621 57.8723 66.8063 58.944 67.1592 59.7956 68.1613 61.2077 69.0789 62.1476 70.1464 63.2405 71.2678 63.843 74.6972 65.1643 77.7767 66.3517 80.4634 67.6304 81.9061 68.5957 85.3365 70.8916 88.2847 75.5436 91.1411 83.1682 91.5277 84.201 91.8443 85.1917 91.8443 85.3707 91.8443 86.0967 88.7912 88.4949 86.2831 89.7388 83.4563 91.1416 81.0405 91.4592 78.5022 90.7622ZM82.8558 87.8815C84.5409 87.4554 88.4113 85.1694 88.4113 84.5995 88.4113 84.2238 87.0013 80.8536 85.9353 78.6823 84.1112 74.966 82.5792 72.859 80.6736 71.4453 79.3492 70.4634 76.7782 69.193 73.9249 68.112 72.7926 67.6823 71.2855 67.0585 70.5771 66.7248 69.8682 66.3917 69.2351 66.1187 69.1697 66.1187 68.8002 66.1187 69.207 70.6586 69.8708 73.9499 70.984 79.4659 72.735 83.3338 75.1279 85.5622 77.3076 87.5914 80.3679 88.5099 82.8558 87.8815ZM105.224 90.8396C103.949 90.5053 102.84 90.03 101.399 89.2012 99.7336 88.2432 96.7874 85.8824 96.7874 85.5067 96.7874 85.4294 97.0894 84.5414 97.4584 83.5346 100.537 75.1373 103.628 70.4458 107.637 68.0861 109.398 67.0497 110.51 66.539 113.571 65.362 117.095 64.0065 118.317 63.3801 119.384 62.3821 120.379 61.4522 121.265 60.2793 121.84 59.1334 122.045 58.7266 122.262 58.4494 122.326 58.5159 122.7 58.904 122.885 66.2707 122.598 69.3456 122.003 75.7128 120.07 82.0462 117.653 85.5425 116.735 86.8705 114.934 88.5909 113.735 89.2847 110.891 90.9309 107.756 91.5038 105.224 90.8396ZM109.556 87.8047C111.836 87.1726 113.791 85.7682 115.173 83.7702 117.27 80.7358 118.856 75.6183 119.514 69.7571 119.751 67.6543 119.778 66.1187 119.577 66.1187 119.5 66.1187 119.021 66.3268 118.513 66.5806 118.005 66.8349 116.508 67.4576 115.187 67.9641 108.411 70.5626 106.495 72.0209 103.901 76.554 102.513 78.9791 100.284 84.1013 100.385 84.6312 100.506 85.2633 104.167 87.4352 105.85 87.8737 106.954 88.1607 108.364 88.1347 109.556 87.8047ZM142.341 87.5872C141.348 87.1835 141.022 86.9696 140.458 86.3521 138.397 84.0977 136.233 79.8557 135.025 75.7034 134.23 72.969 133.27 67.7612 133.516 67.5173 133.648 67.386 134.057 67.9174 135.765 70.4437 140.212 77.0216 143.216 83.1122 143.744 86.6219 143.901 87.6604 143.872 88.0953 143.648 88.0818 143.589 88.0781 143.001 87.8555 142.341 87.5872ZM44.9522 87.6754C44.8193 87.4601 44.9888 86.2099 45.306 85.065 45.9206 82.847 47.6356 79.1556 49.7386 75.5244 51.5003 72.4822 55.7295 66.263 56.0404 66.2578 56.2267 66.2547 56.1489 67.1706 55.8037 69.0384 54.811 74.4138 52.3391 80.6222 49.2511 85.4953L48.5883 86.5415 46.9766 87.1274C46.0901 87.4497 45.2938 87.7398 45.2071 87.7725 45.1203 87.8052 45.0056 87.7616 44.9522 87.6754ZM134.954 84.666C129.897 82.6747 130.047 82.7759 129.221 80.7898 127.706 77.1477 127.584 72.6182 128.866 67.5635 129.057 66.8074 129.272 66.1192 129.343 66.0341 129.414 65.9485 130.068 65.7995 130.797 65.7035L132.123 65.5276 132.425 65.8794C132.642 66.1317 132.754 66.497 132.822 67.1701 133.53 74.1683 135.519 80.2454 138.589 84.7884 139.15 85.6188 139.565 86.3261 139.51 86.3599 139.455 86.3936 137.405 85.6312 134.954 84.666ZM49.6901 85.9509C49.6901 85.9084 50.0025 85.3442 50.3845 84.6976 53.6993 79.0855 56.2962 71.6337 56.7706 66.373 56.823 65.7948 56.9159 65.2406 56.9776 65.141 57.1276 64.8981 60.1179 65.4622 60.3494 65.7777 60.8502 66.4591 61.0121 72.0738 60.6166 75.0438 60.2326 77.9303 59.0478 82.4547 58.5724 82.8491 58.3695 83.0172 50.1207 86.0282 49.8617 86.0282 49.7673 86.0282 49.6901 85.9935 49.6901 85.9509ZM59.4391 82.4069C59.4391 82.3789 59.5346 82.0852 59.6519 81.7551 59.7686 81.4245 60.0458 80.4743 60.2668 79.6434 61.3821 75.4616 61.6847 70.9871 61.1465 66.6335L61.0489 65.8442 61.5139 65.8571C61.7698 65.8644 62.2882 65.9417 62.666 66.0294L63.3521 66.1882 63.527 67.6979C63.9193 71.0826 64.4217 74.3157 65.0086 77.224 65.3496 78.9138 65.6008 80.3248 65.566 80.3591 65.5317 80.3933 64.2473 80.8786 62.7117 81.437 60.2222 82.3426 59.4391 82.5745 59.4391 82.4069ZM126.251 81.2242C124.746 80.6253 123.437 80.0555 123.342 79.9579 123.204 79.8157 123.235 79.4976 123.5 78.3393 123.976 76.2541 124.751 71.4946 125.049 68.8287 125.19 67.563 125.334 66.4986 125.368 66.4638 125.501 66.3315 128.428 65.9853 128.532 66.0901 128.592 66.1503 128.485 66.8146 128.294 67.5666 127.011 72.6198 127.161 77.2915 128.727 81.0031 129.213 82.1562 129.259 82.3239 129.089 82.3171 129.033 82.315 127.755 81.8236 126.251 81.2242ZM125.504 63.8856C125.531 63.2384 125.605 62.6572 125.668 62.5944 125.732 62.5316 125.905 62.6344 126.054 62.8233 126.203 63.0122 126.63 63.5182 127.004 63.9473 127.377 64.377 127.629 64.7621 127.563 64.8031 127.496 64.8441 126.995 64.9194 126.448 64.9702L125.455 65.0626ZM61.6701 64.5857C61.3494 64.5135 61.0868 64.3942 61.0868 64.3194 61.0868 64.1144 62.789 60.9072 62.9001 60.9036 63.035 60.8995 63.1196 61.5528 63.2063 63.2696L63.281 64.7455 62.7672 64.731C62.4849 64.7227 61.9914 64.6573 61.6701 64.5857ZM127.753 63.912C127.326 63.5083 126.669 62.7184 126.294 62.1574L125.612 61.1366 125.651 60.0343C125.679 59.2517 125.745 58.9139 125.878 58.8698 126.083 58.8023 129.224 61.9114 130.416 63.3599 131.267 64.3957 131.252 64.4186 129.637 64.5535L128.529 64.6459ZM58.8994 64.047C57.7291 63.8171 57.7203 63.8326 60.8496 60.6607 62.6053 58.8807 63.1279 58.5024 62.9359 59.15 62.8176 59.5496 61.0448 63.1679 60.682 63.7501 60.3784 64.238 60.1049 64.2836 58.8994 64.047Z" transform="matrix(1 0 0 1.00608 2585.12 1211.23)"/></g></g></g><path d="M2660.5 1232.86C2659.37 1233.01 2658.05 1234.38 2657.2 1235.12 2654.72 1237.28 2652.42 1239.53 2650.31 1242.06 2643.82 1249.82 2640.34 1260.18 2636.07 1269.24 2634.76 1272.02 2633.47 1274.8 2632.03 1277.51 2631.44 1278.64 2630.88 1280.17 2629.97 1281.06 2629.88 1281.88 2629.12 1282.83 2628.71 1283.56 2627.98 1284.86 2627.34 1286.26 2626.73 1287.63 2624.81 1291.88 2623.76 1296.48 2624.07 1301.15 2625.17 1317.63 2641.99 1326.1 2655.24 1332.32 2657.97 1333.6 2660.65 1334.98 2663.39 1336.23 2666.44 1337.63 2669.55 1338.87 2672.6 1340.25 2673.72 1340.75 2675.38 1341.08 2676.29 1341.86 2678.36 1341.76 2680.23 1342.28 2682.34 1341.83 2684.27 1341.42 2686.17 1340.28 2688 1339.56 2692.74 1337.68 2697.36 1335.47 2701.94 1333.24 2710.92 1328.87 2720.58 1324.23 2727.84 1317.21 2729.16 1315.92 2730.36 1314.32 2731.26 1312.71 2731.81 1311.72 2732.23 1310.38 2733 1309.56 2733.15 1308.03 2734.06 1306.48 2734.41 1304.96 2735.07 1302.15 2735.19 1299.03 2734.8 1296.16 2733.71 1288.1 2728.8 1281.37 2725.28 1274.23 2718.44 1260.37 2713.76 1243.89 2700.77 1234.29 2694.27 1229.49 2686.7 1225.68 2678.39 1226.04 2675.24 1226.18 2672.14 1226.98 2669.18 1228.02 2667.13 1228.75 2665.31 1229.79 2663.39 1230.78 2662.46 1231.26 2661.04 1231.95 2660.5 1232.86M2678 1226.47C2682.96 1225.76 2688.78 1227.77 2693.13 1229.94 2700.43 1233.59 2706.92 1239.44 2711.27 1246.33 2715.45 1252.95 2718.18 1260.38 2721.58 1267.4 2723.41 1271.16 2725.11 1274.99 2727.09 1278.67 2730.87 1285.74 2735.14 1292.68 2734.56 1301.02 2734.17 1306.81 2731.63 1312.52 2727.65 1316.74 2725.12 1319.43 2721.88 1321.57 2718.79 1323.57 2711.86 1328.04 2704.41 1331.69 2696.94 1335.15 2693.43 1336.78 2689.89 1338.38 2686.29 1339.81 2684.52 1340.52 2682.81 1341.45 2680.89 1341.69 2677.41 1342.15 2674.25 1340.51 2671.16 1339.15 2666.21 1336.96 2661.26 1334.85 2656.42 1332.44 2649.88 1329.18 2643.32 1325.87 2637.34 1321.62 2632.08 1317.88 2627.58 1313.39 2625.64 1307.06 2624.22 1302.46 2623.97 1297.41 2625.28 1292.75 2627.07 1286.36 2630.96 1280.77 2633.89 1274.89 2638.84 1264.95 2642.43 1253.82 2648.83 1244.7 2653.45 1238.12 2660.09 1232.43 2667.47 1229.17 2670.88 1227.67 2674.34 1226.99 2678 1226.47Z" fill="#385723" fill-rule="evenodd"/></g></svg>