<svg width="560.03pt" height="560.03pt" version="1.1" viewBox="0 0 560.03 560.03" xmlns="http://www.w3.org/2000/svg">
 <g transform="translate(-70.052 .085152)">
  <path d="m151.61 450.77c-0.40234-0.41797-0.95312-0.65234-1.5352-0.65234-0.57812 0-1.1289 0.23437-1.5312 0.65234l-21.809 21.809v4e-3c-0.42188 0.39453-0.64062 0.95703-0.58984 1.5312-0.0234 0.57031 0.1875 1.125 0.58984 1.5312l27.645 27.586v4e-3c0.33203 0.375 0.79688 0.60547 1.2969 0.64844 0.65625 0.0547 1.3047-0.18359 1.7695-0.64844l21.809-21.809v-4e-3c0.40625-0.40234 0.62109-0.96094 0.58984-1.5312 0.0117-0.56641-0.19922-1.1172-0.58984-1.5312zm4.3047 47.867-24.523-24.523 18.688-18.746 24.523 24.523z"/>
  <path d="m630.03 228.12-12.496-41.262h-4e-3c-0.0976-0.30469-0.25781-0.58594-0.46875-0.82422l-173.01-172.95c-0.22656-0.23047-0.51172-0.39453-0.82422-0.47266l-41.383-12.613c-0.71484-0.19531-1.4766-0.042969-2.0625 0.41406l-10.434 9.0781-91.133 91.191-8.9023 10.316v-4e-3c-0.48047 0.57422-0.63672 1.3516-0.41016 2.0664l12.438 41.262c0.11719 0.30859 0.30078 0.58984 0.53125 0.82422l61.305 61.66c-5.0664 13.727-12.379 26.516-21.633 37.844-0.40234 0.39844-0.625 0.9375-0.625 1.5039 0 0.5625 0.22266 1.1055 0.625 1.5039l-20.219 20.277h-4e-3c-0.41797 0.39844-0.65234 0.95312-0.65234 1.5312s0.23438 1.1328 0.65234 1.5352l27.527 27.645h4e-3c0.36719 0.34766 0.84766 0.55859 1.3555 0.58984 0.62891 0.0781 1.2617-0.14062 1.707-0.58984l20.277-20.277h4e-3c0.86328 0.74609 2.1406 0.74609 3.0039 0 11.348-9.2617 24.16-16.574 37.902-21.633l61.426 61.48c0.23047 0.26562 0.53906 0.44922 0.88281 0.53125l42.207 12.555c0.41406-0.0312 0.80469-0.19922 1.1211-0.47266l10.434-9.0195 91.309-91.188 8.8438-10.316h-4e-3c0.62109-0.54297 0.89063-1.3789 0.71094-2.1836zm-17.684-40.793-17.152 15.148-20.223-19.742 0.82422-9.4922 18.273-3.6562zm-78.875 103.87-14.855 19.809-1.6523 8.9609-19.512-13.969 53.82-53.82 7.3711 7.1875-22.34 28.059-3.0078 3.7148zm-39.375 11.789-47.156-47.156h34.25l5.8945-17.684 33.188-5.543 22.578 11.258 5.4805 5.4805zm-167.35-167.11 9.9609-9.9609 21.34 8.6055 19.277 20.219-26.41 5.3047zm72.859-72.859 19.805 4.0664 18.57 12.379 16.742-11.141 18.156 18.215-2.0078 8.0742 12.203 24.344 18.746 13.734-20.398 15.27h-33.602l-17.684-17.684h-21.102l-16.094-31.125-9.7852-19.688zm3.9492-4.0078 20.926-20.926 26.82 26.762-13.32 8.8438-16.328-10.906zm70.738 22.637-12.969-12.969 15.266 3.7734zm95.848 102.09-2.2383 25.82-19.867 6.7773-5.543 22.047-21.574-10.906-15.68 2.418-13.793-17.684-3.832-17.684 5.8945-23.578-10.848-18.277 23.578-17.684h14.797zm-63.605-53.465-19.512-13.91-11.141-22.047 0.88281-3.6562 39.906 39.848zm-117.89-28.941 14.973 28.941h-17.684l-5.3047 21.223-19.629-20.574-20.809-8.6055 39.438-39.438zm-33.543 62.66 28.824-5.8945 5.8945-23.578h38.434l15.855 15.914-8.0156 18.746-11.258 11.199-17.684 13.086-0.41406 22.164-51.816-51.816zm56.828 32.301 15.797-11.789 11.789-11.789 8.7227-19.984h28.766l11.555 19.043-5.8945 22.754 4.1836 19.453 13.086 16.977-16.625 2.7695-5.8945 17.684h-33.535l-1.2383 0.64844-31.066-31.066zm134.64 44.684 5.2461-21.043 20.395-6.8984 2.1211-24.934 17.332 17.332-40.145 40.375zm43.5-75.926-18.688 3.7148-0.76562 9.0781-44.859-44.801 7.1914-25.113zm-60.949-60.715-7.1914 25.348-43.918-44.211 3.0078-11.789 0.41406-16.977zm-52.348-52.168v15.562l-21.633-5.4219-27.648-27.352 15.094-17.273zm-75.039-47.629 36.902 11.199-14.504 16.387-29.887-21.277zm-10.609 9.3125 30.004 21.516-39.73 39.73v-23.578l-20.809-7.0742zm-14.562 40.91v21.871l1.0625 2.1211-12.438 12.438-26.82 26.703-4.2461-12.734-10.609-13.203h-10.434l43.797-43.797zm-68.199 41.91h12.734l8.7227 10.609 4.832 14.559-10.609 10.668-21.457-30.062zm-15.09 16.387 6.3086-7.3086 21.223 29.473-16.387 14.441zm13.262 40.91 16.977-15.148 26.938 26.996 2.4766 22.398-4.0664 8.1953zm45.922 45.98 5.4219-10.848-1.9453-17.684 50.871 50.93v1.4727l-15.914-1.8867-17.152-0.41406zm-2.0039 104.04-24.465-24.523 18.688-18.688 24.523 24.523zm23.578-20.16-27.766-27.766c8.5547-10.855 15.43-22.938 20.395-35.84l43.207 43.207v4e-3c-12.965 4.9023-25.094 11.781-35.957 20.395zm4.6562-57.77h11.789l20.809 2.418v-2.0625l26.996 27.059-8.6641 4.4766v19.098zm55.883 55.941-4e-3 -21.16 7.4258-3.7148 49.105 49.398-15.09 17.152zm45.508 43.562 14.379-16.387 21.633 15.504-2.0625 11.316zm38.848 9.5508 1.3555-7.5469 4.0664 2.8867zm8.6641-7.6641-6.4258-4.5977 1.7109-9.4297 16.625-22.223h24.344zm41.262-40.969h-25.703l22.047-27.117-10.316-10.316 39.789-40.258 21.398 30.062zm50.223-50.695-21.223-29.77 16.387-14.441 11.141 36.902z"/>
  <path d="m123.85 478.59c-0.40625-0.40625-0.95703-0.63672-1.5312-0.64844-0.59375 4e-3 -1.1641 0.23438-1.5938 0.64844l-26.465 26.469c-1.3594 0.30469-2.7695 0.30469-4.1289 0-1.0742-0.40625-2.2734 0.11719-2.7109 1.1758-3.9414 7.5391-8.9219 14.484-14.793 20.633l-0.64844 0.70703c-2.7695 2.9492-2.3594 4.125 0 10.375l0.53125 1.4727h-0.0039c0.12109 0.30859 0.30078 0.58984 0.53125 0.82812l16.859 16.859c0.22656 0.23047 0.51172 0.39453 0.82422 0.46875l1.4727 0.58984h0.0039c1.8945 0.79297 3.8711 1.3867 5.8945 1.7695 1.6523 0.10547 3.2578-0.59766 4.3008-1.8867l0.64844-0.64844c6.2344-5.9609 13.254-11.039 20.867-15.09 1.0312-0.4375 1.5469-1.5977 1.1797-2.6523-0.30469-1.3789-0.30469-2.8086 0-4.1875l26.469-26.469v4e-3c0.41797-0.40234 0.65234-0.95703 0.65234-1.5352 0-0.57812-0.23438-1.1328-0.65234-1.5312zm-2.9492 55.059v0.64844h4e-3c-0.28906 1.6953-0.28906 3.4297 0 5.125-7.4805 4.0156-14.434 8.9453-20.691 14.68l-0.70703 0.70703-0.94141 0.82422h-0.0039c-1.6875-0.375-3.3438-0.88672-4.9492-1.5312l-1.0625-0.35547-16.211-16.27-0.41016-1.0586c-0.71484-1.5859-1.2461-3.25-1.5938-4.9531 0.24609-0.33984 0.52344-0.65625 0.82422-0.94141l0.76953-0.70703c5.6875-6.1797 10.637-13.008 14.734-20.34 1.6797 0.28906 3.3945 0.28906 5.0703 0h0.70703c4.6211-1.2344 9.1016-2.9336 13.383-5.0664 9.1367-4.5977 15.031-6.8984 19.156-3.0664s1.5312 9.668-2.7109 18.922c-2.2461 4.2617-4.043 8.7461-5.3633 13.383zm7.0156-7.0156c0.64844-1.5312 1.2969-3.0664 2.0039-4.5391 3.9492-8.6641 8.0742-17.684 1.8281-23.578-6.25-5.8945-15.148-2.1211-23.578 1.8867l-4.5977 2.0039 18.746-19.043 24.344 24.348z"/>
  <path d="m262.85 339.54c-0.41797-0.39062-0.96094-0.61719-1.5352-0.64844-0.57812 0-1.1289 0.23438-1.5312 0.64844l-21.812 21.812c-0.83594 0.84766-0.83594 2.2148 0 3.0664l27.586 27.645h4e-3c0.35938 0.36328 0.84375 0.57422 1.3555 0.58984 0.57813 8e-3 1.1367-0.22656 1.5312-0.64844l21.809-21.809h4e-3c0.41797-0.40234 0.65234-0.95703 0.65234-1.5352s-0.23438-1.1328-0.65234-1.5312zm4.2461 47.867-24.523-24.523 18.746-18.688 24.523 24.523z"/>
  <path d="m290.67 311.77c-0.39844-0.41797-0.95312-0.65625-1.5312-0.65625s-1.1328 0.23828-1.5312 0.65625l-21.809 21.75h-4e-3c-0.41406 0.42578-0.64453 0.99609-0.64844 1.5938 0.0117 0.57422 0.24609 1.1211 0.64844 1.5312l27.586 27.586h4e-3c0.36328 0.36719 0.83984 0.59766 1.3555 0.64844 0.63672 0.0469 1.2617-0.19141 1.707-0.64844l21.809-21.809h4e-3c0.41797-0.40234 0.65234-0.95312 0.65234-1.5312 0-0.58203-0.23438-1.1328-0.65234-1.5352zm4.2461 47.805-24.465-24.461 18.746-18.746 24.523 24.523z"/>
  <path d="m318.43 283.95c-0.39844-0.41797-0.95312-0.65234-1.5312-0.65234s-1.1328 0.23438-1.5352 0.65234l-21.809 21.809v4e-3c-0.83984 0.84766-0.83984 2.2148 0 3.0625l27.645 27.586v4e-3c0.34375 0.35938 0.80469 0.58984 1.2969 0.64844 0.57812 0 1.1328-0.23438 1.5352-0.64844l21.809-21.809v-4e-3c0.83984-0.84766 0.83984-2.2148 0-3.0664zm4.2461 47.867-24.465-24.523 18.688-18.449 24.285 24.227z"/>
  <path d="m235.08 367.36c-0.84766-0.83984-2.2148-0.83984-3.0664 0l-21.867 21.691c-0.41797 0.40234-0.65625 0.95703-0.65625 1.5352 0 0.57812 0.23828 1.1328 0.65625 1.5312l27.645 27.586v4e-3c0.35156 0.38281 0.83594 0.61328 1.3555 0.64844 0.63672 0.043 1.2617-0.19531 1.7109-0.64844l21.809-21.75v-4e-3c0.81641-0.88281 0.81641-2.2422 0-3.125zm4.3047 47.867-24.523-24.523 18.688-18.746 24.523 24.523z"/>
  <path d="m207.26 394.95c-0.39844-0.41797-0.95312-0.65234-1.5312-0.64844-0.57812-0.0117-1.1367 0.22656-1.5312 0.64844l-21.809 21.809h-4e-3c-0.41797 0.39844-0.65234 0.95313-0.65234 1.5312 0 0.58203 0.23438 1.1328 0.65234 1.5352l27.586 27.586c0.36719 0.36719 0.84375 0.59375 1.3594 0.64844 0.57422 0 1.1289-0.23047 1.5312-0.64844l21.809-21.809c0.83984-0.85156 0.83984-2.2188 0-3.0664zm4.2461 48.098-24.523-24.52 18.629-18.746 24.641 24.641z"/>
  <path d="m179.44 422.95c-0.85156-0.83984-2.2188-0.83984-3.0664 0l-21.809 21.809h-4e-3c-0.41797 0.39844-0.65234 0.95313-0.65234 1.5312 0 0.58203 0.23438 1.1328 0.65234 1.5352l27.473 27.645c0.35938 0.36328 0.84375 0.57422 1.3555 0.58984 0.57812 8e-3 1.1328-0.22656 1.5312-0.64844l21.809-21.809c0.40625-0.41016 0.64063-0.96094 0.64844-1.5352 0.0117-0.57812-0.22656-1.1328-0.64844-1.5312zm4.2461 47.867-24.523-24.523 18.746-18.688 24.523 24.523z"/>
 </g>
</svg>
