<svg width="31" height="33" xmlns="http://www.w3.org/2000/svg" xmlns:xlink="http://www.w3.org/1999/xlink" xml:space="preserve" overflow="hidden"><defs><clipPath id="clip0"><rect x="1015" y="357" width="31" height="33"/></clipPath></defs><g clip-path="url(#clip0)" transform="translate(-1015 -357)"><path d="M66.6918 71.1814C64.8382 70.9144 63.4602 70.2206 62.3893 69.0148L62.106 68.6959 62.001 68.8786C61.9432 68.9792 61.8244 69.0942 61.7369 69.1342 61.562 69.2136 61.2076 69.167 61.0468 69.0433 60.9905 69.0002 60.296 67.9931 59.5033 66.8055L58.0619 64.6465 58.0166 63.8407C57.8617 61.0758 57.1016 58.6853 55.1229 54.7387 54.155 52.8086 53.8588 52.0912 53.5733 50.986 53.2418 49.702 53.2454 49.7802 53.2459 44.1284 53.2462 41.1981 53.2479 38.7408 53.2498 38.6678 53.2518 38.5947 53.3124 38.4714 53.3848 38.3939 53.4915 38.2795 53.5882 38.2529 53.8978 38.2529 54.3604 38.2529 54.4668 38.3438 54.6337 38.8807 54.9872 40.018 55.9596 42.4473 56.6627 43.9488L56.9896 44.6475 57.3874 44.1089C58.9045 42.0541 61.5067 40.6171 64.9025 39.9586 66.9144 39.5686 69.7563 39.5686 71.7682 39.9586 75.1134 40.6071 77.7779 42.085 79.2466 44.1064L79.6422 44.6511 79.9876 43.9174C80.7043 42.3956 81.6239 40.1396 82.0266 38.9155 82.1596 38.5119 82.4346 38.2527 82.7294 38.2531 82.9924 38.2534 83.3391 38.4648 83.3859 38.6536 83.4058 38.7345 83.4139 41.3096 83.4037 44.3759L83.3851 49.9512 83.1488 50.8213C82.7944 52.1256 82.5732 52.6805 81.7396 54.3543 79.5952 58.6605 78.8081 61.0802 78.6539 63.8394L78.6088 64.6465 77.1869 66.7734C76.405 67.9432 75.7068 68.9524 75.6354 69.016 75.3287 69.2891 74.8052 69.1987 74.644 68.8447 74.5806 68.7054 74.5572 68.7205 74.089 69.2016 73.0065 70.3139 71.7726 70.9107 70.0433 71.1582 69.3356 71.2596 67.3305 71.2735 66.6918 71.1814ZM69.4262 69.8323C70.9809 69.6728 72.14 69.1907 72.9794 68.3541 73.2471 68.0874 73.5753 67.7018 73.7088 67.4974 74.033 67.0002 74.9095 65.342 74.9095 65.2258 74.9095 65.1749 75.0228 64.6904 75.1611 64.1486 75.4493 63.0205 75.8198 61.9715 76.2661 61.021 76.5187 60.4829 76.5562 60.3603 76.468 60.3608 76.2369 60.362 74.6535 60.8098 74.0717 61.038 73.1933 61.383 72.0703 61.9664 71.2813 62.4875L70.5984 62.9384 68.3227 62.9376 66.0472 62.9369 65.3705 62.4843C64.0755 61.618 62.6063 60.9581 61.1299 60.5798 60.6587 60.459 60.2327 60.3601 60.1835 60.3601 60.1199 60.3601 60.1698 60.5245 60.3552 60.924 60.9131 62.1274 61.3757 63.5116 61.6273 64.7308 61.7437 65.296 61.8327 65.5225 62.2222 66.2455 62.8319 67.3775 63.2375 67.9527 63.7793 68.4543 64.9851 69.5707 67.054 70.0757 69.4262 69.8321ZM69.8289 60.9109C69.8944 60.5223 70.0637 59.8641 70.205 59.4485 70.4615 58.6953 70.4623 58.6894 70.4623 57.6948 70.4623 57.146 70.4798 56.6517 70.501 56.5962 70.5222 56.5406 70.8603 56.2298 71.252 55.9053 72.8508 54.5813 74.1726 53.2366 75.462 51.6228 76.5492 50.2623 77.9389 48.1042 77.9389 47.7763 77.9389 47.4664 77.6249 46.6085 77.3243 46.0962 76.0076 43.8528 72.4415 42.3778 68.3354 42.3778 64.6465 42.3778 61.3557 43.5668 59.7827 45.4677 59.1516 46.2304 58.6156 47.5588 58.7718 47.9729 59.0054 48.5914 60.772 51.0871 61.9062 52.4004 62.6923 53.3105 64.2465 54.8271 65.1108 55.5272 65.4821 55.8281 65.8955 56.1796 66.0294 56.3082L66.2728 56.5423 66.2728 57.5974C66.2728 58.5046 66.2913 58.7009 66.4051 58.9998 66.5956 59.5014 66.8382 60.5459 66.8896 61.0865 66.9142 61.343 66.9468 61.5749 66.9624 61.6022 66.9783 61.6295 67.6029 61.6441 68.3505 61.6346L69.71 61.6171ZM64.8548 58.1754C64.8548 58.0429 64.1069 57.4478 63.6757 57.2373 62.9861 56.9007 62.5674 56.8154 61.6056 56.8154L60.7681 56.8154 61.0229 57.077C61.5591 57.6278 62.3946 58.0497 63.1771 58.1652 63.674 58.2383 64.8548 58.2456 64.8548 58.1754ZM73.9429 58.0719C74.1377 58.012 74.4863 57.8644 74.7175 57.7435 75.1358 57.525 75.812 56.9884 75.812 56.8749 75.812 56.842 75.4717 56.8154 75.0488 56.8154 73.7548 56.8154 72.8683 57.1321 72.1073 57.8666L71.7193 58.2412 72.6537 58.2108C73.2683 58.1908 73.7097 58.1433 73.9429 58.0719Z" transform="matrix(1.02771 0 0 1 960.279 318.747)"/></g></svg>