<svg width="449.05pt" height="420.69pt" version="1.1" viewBox="0 0 449.05 420.69" xmlns="http://www.w3.org/2000/svg">
 <g transform="translate(-125.09 -94.008)">
  <path d="m497.28 388.08c16.238 16.238 23.52 35.84 22.961 58.801-1.1211 32.48-26.32 60.48-60.48 66.641-34.719 6.1602-66.078-12.32-80.078-47.602-2.2383-5.6016-4.4805-6.7188-10.078-6.1602-91.281 9.5195-174.16-47.602-197.12-136.64-3.3594-13.441-3.3594-28.559-5.6016-42.559-0.55859-2.8008-0.55859-6.1602-2.8008-8.3984-22.961-21.84-32.48-49.84-36.961-80.641-3.3594-24.078-2.2383-48.16 1.1211-72.238 0.55859-3.9219 1.6797-6.1602 6.1602-6.1602 34.16-0.55859 67.762 2.8008 100.24 15.121 2.8008 1.1211 6.7188 0 9.5195-1.6797 32.48-22.398 68.879-33.602 108.08-32.48 36.961 0.55859 71.121 11.762 101.92 33.039 3.9219 2.8008 6.7188 2.8008 11.199 1.1211 32.48-12.32 66.078-15.68 100.24-14.559 1.6797 0 4.4805 2.2383 5.0391 3.9219 5.6016 38.641 5.6016 76.719-8.3984 114.24-5.6016 15.121-14.559 28.559-25.762 39.762-1.6797 1.6797-3.3594 4.4805-3.3594 6.1602-1.1211 39.762-13.441 76.16-36.398 108.64 0.5625 0.55469 0.5625 0.55469 0.5625 1.6719zm-122.08 53.762c0.55859-6.1602 1.6797-11.199 1.6797-16.801 0-2.8008-0.55859-6.1602-2.2383-8.9609-11.762-17.922-24.641-34.719-31.922-54.879-1.6797-5.0391-2.8008-10.078-3.9219-15.121 0.55859 0 1.1211-0.55859 1.6797-0.55859 14.559 20.16 28.559 39.762 43.121 60.48 3.9219-5.6016 7.8398-10.641 11.199-15.121-14-22.961-29.121-45.359-32.48-72.801 0.55859-0.55859 1.1211-0.55859 2.2383-1.1211 13.441 21.84 26.879 43.121 40.879 64.961 5.6016-2.8008 10.641-6.1602 15.68-8.9609-4.4805-11.199-9.5195-22.398-14-33.039-4.4805-11.199-7.8398-22.961-5.6016-35.281 11.199 21.84 21.84 43.121 33.039 64.961 16.238-2.8008 31.922-0.55859 47.039 7.2812v-76.719c-12.879 0.55859-25.762 3.3594-38.078 1.6797-22.961-2.2383-45.359-8.3984-68.32-10.641-16.238-1.6797-33.039-2.8008-48.719 0-34.719 6.7188-69.441 14.559-105.28 8.3984-0.55859 0-0.55859 0.55859-1.6797 0.55859v77.84c0 2.2383 2.2383 5.0391 3.9219 7.2812 17.922 20.16 39.199 35.84 64.398 46.48 28.566 11.203 57.129 14.562 87.367 10.082zm-116.48-302.4c52.078 31.359 74.48 79.52 78.398 137.2h26.879c4.4805-58.238 26.879-105.84 77.84-137.2-50.395-36.402-127.12-39.762-183.12 0zm160.72 266c-2.8008 2.2383-5.6016 4.4805-8.9609 7.2812-2.8008-3.9219-5.6016-7.8398-8.9609-12.32-3.3594 5.0391-6.1602 8.9609-8.3984 13.441-1.1211 2.2383-0.55859 6.1602 1.1211 7.2812 6.7188 6.7188 3.3594 12.879 1.1211 20.16-2.8008-2.8008-5.0391-5.0391-7.2812-7.8398-5.6016 20.16 6.7188 47.602 27.441 59.922 24.641 15.121 53.762 11.762 75.039-7.8398 18.48-17.359 23.52-48.719 11.199-72.238-12.32-22.961-39.199-36.961-61.602-31.922 2.2383 4.4805 3.9219 8.3984 6.1602 12.879-6.1602 1.6797-11.199 5.6016-15.121-2.2383-5.0391-9.5195-6.1602-9.5195-15.121-3.3594-1.6797 1.1211-3.3594 2.2383-5.0391 3.9219 3.3594 4.4688 5.6016 8.3906 8.4023 12.871zm-14-134.96c17.922-1.1211 34.16-4.4805 48.16-14.559 9.5195-6.7188 14.559-16.238 15.121-28 0.55859-5.0391-1.1211-6.7188-6.7188-6.7188-25.766-4e-3 -49.844 20.156-56.562 49.277zm-120.96 0c-6.7188-31.359-38.078-54.879-63.281-48.16-1.6797 14 3.9219 25.199 14.559 33.602 14.562 10.637 30.801 13.438 48.723 14.559z"/>
 </g>
</svg>
