<svg width="514.36pt" height="540.41pt" version="1.1" viewBox="0 0 514.36 540.41" xmlns="http://www.w3.org/2000/svg">
 <g transform="translate(-92.816 .014)">
  <path d="m452.22 206.77c-88.891 61.359-65.07 169.66-65.07 169.66s-36.336 64.691-37.152 66.262c-0.81641-1.5664-37.152-66.266-37.152-66.266s23.816-108.3-65.07-169.66c-124.44-85.898-154.96-206.77-154.96-206.77s1.5742 210.82 2.3594 259.58c0.78906 48.766 18.809 89.492 40.117 109.34 17.266 16.07 68.434 45.625 68.434 45.625l58.211 125.85-15.734-112.48 103.76 20.43c0 4e-3 -4e-3 0.0156-4e-3 0.0156l0.0352-4e-3 0.0391 4e-3s-4e-3 -0.0117-4e-3 -0.0156l103.76-20.43-15.738 112.48 58.215-125.85s51.168-29.551 68.434-45.625c21.309-19.848 39.328-60.574 40.117-109.34 0.78125-48.77 2.3555-259.59 2.3555-259.59s-30.52 120.88-154.96 206.77z"/>
  <path d="m410.78 375.05s40.27-39.199 62.648-46.207c22.383-7.0039 8.9375 28.023-7.543 33.227-16.477 5.2031-55.105 12.98-55.105 12.98z" fill="#fff"/>
  <path d="m289.22 375.05s-40.27-39.199-62.648-46.207c-22.383-7.0039-8.9375 28.023 7.543 33.227 16.477 5.2031 55.105 12.98 55.105 12.98z" fill="#fff"/>
  <path d="m392.35 479.5h-84.695l-17.852 20.301 17.852-8.4023h84.695l17.852 8.4023z"/>
 </g>
</svg>
