<svg width="236.62mm" height="161.29mm" version="1.1" viewBox="0 0 236.62 161.29" xmlns="http://www.w3.org/2000/svg">
 <g transform="translate(-93.333 46.705)">
  <path d="m260.01 113.11c1.5921-2.6112 0.923-9.0708-2.0473-19.766-0.86264-3.106-1.7011-7.2737-1.8633-9.2616-0.20641-2.5298-0.68138-4.4649-1.583-6.4492-1.2993-2.8596-1.6234-5.328-0.88904-6.7716 0.21949-0.43147 0.65071-1.3944 0.95826-2.1398 3.0821-7.4704 9.1449-16.656 14.852-22.501 1.8936-1.9395 3.5259-3.7692 3.6273-4.066 0.10139-0.29686 0.54487-0.79562 0.98551-1.1084 1.0064-0.71432 2.6707-5.0887 2.6692-7.0157-2e-3 -2.5215-2.2209-9.8611-4.2751-14.141-1.0884-2.2676-2.2075-4.9714-2.4868-6.0086-0.52662-1.9557-0.73796-1.9986-2.4986-0.50643-0.49696 0.42117-2.53 1.752-4.5178 2.9575-1.9878 1.2055-4.6188 3.0161-5.8467 4.0237-2.1101 1.7316-2.3798 1.8263-4.9235 1.7281-1.4801-0.0571-4.2366-0.53946-6.1256-1.0718-1.889-0.53238-3.9428-1.0266-4.564-1.0983-2.1703-0.2504-9.2716-2.1097-10.461-2.7388-1.6211-0.8577-2.9524-0.79845-3.5084 0.15615-0.25557 0.43878-0.46662 0.53931-0.47424 0.2259-8e-3 -0.34309-0.64284-0.56473-1.6166-0.56473-1.7464 0-3.7773-1.7628-3.8042-3.3021-8e-3 -0.44951-0.17049-0.72074-0.36142-0.60273-0.19094 0.118-0.27152-0.57858-0.17908-1.548 0.14921-1.5645 0.0326-1.814-1.0376-2.2209-0.66314-0.25212-1.8791-0.4584-2.7022-0.4584-1.7352 0-2.9554-1.0914-2.1361-1.9107 0.38314-0.38314 1.7766-0.39484 5.3797-0.04519 2.6744 0.25954 5.7952 0.38135 6.935 0.27069 1.8744-0.18197 2.1839-0.06881 3.2379 1.1839 0.9917 1.1786 1.6569 1.4613 4.4618 1.8965 2.4807 0.3849 3.3393 0.38269 3.4698-0.0089 0.11256-0.33766 0.35633-0.36959 0.69426-0.09092 0.30814 0.25411 3.2241 0.32761 7.1411 0.18002 6.6203-0.24945 6.6203-0.24945 8.358-2.529 0.95571-1.2537 2.491-3.1052 3.4117-4.1143 1.9568-2.1447 2.7026-3.5772 3.7366-7.1769 0.93296-3.248 3.2613-5.7385 6.348-6.7903 1.1957-0.40743 2.2616-0.65324 2.3686-0.54626 0.42307 0.42307-0.39933 1.0556-1.7145 1.3186-3.3433 0.66867-6.5399 4.5999-6.0601 7.4529 0.56874 3.3818 0.32275 3.2834 4.1666 1.6677 1.9174-0.80594 4.2994-1.7313 5.2933-2.0563 0.99393-0.325 2.9034-1.3183 4.2432-2.2073 2.3923-1.5873 2.502-1.6126 6.0991-1.4058 8.6021 0.49456 9.3529 0.39993 11.629-1.4657 2.3724-1.9448 3.0769-2.0675 4.2744-0.74437 0.92693 1.0242 3.3465 2.426 3.3465 1.9388 0-0.16341-0.43794-1.0057-0.97319-1.8718-0.90603-1.466-4.6158-3.7113-6.1514-3.7231-1.2782-0.0098-8.6424-4.112-9.7544-5.4336-1.7631-2.0954-1.905-3.3347-0.80859-7.0616 1.1249-3.8234 1.2538-7.9576 0.31797-10.197-1.2145-2.9067-4.8614-4.8751-9.0141-4.8654-3.2938 0.0077-7.2341 2.2553-9.0047 5.1365-1.5296 2.4889-1.3213 3.3998 0.23 1.0058 0.57686-0.89024 1.2274-1.6211 1.4457-1.6242 0.21829-0.0032 0.29865 1.57 0.17859 3.4957-0.21648 3.4722-1.3802 6.8826-2.3533 6.8966-1.595 0.02295-1.6698 0.7618-0.406 4.0101 1.2641 3.2492 1.2641 3.2492 4.3218 4.1779 2.033 0.61751 3.0576 1.1596 3.0576 1.6177 0 0.54674-0.1336 0.57811-0.6471 0.15195-0.3559-0.29537-1.6095-0.61546-2.7858-0.71132-1.1763-0.09586-2.3906-0.43816-2.6984-0.76068-0.30783-0.32252-1.1809-2.0628-1.9401-3.8673-1.4838-3.5267-1.4768-3.1689-0.23808-12.128 0.27206-1.9677 2.6351-5.3607 4.4995-6.4608 5.3749-3.1713 11.443-2.5625 15.015 1.5064 0.77008 0.87706 1.5392 2.3356 1.709 3.2413 0.49781 2.6536-0.0929 8.3366-1.1107 10.686-0.97623 2.2535-0.90822 2.9364 0.49403 4.9606 0.90659 1.3087 7.2312 4.5668 11.647 5.9999 3.2241 1.0464 5.046 2.9732 6.0335 6.3808 0.42201 1.4563 1.3604 3.7818 2.0852 5.1678 2.0538 3.9268 5.2054 12.543 4.7532 12.995-0.10818 0.10818-0.39035-0.28894-0.62706-0.88249-0.23671-0.59354-1.1547-2.9009-2.0399-5.1275-2.0059-5.0453-3.9234-7.8948-6.1907-9.1997-0.96541-0.55561-1.7553-0.88017-1.7553-0.72123s1.0487 1.4357 2.3305 2.8371c2.301 2.516 4.914 7.4211 6.759 12.688 1.0317 2.9452 0.62823 4.8141-1.2969 6.0077-0.68298 0.42345-1.0151 0.77532-0.73797 0.78193 0.27709 7e-3 1.0502-0.41776 1.718-0.94305s1.3064-0.86288 1.419-0.7502c0.38941 0.38941-1.3911 1.5533-3.8667 2.5277-1.564 0.61555-2.1598 0.72809-1.6078 0.30367 0.83551-0.64243 0.81217-0.67431-0.49358-0.67431-1.0983 0-1.5368-0.3086-2.2072-1.5536-0.46017-0.85448-1.0004-1.4524-1.2006-1.3287-0.42293 0.26139-0.47446 3.1016-0.0828 4.5627 0.25723 0.95953 0.32997 0.97331 1.688 0.31994 1.4192-0.6828 1.4192-0.6828-0.0491 0.61141-0.80756 0.71182-1.4683 1.507-1.4683 1.7672s1.1087 2.6896 2.4638 5.3988c2.6214 5.241 3.8612 9.1357 3.8612 12.13 0 1.9982-0.0216 2.0864-3.7666 15.364-4.014 14.232-4.3655 15.532-4.3655 16.146 0 0.318 1.1846 2.3191 2.6324 4.4469 3.7078 5.4492 3.86 6.0064 5.9757 21.875 0.49693 3.7272 1.3774 8.759 1.9566 11.182l1.0531 4.4049h-9.4499c-6.2293 0-9.354-0.15506-9.1686-0.455 0.76567-1.2389 3.2882-1.9864 6.7748-2.0077 3.6143-0.0221 3.6143-0.0221 3.4662-1.2858-0.14968-1.2774-2.2998-6.8134-6.1769-15.904-1.1657-2.7333-2.8868-7.3341-3.8246-10.224s-2.3422-6.1806-3.1209-7.3124c-1.4074-2.0456-1.4176-2.1026-1.711-9.5414-0.16233-4.1159-0.44163-7.4835-0.62066-7.4835-0.17904 0-0.57109 0.29589-0.87124 0.65754-0.6016 0.7249-7.4951 4.9916-12.441 7.7002-4.8195 2.6395-6.0991 3.7362-6.0991 5.2275 0 0.70391 0.76239 2.9669 1.6942 5.0289 1.6942 3.7491 1.6942 3.7491 1.5391 11.204-0.30759 14.787-0.29036 21.038 0.0626 22.702 0.35931 1.6942 0.35931 1.6942-5.3018 1.6942s-5.6611 0-4.7659-1.4683zm8.9897-0.90357c-0.45506-2.3523-0.47239-12.044-0.0294-16.459 0.3255-3.2439 0.3255-3.2439-2.8516-3.1896-2.751 0.0471-3.4415-0.11373-5.1491-1.1994-1.1732-0.74589-2.1372-1.0886-2.3799-0.84591-0.24266 0.24266 0.2359 2.9198 1.1814 6.6087 1.3184 5.1439 1.5893 7.0016 1.5893 10.899 0 2.6444-0.19746 4.8197-0.45179 4.9768-1.2671 0.78314-0.039 1.1295 4.0054 1.1295 4.4572 0 4.4572 0 4.0857-1.9201zm33.021 1.5338c0-0.73774-6.2361-0.96438-7.8022-0.28356-1.3788 0.59941-1.2037 0.63543 3.1714 0.65213 2.5469 0.01 4.6308-0.15613 4.6308-0.36857zm6.7768-0.0361c0-0.23231-0.20554-0.96297-0.45674-1.6237-0.54764-1.4404-1.6329-7.929-2.2648-13.54-0.25182-2.2363-0.67863-5.2087-0.94846-6.6054-0.49061-2.5393-0.49061-2.5393-2.5893-1.8964-2.3383 0.71636-5.3304 0.47491-6.6685-0.53812-2.2282-1.687-2.0281-0.63306 1.4163 7.4586 3.7398 8.7857 5.1865 12.932 5.1865 14.866 0 0.9345 0.13553 1.8346 0.30119 2.0003 0.46688 0.46689 6.0238 0.3551 6.0238-0.12118zm-40.717-24.256c0.77651-0.1553 1.4118-0.52071 1.4118-0.81203 0-0.36843-0.87053-0.47423-2.8596-0.34758-2.2357 0.14236-3.2829-0.0224-4.7996-0.7552-1.5847-0.76566-2.1159-0.8402-2.9006-0.40708-0.90436 0.49915-0.86633 0.5463 0.64896 0.80469 0.88527 0.15097 2.0995 0.61763 2.6983 1.037 1.1249 0.78789 3.3438 0.97157 5.8008 0.48017zm34.392-2.616c0.86968-0.31387 1.4796-0.75583 1.3554-0.98214-0.26442-0.48166-0.75646-0.4557-3.9823 0.21011-1.9503 0.40253-2.7055 0.36838-4.0225-0.18188-2.2204-0.92773-2.4156-0.488-0.28287 0.63712 1.9662 1.0373 4.6022 1.1577 6.9323 0.31679zm-21.432-56.469c4.3691-1.8165 7.3202-2.414 13.653-2.7642 5.9324-0.3281 5.9324-0.3281 5.0064-2.1434-0.9261-1.8153-0.9261-1.8153-5.9663-1.5431-7.5554 0.40802-15.465 2.689-16.797 4.8439-0.45131 0.73023 0.25914 3.2377 0.84364 2.9776 0.28701-0.12773 1.7542-0.74458 3.2603-1.3708zm-25.311-10.476c0.84562-0.64499 1.7913-1.8747 2.1016-2.7327 0.39538-1.0934 1.244-1.9774 2.8372-2.9557 4.3573-2.6753 7.6374-5.5993 12.322-10.984 2.5939-2.9818 5.3585-5.7687 6.1434-6.1931 1.0112-0.54675 1.1849-0.77721 0.59603-0.79062-0.45715-0.01044-1.9481 0.97654-3.3132 2.1932-1.7182 1.5314-3.5014 2.584-5.7946 3.4203-1.8219 0.66449-4.2516 1.8037-5.3994 2.5316-1.1477 0.72787-2.293 1.3234-2.545 1.3234s-0.82519-0.81974-1.2738-1.8216c-0.81557-1.8216-0.81557-1.8216-4.4936 2.8379-2.0229 2.5628-4.254 4.9998-4.9579 5.4156-2.0908 1.2351-2.933 5.1136-1.6494 7.5958 0.91855 1.7763 3.2185 1.8442 5.4263 0.16022zm-8.7253-2.5545c0.0979-1.553 0.52627-3.59 0.95185-4.5266 0.77377-1.703 0.77377-1.703-4.381-1.5262-2.8351 0.09724-5.3808 0.31649-5.657 0.48723-0.74765 0.46208-0.60729 2.8393 0.2444 4.1392 0.74758 1.141 2.9926 2.4848 6.0054 3.5947 2.5649 0.94491 2.6438 0.88452 2.8364-2.1684zm58.631 1.6942c0-0.12424-0.10165-0.22589-0.22589-0.22589s-0.22589 0.10165-0.22589 0.22589 0.10165 0.2259 0.22589 0.2259 0.22589-0.10166 0.22589-0.2259zm-77.054-3.3884c1.9347 0 1.9347 0 2.217-2.0595 0.36383-2.6545-0.53872-4.9395-2.1064-5.3329-0.62735-0.15746-3.343-0.37112-6.0348-0.47482-2.6918-0.10369-5.2832-0.3419-5.7588-0.52935-0.57185-0.22538-0.76295-0.17612-0.56423 0.14542 0.16529 0.26743 1.2962 0.62318 2.5132 0.79056 2.2127 0.30433 2.2127 0.30433 3.049 3.2312 0.6491 2.2717 1.1397 3.122 2.1917 3.7986 0.74544 0.47941 1.6261 0.77247 1.957 0.65125 0.33092-0.12123 1.4723-0.22041 2.5364-0.22041zm62.752-0.24538c-0.14714-0.38344-0.36442-0.60027-0.48284-0.48184-0.11843 0.11843-0.0813 0.43215 0.0825 0.69716 0.44548 0.7208 0.70586 0.58077 0.40037-0.21532zm4.4551-3.0376c-0.99848-2.2572-0.72051-3.302 0.75399-2.834 1.4272 0.45298 1.1677-0.45036-0.46303-1.6115-1.423-1.0133-1.423-1.0133-0.1683-2.0137 1.4142-1.1276 1.2178-2.3196-0.25259-1.5327-1.0787 0.57732-1.7704 0.21622-1.7704-0.92428 0-0.9662 1.7019-2.3439 2.4455-1.9796 0.2701 0.1323 0.0965-0.07948-0.38587-0.47062-1.2133-0.9839-1.4829-0.9079-2.2855 0.64417-0.79412 1.5357-1.7178 1.688-4.1286 0.68068-1.7046-0.71222-2.4223-0.57982-2.4223 0.44682 0 0.37195 0.59081 0.67935 1.4683 0.76396 1.1254 0.1085 1.502 0.37898 1.6127 1.1581 0.0926 0.65238-0.0898 1.0165-0.50941 1.0165-0.35958 0-0.88376 0.2771-1.1648 0.61578-0.41365 0.49841-0.29503 0.57448 0.62235 0.39911 1.354-0.25884 1.4688 0.47032 0.45574 2.8949-0.84491 2.0222-0.84564 2.2134-6e-3 1.5163 0.36955-0.30671 1.0025-0.43078 1.4066-0.27572 0.71324 0.2737 0.70638 0.6877-0.0457 2.7558-0.23203 0.63805-5e-3 0.51946 0.77105-0.40357 0.97334-1.157 1.2517-1.2568 2.4233-0.86873 0.97737 0.32372 1.3625 0.76874 1.4719 1.701 0.10036 0.85467 0.29651 1.1144 0.60709 0.80377 0.31059-0.31059 0.16963-1.1126-0.4363-2.4824zm5.77-0.25147c6e-3 -0.32882-0.34573-0.53046-0.78057-0.44808-0.54176 0.10263-0.83011 0.64633-0.91607 1.7273-0.12544 1.5775-0.12544 1.5775 0.78058 0.44808 0.49831-0.6212 0.91054-1.3985 0.91606-1.7273zm-9.9292-12.73c-0.37272-0.24087-0.88097-0.43794-1.1295-0.43794-0.24848 0-0.14682 0.19707 0.2259 0.43794s0.88098 0.43795 1.1295 0.43795 0.14683-0.19707-0.2259-0.43795zm-3.7649-2.1083c-0.16565-0.16565-0.43673-0.16565-0.60238 0-0.16565 0.16566-0.0301 0.30119 0.30119 0.30119 0.33131 0 0.46684-0.13554 0.30119-0.30119zm-1.3554-0.45178c-0.16566-0.16565-0.43673-0.16565-0.60238 0-0.16565 0.16566-0.0301 0.30119 0.30119 0.30119 0.33131 0 0.46684-0.13554 0.30119-0.30119zm-4.066-0.45178c-0.16566-0.16565-0.43673-0.16565-0.60239 0-0.16565 0.16566-0.0301 0.30119 0.30119 0.30119 0.33131 0 0.46685-0.13554 0.3012-0.30119zm-15.63-23.953c0.25361-0.66704 0.40105-1.6295 0.32765-2.1387-0.12919-0.89639-0.16587-0.89102-1.15 0.16852-1.1713 1.2611-1.3691 3.183-0.32765 3.183 0.37887 0 0.89635-0.54576 1.15-1.2128zm-171.01 138.95c-3.0483-0.71404-3.2373-1.8763-0.74528-4.583 2.8222-3.0653 6.2584-9.1013 6.8289-11.995 0.65991-3.3477 0.8243-3.7565 0.84967-2.1128 0.0468 3.0312-4.2094 11.613-7.163 14.443-1.5029 1.4399-1.7671 2.7022-0.65486 3.129 0.39358 0.15102 2.0801 0.40141 3.7478 0.55641 2.525 0.23467 3.3311 0.12861 4.8188-0.63408 3.3216-1.7029 3.7938-2.5713 4.2554-7.8255 0.57166-6.5067 2.1243-11.137 5.4145-16.148 1.4698-2.2383 2.8688-4.7812 3.1089-5.6508 0.43657-1.5811 0.43657-1.5811-1.8895-2.121-1.2793-0.29694-3.8105-1.1488-5.6249-1.8931-1.8144-0.74427-3.3815-1.2705-3.4826-1.1694-0.31681 0.31681-1.5883 8.1263-1.8811 11.553-0.15389 1.8015-0.41431 3.2754-0.57871 3.2754-0.3778 0 0.63559-10.353 1.2918-13.197 0.66693-2.8907 2.3648-6.6149 3.7779-8.2867 0.6414-0.75882 1.6486-2.2869 2.2381-3.3957 0.58958-1.1088 1.2643-2.3177 1.4994-2.6864 0.23508-0.36868 0.4558-3.3808 0.4905-6.6936 0.0393-3.7538 0.25335-6.2136 0.56806-6.5283 0.27774-0.27773 0.50498-0.89446 0.50498-1.3705s0.30401-1.8077 0.67558-2.9592c3.064-9.4956 4.7901-15.414 5.6179-19.261 1.3703-6.3696 1.9069-8.3469 2.3376-8.613 0.20626-0.12747 0.26326-0.88462 0.12666-1.6825-0.24835-1.4508-0.24835-1.4508 0.64565-0.34919 0.4917 0.60587 0.79078 1.3706 0.66463 1.6993-0.15192 0.39588 0.0102 0.5058 0.47998 0.32552 1.836-0.70456 7.9872 2.9041 12.566 7.372 2.5578 2.4959 2.5578 2.4959 3.9219 1.5245 1.5193-1.0819 3.8074-3.8587 4.3227-5.2462 0.18457-0.49696 0.51043-2.53 0.72413-4.5178 0.21371-1.9878 1.094-5.9523 1.9561-8.8098 2.245-7.4409 2.3842-8.2523 1.3823-8.0594-0.55161 0.10623-0.99184 0.87979-1.3736 2.4137-0.56182 2.2573-0.56182 2.2573-0.4757-0.41174 0.0494-1.5319-0.11536-2.7379-0.38677-2.8307-0.48861-0.16698-1.5601 4.172-1.5601 6.3176 0 0.66836-0.19052 1.2152-0.42338 1.2152s-0.34266-0.66073-0.244-1.4683c0.52519-4.2991 0.58503-6.212 0.19431-6.212-0.23677 0-0.43864 0.35578-0.44859 0.79062-0.0129 0.56369-0.21154 0.43402-0.6921-0.45178-1.1596-2.1375-1.5487-1.4214-1.5487 2.8503 0 2.251-0.17235 3.9862-0.383 3.856-0.21066-0.13019-0.51618-2.1127-0.67893-4.4057-0.26866-3.7849-0.64631-4.8658-1.709-4.8915-0.45709-0.01107-0.83047 1.8498-0.83715 4.1721-6e-3 2.1132-0.55057 2.83-1.0873 1.4313-0.15083-0.39304-0.27423-1.9058-0.27423-3.3617 0-1.4559-0.15402-2.7423-0.34228-2.8586-0.18825-0.11635-1.1031-0.35427-2.033-0.52873-1.6907-0.31718-1.6907-0.31718-1.6907 1.4903 0 0.99413 0.29369 3.4056 0.65264 5.3587 0.953 5.1855 1.4122 13.716 0.7384 13.716-0.84948 0-3.1982-1.3357-3.1982-1.8187 0-0.2421-0.2153-0.44018-0.47844-0.44018-0.26315 0-0.34972 0.25413-0.19239 0.56473 0.15733 0.3106 2.8e-4 0.21694-0.349-0.20813-0.95279-1.1595-2.8176-1.7578-3.4729-1.1142-0.41639 0.40895-0.50789 0.38448-0.3962-0.10594 0.0841-0.36944-0.3299-0.75737-0.98425-0.92221-1.0628-0.26772-1.1462-0.51018-1.4122-4.106-0.15553-2.1018-0.71461-5.244-1.2424-6.9826-0.59628-1.9642-0.95962-4.3911-0.95962-6.4098 0-2.9073 0.0898-3.242 0.85393-3.1845 0.46966 0.03537 0.76293 0.30146 0.65171 0.5913-0.11122 0.28983 0.10407 0.64451 0.47842 0.78816 0.44248 0.1698 0.60021 0.05162 0.4508-0.33774-0.14425-0.37592 0.63175-0.17253 2.0842 0.54626 1.626 0.80468 3.481 1.2483 6.239 1.492 2.4644 0.21778 5.724 0.93884 8.7594 1.9376 6.7152 2.2097 9.5002 2.6594 12.749 2.0589 1.4525-0.26851 3.173-0.69427 3.8234-0.94612 1.1283-0.43694 1.7644-0.61987 3.9658-1.1404 0.53694-0.12696 1.3502-0.01346 1.8071 0.25219 0.72968 0.42419 0.6658 0.49172-0.52448 0.55442-2.35 0.12379-3.1539 0.2604-4.8751 0.82847-1.9106 0.63055-1.8822 0.57147-1.0587 2.1996 0.33938 0.67098 0.86791 2.2873 1.1745 3.5918 0.55747 2.3719 0.55747 2.3719 2.5583 2.3719 1.3253 0 2.9073 0.45759 4.6858 1.3554 1.4767 0.74544 2.993 1.3554 3.3694 1.3554 0.37648 0 0.97497-0.6952 1.33-1.5449 1.0126-2.4235 2.0636-2.7394 5.2491-1.5779 2.5782 0.94008 3.7073 1.6841 1.7978 1.1848-0.49696-0.12996-0.90357-0.05202-0.90357 0.1732 0 0.22522 0.41861 0.40949 0.93023 0.40949 0.51163 0 0.80459 0.2033 0.65102 0.45178s-0.67383 0.45178-1.1561 0.45178c-0.48229 0-0.8769 0.30495-0.8769 0.67768 0 0.37272 0.30495 0.67768 0.67767 0.67768 0.37273 0 0.67768 0.21608 0.67768 0.48018 0 0.2641-0.45743 0.41658-1.0165 0.33884-0.6652-0.09249-1.0165 0.09286-1.0165 0.53633 0 0.37272 0.45743 0.74264 1.0165 0.82204 1.3122 0.18636 1.3122 0.87111 0 1.0981-0.94815 0.164-0.93154 0.20015 0.24693 0.53746 1.5987 0.45759 1.7256 0.3122 2.0279-2.3223 0.22629-1.9725 0.27979-2.0538 0.5926-0.89981 0.21165 0.78082 0.0926 2.1144-0.3096 3.4689-0.82155 2.7664-2.407 3.4918-5.8864 2.6932-1.3988-0.32108-4.437-0.40812-8.3048-0.23791-4.4961 0.19786-6.3562 0.1191-7.0774-0.29962-1.1318-0.65711-5.8299-6.6214-7.1435-9.0688-0.49135-0.91542-1.0181-1.6644-1.1705-1.6644-0.15244 0-0.53525 1.169-0.8507 2.5978-0.31544 1.4288-0.86399 3.3023-1.219 4.1634-0.98607 2.3919-1.1888 7.8567-0.40491 10.916 0.67416 2.6315 2.994 7.6225 5.0755 10.92 0.61263 0.97046 1.1787 2.1013 1.258 2.5131 0.0793 0.41172 0.97548 2.5231 1.9915 4.692s2.1796 5.4198 2.5858 7.2244c0.40614 1.8046 0.91765 3.6239 1.1367 4.043 0.21904 0.41909 0.6096 2.3505 0.86791 4.292s1.0518 5.563 1.7632 8.0478c1.5325 5.3524 2.183 9.8012 2.5101 17.168 0.13242 2.9818 0.34528 6.9462 0.47302 8.8098 0.17694 2.5814 0.11364 3.1959-0.26581 2.5802-0.28392-0.46073-0.67487-5.0057-0.90928-10.571-0.22617-5.3695-0.51041-9.862-0.63163-9.9832s-1.249 0.2221-2.5063 0.76294c-1.2572 0.54084-3.6229 1.1082-5.257 1.2608-2.9712 0.27745-2.9712 0.27745-2.7116 1.8768 0.14274 0.87965 1.0628 3.2733 2.0445 5.3192 2.4548 5.116 3.406 10.02 3.0246 15.595-0.29805 4.3562-0.29805 4.3562 1.669 5.3085 1.0819 0.52375 2.5128 0.95226 3.1798 0.95226s1.2127 0.21946 1.2127 0.48769c0 0.28842-0.50761 0.3906-1.2424 0.25007-0.68333-0.13069-2.1016-0.36719-3.1517-0.52557-1.7168-0.25894-1.9542-0.45068-2.3549-1.9019-0.24509-0.88764-0.32166-1.8145-0.17014-2.0596 0.15151-0.24516 0.25731-2.344 0.23512-4.6641-0.0473-4.949-1.138-9.3248-3.6196-14.522-1.6686-3.4944-1.6686-3.4944-1.6686-11.175 0-8.5573-0.14478-9.1035-3.1736-11.972-0.91819-0.86969-4.2154-4.5906-7.327-8.2686-4.4143-5.2178-5.8678-6.6574-6.6142-6.5509-0.67067 0.0957-1.443 1.0816-2.5842 3.299-0.89522 1.7394-2.152 4.181-2.793 5.4259-0.6409 1.2449-1.7967 3.9895-2.5685 6.0991-0.77176 2.1096-2.0058 4.6489-2.7424 5.6428-2.6674 3.5993-4.5319 8.2652-5.0483 12.633-0.56037 4.7394-1.4129 6.9514-4.235 10.988-3.2753 4.6854-5.6074 12.24-5.6074 18.165 0 2.2981-0.13753 2.7006-1.1496 3.3637-0.6323 0.4143-1.3402 1.2545-1.5731 1.8672-0.23294 0.61266-0.94866 1.3136-1.5905 1.5576-1.4193 0.53963-5.654 0.50511-8.0918-0.0659zm78.817-96.124c0-0.2219-0.30495-0.52047-0.67767-0.6635-0.41902-0.16079-0.67768-0.84795-0.67768-1.8003 0-0.84714-0.30495-2.2701-0.67768-3.1622-0.90685-2.1704-0.87051-3.1098 0.11295-2.9196 0.59769 0.11562 0.75475 0.50957 0.64363 1.6144-0.20793 2.0672 0.54337 1.816 1.1288-0.37752 0.46836-1.7547 0.43804-1.859-0.6617-2.2771-0.63389-0.24101-1.4517-0.37917-1.8174-0.30702-0.65817 0.12986-0.78565 0.3115-1.9151 2.7289-0.31927 0.68332-0.78057 1.2424-1.0251 1.2424s-1.7186-0.60193-3.2758-1.3376c-3.9242-1.8541-4.8326-2.0187-6.4693-1.1723-1.3454 0.69575-1.404 0.84481-1.404 3.5723 0 2.4379 0.15911 2.9957 1.1091 3.8882 1.0518 0.98809 1.3379 1.0274 5.5344 0.75997 3.6937-0.23538 5.6313-0.12427 9.7337 0.55813 0.18636 0.03099 0.33884-0.12519 0.33884-0.34708zm2.2589-0.9519c-0.89266-0.57688-2.3896-0.57688-2.033 0 0.15357 0.24848 0.82631 0.44867 1.495 0.44487 0.95089-0.0054 1.0681-0.10232 0.53806-0.44487zm-11.52 90.804c-2.5867-1.5379-1.8912-1.7833 1.1295-0.39849 1.4442 0.66207 3.0798 0.95362 5.6473 1.0066 3.1097 0.0642 3.7226-0.0516 4.3899-0.829 0.42658-0.49697 0.78236-0.68095 0.79062-0.40886 0.0402 1.3214-1.6037 1.8842-5.6323 1.9283-3.7426 0.0409-4.2458-0.0624-6.325-1.2985zm11.069-1.5762c0-0.12424 0.10165-0.2259 0.22589-0.2259s0.22589 0.10166 0.22589 0.2259-0.10165 0.22589-0.22589 0.22589-0.22589-0.10165-0.22589-0.22589zm-3.8074-1.7081c-3.0064-1.5822-8.3908-6.374-8.3908-7.4672 0-0.44043 0.41492-0.15127 1.0838 0.75531 1.3828 1.8742 5.774 5.2918 8.2467 6.4183 1.0501 0.47838 2.0353 1.0736 2.1892 1.3228 0.44071 0.71307-0.25043 0.48574-3.1289-1.0292zm156.43-27.289c0.32613-0.13051 0.7158-0.11446 0.86592 0.0356 0.15012 0.15012-0.11671 0.2569-0.59296 0.23729-0.52631-0.0217-0.63336-0.12873-0.27296-0.27295zm-206.83-61.455c0-0.25947 0.35578-0.75078 0.79062-1.0918 0.73133-0.57354 0.74092-0.55228 0.12784 0.28352-0.36453 0.49696-0.72031 0.98828-0.79062 1.0918-0.0703 0.10353-0.12784-0.02405-0.12784-0.28352zm2.2589-0.80829c0-0.12424 0.10165-0.22589 0.22589-0.22589s0.22589 0.10165 0.22589 0.22589c0 0.12424-0.10165 0.22589-0.22589 0.22589s-0.22589-0.10165-0.22589-0.22589zm42.919-13.328c-0.26596-0.49696-0.74252-0.90357-1.059-0.90357-0.31649 0-0.97007-0.29567-1.4524-0.65704-0.80954-0.60653-0.75209-0.63759 0.74729-0.40402 1.056 0.1645 2.1229-0.0048 3.0495-0.48402 0.78391-0.40537 1.4253-0.6168 1.4253-0.46985 0 0.73514-1.0144 2.0149-1.5971 2.0149-0.36398 0-0.66179 0.2033-0.66179 0.45178 0 0.60236 1.0502 0.57144 2.4636-0.07252 0.97764-0.44544 1.1575-0.83616 1.1961-2.5978 0.0454-2.0735 0.0454-2.0735 0.47028-0.26632 0.2337 0.99392 0.31105 2.2646 0.1719 2.8236-0.13915 0.55908-0.0707 1.0165 0.15208 1.0165 0.89994 0 1.5074-1.4269 1.3426-3.154-0.0952-0.9986-0.0153-1.8156 0.17763-1.8156s0.35078 1.0165 0.35078 2.2589c0 1.2424 0.1896 2.2589 0.42134 2.2589 0.70856 0 1.0073-1.6876 0.68234-3.8546-0.30881-2.0593-0.30881-2.0593 3.7478-1.753 5.2196 0.39403 6.0347-0.39948 1.1557-1.1251-1.9068-0.2836-3.5641-0.61282-3.6829-0.7316-0.40056-0.40057 2.3464-0.21982 5.0051 0.32934 3.2088 0.66278 3.4139 1.7107 0.46288 2.3651-1.0555 0.23408-1.9222 0.64069-1.926 0.90357-4e-3 0.26288-0.17273 0.21663-0.3754-0.10278-0.20266-0.31941-1.1144-0.70179-2.0261-0.84973-1.6576-0.269-1.6576-0.269-1.6576 2.0121 0 3.6827-0.0322 3.7103-4.3244 3.7103-3.3136 0-3.8351-0.11065-4.2595-0.90357zm-7.6803-9.0645c-2.8575-0.73718-6.6186-1.466-8.358-1.6196-2.3614-0.20852-3.8491-0.6537-5.8732-1.7574-1.4909-0.81298-3.8756-1.7322-5.2995-2.0426-1.9755-0.43076-2.9255-0.93454-4.0101-2.1265-2.541-2.7923-6.4042-3.9014-10.493-3.0122-1.389 0.3021-1.3647 0.25603 0.81916-1.5534 1.2379-1.0256 2.4577-1.8602 2.7107-1.8547 0.25303 0.0055-0.0271 0.38459-0.62248 0.84237-1.0825 0.83232-1.0825 0.83232 1.1295 1.1639 1.2494 0.18726 3.0476 0.90201 4.1321 1.6424 1.056 0.72099 2.7841 1.8956 3.8402 2.6102 1.056 0.71461 3.0512 1.6241 4.4337 2.0212 1.3825 0.39705 3.3629 1.3371 4.401 2.0891 1.038 0.75195 2.0162 1.3672 2.1736 1.3672s0.16228-0.62001 0.0107-1.3778c-0.32506-1.6253 0.43939-1.4002 1.0943 0.32222 0.33244 0.87438 0.6927 1.0847 1.6663 0.97263 1.3777-0.15853 1.3948-0.2966 0.34437-2.7868-0.55645-1.3192-0.5913-1.6939-0.14402-1.5486 0.32452 0.10543 0.91005 1.1885 1.3012 2.4068 0.71112 2.2151 0.71112 2.2151 6.0991 3.4589 4.1674 0.96197 6.5649 1.2475 10.583 1.2604 7.0171 0.02259 7.6296 0.6574 0.7445 0.77162-4.7982 0.0796-6.1415-0.07748-10.684-1.2493zm-37.959-0.20802c-0.31432-0.37873-0.45734-0.80274-0.31782-0.94226 0.13952-0.13952 0.4806 0.17035 0.75795 0.68859 0.59177 1.1057 0.37209 1.2323-0.44013 0.25367zm150.76-1.8989c0.45207-0.80192 0.89677-1.2382 0.98823-0.96945 0.0915 0.26873-0.27842 0.92485-0.82195 1.4581-0.98823 0.96945-0.98823 0.96945-0.16628-0.4886zm-151.55-1.0268c0-0.86968 0.093-1.2255 0.20661-0.79062 0.11364 0.43484 0.11364 1.1464 0 1.5812-0.11363 0.43484-0.20661 0.07906-0.20661-0.79062zm21.127-10.504c-9e-4 -0.3106-0.96661-0.9501-2.146-1.4211-2.0209-0.80708-6.4362-4.7209-6.4362-5.7051 0-0.96197 0.9749-0.35043 2.1503 1.3488 0.68097 0.9845 1.41 1.7977 1.6202 1.8071 0.21012 0.0094 0.97251 0.43759 1.6942 0.95148 0.72167 0.51389 1.3121 0.81362 1.3121 0.66607 0-0.14754 0.61174 0.04809 1.3594 0.43473 1.03 0.53264 1.5797 0.58513 2.2683 0.2166 0.49985-0.26752 1.1079-0.36334 1.3513-0.21294 0.24335 0.1504 0.45162 0.0073 0.46282-0.31794 0.0112-0.32527 0.31363-1.2013 0.67204-1.9467 0.65165-1.3554 0.65165-1.3554 0.38381 0.22589-0.25706 1.5176-0.76459 2.4162-1.4376 2.5456-1.375 0.26424-2.3493 0.82297-2.3493 1.3473 0 0.34374-0.20331 0.62498-0.45179 0.62498s-0.45255-0.25413-0.45348-0.56473zm-11.971-1.2424c0.15357-0.24848 0.38087-0.45178 0.50511-0.45178s0.10024 0.2033-0.0533 0.45178c-0.15357 0.24848-0.38087 0.45178-0.50511 0.45178s-0.10024-0.2033 0.0533-0.45178zm1.5812-2.9366c0-0.12424 0.10165-0.22589 0.22589-0.22589s0.22589 0.10165 0.22589 0.22589c0 0.12424-0.10165 0.22589-0.22589 0.22589s-0.22589-0.10165-0.22589-0.22589zm0.48745-1.8448c0.0217-0.5263 0.12873-0.63336 0.27295-0.27295 0.13051 0.32613 0.11446 0.71579-0.0356 0.86592-0.15013 0.15012-0.25691-0.11671-0.23729-0.59297zm7.8068-3.0119c-1.7561-1.9858-2.4979-3.6133-2.747-6.0264-0.29457-2.854 0.50392-3.343 1.8202-1.1147 0.43206 0.73142 1.7974 1.9855 3.034 2.7868 1.2366 0.80132 2.2484 1.6878 2.2484 1.9699 0 0.50064-2.7444 3.4009-3.2182 3.4009-0.13122 0-0.64309-0.45743-1.1375-1.0165zm2.6436-1.4308c0.76577-1.054 0.75052-1.0802-1.6942-2.9085-2.4669-1.8449-2.4669-1.8449-2.4669-0.41846 0 1.6419 1.7097 4.4181 2.7107 4.4016 0.37272-0.0061 1.0254-0.48972 1.4504-1.0747zm3.2268 0.40393c-0.14521-0.37843-0.0175-1.5474 0.28385-2.5978 0.30133-1.0503 0.65207-2.5704 0.77942-3.378 0.12735-0.80756 0.40752-1.4683 0.62261-1.4683 0.47617 0 0.10206 2.3476-0.72865 4.5724-0.33593 0.89969-0.49759 2.0687-0.35923 2.5978 0.28669 1.0963-0.19735 1.318-0.598 0.27391zm-13.875-1.4579c-0.49866-3.0168-0.31144-6.8931 0.3993-8.2675 0.99765-1.9292 1.1878-1.6356 0.38019 0.58717-0.52034 1.4322-0.62937 2.8671-0.42911 5.6473 0.28307 3.9298 0.11976 4.8774-0.35038 2.033zm13.446-9.7134c-0.86064-1.0165-0.86064-1.0165 0.15587-0.15587 0.95527 0.80879 1.2222 1.1724 0.86065 1.1724-0.0857 0-0.54317-0.45743-1.0165-1.0165zm-1.5383-1.0165c0-0.12424 0.10165-0.22589 0.22589-0.22589 0.12425 0 0.2259 0.10165 0.2259 0.22589 0 0.12424-0.10165 0.22589-0.2259 0.22589-0.12424 0-0.22589-0.10165-0.22589-0.22589zm-0.90356-0.45178c0-0.12424 0.10165-0.22589 0.22589-0.22589s0.22589 0.10165 0.22589 0.22589c0 0.12424-0.10165 0.22589-0.22589 0.22589s-0.22589-0.10165-0.22589-0.22589z" stroke-width=".45178"/>
 </g>
</svg>
