<svg data-name="Layer 1" version="1.1" viewBox="0 0 4.0613 3.794" xmlns="http://www.w3.org/2000/svg">
 <title>magic_witch_HALLOWEEN_mistery_magician</title>
 <path d="m0.1253 0.67626a0.09362 0.09362 0 0 0 0.04351-0.08541l-0.00155 0.0013 0.00721-0.0073c0.00325-0.00683 3.9e-4 -0.01242-0.00725-0.01616l0.00162 0.00131a0.10482 0.10482 0 0 1 0.02754-0.0773 0.26661 0.26661 0 0 0 0.03546-0.03885 0.22432 0.22432 0 0 1 0.11471-0.08829h0.04426l0.03559-0.03924a0.85653 0.85653 0 0 1 0.16948-0.04871c0.0787-0.01738 0.1586-0.02936 0.23811-0.04291a0.353 0.353 0 0 1 0.05256-0.00378 0.4172 0.4172 0 0 0 0.12524-0.0134 0.21484 0.21484 0 0 1 0.0522-0.00574 0.73893 0.73893 0 0 0 0.14623-0.0173 0.40274 0.40274 0 0 1 0.06282-0.00555c0.0244-0.00254 0.04879-0.00545 0.073-0.00916a1.956 1.956 0 0 1 0.33487-0.03381 0.38571 0.38571 0 0 0 0.10442-0.01033 0.41848 0.41848 0 0 1 0.08362-0.00747 1.1348 1.1348 0 0 0 0.17811-0.0152 0.87932 0.87932 0 0 1 0.13655-0.0086 0.45087 0.45087 0 0 0 0.10461-0.00984 0.24385 0.24385 0 0 1 0.06269-0.00606 0.6029 0.6029 0 0 0 0.21544-0.04433 0.14686 0.14686 0 0 1 0.02964-0.01086 2.1869 2.1869 0 0 1 0.26084-0.03316 0.22469 0.22469 0 0 1 0.18437 0.08667 0.25264 0.25264 0 0 1 0.0394 0.062 0.92233 0.92233 0 0 1 0.06395 0.21078c0.00455 0.02761 0.00845 0.05539 0.01445 0.08269 0.01955 0.08893 0.03676 0.17837 0.06326 0.26576a0.586 0.586 0 0 0 0.02978 0.07837c0.01023 0.02195 0.01708 0.04547 0.02408 0.06463 0.0169 0.01668 0.03577 0.01352 0.05242 0.01777a0.23968 0.23968 0 0 1 0.1674 0.13283 0.39065 0.39065 0 0 0 0.02374 0.047 0.42206 0.42206 0 0 1 0.06606 0.165 0.30291 0.30291 0 0 0 0.02635 0.07987 0.54341 0.54341 0 0 1 0.04952 0.19262c0.00248 0.03146 8e-3 0.06267 0.01306 0.10113a0.461 0.461 0 0 1 0.08 0.21757 1.5942 1.5942 0 0 0 0.06027 0.28812c0.02665 0.07638 0.02437 0.07718-4e-3 0.17266l-0.03034 0.00927c-0.03739 0.03642-0.019 0.105-0.074 0.13229-0.00424-0.00451-0.01074-0.00834-0.0124-0.01366-0.03744-0.12063-0.06665-0.24391-0.11265-0.36184-0.03447-0.08834-0.07026-0.17617-0.10648-0.26381a0.32244 0.32244 0 0 0-0.03087-0.0549 0.05325 0.05325 0 0 0-0.04454-0.02444 0.1968 0.1968 0 0 0-0.06223 7e-3 1.654 1.654 0 0 1-0.16293 0.04212 1.9931 1.9931 0 0 0-0.20236 0.05854 0.5879 0.5879 0 0 1-0.26061 0.01488 0.71632 0.71632 0 0 1-0.10618-0.04537c-0.06833-0.0427-0.1336-0.09031-0.19962-0.13664l-0.00282-0.01708a0.02514 0.02514 0 0 1 0.01832-6e-3 0.05521 0.05521 0 0 1 0.0198 0.00665 0.93542 0.93542 0 0 1 0.14836 0.07975 0.30364 0.30364 0 0 0 0.211 0.04656 0.41482 0.41482 0 0 0 0.09216-0.0208c0.06676-0.02227 0.13484-0.03933 0.20308-0.05591 0.07512-0.01824 0.14969-0.03817 0.223-0.063a0.53656 0.53656 0 0 1 0.07151-0.01654c0.03447-0.00658 0.06923-0.01161 0.10373-0.01806a0.46141 0.46141 0 0 0 0.09209-0.00807c0.00261-0.00822 0.00746-0.0152 0.00606-0.02052a0.30193 0.30193 0 0 0-0.01978-0.05988c-0.05411-0.1066-0.09975-0.217-0.14849-0.326a0.71264 0.71264 0 0 0-0.08911-0.14262 0.28921 0.28921 0 0 0-0.02934-0.029 0.22069 0.22069 0 0 0-0.12586-0.00214 0.83272 0.83272 0 0 1-0.1358 0.01635c-0.03489 0.00221-0.06949 0.00887-0.10428 0.013-0.02086 0.00249-0.04188 0.00356-0.06274 6e-3a0.608 0.608 0 0 0-0.06236 0.00914 0.31691 0.31691 0 0 0-0.17 0.09871c-0.07087 0.07821-0.13589 0.161-0.2004 0.2443a0.24018 0.24018 0 0 0-0.0424 0.08429 0.107 0.107 0 0 1-0.02056 0.03581 0.02245 0.02245 0 0 1-0.019 0.00428 0.02465 0.02465 0 0 1-0.01515-0.01213 0.07883 0.07883 0 0 1-0.00207-0.06154 0.37619 0.37619 0 0 1 0.03221-0.066 1.4818 1.4818 0 0 1 0.235-0.28292 0.42406 0.42406 0 0 1 0.19181-0.10506q0.10732-0.02675 0.21448-0.05413l0.03037-0.00929 0.01847-0.02266a0.06536 0.06536 0 0 0-3.4e-4 -0.02272c-0.03879-0.08666-0.06906-0.17644-0.10116-0.26566-0.02249-0.06253-0.05182-0.12265-0.07536-0.18514a0.53928 0.53928 0 0 0-0.11095-0.16539 0.14375 0.14375 0 0 0-0.07022-0.04461 0.44106 0.44106 0 0 0-0.08144-0.02034 0.76483 0.76483 0 0 1-0.149-0.0326c-0.0155 0.00655-0.03429 0.01548-0.05377 0.0225a0.30825 0.30825 0 0 1-0.13371 0.02273 0.56914 0.56914 0 0 0-0.1362 0.00318 0.52961 0.52961 0 0 1-0.07363 0.00388 0.70247 0.70247 0 0 0-0.13605 0.01261c-0.03755 0.00778-0.07705 0.00565-0.11519 0.01128a0.32035 0.32035 0 0 1-0.13545 0.00618 0.10392 0.10392 0 0 0-0.04132 0.00484 1.3376 1.3376 0 0 1-0.22937 0.03041 0.147 0.147 0 0 0-0.08031 0.02226 0.31968 0.31968 0 0 1-0.11821 0.04268c-0.08269 0.01484-0.16425 0.03412-0.24853 0.04233a1.8249 1.8249 0 0 0-0.29893 0.06129 0.08437 0.08437 0 0 0-0.05748 0.05072c0.00638 0.03362 0.02814 0.0665 0.039 0.10311 0.01 0.03366 0.023 0.06644 0.03213 0.10029a0.40634 0.40634 0 0 0 0.03536 0.10763 0.03563 0.03563 0 0 0 0.04035 0.0075c0.0898-0.03082 0.18443-0.04311 0.27461-0.07323a0.42044 0.42044 0 0 1 0.13451-0.02376 0.2401 0.2401 0 0 0 0.06219-0.00949 0.39585 0.39585 0 0 1 0.09372-0.01314 0.20443 0.20443 0 0 0 0.07215-0.01332 0.14656 0.14656 0 0 1 0.08313-0.00768 1.0579 1.0579 0 0 1 0.19283 0.05177 0.15671 0.15671 0 0 1 0.08551 0.10143 0.05287 0.05287 0 0 1 0.00191 0.02084c-8.7e-4 0.01385-0.0028 0.02764-0.00392 0.03807-0.00673 0.00864-0.00984 0.01626-0.01543 0.01923a0.293 0.293 0 0 0-0.11579 0.10435 0.42441 0.42441 0 0 1-0.05782 0.06173c-0.06784 0.00662-0.1307 0.03067-0.19565 0.04346-0.07239 0.01425-0.14369 0.03247-0.21555 0.04852-0.03765 0.00841-0.07477 0.01939-0.11178 0.03039a0.28353 0.28353 0 0 1-0.11456 0.01029c-0.01077-0.00124-0.02262-0.01214-0.0194-0.01948 0.00261-6e-3 0.00617-0.0143 0.01118-0.016a1.2951 1.2951 0 0 1 0.14068-0.04355c0.0521-0.011 0.099-0.03549 0.14989-0.04893s0.10178-0.027 0.15249-0.04121a0.92318 0.92318 0 0 0 0.0906-0.02791c0.03261-0.01286 0.0637-0.0296 0.09565-0.04474a0.30291 0.30291 0 0 0 0.09852-0.15079 0.03969 0.03969 0 0 0-0.02919-0.03492c-0.03641-0.0124-0.07342-0.023-0.10475-0.03268-0.05781 0.00994-0.10927 0.02208-0.1614 0.027-0.084 8e-3 -0.16572 0.03065-0.25029 0.03407a0.49877 0.49877 0 0 0-0.07245 0.01276 0.66531 0.66531 0 0 1-0.15517 0.02651c-0.04624 0.01625-0.09225 0.03317-0.13881 0.04842-0.01992 0.00653-0.041 0.00956-0.06153 0.0142a0.14185 0.14185 0 0 0-0.08639 0.05612 1.7271 1.7271 0 0 0-0.11007 0.15423c-0.04341 0.07615-0.07879 0.15687-0.11753 0.23567l-0.00337 0.01c-0.01541 0.09388-0.04752 0.18359-0.06768 0.27615a0.57358 0.57358 0 0 1-0.03243 0.11085 0.16292 0.16292 0 0 0 0.00384 0.14262 0.5969 0.5969 0 0 1 0.04447 0.12927 0.111 0.111 0 0 1 9.3e-4 0.04165 0.06241 0.06241 0 0 1-0.01446 0.027 0.031 0.031 0 0 1-0.046-1e-3 0.181 0.181 0 0 1-0.02149-0.03607 1.1409 1.1409 0 0 1-0.07212-0.2306 0.22078 0.22078 0 0 0-0.02457-0.06892 0.85292 0.85292 0 0 1-0.07209-0.23036 1.2723 1.2723 0 0 0-0.04107-0.174 0.51989 0.51989 0 0 1-0.01907-0.082 0.2129 0.2129 0 0 1-0.00322-0.06284c0.00919-0.06584 0.02075-0.13136 0.032-0.19689a0.76122 0.76122 0 0 1 0.05281-0.17065 0.45943 0.45943 0 0 0 0.04091-0.14113zm-0.05606 0.57029c0.01742 0.07793 0.037 0.16669 0.05721 0.25529a0.27014 0.27014 0 0 0 0.04948 0.10582 0.22612 0.22612 0 0 0 0.03113-0.07871c0.01954-0.06715 0.03492-0.13595 0.06017-0.2009a1.055 1.055 0 0 1 0.14056-0.25712c0.02956-0.039 0.05607-0.08036 0.08328-0.1211a0.11511 0.11511 0 0 0 0.02368-0.04765 1.6972 1.6972 0 0 0-0.07857-0.25955 0.42056 0.42056 0 0 1-0.0372-0.20431l-0.00211-0.01c-0.00667-0.00636-0.01432-0.01166-0.02209-0.01779a0.66219 0.66219 0 0 0-0.11062 0.14289 0.39276 0.39276 0 0 0-0.03239 0.06578 3.2101 3.2101 0 0 0-0.11305 0.32731 1.3938 1.3938 0 0 0-0.03339 0.16412c-0.00695 0.04122-0.01002 0.08322-0.01609 0.13592zm2.5451-1.1323a0.0539 0.0539 0 0 0 0.01508 0.00964c0.03409 0.00769 0.06844 0.0142 0.10257 0.02169a0.33761 0.33761 0 0 1 0.19824 0.12841c0.02784 0.0358 0.05483 0.07226 0.08254 0.10816l0.00941 0.00266a0.04954 0.04954 0 0 0 0.012-0.01335l9e-4 -0.01026a0.74573 0.74573 0 0 0-0.072-0.18481 0.196 0.196 0 0 0-0.11599-0.1008l-0.12584 0.00872a0.57043 0.57043 0 0 0-0.06266 0.0052 0.0552 0.0552 0 0 0-0.04425 0.02474z"/>
 <path d="m1.8734 2.2531a0.474 0.474 0 0 0 0.12212-0.083 0.30953 0.30953 0 0 1 0.07835-0.05263c0.0173-0.00827 0.03571-0.00841 0.03772 0.00143a0.05185 0.05185 0 0 1-3.4e-4 0.02936 0.40723 0.40723 0 0 1-0.09894 0.13491 0.14209 0.14209 0 0 1-0.0736 0.03829 1.0882 1.0882 0 0 1-0.13541 0.01946 1.2755 1.2755 0 0 0-0.23825 0.03852 0.7184 0.7184 0 0 1-0.19119 0.032 0.04712 0.04712 0 0 0-0.01891 0.05966 0.43262 0.43262 0 0 0 0.02528 0.0578 2.193 2.193 0 0 1 0.09032 0.20179 0.19726 0.19726 0 0 0 0.0172 0.032 0.07211 0.07211 0 0 0 0.053 0.01931l0.01053-5e-5c0.08979-0.0168 0.182-0.01227 0.27158-0.03085l0.02071-0.00378a1.227 1.227 0 0 0 0.18817-0.0202 0.78575 0.78575 0 0 0 0.1468-0.00613 0.16581 0.16581 0 0 0 0.04191-0.00414 0.85709 0.85709 0 0 1 0.20934-0.01764 0.73059 0.73059 0 0 0 0.13614-0.01226 0.46783 0.46783 0 0 1 0.08379-0.00694c0.04912-0.00189 0.09828-0.00258 0.14743-0.00381a0.15626 0.15626 0 0 0 0.0419-0.00181 0.67039 0.67039 0 0 1 0.18806-0.01667c0.028-7.8e-4 0.0559-0.00481 0.08376-0.0081 0.03134-0.0037 0.06248-0.00955 0.0939-0.012a0.33052 0.33052 0 0 0 0.07255-0.0111 0.21649 0.21649 0 0 1 0.05169-0.00862 0.71347 0.71347 0 0 0 0.39736-0.15084 0.29613 0.29613 0 0 0 0.08307-0.07575l0.01622-0.07613a0.16138 0.16138 0 0 1 0.11589-0.01266 0.20257 0.20257 0 0 1 0.07837 0.12719c0.014 0.0543 0.02679 0.10891 0.0414 0.16868l-0.01518 0.10071-0.02159 0.03385a0.16236 0.16236 0 0 1-0.10269 0.06873 0.398 0.398 0 0 1-0.16636 0.0163 0.80093 0.80093 0 0 0-0.13526 0.00207c-0.10519-0.00107-0.21044 0.00553-0.31568 0.00842a0.5939 0.5939 0 0 0-0.11481 0.01244 1.2617 1.2617 0 0 1-0.15572 0.02487c-0.10811 0.0103-0.21574 0.02713-0.32475 0.0267a0.20258 0.20258 0 0 0-0.042 0.0035 1.1838 1.1838 0 0 1-0.20968 0.0175 0.11882 0.11882 0 0 0-0.021 5.6e-4c-0.093 0.01978-0.18909 0.01216-0.282 0.03242a0.09409 0.09409 0 0 1-0.0208 0.0032c-0.08471-0.00106-0.16711 0.0205-0.25121 0.02558-0.0244 0.00147-0.0485 0.00743-0.07284 0.01053a0.23109 0.23109 0 0 1-0.05223 4e-3c-0.05993-0.00631-0.11858 8e-3 -0.1731 0.00617a0.04211 0.04211 0 0 0-0.02134 0.0486 0.038 0.038 0 0 0 0.02683 0.02917 0.21316 0.21316 0 0 0 0.03114 0.00453 0.884 0.884 0 0 0 0.23062-0.01347 0.31609 0.31609 0 0 1 0.0629-5e-3 0.7902 0.7902 0 0 0 0.14645-0.015 0.40807 0.40807 0 0 1 0.08388-0.00556 1.1347 1.1347 0 0 0 0.22016-0.01636 0.584 0.584 0 0 1 0.0735-0.00489c0.06294-0.00518 0.12584-0.01088 0.18876-0.01631 0.028-0.00241 0.05592-0.00545 0.08394-0.00683a1.2981 1.2981 0 0 0 0.157-0.01474 1.2008 1.2008 0 0 1 0.15764-0.0088 1.1291 1.1291 0 0 0 0.13634-0.01043 0.82518 0.82518 0 0 1 0.11558-0.00637 0.82722 0.82722 0 0 0 0.14665-0.01307 0.70142 0.70142 0 0 1 0.08371-0.00778 0.82744 0.82744 0 0 0 0.1467-0.01256 0.33015 0.33015 0 0 1 0.10419 0.00886c0.01077 6e-4 0.02166 0.00665 0.02183 0.01754a0.05533 0.05533 0 0 1-0.01073 0.02864 0.07867 0.07867 0 0 1-0.05169 0.03384 1.3678 1.3678 0 0 1-0.15585 0.02376c-0.07351 0.00507-0.147 0.00645-0.22028 0.01783a1.2577 1.2577 0 0 1-0.15779 6e-3 0.91524 0.91524 0 0 0-0.18853 0.01585 0.37893 0.37893 0 0 1-0.08385 0.00541 1.1077 1.1077 0 0 0-0.22009 0.017 0.409 0.409 0 0 1-0.07346 0.00518 0.39813 0.39813 0 0 0-0.125 0.01425 0.135 0.135 0 0 1-0.0417 0.0042c-0.08776 0.00138-0.17553 0.00265-0.26331 0.00328a0.7564 0.7564 0 0 0-0.17821 0.01229 0.36958 0.36958 0 0 1-0.05235 0.00474 0.29129 0.29129 0 0 0-0.05209 0.00627 1.109 1.109 0 0 1-0.28029 0.04281l-0.0818 0.05155a0.58964 0.58964 0 0 0-0.04118 0.08417 0.69562 0.69562 0 0 1-0.13032 0.21454c-0.01226-0.00211-0.02448-8.3e-4 -0.0312-0.00631a0.04475 0.04475 0 0 1-0.01208-0.02734 0.07755 0.07755 0 0 1 0.00355-0.03111c0.0169-0.05722 0.034-0.11437 0.052-0.17126a1.2023 1.2023 0 0 1 0.06338-0.16721 0.48935 0.48935 0 0 0 0.04109-0.11924c-0.00535-0.0223-0.02393-0.0233-0.04085-0.02137a0.08256 0.08256 0 0 0-0.03847 0.01458 0.42474 0.42474 0 0 0-0.04194 0.03948c-0.0867 0.18627-0.15806 0.373-0.23812 0.56014a0.18614 0.18614 0 0 1-0.02879 0.13882c-0.01377 0.014-0.04074 0.01169-0.06709-0.00293a0.14117 0.14117 0 0 1-0.04073-0.03258c-0.03769-0.04629-0.07606-0.09237-0.10933-0.1418-0.02727-0.04053-0.04766-0.0857-0.07106-0.12884a0.4138 0.4138 0 0 1-0.06146-0.16626 0.36647 0.36647 0 0 1-0.09794-0.15872 0.022 0.022 0 0 1 0.0062-0.01844l0.01669 1e-3a0.26967 0.26967 0 0 1 0.02388 0.0343 0.09941 0.09941 0 0 0 0.03212 0.04042c0.00623-0.00216 0.01588-0.00252 0.01814-0.0068 0.01635-0.03084 0.0316-0.06228 0.04643-0.0939 0.01786-0.03809 0.03344-0.07732 0.05269-0.11467a1.8232 1.8232 0 0 0 0.10055-0.20864 0.12522 0.12522 0 0 1 0.02027-0.03649 0.6405 0.6405 0 0 0 0.08063-0.13551 1.0687 1.0687 0 0 1 0.08928-0.14278 0.2078 0.2078 0 0 1 0.0285-0.03089 0.06425 0.06425 0 0 1 0.04694-0.021 0.92269 0.92269 0 0 0 0.27754-0.05336c0.05783-0.01462 0.11494-0.03205 0.17263-0.04722a0.818 0.818 0 0 1 0.20757-0.03005zm-0.85241 1.2567a0.07242 0.07242 0 0 0 0.02828-0.04455 0.778 0.778 0 0 1 0.0342-0.09923c0.04562-0.09068 0.08349-0.18525 0.138-0.27154a0.427 0.427 0 0 0 0.05129-0.11486 0.20641 0.20641 0 0 0-0.00549-0.14382 0.70358 0.70358 0 0 1-0.04372-0.1618l-0.00643-0.03081a0.0283 0.0283 0 0 0-0.03381-0.01649 0.17323 0.17323 0 0 0-0.08815 0.07116 0.87966 0.87966 0 0 0-0.07031 0.12912 1.5201 1.5201 0 0 1-0.11776 0.23472c-0.02039 0.03259-0.03672 0.06779-0.0538 0.10235a0.08467 0.08467 0 0 0 0.00271 0.08085 0.452 0.452 0 0 0 0.02866 0.044 0.94978 0.94978 0 0 1 0.08405 0.14557 0.48049 0.48049 0 0 0 0.02958 0.05561 0.102 0.102 0 0 0 0.0227 0.01972zm2.8918-0.99213c-0.01332 0.01457-0.02095 0.0215-0.02691 0.02965a0.43183 0.43183 0 0 1-0.18721 0.16362 0.17872 0.17872 0 0 0-0.0434 0.02943c-0.00437 0.00348-0.0052 0.01141-0.00869 0.01981a0.53391 0.53391 0 0 0 0.126 0.00407 0.5107 0.5107 0 0 0 0.084-0.00513 0.11108 0.11108 0 0 0 0.057-0.0255 0.07008 0.07008 0 0 0 0.02775-0.04339 0.24482 0.24482 0 0 0-0.02853-0.17257z"/>
 <path d="m0.36055 2.2406a0.33925 0.33925 0 0 0 0.01929-0.13451 0.20113 0.20113 0 0 1 0.0098-0.06183c0.01171-0.04044 0.02421-0.0808 0.03913-0.12014a3.4021 3.4021 0 0 1 0.18178-0.42586 1.7552 1.7552 0 0 0 0.08566-0.20368c0.00763-0.01952 0.01666-0.03849 0.02468-0.05686a0.2666 0.2666 0 0 1 0.10386-0.05036c0.01154 0.00407 0.02162 0.00692 0.03111 0.01111a0.08461 0.08461 0 0 1 0.04883 0.05214c0.02216 0.06663 0.04627 0.13268 0.0664 0.19992a1.9621 1.9621 0 0 0 0.13513 0.33087c0.02235 0.0437 0.04051 0.08953 0.06125 0.13408a0.39941 0.39941 0 0 0 0.02133 0.03583 0.18164 0.18164 0 0 0 0.03282-0.0026c0.0609-0.01689 0.12159-0.03453 0.18232-0.052a0.22515 0.22515 0 0 0 0.03-0.0096 1.089 1.089 0 0 1 0.2843-0.07358 0.42524 0.42524 0 0 0 0.05152-0.01071 0.27329 0.27329 0 0 1 0.14579-5e-5 0.59823 0.59823 0 0 1 0.11069 0.03312 0.46774 0.46774 0 0 1 0.14514 0.11981 0.0598 0.0598 0 0 1-0.01149 0.09145 0.09028 0.09028 0 0 1-0.02042 0.00967 0.35122 0.35122 0 0 1-0.0937-0.06441q-0.02687-0.02522-0.05522-0.04886a0.17772 0.17772 0 0 0-0.12591-0.04492 0.56352 0.56352 0 0 0-0.07353 0.00543c-0.1 0.0186-0.20107 0.03045-0.30138 0.04711-0.09692 0.0161-0.19211 0.0399-0.289 0.05559a0.5437 0.5437 0 0 0-0.1124 0.03452 3.6828 3.6828 0 0 1-0.216 0.36042 1.5694 1.5694 0 0 0-0.0807 0.13564 0.99224 0.99224 0 0 0-0.07758 0.20657 0.647 0.647 0 0 1-0.08064 0.182c-0.00287 0.0052-0.01055 0.00809-0.01645 0.01119s-0.0196-8e-3 -0.02336-0.01834c-0.02876-0.07907-0.05921-0.15758-0.08583-0.23737-0.02549-0.07657-0.04547-0.15501-0.07088-0.23167-0.02317-0.0699-0.05034-0.13844-0.07634-0.20912zm0.24061 0.40856c0.02336-0.04306 0.04525-0.07912 0.06307-0.11708a2.433 2.433 0 0 1 0.211-0.36418c0.02432-0.03467 0.05149-0.06657 0.07714-0.0999a0.06461 0.06461 0 0 0 0.01166-0.06907c-0.02786-0.0608-0.04987-0.12368-0.07215-0.1866-0.041-0.11575-0.08686-0.22976-0.12189-0.34763a0.21037 0.21037 0 0 0-0.018-0.03551 0.03438 0.03438 0 0 0-0.03107 0.0278 1.1678 1.1678 0 0 1-0.10465 0.25216 1.1262 1.1262 0 0 0-0.10857 0.25035c-0.01432 0.05437-0.03038 0.10829-0.03928 0.16381a0.68558 0.68558 0 0 1-0.02169 0.11357 0.11528 0.11528 0 0 0 0.00247 0.07265 0.35945 0.35945 0 0 0 0.02043 0.05977 0.847 0.847 0 0 1 0.06858 0.176 0.4835 0.4835 0 0 0 0.03928 0.086c0.00276 0.00552 0.01067 0.00834 0.0237 0.01786z"/>
 <path d="m1.1844 3.7647a0.12991 0.12991 0 0 1 0.02964-0.06511l0.00914-0.00584c0.05195-0.00822 0.10371-0.01931 0.156-0.02317a0.98881 0.98881 0 0 0 0.15565-0.02508 0.37568 0.37568 0 0 1 0.10407-0.01148 1.1477 1.1477 0 0 0 0.11516-0.00614 0.37422 0.37422 0 0 0 0.11454-0.01365 0.05628 0.05628 0 0 1 0.03111-3e-3 1.0381 1.0381 0 0 0 0.20907-0.00535 0.09375 0.09375 0 0 0 0.03137-0.00278 0.61254 0.61254 0 0 1 0.17737-0.01822 0.34772 0.34772 0 0 0 0.07316-0.00727 0.7462 0.7462 0 0 1 0.16754-0.01382 0.52794 0.52794 0 0 0 0.18774-0.01739 0.08411 0.08411 0 0 1 0.03124-0.00325 0.68174 0.68174 0 0 0 0.16717-0.01663 0.17433 0.17433 0 0 1 0.04193-0.00373 1.1628 1.1628 0 0 0 0.20914-0.01862 0.73186 0.73186 0 0 0 0.21118-0.05978l0.04785-0.022a0.18825 0.18825 0 0 0 0.04765-0.01651 0.10036 0.10036 0 0 0-0.02535-6e-3 0.56709 0.56709 0 0 1-0.09357 0.00871c-0.02746-0.00225-0.05453-0.01155-0.083-0.01128a0.76866 0.76866 0 0 0-0.16771 0.01183 0.49836 0.49836 0 0 1-0.08366 0.0078c-0.08407 0.00473-0.1684-3e-3 -0.25255 0.00857a0.58911 0.58911 0 0 1-0.10487-0.00455 0.54339 0.54339 0 0 0-0.1259 0.00715 0.61219 0.61219 0 0 1-0.08374 0.00716 1.3958 1.3958 0 0 0-0.17814 0.01552 0.46065 0.46065 0 0 1-0.1364 0.00342 0.35746 0.35746 0 0 0-0.13492 9.4e-4 0.31743 0.31743 0 0 1-0.07341 0.00231c-0.07022 3.4e-4 -0.14044 3.1e-4 -0.21065 6.3e-4a0.35274 0.35274 0 0 0-0.12455 0.01636 0.085 0.085 0 0 1-0.0797-0.01542l-0.00367-0.00965a0.08741 0.08741 0 0 1 0.05872-0.0125 0.89144 0.89144 0 0 0 0.136-0.01275 0.69532 0.69532 0 0 1 0.11547-0.00615 1.2635 1.2635 0 0 0 0.18873-0.01469 1.01 1.01 0 0 1 0.13648-0.00814 0.73569 0.73569 0 0 0 0.16753-0.01364 0.29455 0.29455 0 0 1 0.06283-0.0056 0.94937 0.94937 0 0 0 0.16756-0.01558 0.382 0.382 0 0 1 0.07348-0.00345c0.10871-0.00264 0.21759-3.7e-4 0.326-0.011a1.6892 1.6892 0 0 1 0.20939-0.01394 1.1763 1.1763 0 0 1 0.20893-0.02048 1.4019 1.4019 0 0 0 0.16556-0.02947 0.73679 0.73679 0 0 1 0.16755-0.01158c0.00467 0 0.01206 0.00742 0.01327 0.01256a0.02205 0.02205 0 0 1-0.00507 0.01883 0.58909 0.58909 0 0 1-0.12476 0.07589c-0.016 0.00705-0.0318 0.01476-0.0518 0.02409l-0.07038 0.09473a0.74539 0.74539 0 0 1-0.25818 0.09831c-0.02069 0.00357-0.04158 0.00657-0.06251 0.00806a0.91886 0.91886 0 0 0-0.15646 0.01853 0.5614 0.5614 0 0 1-0.11533 0.00751 0.847 0.847 0 0 0-0.14663 0.01221 0.68783 0.68783 0 0 1-0.11537 8e-3 0.88639 0.88639 0 0 0-0.13611 0.01222 0.76341 0.76341 0 0 1-0.11541 0.00748 1.5504 1.5504 0 0 0-0.24119 0.01816 0.82174 0.82174 0 0 1-0.13652 0.00606 0.57173 0.57173 0 0 0-0.11506 0.00924 0.60027 0.60027 0 0 1-0.10456 0.00839 0.57344 0.57344 0 0 0-0.15576 0.02246 0.50478 0.50478 0 0 1-0.15558 0.024 1.499 1.499 0 0 0-0.20791 0.03032c-0.01384 2e-3 -0.02757 0.00561-0.04145 0.00628a0.0331 0.0331 0 0 1-0.03739-0.02904z"/>
 <path d="m1.6568 3.3087 0.01926-0.01589a0.68661 0.68661 0 0 1 0.11372-0.01986c0.09861-0.00172 0.19514-0.02363 0.29348-0.02618a0.14241 0.14241 0 0 0 0.03147-0.00225 0.96727 0.96727 0 0 1 0.2304-0.01754c7e-3 -1e-4 0.0141 1.8e-4 0.02106-6.1e-4 0.05225-0.00587 0.10435-0.01356 0.15676-0.01756a1.1615 1.1615 0 0 0 0.14644-0.01423 0.83649 0.83649 0 0 1 0.12575-0.01017 0.52456 0.52456 0 0 0 0.12534-0.0135 0.1015 0.1015 0 0 1 0.03115-0.00461 1.815 1.815 0 0 0 0.25117-0.024c0.08355-0.00925 0.16644-0.02434 0.25-0.034a1.3334 1.3334 0 0 0 0.23753-0.04408l0.01044-0.00127 0.187-0.00976c0 0.00874 0.00229 0.01625-4e-4 0.02084a0.09774 0.09774 0 0 1-0.05018 0.03652 0.40032 0.40032 0 0 0-0.085 0.041 0.55912 0.55912 0 0 1-0.28586 0.09544c-0.03489 0.00373-0.06961 0.00633-0.10427 0.01311a0.604 0.604 0 0 1-0.09423 0.00723c-0.07719 0.00273-0.15519-0.00142-0.23142 0.0084a2.2023 2.2023 0 0 1-0.23092 0.015c-0.08421 2e-3 -0.16849 5.8e-4 -0.25273 0.00114a0.80182 0.80182 0 0 0-0.10522 0.00334 3.7914 3.7914 0 0 1-0.473 0.01871c-0.08425 0.0012-0.16854-8.4e-4 -0.25281-0.00173-0.01729-2e-4 -0.03451-0.00181-0.06493-0.00349z"/>
 <path d="m2.8294 1.2964 0.0815 0.01833 0.01252 0.01128a0.174 0.174 0 0 1 0.02519 0.09943 0.0852 0.0852 0 0 1-0.05038 0.063 0.11281 0.11281 0 0 1-0.16271-0.06231 0.08075 0.08075 0 0 1 0.03262-0.10036 0.56268 0.56268 0 0 1 0.06126-0.02937z"/>
 <path d="m1.889 2.1501a0.09823 0.09823 0 0 1-0.02033-0.00524 0.08982 0.08982 0 0 1-0.05054-0.049c-0.0064-0.01887-5.3e-4 -0.03668 0.023-0.07559a0.07814 0.07814 0 0 1 0.05978-9e-3 0.04955 0.04955 0 0 1 0.03965 0.04219 0.14819 0.14819 0 0 1 2e-3 0.03082 0.06387 0.06387 0 0 1-0.05356 0.06582z"/>
 <path d="m1.5329 0.83928a0.40254 0.40254 0 0 1-0.01974 0.05371 0.056 0.056 0 0 1-0.08721 0.01834 0.06106 0.06106 0 0 1-0.03-0.06083 0.06493 0.06493 0 0 1 0.05814-0.05028 0.06358 0.06358 0 0 1 0.07881 0.03906z"/>
 <path d="m1.1477 2.2013c0.01742 0.03772 0.03251 0.076 0.04548 0.113-0.01537 0.02014-0.03342 0.0256-0.04325 0.01583a0.15256 0.15256 0 0 1-0.04743-0.10155 0.03445 0.03445 0 0 1 0.013-0.02631c0.00687-0.00453 0.01909-9.7e-4 0.0322-9.7e-4z"/>
 <path d="m0.6938 1.0891-0.01445 0.01044-0.00873-0.0036a0.12176 0.12176 0 0 1-0.02674-0.07464c-4.2e-4 -0.00546 0.0052-0.01219 0.00953-0.017 0.0055-0.00607 0.02144-0.00109 0.02628 0.00618a0.13912 0.13912 0 0 1 0.01411 0.07862z"/>
 <path d="m0.16881 0.59085c-0.00721-0.00344-0.01-0.00853-0.00707-0.01459l0.0071-0.00624-0.00163-0.00129v0.02344z"/>
 <path d="m0.12677 0.67477-0.00754-0.00354c6.5e-4 -0.00551 0.00318-0.00377 0.00607 5e-3z"/>
</svg>
