<svg width="58.473mm" height="58.737mm" version="1.1" viewBox="0 0 58.473 58.737" xmlns="http://www.w3.org/2000/svg">
 <defs>
  <clipPath id="clip0">
   <rect x="548" y="379" width="221" height="222"/>
  </clipPath>
 </defs>
 <g transform="translate(-107.62 -304.17)">
  <g transform="matrix(.26458 0 0 .26458 -37.372 203.9)" clip-path="url(#clip0)">
   <path d="m595.07 586.1c-5e-3 9e-3 -0.065 0.088-0.131 0.175-0.288 0.377-0.838 1.278-0.8 1.31 0.053 0.043 0.557 0.207 0.862 0.281 0.207 0.049 0.417 0.091 0.467 0.093l0.09 3e-3 -0.023-0.248c-0.053-0.563-0.39-1.734-0.465-1.614zm2.97-0.686-0.085 0.02c-0.047 0.012-0.203 0.066-0.347 0.12-0.143 0.055-0.396 0.128-0.562 0.162l-0.301 0.063-0.387-1e-3c-0.213-1e-3 -0.454-0.017-0.536-0.036l-0.148-0.034v0.037c0 0.02 0.067 0.156 0.149 0.303 0.083 0.147 0.2 0.383 0.262 0.525s0.137 0.311 0.166 0.377c0.03 0.065 0.117 0.316 0.194 0.556 0.078 0.24 0.148 0.457 0.157 0.483l0.016 0.046 0.171-0.019c1.068-0.117 2.207-0.505 2.784-0.946l0.134-0.102-0.115-0.188c-0.143-0.234-0.417-0.511-0.724-0.732-0.13-0.093-0.369-0.274-0.532-0.402zm-5.626-1.615c-0.518 0.654-0.776 1.18-0.776 1.581v0.184l0.072 0.141c0.064 0.126 0.175 0.26 0.482 0.586 0.055 0.057 0.178 0.171 0.275 0.253l0.175 0.148h0.457l0.229-0.085c0.326-0.121 0.811-0.448 1.176-0.794l0.313-0.297-0.027-0.044c-0.014-0.024-0.196-0.134-0.403-0.246-0.537-0.288-0.796-0.47-1.514-1.069-0.246-0.205-0.452-0.366-0.459-0.358zm-1.949-1.395 0.015 0.228c0.022 0.326 0.116 0.808 0.238 1.211 0.057 0.192 0.112 0.348 0.122 0.348 0.068 0 0.956-0.64 1.084-0.781l0.067-0.076-0.155-0.177c-0.085-0.097-0.155-0.19-0.156-0.206-4e-3 -0.066-0.149-0.199-0.279-0.255-0.199-0.087-0.819-0.292-0.882-0.292zm3.824-0.604-0.059 0.049-0.06 0.049v0.459l0.097 0.288c0.054 0.157 0.178 0.409 0.277 0.558l0.179 0.27 0.206 0.164c0.227 0.18 0.517 0.338 0.763 0.416 0.088 0.028 0.221 0.052 0.296 0.055l0.136 3e-3 0.091-0.086c0.131-0.123 0.167-0.075-0.733-0.975-0.454-0.453-0.908-0.92-1.01-1.037zm7.164-0.237c-0.211-0.052-0.347-0.031-0.263 0.097 0.034 0.053 0.09 0.188 0.123 0.301l0.061 0.206-0.027 0.149c-0.108 0.601-1.279 1.831-2.463 2.587l-0.211 0.135 0.152 0.095c0.452 0.281 1.188 0.602 1.675 0.73 0.341 0.09 0.369 0.089 0.437-0.01 0.032-0.046 0.076-0.104 0.098-0.129 0.645-0.716 1.166-2.119 1.232-3.319l0.024-0.417-0.117-0.086c-0.221-0.162-0.509-0.286-0.721-0.339zm-5.506-1.696-0.214 0.043-0.116 0.165c-0.274 0.392-0.685 0.937-0.861 1.144-0.239 0.281-0.253 0.221 0.171 0.752 0.42 0.527 0.688 0.799 1.259 1.278 0.496 0.417 0.362 0.43 0.952-0.096 0.272-0.243 0.679-0.587 0.904-0.764l0.41-0.322-0.02-0.278c-0.091-1.23-1.295-2.162-2.485-1.922zm-4.123-1.587-0.116 0.146c-0.599 0.757-1.217 2.232-1.217 2.906 0 0.018 0.12 0.08 0.267 0.139 0.147 0.058 0.325 0.142 0.397 0.186 0.071 0.044 0.156 0.07 0.19 0.057l0.06-0.023-0.022 0.035c-0.012 0.02-1e-3 0.043 0.025 0.052l0.047 0.016 0.189-0.284c0.201-0.302 0.667-0.8 1.119-1.197l0.275-0.241-0.251-0.432c-0.305-0.524-0.639-1.016-0.825-1.214zm5.687-2.019c-4e-3 6e-3 -0.063 0.17-0.132 0.367-0.297 0.844-0.381 1.056-0.586 1.477-0.231 0.475-0.239 0.499-0.161 0.51 0.028 3e-3 0.151 0.018 0.274 0.032 0.906 0.103 2.611 1.11 3.455 2.04 0.097 0.107 0.072 0.106 0.256 0.011 0.085-0.043 0.293-0.133 0.464-0.2 0.17-0.066 0.345-0.137 0.389-0.157 0.043-0.019 0.165-0.072 0.271-0.117l0.193-0.082-0.027-0.109c-0.245-1.015-1.506-2.501-2.657-3.131-0.505-0.276-1.684-0.71-1.739-0.641zm-1.716-0.099-0.367 0.062c-0.711 0.121-1.398 0.365-1.995 0.708l-0.283 0.162-0.044 0.096c-0.023 0.053-0.063 0.223-0.087 0.378l-0.043 0.283 0.026 0.262c0.042 0.408 0.181 0.915 0.387 1.403 0.094 0.225 0.079 0.223 0.335 0.05 0.114-0.077 0.215-0.139 0.225-0.139 0.011 0 0.1-0.055 0.199-0.121 0.254-0.172 0.777-0.41 1.17-0.532l0.336-0.105 0.075-0.127c0.04-0.07 0.142-0.263 0.225-0.428l0.15-0.301 0.047-0.27c0.026-0.149 0.039-0.389 0.028-0.533l-0.019-0.263-0.1-0.218c-0.055-0.12-0.137-0.252-0.182-0.293zm0.804-1.224c4.435-0.034 10.055 4.017 13.125 7.536-2.875 3.332-8.69 6.764-13.125 6.797-4.436 0.034-11.069-2.214-13.491-6.596 1.458-4.373 9.055-7.704 13.491-7.737zm-21.077-24.704-3.247 1.81 1.804 13.659 4.87 1.316 1.985-2.797-1.985-12.507zm10.588-7.471-4.324 6.319 2.595 12.639 4.755 0.394 2.162-3.554-0.865-11.848zm131.98-4.051-3.595 0.836c-15.112 3.516-28.526 12.752-36.92 25.422-3.354 5.066-8.167 10.313-12.291 13.406l-6.782 5.089-2.549-2.281c-1.403-1.254-4.468-3.434-6.818-4.838-2.345-1.409-4.998-3.93-5.89-5.606-2.11-3.957-5.247-3.88-7.085 0.168l-1.463 3.216 11.726 11.807c6.451 6.497 12.011 11.812 12.359 11.812 0.345 0 13.831-13.279 29.967-29.516zm16.366-6.76c-0.439 0.245-3.626 1.735-7.085 3.312l-6.288 2.857v13.947h-14.9l-6.324 6.269c-3.482 3.448-6.325 6.697-6.325 7.215s9.444 0.94 20.993 0.94h20.993l-0.131-17.495c-0.077-9.622-0.494-17.291-0.933-17.045zm-105.99-19.767-1.064 1.908c-0.589 1.05-0.906 5.288-0.711 9.422l0.358 7.519 5.79 3.13 5.786 3.135 3.35 5.883c3.156 5.543 14.365 17.3 16.493 17.3 0.539 0 2.952-1.631 5.365-3.63 2.418-1.999 6.809-7.273 9.765-11.721l5.374-8.087 5.401-2.939c2.975-1.613 5.705-4.048 6.067-5.406 1.34-5.011 0.308-15.128-1.539-15.069-0.824 0.027-8.281 11.535-11.282 17.404-1.015 1.981-3.545 5.229-5.623 7.21l-3.776 3.607h-18.413l-3.191-2.403c-1.757-1.322-4.125-4.025-5.266-6.011-1.14-1.98-4.504-7.577-7.479-12.429zm30.392-1.144c-7.887-0.037-13.401 2.257-16.38 6.818l-1.961 3.003 0.616 5.461c1.286 11.471 13.885 18.113 25.185 13.279 5.972-2.553 9.44-7.096 10.137-13.279l0.611-5.461-1.96-3.003c-2.938-4.497-8.38-6.782-16.248-6.818zm-60.838-0.845c-0.705-0.084-1.413-0.032-1.952 0.177l-1.96 0.754v48.819l-3.912 5.606-3.816-0.618-3.812-0.623-3.006 4.834-3.509-0.518-3.504-0.518v6.928c0 3.807 0.571 8.446 1.272 10.308 1.684 4.471 6.841 9.899 11.305 11.898 4.74 2.122 15.23 2.126 20.287 9e-3 2.223-0.931 9.792-7.423 16.819-14.424l12.78-12.729-0.403-2.09c-0.656-3.43-4.5-3.171-9.824 0.664-4.831 3.48-6.832 4.275-10.014 3.97l-1.499-0.141v-46.792l-2.472-1.327-2.472-1.331-1.72 1.436-1.72 1.431v12.475c0 7.3-0.485 12.47-1.168 12.47-0.698 0-1.3-7.823-1.495-19.403l-0.33-19.403-1.933-1.222c-0.532-0.336-1.236-0.556-1.942-0.64zm18.598-22.084-4.967 2.199c-2.961 1.308-9.801 7.101-16.945 14.342-6.588 6.678-13.727 12.911-15.868 13.847-2.142 0.936-3.894 1.999-3.894 2.367 0 1.822 13.645 13.17 15.836 13.17 0.512 0 0.933-4.865 0.933-10.817v-10.817l2.395-2.403c2.802-2.812 4.704-3.012 7.715-0.804l2.182 1.599 0.575 6.02 0.579 6.019 2.866-0.55c1.575-0.299 3.672 0.123 4.659 0.941l1.788 1.49v16.359l6.288 3.657c3.459 2.013 8.177 5.511 10.481 7.778 2.309 2.262 4.545 4.175 4.975 4.243 0.431 0.068-1.616-4.725-4.545-10.649-2.934-5.928-5.953-13.774-6.718-17.431l-1.395-6.66 1.449-5.42c0.792-2.985 1.444-8.391 1.444-12.021v-6.592l-4.917-4.933zm84.303-0.236-9.788 9.822v7.659c0 4.216 0.543 9.554 1.204 11.862l1.2 4.198-1.182 6.433c-0.652 3.539-3.599 11.548-6.546 17.79l-5.361 11.357 5.605-4.947c3.078-2.721 9.39-6.746 14.026-8.945 4.631-2.199 11.39-4.67 15.012-5.493 3.622-0.827 8.959-2.603 11.853-3.952 5.315-2.476 14.5-10.322 14.5-12.384 0-0.613-1.838-2.108-4.088-3.321-2.245-1.218-8.855-7.155-14.682-13.197-5.831-6.043-13.111-12.312-16.176-13.934zm-120.91-27.158c-0.503 0-7.366 6.487-15.253 14.424l-14.338 14.424 13.677 13.756c7.52 7.569 14.248 13.425 14.954 13.007 0.701-0.414 3.029-2.072 5.17-3.685s3.893-3.557 3.893-4.32-4.024-5.406-8.95-10.313l-8.951-8.922 5.356-5.152 5.361-5.152v-9.031c0-4.97-0.412-9.036-0.919-9.036zm29.919-8.234c-0.655-0.232-1.676 0.479-3.14 2.105l-2.06 2.281 1.276 0.795c0.702 0.432 1.277 1.363 1.277 2.067 0 0.795-0.693 0.704-1.834-0.245l-1.833-1.527-2.956 2.79-2.961 2.789v34.422l5.691-4.375c3.128-2.403 7.37-5.083 9.425-5.951l3.74-1.581-0.992-4.556c-3.938-18.077-4.69-22.157-4.69-25.459 0-2.147-0.288-3.322-0.943-3.555zm95.573-3.164v6.224c0 3.42-0.575 7.741-1.281 9.603-0.707 1.858-1.427 6.356-1.603 9.995-0.172 3.634-0.72 7.523-1.213 8.641l-0.892 2.035 5.79 3.007c3.183 1.654 7.407 4.339 9.381 5.97l3.594 2.962 0.335-16.973 0.335-16.968-7.221-7.246zm-123.38-13.17v63.519l7.76 8.032 3.277-3.961 3.274-3.957 0.031-24.682 0.032-24.677-7.185-7.137zm49.714-0.073v7.814c0 4.297 0.439 9.027 0.978 10.517 0.539 1.485 0.539 2.698 0 2.689-1.729-0.027-6.542-8.527-7.226-12.765-1.616-9.99-2.734-3.821-2.734 15.055 0 23.219 0.869 28.68 6.397 40.096 2.159 4.461 3.518 8.114 3.015 8.114-0.498 0-1.458-0.95-2.132-2.103l-1.218-2.108-0.036 2.153c-0.036 2.149 3.459 9.754 6.936 15.092l1.838 2.821 2.155-4.211c1.186-2.322 3.585-5.348 5.337-6.729 1.748-1.381 4.188-2.512 5.415-2.512 1.231 0 2.237-0.54 2.237-1.204 0-0.658-0.779-1.199-1.73-1.199-2.368 0-3.368-1.958-2.463-4.82 1.064-3.357 2.775-2.999 2.119 0.441l-0.539 2.839 2.803 0.754c4.889 1.313 8.072 0.85 9.24-1.34l1.132-2.122-1.644-2.984c-0.905-1.645-1.666-6.088-1.688-9.881l-0.041-6.892 3.291-3.639 3.296-3.639 6.587-1.704c3.622-0.935 7.665-2.053 8.982-2.485l2.4-0.785-2.232 1.83c-1.222 1.004-4.985 2.422-8.353 3.149-3.373 0.722-7.357 2.471-8.855 3.884l-2.721 2.571v8.132c0 4.475 0.539 8.468 1.195 8.877 0.661 0.409 1.2 1.79 1.2 3.076 0 1.281 0.597 2.33 1.326 2.33 0.829 0 1.037-1.163 0.553-3.103l-0.779-3.107 1.249 0.772c0.684 0.427 1.245 2.145 1.245 3.821v3.044l-2.381 0.627c-2.852 0.749-2.006 2.757 1.159 2.757 3.147 0 9.005 5.256 10.857 9.74l1.557 3.78 1.689-2.253c3.644-4.875 7.23-13.411 8.511-20.285 0.742-3.966 2.159-10.167 3.155-13.783 2.341-8.523 2.282-10.013-0.588-14.733-1.313-2.167-2.391-5.188-2.395-6.719 0-1.531-0.643-3.966-1.426-5.411-0.783-1.444-1.829-5.601-2.327-9.235l-0.91-6.611-4.242-3.906c-4.867-4.484-7.796-4.902-10.825-1.545-1.168 1.299-4.482 3.262-7.357 4.366l-5.229 2.003-5.252-0.595c-2.888-0.327-6.963-1.454-9.059-2.499-2.096-1.049-4.545-1.626-5.451-1.276l-1.639 0.631-0.393-2.798c-0.218-1.536-1.205-2.794-2.192-2.794zm73.487-7.814c-0.434 0-0.516 4.461-0.176 9.917l0.62 9.918 20.499 20.716 20.5 20.711-5.061 5.174-5.057 5.175v7.868c0 7.324 0.525 9.468 2.313 9.468 0.394 0 6.904-6.224 14.46-13.829l13.741-13.829-30.524-30.642c-16.787-16.854-30.876-30.647-31.315-30.647zm-12.079-15.628 4.464 5.111c2.454 2.808 5.542 6.056 6.859 7.21l2.4 2.103h14.107v13.625l6.288 6.873c3.459 3.784 6.691 6.942 7.189 7.014 0.494 0.073 0.897-9.331 0.897-20.897v-21.039h-21.102zm-111.12 0v20.966l6.89 6.992 6.886 6.991 0.344-10.112 0.345-10.113 5.958-0.795c3.277-0.436 6.786-1.109 7.796-1.499l1.833-0.704-1.865-2.068-1.861-2.066 4.813-2.177c2.644-1.199 5.414-2.907 6.148-3.798l1.34-1.617h-19.314zm88.527-5.156 3.133 5.883 3.137 5.888-0.471 5.406c-0.258 2.976-0.874 6.31-1.367 7.414l-0.906 2.003 4.265 2.031c5.351 2.549 8.647 7.823 10.159 16.25 1.594 8.886 4.057 15.665 5.519 15.183 0.661-0.218 2.409-2.181 3.884-4.366 1.476-2.185 3.224-5.933 3.885-8.323 1.847-6.664 1.494-22.396-0.616-27.462-4.464-10.717-13.6-17.881-24.452-19.171zm-19.735-5.447c-9.725-0.623-14.338 1.027-23.51 8.418-4.152 3.344-9.299 6.928-11.441 7.959-4.482 2.167-4.885 3.367-1.498 4.443 3.807 1.213 2.798 2.726-2.395 3.607-4.867 0.827-6.153 2.226-3.115 3.394 0.924 0.354 2.06 2.98 2.531 5.838 1.44 8.786 6.08 17.813 9.154 17.813 0.557 0 1.014-3.412 1.014-7.582 0-4.807 0.643-8.437 1.757-9.918 0.969-1.281 1.774-3.298 1.797-4.484 0.068-3.784 4.509-11.103 9.467-15.596 5.663-5.133 13.07-7.5 19.209-6.128l4.301 0.958-4.79 0.35c-9.783 0.709-12.826 1.767-17.629 6.111-2.698 2.439-5.886 6.6-7.085 9.244-2.282 5.025-2.825 15.065-1.042 19.231l1.032 2.408 0.082-3.467c0.244-9.958 7.343-20.888 16.19-24.918 2.671-1.217 7.474-2.226 10.67-2.24l5.809-0.027 4.188 4.202 4.187 4.203-0.416 6.074-0.412 6.078 2.078-2.58c4.636-5.747 4.994-15.733 0.806-22.547-0.928-1.513-4.342-4.466-7.583-6.56l-5.89-3.807zm7.271-23.033 16.371 16.219 16.366 16.218h45.726v45.107l16.166 16.191 16.172 16.196-14.035 14.119-14.03 14.12 2.106 1.545 2.109 1.549-4.246 4.974-4.242 4.975v6.96l4.192 4.079c2.304 2.244 4.192 4.616 4.192 5.279s-1.888-0.631-4.192-2.875l-4.192-4.08v28.121h-46.156l-15.538 15.623c-8.543 8.595-15.95 15.628-16.461 15.628-0.507 0-6.366-5.388-13.016-11.975l-12.097-11.98-4.364 3.539c-2.404 1.949-6.683 6.247-9.508 9.549-2.825 3.307-7.515 7.41-10.422 9.122-5.763 3.39-15.741 4.807-21.255 3.022-6.144-1.986-11.187-5.961-14.134-11.135l-2.943-5.166-0.426-16-0.421-16 2.187-2.426 2.191-2.431 3.319 0.491 3.323 0.491v-17.927l-4.365-4.843-4.36-4.847 1.947-1.431 1.952-1.427-14.058-13.978-14.057-13.975 16.47-16.572 16.471-16.569v-21.756l-3.595-3.457c-1.979-1.899-3.595-3.993-3.595-4.657 0-0.658 1.616 0.355 3.595 2.254l3.595 3.457v-20.884h41.904l5.7-4.23c3.133-2.321 11.088-9.622 17.679-16.218z" fill-rule="evenodd"/>
  </g>
 </g>
</svg>
