<svg width="98.16mm" height="98.191mm" version="1.1" viewBox="0 0 98.16 98.191" xmlns="http://www.w3.org/2000/svg">
 <g transform="translate(-162.63 -221.34)">
  <path d="m212.24 221.34-0.46457 0.0744c-0.46173 0.0744-10.251 9.6372-10.251 10.014 0 0.10848-0.56406 0.5279-1.2532 0.93173-0.6891 0.40384-1.8084 1.2539-2.4877 1.8893l-1.2351 1.1555-19.63-0.0362-4e-3 0.33641c-2e-3 0.18508-0.0319 2.2073-0.0661 4.4938l-0.062 4.1574-1.0687-1.0485c-1.0559-1.0362-1.974-1.3665-1.974-0.71003 0 0.1861 0.77 1.1013 1.711 2.034l1.7105 1.696-0.27389 0.33021c-0.17085 0.20591-0.2513 2.0069-0.2129 4.7811l0.0615 4.4509-7.0544 7.0394c-3.88 3.8718-7.0544 7.1533-7.0544 7.2921 0 0.25484 11.554 11.873 12.212 12.28l0.35553 0.22014-0.85989 0.29972c-0.47294 0.16495-0.8599 0.45601-0.8599 0.64699 0 0.40587 1.6862 2.5675 2.8717 3.6809l0.82269 0.77256-0.58498 0.70486 0.11731 3.3807 0.1173 3.3802-0.92604-0.108c-1.1323-0.13219-2.5055 0.55244-2.9161 1.4537l-0.29559 0.64905 0.0134 6.8001 0.014 6.8006 0.58136 1.5048c1.2139 3.1398 3.1945 5.0881 6.3448 6.2415l1.6454 0.60203 5.8492-0.1468 1.987-0.98185 1.9875-0.98237 3.2975-3.3833c1.8135-1.8608 3.9196-3.9252 4.6803-4.5873l1.3829-1.2036 5.4808 5.503c3.0144 3.0268 5.6636 5.5035 5.8875 5.5035 0.22388 0 3.5608-3.1552 7.4151-7.0114l7.0078-7.0115 9.9234-4e-3c5.4581-2e-3 10.077-0.10127 10.264-0.22014l0.34055-0.21601-0.152-11.981 1.4996 1.4847 1.5002 1.4847 0.41806-0.16072c0.23012-0.0883 0.41858-0.27096 0.41858-0.40566 0-0.13471-0.84432-1.1144-1.8764-2.1776l-1.8764-1.9332-0.0419-1.6004-0.0419-1.6009 0.57568-0.46664c0.65611-0.53199 2.9962-3.5771 2.9962-3.899 0-0.11687-0.34421-0.33292-0.76482-0.47955l-0.76481-0.26614 6.0565-6.0358c3.331-3.3196 6.0565-6.2164 6.0565-6.4378s-3.1254-3.5297-6.9453-7.3515l-6.9453-6.9489-0.13229-10.251-0.13229-10.251-20.402-0.1384-6.997-7.0172zm-0.40566 1.7694 5.5144 5.4741c3.0331 3.0107 5.4464 5.4599 5.3625 5.4426s-0.74776-0.18453-1.4754-0.37156c-0.7276-0.18702-2.2083-0.35135-3.2902-0.36535l-1.9673-0.0258-1.8356-0.94981c-1.0096-0.52249-2.446-1.1332-3.192-1.357-1.4736-0.44202-5.1109-0.57974-6.3831-0.24185-0.43626 0.11602-0.73406 0.17119-0.66146 0.12299s1.8864-1.8066 4.0302-3.9078zm-3.4711 8.4997 1.8521 0.45372c3.5626 0.87307 7.1738 3.7315 8.0822 6.3975 0.23373 0.68593 0.42261 2.03 0.41961 2.9864l-6e-3 1.7384-0.51418 1.1327c-0.28275 0.62296-0.68208 1.3726-0.88728 1.6655l-0.37311 0.53278 4e-3 -1.6655c6e-3 -2.1587-0.62339-3.6574-2.0696-4.9304-1.8689-1.6451-4.2515-2.0401-7.384-1.2242-3.3925 0.88362-6.3395 3.3707-7.8703 6.642l-0.83096 1.7756-0.11937 2.0655c-0.0658 1.136-0.21319 2.0078-0.32711 1.9374-0.11393-0.0704-0.34851-0.96652-0.52142-1.9916l-0.31419-1.864 0.28422-1.6149c0.15646-0.88824 0.6437-2.3823 1.0826-3.3202l0.79789-1.7053 1.5451-1.512c1.7038-1.6672 3.3303-2.5499 5.4984-2.9853l1.4273-0.28681 1.4852 0.29817c1.5772 0.31676 1.9544 0.24331 1.9544-0.37982 0-0.65991-1.3456-0.95631-3.8633-0.85111l-2.4081 0.10077-1.7921 0.88212c-3.3589 1.6536-5.9699 5.0295-6.7944 8.7845-0.17209 0.78375-0.51327 1.6628-0.75809 1.9539-0.24483 0.29104-0.55186 0.70776-0.68265 0.92604h5.2e-4c-0.13079 0.21828-0.2972 1.8034-0.37 3.5223l-0.1323 3.1254-0.83044-0.87643c-1.414-1.4925-2.3529-3.8729-2.7383-6.9427l-0.23461-1.8676-0.73381-0.58549c-0.40367-0.32187-0.67895-0.63789-0.61185-0.70229s0.95361-0.33837 1.9704-0.60874l1.849-0.49145 0.0868-0.45062 0.0868-0.45061-0.94361-0.3943c-0.51886-0.21678-0.94259-0.48908-0.94206-0.60564 5.1e-4 -0.11657 0.64024-0.55702 1.4221-0.97876 0.78188-0.42173 2.4785-1.6405 3.7698-2.7078 4.507-3.7255 6.1589-4.5559 9.5369-4.7935zm9.0093 2.9771h1.2805c3.1448 0 6.2078 1.3775 8.8196 3.9656 2.7979 2.7725 3.9415 5.6976 3.9465 10.1 6e-3 4.6141-1.1347 8.719-2.9771 10.718-0.58097 0.63028-1.2193 1.1457-1.419 1.1457h-0.36328v-1.0247c0-0.61689-0.2792-1.5248-0.70125-2.28l-0.70125-1.2547-0.20412-2.2391-0.20412-2.2396-0.69867-1.4273c-0.79666-1.6283-2.3192-3.0502-4.0075-3.7429l-1.1591-0.47594 0.17105-0.39688c0.094-0.21828 0.34059-0.99218 0.54829-1.7198l0.37775-1.3229-0.13384-1.7772c-0.14304-1.8953-0.82269-3.7304-1.9079-5.1532zm-22.717 2.249-0.46819 0.35036c-0.25765 0.1925-1.3882 0.78782-2.512 1.3229l-2.0433 0.97255-7e-3 0.44132c-4e-3 0.24253 0.32018 0.68025 0.72037 0.97306l0.7276 0.53279-0.39687 0.14159c-1.3734 0.49077-3.6816 0.83037-4.3729 0.64337-0.4326-0.1171-1.1704-0.14199-1.6397-0.0553l-0.85317 0.15761-0.16537 0.8816c-0.0909 0.48476-0.12376 2.4964-0.0729 4.47h-5.2e-4c0.0509 1.9737 0.0909 3.5885 0.0879 3.5884s-1.1963-1.2209-2.6531-2.7125l-2.6489-2.712 0.14004-4.3656 0.13953-4.3656 8.0093-0.13229zm32.93 0 8.4667 0.0708c4.6566 0.0388 8.6155 0.12437 8.7974 0.19017l0.33073 0.11937v8.3426c0 4.5885-0.0919 8.3426-0.20412 8.3426-0.11218 0-1.273-1.0733-2.5797-2.3854l-2.3756-2.3859-0.13229-3.3688-0.1323-3.3693-6.6854-0.26459-1.4201-1.3059c-0.78092-0.71838-2.0149-1.909-2.7425-2.6458zm-15.319 2.7781 1.0475 0.67955c1.9795 1.2835 2.9241 3.7094 2.2453 5.766v1e-3c-0.45611 1.382-0.67011 1.3535-0.72191-0.0961-0.0523-1.4636-0.51143-2.4754-1.5818-3.4882-2.49-2.3559-6.736-1.3285-9.3028 2.2515l-0.97307 1.3575-0.077-0.53123c-0.21946-1.5157 1.917-4.3231 4.0458-5.3165l1.3229-0.61754 1.9973-3e-3zm-2.4122 2.9089c1.5015-0.0243 2.808 0.68253 3.4282 1.9895l0.47077 0.99219-0.14934 0.91932c-0.19467 1.1996-0.79518 2.0892-1.8412 2.727l-0.84543 0.51521-1.4552-0.0217c-0.80036-0.012-1.7528-0.11219-2.1167-0.22325-1.0556-0.32226-2.7827-1.2642-3.1667-1.727l-0.35295-0.4253 0.36794-0.68678c0.68666-1.283 2.4657-3.0733 3.5383-3.5605 0.71709-0.32574 1.4398-0.48763 2.1224-0.49868zm22.135 1.0614 0.44442 0.24753c0.2444 0.1362 6.3332 6.1444 13.531 13.352l13.087 13.104-11.743 11.819-0.33589-0.18758-0.3359-0.18759 0.0811-3.346 0.0816-3.346 2.2335-2.2898c1.2285-1.2593 2.234-2.4232 2.234-2.5864 0-0.16319-4.1493-4.4151-9.2206-9.449l-9.2206-9.1524-0.15762-3.1295c-0.0866-1.7213-0.27468-3.5163-0.41806-3.9889zm-42.34 1.6164c0.0895-0.0166 0.24635 1.5519 0.34882 3.4856l0.18655 3.5155-1.3792 1.3792c-0.75847 0.75847-1.398 1.3787-1.4211 1.3787s-0.54191-0.52422-1.1529-1.1653l-1.1105-1.1658v-2.742l2.1828-2.328c1.2005-1.2804 2.2561-2.3414 2.3456-2.358zm11.159 1.5565c0.31812 9e-3 0.62817 0.55462 0.82269 1.635 0.19942 1.1076 0.61977 1.381 1.263 0.82165l0.44287-0.38499 1.1514 0.67438c0.63306 0.371 1.9212 0.87187 2.8629 1.1131l1.712 0.43873 3.7068-0.33073 1.8919-0.92655c1.0407-0.50963 2.2714-1.3585 2.7347-1.8862l0.84284-0.95964 0.99735 0.29921c1.4264 0.42735 3.2832 2.1649 3.9155 3.6639 0.29389 0.69671 0.61769 2.152 0.71933 3.2339l0.18449 1.9668 0.77308 1.5312c0.46661 0.92436 0.77308 1.9466 0.77308 2.5797 0 1.3448 0.38718 2.3547 1.2506 3.2598l0.68833 0.7214-0.28629 2.3254c-0.15749 1.2792-0.65478 3.3887-1.1048 4.6876s-0.92925 3.3357-1.0645 4.5263c-0.29208 2.5704-1.0572 4.5643-2.7854 7.2548l-1.2723 1.9802-0.3328-1.1281c-0.62719-2.1241-2.1593-3.6206-4.8075-4.6969l-1.4366-0.58446 0.79272-0.27595c0.43591-0.15196 0.92854-0.53073 1.095-0.84181 0.63516-1.1868-0.4453-3.1451-1.5431-2.7967l-0.52555 0.16692-0.41961-0.59893-0.4191-0.59893v-5.2002l0.37931-0.73381c0.20869-0.40355 0.59563-0.89746 0.85989-1.0981l0.48059-0.36484-0.33072 0.37052c-0.1819 0.20399-0.33073 0.5827-0.33073 0.8413v0.47025l0.99218 0.0176c0.54571 0.01 1.6667 0.0423 2.4913 0.0724l1.4996 0.0543 0.80461-0.59531c0.44276-0.32743 0.99237-0.59532 1.2211-0.59532s0.49046-0.19355 0.58136-0.43046l0.16537-0.43098-0.62839-0.47336c-0.34544-0.26057-0.98914-0.5506-1.4304-0.6444l-0.80202-0.17054 1.6759-0.68161c1.7119-0.69637 2.1992-1.2042 1.6666-1.7368l-0.29972-0.29973-1.1948 0.58033c-0.65715 0.31927-2.113 0.77015-3.2355 1.002-3.1675 0.65427-4.9617 2.151-5.6529 4.715-0.1608 0.59648-0.2455 2.1613-0.1881 3.4778l0.10438 2.3936 0.5855 0.82217c0.78816 1.1069 0.75023 2.0278-0.11162 2.7058-0.38342 0.3016-0.87752 0.54829-1.0976 0.54829-0.65819 0-3.4969-1.11-3.4969-1.3674 0-0.13114 0.19624-0.53818 0.43615-0.90434l0.43614-0.66559-0.28628-0.28629c-0.4473-0.4473-1.1041-0.0434-1.5105 0.92914-0.46891 1.1223-0.25811 1.9481 0.61392 2.405l0.68161 0.35708-1.6102 0.81287c-0.90344 0.45605-2.0339 1.3081-2.5756 1.941-0.53104 0.6204-1.1232 1.6672-1.3157 2.3265l-0.34985 1.1989-1.2847-1.9844c-1.9357-2.99-3.271-6.4806-1.8526-4.8431l0.64286 0.74208 0.30127-0.29559 0.30076-0.29559-1.4531-3.0117c-2.9027-6.0157-3.0826-7.0804-3.0567-18.093l0.0202-8.4667 0.64027 2.0283c0.35242 1.1156 1.1464 2.7825 1.7642 3.7042l1.1234 1.6759 0.59531 0.0847c0.73789 0.10479 0.74855-0.20969 0.0687-1.9983-0.74501-1.9601-0.93065-4.0132-0.53226-5.8906 0.22685-1.0689 0.55314-1.5977 0.87126-1.589zm-22.434 0.79737 2.5895 2.5895 2.589 2.5895 7e-3 11.304h5.2e-4l7e-3 11.304-2.0185 2.3048-3.0282-3.2928-0.0734-13.4zm54.445 6.1567 2.6753 2.758 2.6753 2.7585 0.1323 7.1928c0.0728 3.956 0.13229 7.2097 0.13229 7.2306s-0.65485-0.55315-1.4552-1.2754c-0.80037-0.72223-2.5581-1.8615-3.9057-2.5322l-2.45-1.2196 0.12765-0.416c0.0703-0.22877 0.32429-1.1896 0.5643-2.1353l0.43615-1.7193-0.15348-1.6449-0.15348-1.6449 0.54054-1.2227 0.54105-1.2232 0.14625-2.4531zm-42.407 0.24495 2e-3 1.2294c3e-3 1.6097 0.41938 4.2154 1.0434 6.521 0.27569 1.0186 0.62676 2.6855 0.78031 3.7042 0.15354 1.0186 0.35092 2.1557 0.43822 2.5265l0.15864 0.67386-2.2035 1.096c-1.2119 0.60271-2.9476 1.6976-3.8571 2.4334l-1.6536 1.3379v-14.044l1.2309-1.3157 1.2309-1.3162 0.44339 0.40153c0.92159 0.83407 1.6909 0.18865 0.88573-0.74311l-0.49713-0.57567 0.99891-0.9648zm-13.758 4.3124v7.4192l-2.1167 2.1043c-1.1642 1.1573-2.1167 2.2909-2.1167 2.5187 0 0.2278 1.8288 2.2294 4.0644 4.4483l4.0649 4.0344-0.99219 0.84956c-0.54579 0.46717-1.5119 1.2067-2.1466 1.6438l-1.1539 0.7953-5.8146-5.8937-5.8146-5.8942 6.0131-6.0126zm63.252 2.6717 5.2586 5.239 0.0739 7.3551c0.0407 4.0453 0.0744 7.3525 0.0744 7.3505s-0.74036-0.687-1.6449-1.5214c-0.9045-0.83435-2.1546-2.1296-2.7781-2.8784l-1.1333-1.3617 0.0744-7.0916zm-40.234 1.1017v1.1498l1.1245 0.49351c0.61846 0.27136 1.5719 0.57568 2.1192 0.67644 1.3733 0.25282 1.4404 0.53655 0.10439 0.44235-1.2896-0.091-2.9512 0.65169-2.9512 1.3188 0 0.26744 0.58501 0.77297 1.4552 1.2578l1.4552 0.81081 1.3229-0.15193c0.7276-0.0835 1.6996-0.17317 2.1601-0.19947 1.5651-0.0895 1.4177-0.64962-0.54622-2.0764-1.5544-1.1293-1.1048-0.95536 2.2133 0.85576l0.91674 0.50023 0.53847-0.35554c0.29615-0.19556 0.57867-0.62657 0.62787-0.95808l0.0894-0.60306-0.84387 0.16898-0.8444 0.16898-0.73225-0.52141c-0.91708-0.65302-1.6276-0.93744-4.7697-1.9079-1.3824-0.42697-2.7219-0.84224-2.9766-0.92294zm30.443 7.7484 1.5131 0.66353c2.1895 0.95981 4.1684 2.3879 6.026 4.3496 0.89568 0.94589 2.6277 2.7723 3.8494 4.0582 1.8713 1.9697 3.9706 3.6229 6.4797 5.103l0.50436 0.29714-2.0138 1.987-2.0138 1.9864-2.2195 1.0862c-1.2208 0.59734-3.5887 1.4314-5.2622 1.8536-5.4529 1.376-9.6913 3.3631-12.572 5.8942-0.725 0.63695-1.5415 1.3321-1.8144 1.5446l-0.49609 0.38654 1.0578-2.1105c3.771-7.5234 4.6553-11.155 3.6385-14.943-0.39811-1.4832-0.5413-6.3565-0.23203-7.9029l0.16537-0.82579 0.89658-0.55397c0.49332-0.30489 1.2561-1.0767 1.695-1.7146zm-36.648 0.20878 0.84543 1.1777c0.46521 0.64779 1.2511 1.3701 1.7462 1.6051l0.9002 0.42685 0.16588 0.83044c0.0914 0.45675 0.1664 1.9845 0.1664 3.3951v2.5652l-0.44442 1.4366c-0.6202 2.0051-0.55991 4.9412 0.15451 7.5225 0.32219 1.1642 1.4132 3.8324 2.4247 5.9288 1.0115 2.0965 1.8082 3.8408 1.7704 3.8762s-0.60451-0.41781-1.2594-1.0072c-1.4337-1.2904-4.4768-3.3162-6.0218-4.0091l-1.1219-0.50333v-6.287l-0.3762-0.89968c-0.21913-0.52444-0.7344-1.0852-1.2351-1.3441l-0.85938-0.44441-1.1462 0.15709-1.1457 0.1571v-3.9848l-0.40152-0.77618c-0.99791-1.9297-3.8573-2.0883-5.085-0.28164l-0.46664 0.68678-0.0879 4.6964c-0.0482 2.583-0.18696 4.6964-0.30851 4.6964-0.12154 0-1.1153-0.59767-2.2081-1.3286-1.7886-1.1963-4.1439-3.5458-4.1419-4.132 3.4e-4 -0.12532 0.62542-0.55604 1.3891-0.95704 1.8924-0.99374 4.7425-3.5168 7.4802-6.6223 3.1122-3.5305 6.383-6.0045 8.4982-6.4275zm-8.554 9.5172c0.44661-0.0227 0.91098 0.12557 1.2707 0.45113l0.51676 0.46767 0.1396 16.99h1.0583l0.0718-5.409 0.0718-5.4095 0.43202-0.47749c0.24975-0.27597 0.79952-0.47801 1.3022-0.47801h0.87023l0.82373 1.1762v19.461l0.52916 0.52917c0.96564 0.96564 2.1062 0.64104 4.5816-1.3043 0.92484-0.72679 2.022-1.451 2.4381-1.6092l0.75654-0.28732 0.67593 0.50384c0.37177 0.27728 0.71291 0.69445 0.75861 0.92656 0.1074 0.54571-10.323 10.967-11.904 11.893-0.63959 0.37482-1.89 0.86992-2.7786 1.1002-3.866 1.0018-7.792-0.0471-10.215-2.7296-1.8499-2.0476-2.5688-4.2851-2.5688-7.9933v-2.1198l1.1555 0.17311 1.156 0.17312 0.81235-0.42013c0.4469-0.2311 0.99465-0.67994 1.217-0.99735l0.40411-0.57671 0.68265 0.31057c0.37544 0.17107 0.86714 0.31109 1.093 0.31109 0.81074 0 2.2411-0.87897 2.619-1.6097l0.3855-0.74517v-21.134l0.47853-0.5917c0.29039-0.35861 0.71973-0.55245 1.1663-0.57515zm28.706 0.25476 1.5136 0.43977 1.4821 0.75706 1.0299 1.0976c1.3539 1.4901 1.3692 2.1056 2.2159 3.0773l-0.33589 1.511c-0.6184 2.7836-1.9674 4.5576-4.1853 5.503-1.1336 0.4832-4.5796 0.7212-5.7449 0.39687-3.0696-0.85442-4.9612-4.8747-4.9139-5.6389l0.0672-1.0878-0.0341-1.4268c0.0429-1.4395 1.6527-2.9108 4.0871-4.4049l2.4092-0.11214zm-15.222 0.98547 0.38085 0.52917c1.1463 1.5934 3.6495 5.6563 4.3651 7.0848 1.7102 3.4142 3.5984 4.9135 6.9153 5.4911l1.7854 0.31058 1.7622-0.30644c2.0125-0.35046 2.9441-0.77006 4.486-2.0185l1.0893-0.8816 1.1364-2.1942c0.62493-1.2067 1.6949-3.0276 2.3776-4.0463s1.4407-2.239 1.6841-2.712c0.24343-0.47294 0.55287-0.8599 0.68781-0.8599 0.64825 0 1.0311 4.3396 0.56948 6.4544l-0.16692 0.76585-2.5135 1.3834c-1.5314 0.84293-2.7006 1.6814-2.9921 2.1451-2.468 3.927-3.251 4.9949-4.8385 6.5991-1.0047 1.0153-2.1948 2.1061-2.6443 2.4236l-0.817 0.57722-1.7467-1.4495c-2.0577-1.708-4.5393-4.7105-5.8911-7.1277l-0.9648-1.7255-2.4644-1.3286-2.4639-1.3286-0.32246-1.3426c-0.35991-1.5003-0.22104-4.4302 0.26768-5.6493zm46.917 8.1871-0.0734 7.0192c-0.0402 3.8605-0.12663 7.1701-0.19223 7.3551l-0.11938 0.33642-8.2005-0.0186c-4.5104-0.0104-8.2577-0.11097-8.3271-0.22324s0.9417-1.267 2.2464-2.5662l2.3719-2.3626 3.3688-0.13229 3.3693-0.13229v-6.4678l1.4955-0.55862c0.82258-0.30745 2.0727-0.93933 2.7781-1.404zm-8.755 3.59c0.13245-2e-3 -5.3362 5.5334-12.152 12.3-6.8156 6.7666-12.521 12.303-12.678 12.303-0.15768 0-2.5207-2.2357-5.2508-4.9687l-4.9635-4.9692 0.39378-0.5209c0.21667-0.28661 0.39807-0.75954 0.40307-1.0506l9e-3 -0.52916 0.90279-0.0186 0.9033-0.0191 0.53227 0.94516c0.6814 1.2098 1.6449 2.0792 3.5491 3.2029 0.83795 0.49446 1.9579 1.3441 2.4887 1.8877l0.96531 0.98805 1.2826-1.1534c0.70563-0.63443 1.9266-1.5168 2.713-1.9606 1.7578-0.99205 2.8048-2.0861 3.776-3.9465 1.8125-3.4721 5.499-7.2178 9.2242-9.372 2.1253-1.229 6.8813-3.106 7.9008-3.1182zm-56.315 1.2624c0.41699-0.0115 0.83957 0.16156 1.2397 0.51935l0.46302 0.41393v7.0616l-0.52917 0.52917c-0.67607 0.67607-1.3367 0.67042-2.2133-0.0191l-0.69712-0.54829v-6.8409l0.52917-0.52917c0.37925-0.37925 0.79068-0.57504 1.2077-0.58653zm12.551 4.423 5.8622 0.0662 1.063 1.0253c1.03 0.99368 3.3931 3.8916 3.3931 4.161 0 0.41713-1.0338 0.24684-1.6743-0.27595-0.47163-0.38494-1.0983-0.61082-1.6965-0.61082-0.52175 0-1.435 0.26789-2.0298 0.59532l-1.0816 0.59531-1.9182-0.0775-1.9182-0.078v-2.7001zm18.98 4.8085 2.6143 1.3441c1.4378 0.73925 2.6526 1.5327 2.6996 1.7627l0.0853 0.41806-1.6283 0.99271c-0.89576 0.54601-2.1476 1.3801-2.7818 1.8531l-1.1529 0.8599-0.17983-0.29042c-0.0987-0.15974-1.0283-0.83204-2.066-1.494-2.0282-1.2938-3.0773-2.1451-3.0773-2.497 0-0.12103 1.2346-0.83395 2.7435-1.5844zm-29.504 2.666-1.342 0.7307c-1.2502 0.68045-2.6872 2.2733-2.6872 2.9786 0 0.61972 1.7522 2.2789 3.0406 2.8789v-5.2e-4c0.833 0.3879 1.8211 0.6176 2.6618 0.6196l1.3374 3e-3 1.3751-0.68522c1.3454-0.67044 2.9621-2.2783 2.9621-2.9461 0-0.5622-1.8823-2.4588-3.0127-3.0355l-1.0645-0.54312h-1.635zm1.2051 0.82165 0.0382 0.0341c0.021 0.0189 0.0593 0.0795 0.0847 0.13488l0.046 0.10076 9e-3 0.12144c5e-3 0.0667-9.9e-4 0.17747-0.0129 0.24598l-0.0217 0.12454-0.0698 0.13901c-0.0384 0.0764-0.0855 0.16508-0.10439 0.19741l-0.0341 0.0589-0.15606 0.0481c-0.18211 0.0564-0.42389 0.16604-0.54157 0.24546-0.0456 0.0308-0.0871 0.0558-0.092 0.0558-5e-3 0-0.052 0.0293-0.10439 0.0646-0.11877 0.08-0.11114 0.0807-0.15503-0.0233-0.0951-0.22534-0.16009-0.45899-0.17932-0.6475l-0.0124-0.12093 0.0207-0.13022c0.0111-0.0716 0.0292-0.15024 0.0403-0.17467l0.0201-0.0444 0.13075-0.0749c0.27648-0.15816 0.59473-0.27074 0.92397-0.32659zm0.79478 0.046c0.0255-0.0322 0.57144 0.16821 0.80512 0.29559 0.53275 0.2904 1.1168 0.97596 1.2304 1.4444l0.0124 0.0506-0.0894 0.0377c-0.049 0.0207-0.10543 0.0451-0.12558 0.0543-0.0202 9e-3 -0.10136 0.0421-0.18035 0.0729-0.079 0.0308-0.17544 0.0721-0.21446 0.092-0.0855 0.0436-0.0738 0.0438-0.11885-6e-3 -0.39056-0.42888-1.1804-0.89327-1.5999-0.94103-0.0568-6e-3 -0.11374-0.0133-0.12661-0.015-0.036-5e-3 -0.0322-0.0157 0.0749-0.23513 0.0949-0.19433 0.13352-0.29207 0.27078-0.68161 0.032-0.0907 0.0597-0.16668 0.0615-0.16898zm-2.6334 0.93121 0.0636 0.0677c0.0861 0.0913 0.24088 0.31829 0.38189 0.56017l0.11627 0.19948-0.12712 0.1111c-0.20942 0.1832-0.42519 0.41319-0.51832 0.55242l-0.0873 0.13074-0.0217-7e-3c-0.012-4e-3 -0.0175-0.0147-0.0119-0.0238l0.0103-0.0165-0.0279 0.0108c-0.0154 6e-3 -0.0548-6e-3 -0.0879-0.0263-0.033-0.0203-0.11595-0.0587-0.18397-0.0858-0.068-0.0271-0.12351-0.0562-0.12351-0.0641 0-0.31127 0.28571-0.99173 0.56328-1.341zm2.1151 0.71571c0.47644 0.0159 0.90801 0.40707 0.94465 0.90382l9e-3 0.12816-0.18965 0.14883c-0.10442 0.0817-0.29314 0.24034-0.4191 0.35243-0.27291 0.24289-0.21084 0.23672-0.4408 0.0445-0.26419-0.2209-0.38848-0.3466-0.58291-0.58963-0.19621-0.24528-0.18982-0.21745-0.0791-0.34727 0.0815-0.0956 0.27133-0.34704 0.39842-0.52761l0.0538-0.0765 0.0992-0.0196c0.0689-0.0138 0.13812-0.0193 0.20618-0.0171zm2.2314 0.79065c0.0693-0.0202 0.29265 0.0532 0.44649 0.16537l0.0537 0.0393-0.0108 0.19276c-0.0309 0.55359-0.27197 1.2009-0.57051 1.5317-0.0103 0.0114-0.0307 0.0386-0.0455 0.0599-0.0315 0.0455-0.0444 0.0454-0.20206 4e-3 -0.22578-0.0591-0.56699-0.20706-0.77618-0.33693l-0.0703-0.0439 0.0982-0.062c0.54821-0.34893 1.0901-0.91658 1.1405-1.1942l0.0124-0.0682-0.0284-0.0951c-0.0155-0.0522-0.0414-0.11518-0.0574-0.13953-0.0194-0.0296-0.0133-0.0465 0.01-0.0532zm-3.2055 0.11783 0.0853 0.0987c0.0468 0.0541 0.25697 0.26922 0.46715 0.47852 0.41712 0.41535 0.40054 0.39326 0.34004 0.4501l-0.0429 0.0398-0.0625-2e-3c-0.0346-1e-3 -0.0963-0.012-0.13695-0.0248-0.11401-0.036-0.24853-0.10929-0.35346-0.19223l-0.0956-0.0754-0.0827-0.12506c-0.0457-0.0687-0.10347-0.18438-0.12816-0.25735l-0.045-0.13281v-0.21187l0.0274-0.0227zm-1.771 0.27905h0.0253c0.0294 0 0.31607 0.0949 0.40825 0.13487 0.0602 0.0261 0.12744 0.0869 0.12919 0.11731 4.3e-4 7e-3 0.0334 0.0506 0.0729 0.0956l0.0713 0.0817-0.031 0.0346c-0.059 0.0652-0.47048 0.3607-0.5023 0.3607-5e-3 0-0.0298-0.072-0.0563-0.16019-0.0561-0.18611-0.1-0.40905-0.11007-0.55914zm0.90279 0.64389c3e-3 -4e-3 0.0986 0.0708 0.21239 0.16536 0.33268 0.27641 0.45241 0.36055 0.70125 0.49351 0.0959 0.0512 0.1802 0.10207 0.18707 0.11317l0.0124 0.0202-0.14521 0.13746c-0.16886 0.15955-0.39369 0.31065-0.54467 0.36638l-0.10594 0.0388h-0.21187l-0.0811-0.0682c-0.0446-0.0376-0.10194-0.0902-0.12713-0.11679-0.14238-0.15017-0.19346-0.21186-0.22324-0.27027l-0.0331-0.0651v-0.0848c0-0.18503 0.11935-0.42789 0.35915-0.72967zm2.6055 0.74517 0.13694 0.10697c0.0754 0.0589 0.18643 0.14286 0.24649 0.18604 0.14213 0.10214 0.26892 0.22946 0.33538 0.33744l0.0532 0.0863-0.062 0.0476c-0.26722 0.20382-0.79478 0.38246-1.2893 0.43666l-0.0791 9e-3 -8e-3 -0.0217c-4e-3 -0.0117-0.0366-0.11188-0.0724-0.22272-0.0358-0.11085-0.0762-0.22609-0.0899-0.25632-0.0137-0.0302-0.0484-0.10865-0.077-0.17415s-0.0834-0.17465-0.12144-0.24236c-0.0381-0.0677-0.0692-0.13072-0.0692-0.14004v-0.0165l0.0687 0.0155c0.0378 9e-3 0.14937 0.0163 0.24804 0.0165l0.17984 5.2e-4 0.13901-0.0289c0.0767-0.0158 0.19397-0.0491 0.26045-0.0744 0.0665-0.0253 0.13851-0.0506 0.16019-0.0558zm-1.3756 0.31678c0.0345-0.0552 0.19096 0.48489 0.21549 0.74465l0.0109 0.11473-0.0424-2e-3c-0.023-8.5e-4 -0.11977-0.02-0.21549-0.0429-0.14149-0.0338-0.37509-0.10962-0.39946-0.1297-0.0176-0.0145 0.23748-0.43081 0.37052-0.60462 0.0309-0.0403 0.0578-0.0764 0.0605-0.0806z" stroke-width=".26458"/>
 </g>
</svg>
